<?xml version="1.0" standalone="no"?>
<!DOCTYPE svg PUBLIC "-//W3C//DTD SVG 1.1//EN" "http://www.w3.org/Graphics/SVG/1.1/DTD/svg11.dtd" >
<svg xmlns="http://www.w3.org/2000/svg" xmlns:xlink="http://www.w3.org/1999/xlink" version="1.1">
<metadata></metadata>
<defs>
<font id="halis_rmedium" horiz-adv-x="606" >
<font-face units-per-em="2048" ascent="1638" descent="-410" />
<missing-glyph horiz-adv-x="614" />
<glyph unicode="&#xfb00;" horiz-adv-x="1320" d="M20 850v141q0 13 10 23t23 10h78v88q0 91 29 157.5t81 104.5t115.5 56t139.5 18q160 0 323 -68q95 74 244 74q126 0 248 -51q13 -6 18.5 -19.5t-0.5 -25.5l-45 -125q-6 -12 -18.5 -18.5t-24.5 -2.5q-95 31 -162 31q-58 0 -96.5 -33.5t-38.5 -105.5v-80h166q14 0 23.5 -10 t9.5 -23v-141q0 -14 -9.5 -23.5t-23.5 -9.5h-166v-784q0 -13 -10 -23t-23 -10h-178q-13 0 -23 10t-10 23v784h-325v-784q0 -13 -9.5 -23t-23.5 -10h-178q-14 0 -23.5 10t-9.5 23v784h-78q-13 0 -23 9.5t-10 23.5zM375 1024h325v88q0 49 15 107q-75 28 -172 28 q-74 0 -121 -33.5t-47 -109.5v-80z" />
<glyph unicode="&#xfb01;" horiz-adv-x="1163" d="M20 850v141q0 13 10 23t23 10h78v88q0 167 102.5 254.5t260.5 87.5q125 0 247 -51q14 -6 19.5 -19.5t-0.5 -25.5l-45 -125q-6 -12 -18.5 -18.5t-24.5 -2.5q-95 31 -162 31q-58 0 -96.5 -33.5t-38.5 -105.5v-80h592q13 0 22.5 -9.5t9.5 -23.5v-958q0 -14 -9.5 -23.5 t-22.5 -9.5h-179q-13 0 -22.5 9.5t-9.5 23.5v784h-381v-784q0 -13 -9.5 -23t-23.5 -10h-178q-14 0 -23.5 10t-9.5 23v784h-78q-13 0 -23 9.5t-10 23.5z" />
<glyph unicode="&#xfb02;" horiz-adv-x="1167" d="M20 850v141q0 13 10 23t23 10h78v88q0 90 28.5 157.5t78.5 106t109.5 56.5t129.5 18q84 0 175.5 -32.5t148.5 -90.5l41 78q14 29 47 29h82q13 0 23 -10t10 -23v-1368q0 -13 -10 -23t-23 -10h-176q-13 0 -23 10t-10 23v1116q-29 41 -94 68.5t-131 27.5q-71 0 -116.5 -34.5 t-45.5 -106.5v-80h176q13 0 23 -10t10 -23v-141q0 -14 -10 -23.5t-23 -9.5h-176v-784q0 -13 -9.5 -23t-23.5 -10h-178q-14 0 -23.5 10t-9.5 23v784h-78q-13 0 -23 9.5t-10 23.5z" />
<glyph unicode="&#xfb03;" horiz-adv-x="1716" d="M20 850v141q0 13 10 23t23 10h78v88q0 91 29 157.5t81 104.5t115.5 56t139.5 18q160 0 323 -68q95 74 244 74q126 0 248 -51q13 -6 18.5 -19.5t-0.5 -25.5l-45 -125q-6 -12 -18.5 -18.5t-24.5 -2.5q-95 31 -162 31q-58 0 -96.5 -33.5t-38.5 -105.5v-80h576 q13 0 22.5 -9.5t9.5 -23.5v-958q0 -14 -9.5 -23.5t-22.5 -9.5h-179q-13 0 -22.5 9.5t-9.5 23.5v784h-365v-784q0 -13 -10 -23t-23 -10h-178q-13 0 -23 10t-10 23v784h-325v-784q0 -13 -9.5 -23t-23.5 -10h-178q-14 0 -23.5 10t-9.5 23v784h-78q-13 0 -23 9.5t-10 23.5z M375 1024h325v88q0 49 15 107q-75 28 -172 28q-74 0 -121 -33.5t-47 -109.5v-80z" />
<glyph unicode="&#xfb04;" horiz-adv-x="1738" d="M20 850v141q0 13 10 23t23 10h78v88q0 91 29 157.5t81 104.5t115.5 56t139.5 18q158 0 321 -68q90 70 232 70q84 0 175 -32.5t148 -90.5l41 78q15 29 47 29h82q14 0 23.5 -10t9.5 -23v-1368q0 -13 -9.5 -23t-23.5 -10h-176q-14 0 -23.5 10t-9.5 23v1116q-29 41 -94 68.5 t-131 27.5q-71 0 -116.5 -34.5t-45.5 -106.5v-80h176q14 0 23.5 -10t9.5 -23v-141q0 -14 -9.5 -23.5t-23.5 -9.5h-176v-784q0 -13 -10 -23t-23 -10h-178q-13 0 -23 10t-10 23v784h-327v-784q0 -13 -9.5 -23t-23.5 -10h-178q-14 0 -23.5 10t-9.5 23v784h-78q-13 0 -23 9.5 t-10 23.5zM375 1024h327v88q0 53 13 107q-75 28 -172 28q-74 0 -121 -33.5t-47 -109.5v-80z" />
<glyph unicode="fh" horiz-adv-x="1789" d="M20 850v141q0 13 10 23t23 10h78v88q0 90 28.5 157.5t78.5 106t109.5 56.5t129.5 18q84 0 175.5 -32.5t148.5 -90.5l41 78q14 29 47 29h82q13 0 23 -10t10 -23v-438q43 37 106.5 57t122.5 20q82 0 147 -16t110 -42.5t78 -67t51.5 -82t29.5 -96.5t14.5 -102t3.5 -106v-495 q0 -13 -9.5 -23t-23.5 -10h-176q-14 0 -23.5 10t-9.5 23v495q0 42 -2.5 73.5t-10 69t-23.5 64t-40.5 49.5t-63 34.5t-89.5 10.5q-60 -1 -114 -32t-78 -68v-696q0 -13 -10 -23t-23 -10h-176q-13 0 -23 10t-10 23v1116q-29 41 -94 68.5t-131 27.5q-71 0 -116.5 -34.5 t-45.5 -106.5v-80h176q13 0 23 -10t10 -23v-141q0 -14 -10 -23.5t-23 -9.5h-176v-784q0 -13 -9.5 -23t-23.5 -10h-178q-14 0 -23.5 10t-9.5 23v784h-78q-13 0 -23 9.5t-10 23.5z" />
<glyph unicode="fj" horiz-adv-x="1165" d="M20 850v141q0 13 10 23t23 10h78v88q0 167 102.5 254.5t260.5 87.5q125 0 247 -51q14 -6 19.5 -19.5t-0.5 -25.5l-45 -125q-6 -12 -18.5 -18.5t-24.5 -2.5q-95 31 -162 31q-58 0 -96.5 -33.5t-38.5 -105.5v-80h592q13 0 22.5 -9.5t9.5 -23.5v-993q0 -101 -19 -168 q-56 -198 -251 -233q-40 -7 -84 -7q-146 0 -268 91q-11 8 -13 22.5t5 26.5l71 116q6 12 19.5 15.5t25.5 -2.5q84 -47 146 -47q57 0 91 45.5t34 140.5v819h-381v-784q0 -13 -9.5 -23t-23.5 -10h-178q-14 0 -23.5 10t-9.5 23v784h-78q-13 0 -23 9.5t-10 23.5z" />
<glyph unicode="fk" horiz-adv-x="1763" d="M20 850v141q0 13 10 23t23 10h78v88q0 90 28.5 157.5t78.5 106t109.5 56.5t129.5 18q84 0 175.5 -32.5t148.5 -90.5l41 78q14 29 47 29h82q13 0 23 -10t10 -23v-813l370 411q22 25 56 25h221q9 0 12.5 -9t-2.5 -16l-424 -462l461 -512q6 -7 2.5 -16t-12.5 -9h-230 q-33 0 -55 25l-399 440v-432q0 -13 -10 -23t-23 -10h-176q-13 0 -23 10t-10 23v1116q-29 41 -94 68.5t-131 27.5q-71 0 -116.5 -34.5t-45.5 -106.5v-80h176q13 0 23 -10t10 -23v-141q0 -14 -10 -23.5t-23 -9.5h-176v-784q0 -13 -9.5 -23t-23.5 -10h-178q-14 0 -23.5 10 t-9.5 23v784h-78q-13 0 -23 9.5t-10 23.5z" />
<glyph unicode="fb" horiz-adv-x="1853" d="M20 850v141q0 13 10 23t23 10h78v88q0 90 28.5 157.5t78.5 106t109.5 56.5t129.5 18q84 0 175.5 -32.5t148.5 -90.5l41 78q14 29 47 29h82q13 0 23 -10t10 -23v-400q103 39 217 39q113 0 203.5 -34.5t146.5 -89t93 -126t52 -140.5t15 -138q0 -70 -15 -139.5t-52 -140.5 t-92 -125.5t-143 -88.5t-198 -34q-158 0 -283 96l-18 -49q-10 -31 -43 -31h-92q-13 0 -23 10t-10 23v1116q-28 41 -101 68.5t-137 27.5q-65 0 -107 -35t-42 -106v-80h176q13 0 23 -10t10 -23v-141q0 -14 -10 -23.5t-23 -9.5h-176v-784q0 -13 -9.5 -23t-23.5 -10h-178 q-14 0 -23.5 10t-9.5 23v784h-78q-13 0 -23 9.5t-10 23.5zM1004 305q72 -112 217 -112q57 0 102.5 17.5t73.5 47.5t48 64t29.5 72t13 66t3.5 52q0 33 -6.5 70t-26 82.5t-49.5 81.5t-83.5 60.5t-121.5 24.5q-118 0 -200 -57v-469z" />
<glyph unicode="ffb" horiz-adv-x="2424" d="M20 850v141q0 13 10 23t23 10h78v88q0 91 29 157.5t81 104.5t115.5 56t139.5 18q158 0 321 -68q90 70 232 70q83 0 174.5 -33t148.5 -90l41 78q15 29 47 29h82q14 0 23.5 -10t9.5 -23v-400q107 39 217 39q113 0 203.5 -34.5t146.5 -89t93 -126t52 -140.5t15 -138 q0 -70 -15 -139.5t-52 -140.5t-92 -125.5t-143 -88.5t-198 -34q-157 0 -282 96l-19 -49q-10 -31 -43 -31h-92q-14 0 -23.5 10t-9.5 23v1116q-29 41 -94 68.5t-131 27.5q-72 0 -117 -34t-45 -107v-80h176q14 0 23.5 -10t9.5 -23v-141q0 -14 -9.5 -23.5t-23.5 -9.5h-176v-784 q0 -13 -10 -23t-23 -10h-178q-13 0 -23 10t-10 23v784h-327v-784q0 -13 -9.5 -23t-23.5 -10h-178q-14 0 -23.5 10t-9.5 23v784h-78q-13 0 -23 9.5t-10 23.5zM375 1024h327v88q0 53 13 107q-75 28 -172 28q-74 0 -121 -33.5t-47 -109.5v-80zM1575 305q69 -112 217 -112 q57 0 102.5 17.5t73.5 47.5t48 64t29.5 72t13 66t3.5 52q0 26 -5 56t-16 67.5t-32.5 71t-51.5 62t-77 45.5t-104 17q-121 0 -201 -57v-469z" />
<glyph unicode="ffh" horiz-adv-x="2361" d="M20 850v141q0 13 10 23t23 10h78v88q0 91 29 157.5t81 104.5t115.5 56t139.5 18q158 0 321 -68q90 70 232 70q83 0 174.5 -33t148.5 -90l41 78q15 29 47 29h82q14 0 23.5 -10t9.5 -23v-438q44 39 106.5 58t122.5 19q82 0 147 -16t110 -42.5t78 -67t51.5 -82t29.5 -96.5 t14.5 -102t3.5 -106v-495q0 -14 -9.5 -23.5t-22.5 -9.5h-176q-14 0 -23.5 10t-9.5 23v495q0 51 -3.5 88.5t-17.5 81t-37.5 70.5t-67.5 45t-104 16q-62 -1 -114 -31t-78 -69v-696q0 -13 -9.5 -23t-23.5 -10h-176q-14 0 -23.5 10t-9.5 23v1116q-29 41 -94 68.5t-131 27.5 q-72 0 -117 -34t-45 -107v-80h176q14 0 23.5 -10t9.5 -23v-141q0 -14 -9.5 -23.5t-23.5 -9.5h-176v-784q0 -13 -10 -23t-23 -10h-178q-13 0 -23 10t-10 23v784h-327v-784q0 -13 -9.5 -23t-23.5 -10h-178q-14 0 -23.5 10t-9.5 23v784h-78q-13 0 -23 9.5t-10 23.5zM375 1024 h327v88q0 53 13 107q-75 28 -172 28q-74 0 -121 -33.5t-47 -109.5v-80z" />
<glyph unicode="ffj" horiz-adv-x="1716" d="M20 850v141q0 13 10 23t23 10h78v88q0 91 29 157.5t81 104.5t115.5 56t139.5 18q160 0 323 -68q95 74 244 74q129 0 248 -51q13 -6 18.5 -19.5t-0.5 -25.5l-45 -125q-6 -12 -18.5 -18.5t-24.5 -2.5q-95 31 -162 31q-58 0 -96.5 -33.5t-38.5 -105.5v-80h576 q13 0 22.5 -9.5t9.5 -23.5v-993q0 -103 -20 -171q-58 -199 -257 -231q-36 -6 -77 -6q-80 0 -150 27t-118 64q-11 8 -13 22.5t5 26.5l71 116q6 12 19.5 15.5t25.5 -2.5q84 -47 146 -47q57 0 91 45.5t34 140.5v819h-365v-784q0 -13 -10 -23t-23 -10h-178q-13 0 -23 10t-10 23 v784h-325v-784q0 -13 -9.5 -23t-23.5 -10h-178q-14 0 -23.5 10t-9.5 23v784h-78q-13 0 -23 9.5t-10 23.5zM375 1024h325v88q0 49 15 107q-75 28 -172 28q-74 0 -121 -33.5t-47 -109.5v-80z" />
<glyph unicode="ffk" horiz-adv-x="2349" d="M20 850v141q0 13 10 23t23 10h78v88q0 91 29 157.5t81 104.5t115.5 56t139.5 18q158 0 321 -68q90 70 232 70q83 0 174.5 -33t148.5 -90l41 78q15 29 47 29h82q14 0 23.5 -10t9.5 -23v-813l371 411q22 25 55 25h221q9 0 12.5 -9t-2.5 -16l-424 -462l457 -512 q6 -7 2.5 -16t-12.5 -9h-225q-34 0 -56 25l-399 440v-432q0 -13 -9.5 -23t-23.5 -10h-176q-14 0 -23.5 10t-9.5 23v1116q-29 41 -94 68.5t-131 27.5q-72 0 -117 -34t-45 -107v-80h176q14 0 23.5 -10t9.5 -23v-141q0 -14 -9.5 -23.5t-23.5 -9.5h-176v-784q0 -13 -10 -23 t-23 -10h-178q-13 0 -23 10t-10 23v784h-327v-784q0 -13 -9.5 -23t-23.5 -10h-178q-14 0 -23.5 10t-9.5 23v784h-78q-13 0 -23 9.5t-10 23.5zM375 1024h327v88q0 53 13 107q-75 28 -172 28q-74 0 -121 -33.5t-47 -109.5v-80z" />
<glyph horiz-adv-x="0" />
<glyph horiz-adv-x="682" />
<glyph unicode=" "  horiz-adv-x="614" />
<glyph unicode="&#x09;" horiz-adv-x="614" />
<glyph unicode="&#xa0;" horiz-adv-x="614" />
<glyph unicode="!" horiz-adv-x="688" d="M205 133q0 60 39.5 99.5t99.5 39.5q59 0 99 -39.5t40 -99.5q0 -59 -40.5 -100t-98.5 -41q-59 0 -99 41t-40 100zM223 858v543q0 13 9.5 23t23.5 10h176q14 0 23.5 -10t9.5 -23v-543l-37 -399q0 -13 -10.5 -23t-24.5 -10h-100q-14 0 -24.5 10t-10.5 23z" />
<glyph unicode="&#x22;" horiz-adv-x="774" d="M84 1401q0 14 9 23.5t22 9.5h182q13 0 22 -9.5t7 -23.5l-41 -430q0 -13 -10.5 -23t-24.5 -10h-88q-14 0 -25 10t-12 23zM446 1401q0 14 9 23.5t22 9.5h182q13 0 22 -9.5t7 -23.5l-41 -430q0 -13 -10.5 -23t-24.5 -10h-88q-14 0 -25 10t-12 23z" />
<glyph unicode="#" horiz-adv-x="1177" d="M123 254v127q0 13 9.5 23t23.5 10h139v198h-139q-14 0 -23.5 10t-9.5 23v127q0 14 9.5 23.5t23.5 9.5h139v186q0 13 9.5 23t23.5 10h129q13 0 22.5 -9.5t9.5 -23.5v-186h197v186q0 13 10 23t23 10h129q14 0 23.5 -10t9.5 -23v-186h141q14 0 23.5 -9.5t9.5 -23.5v-127 q0 -13 -9.5 -23t-23.5 -10h-141v-198h141q14 0 23.5 -10t9.5 -23v-127q0 -14 -9.5 -23.5t-23.5 -9.5h-141v-188q0 -13 -9.5 -23t-23.5 -10h-129q-13 0 -23 10t-10 23v188h-197v-188q0 -14 -9.5 -23.5t-22.5 -9.5h-129q-14 0 -23.5 10t-9.5 23v188h-139q-14 0 -23.5 9.5 t-9.5 23.5zM489 414h197v198h-197v-198z" />
<glyph unicode="$" horiz-adv-x="1294" d="M135.5 122.5q-4.5 12.5 1.5 24.5l68 146q6 12 18.5 17t24.5 -1q168 -79 303 -94v432q-51 15 -86.5 27t-82 32t-78 40.5t-65 51t-53 65.5t-32.5 82.5t-13 103.5q0 177 112.5 285t297.5 120v150q0 13 9.5 22.5t23.5 9.5h116q14 0 23.5 -9.5t9.5 -22.5v-158 q171 -27 340 -100q12 -4 18 -17.5t1 -25.5l-68 -150q-4 -13 -17 -18t-26 0q-142 49 -248 71v-364q53 -17 90.5 -30.5t87 -36t83.5 -46t70 -58.5t57.5 -74.5t35.5 -94t14 -117.5q0 -156 -122.5 -266.5t-315.5 -130.5v-125q0 -13 -9.5 -23t-23.5 -10h-116q-14 0 -23.5 10 t-9.5 23v125q-204 16 -399 116q-12 6 -16.5 18.5zM393 1063q0 -57 40.5 -95t117.5 -69v313q-73 -11 -113.5 -45.5t-44.5 -103.5zM733 221q67 14 114.5 49t59.5 84q6 20 2 66q-10 59 -54.5 98t-121.5 70v-367z" />
<glyph unicode="%" horiz-adv-x="1673" d="M61 1118q0 55 16 108.5t50 104.5t98.5 83t151.5 32q86 0 150 -32t98 -83t49.5 -104.5t15.5 -108.5q0 -43 -9 -85.5t-32 -87t-57 -77.5t-89.5 -54t-125.5 -21t-126 21t-91 54t-58 77.5t-32 87t-9 85.5zM256 1118q0 -19 4.5 -39.5t16 -46t37.5 -41.5t63 -16q29 0 51.5 11.5 t34.5 27.5t20 37t10.5 37t2.5 30q0 19 -4.5 40t-16 46t-37 41.5t-61.5 16.5q-37 0 -63 -16.5t-37.5 -42t-16 -46t-4.5 -39.5zM510 31l451 1372q10 31 43 31h139q12 0 18.5 -10t3.5 -21l-448 -1372q-4 -13 -16.5 -22t-26.5 -9h-142q-12 0 -19.5 10t-2.5 21zM983 315 q0 43 9 85.5t32 87t57.5 78.5t90.5 55.5t126 21.5t125.5 -21.5t90 -55.5t57.5 -78.5t32 -87t9 -85.5t-9 -85.5t-32 -87t-57.5 -77.5t-90 -54t-125.5 -21t-126 21t-90.5 54t-57.5 77.5t-32 87t-9 85.5zM1178 315q0 -19 4.5 -39.5t15.5 -46t37 -41.5t63 -16q29 0 51.5 11.5 t34.5 27.5t20 37t10.5 37t2.5 30q0 19 -4.5 40t-16 46t-37 41.5t-61.5 16.5q-37 0 -63 -16.5t-37 -42t-15.5 -46t-4.5 -39.5z" />
<glyph unicode="&#x26;" horiz-adv-x="1458" d="M164 399q0 70 18.5 129t55 105t75.5 79.5t93 67.5l-35 35q-117 129 -117 293q0 64 22.5 123.5t66 109.5t116.5 80.5t164 30.5q84 0 151.5 -29t109 -77.5t63.5 -108t22 -123.5q0 -207 -224 -375l248 -264q46 93 72 217q3 14 14.5 22t24.5 5l135 -25q14 -3 22 -14.5 t7 -24.5q-39 -221 -113 -356l158 -166q9 -10 8.5 -24t-10.5 -23l-109 -100q-10 -9 -24 -9t-23 9l-137 141q-163 -154 -404 -145q-98 2 -183 37.5t-143 93t-91 132t-33 154.5zM399 410q-3 -94 67.5 -153.5t162.5 -59.5q140 0 235 92l-303 321q-160 -105 -162 -200zM479 1133 q-3 -36 2 -66q15 -63 119 -170q68 46 105.5 96t37.5 119q0 57 -34.5 98t-96.5 41q-63 0 -94 -36t-39 -82z" />
<glyph unicode="'" horiz-adv-x="411" d="M84 1401q0 14 9 23.5t22 9.5h182q13 0 22 -9.5t7 -23.5l-41 -430q0 -13 -10.5 -23t-24.5 -10h-88q-14 0 -25 10t-12 23z" />
<glyph unicode="(" horiz-adv-x="614" d="M61 590q0 497 314 962q8 11 21 13.5t24 -4.5l104 -66q12 -8 16 -21.5t-3 -25.5q-232 -438 -232 -856q0 -427 232 -868q7 -12 3 -26t-16 -22l-104 -65q-11 -7 -24 -5t-21 13q-314 462 -314 971z" />
<glyph unicode=")" horiz-adv-x="614" d="M73.5 -302q-3.5 14 2.5 26q233 437 233 868q0 422 -233 856q-6 12 -2.5 25.5t14.5 21.5l105 66q12 7 25.5 4.5t21.5 -13.5q313 -463 313 -962q0 -511 -313 -971q-8 -11 -21.5 -13t-25.5 5l-105 65q-11 8 -14.5 22z" />
<glyph unicode="*" horiz-adv-x="970" d="M135.5 932.5q3.5 13.5 14.5 21.5l161 103l-161 104q-11 8 -14.5 21.5t3.5 25.5l43 74q6 12 19.5 16t25.5 -2l172 -88l9 193q2 14 11.5 23.5t22.5 9.5h86q13 0 23 -9.5t12 -23.5l10 -193l170 88q12 6 24.5 2t20.5 -16l43 -74q6 -12 3 -26t-13 -21l-162 -104l160 -103 q12 -7 15 -21t-3 -26l-43 -73q-8 -12 -20.5 -16.5t-24.5 1.5l-170 86l-10 -190q-2 -14 -12 -23.5t-23 -9.5h-86q-13 0 -22.5 9.5t-11.5 23.5l-9 190l-172 -86q-12 -6 -25.5 -1.5t-19.5 16.5l-43 73q-7 12 -3.5 25.5z" />
<glyph unicode="+" horiz-adv-x="1132" d="M164 627v129q0 13 9.5 22.5t23.5 9.5h272v273q0 13 9.5 23t23.5 10h129q13 0 23 -10t10 -23v-273h272q14 0 23.5 -9.5t9.5 -22.5v-129q0 -13 -9.5 -23t-23.5 -10h-272v-272q0 -14 -10 -23.5t-23 -9.5h-129q-14 0 -23.5 9.5t-9.5 23.5v272h-272q-13 0 -23 10t-10 23z" />
<glyph unicode="," horiz-adv-x="643" d="M164 106q0 61 43 106.5t106 45.5q85 0 125.5 -49t40.5 -119q0 -88 -51.5 -205t-114.5 -207q-9 -12 -23 -15t-26 3l-59 31q-26 16 -12 45q68 128 90 213q-119 25 -119 151z" />
<glyph unicode="-" horiz-adv-x="897" d="M164 520v144q0 13 9.5 22.5t23.5 9.5h503q14 0 23.5 -9.5t9.5 -22.5v-144q0 -14 -9.5 -23.5t-23.5 -9.5h-503q-13 0 -23 9.5t-10 23.5z" />
<glyph unicode="." horiz-adv-x="636" d="M164 141q0 64 46 110t109 46t108.5 -46t45.5 -110t-45.5 -108.5t-108.5 -44.5q-64 0 -109.5 44.5t-45.5 108.5z" />
<glyph unicode="/" horiz-adv-x="798" d="M72 31l450 1372q10 31 43 31h140q12 0 18.5 -10t3.5 -21l-448 -1372q-4 -13 -16.5 -22t-26.5 -9h-142q-12 0 -19.5 10t-2.5 21z" />
<glyph unicode="0" horiz-adv-x="1325" d="M123 694q0 93 15.5 185t55.5 187.5t99 168t154.5 118.5t214.5 46q100 0 184 -32t141.5 -87t100.5 -124.5t67 -150.5t35.5 -158t11.5 -153q0 -78 -11.5 -155.5t-35.5 -159t-67 -150.5t-100.5 -123.5t-141.5 -86t-184 -31.5q-119 0 -214.5 45.5t-154.5 117t-98.5 167 t-55.5 188.5t-16 188zM365 694q0 -46 5.5 -99.5t24.5 -127t49.5 -130.5t87 -97.5t130.5 -40.5t130.5 40.5t86.5 97.5t49 130.5t24.5 127t5.5 99.5t-5.5 99.5t-24.5 127t-49 130t-86.5 97t-130.5 40.5q-62 0 -112 -27.5t-81 -74t-53 -99t-32.5 -111.5t-14.5 -102t-4 -80z" />
<glyph unicode="1" horiz-adv-x="825" d="M98 1022q-15 30 8 49l363 297q28 21 57 21h82q14 0 23.5 -9.5t9.5 -23.5v-1323q0 -13 -9.5 -23t-23.5 -10h-178q-14 0 -23.5 10t-9.5 23v981l-188 -103q-12 -7 -25.5 -3.5t-21.5 14.5z" />
<glyph unicode="2" horiz-adv-x="1095" d="M104 1170q0 14 9 24q101 102 212.5 152.5t219.5 50.5q190 0 309 -102t119 -294q0 -85 -47 -186t-125 -199l-307 -393h407q13 0 23 -9.5t10 -23.5v-157q0 -13 -10 -23t-23 -10h-760q-13 0 -22.5 9.5t-9.5 23.5v28q0 34 20 60l496 635q114 151 114 254q0 75 -45.5 126.5 t-146.5 51.5q-129 0 -291 -146q-10 -9 -24 -8.5t-23 10.5l-96 101q-9 11 -9 25z" />
<glyph unicode="3" horiz-adv-x="1081" d="M95 166q-1 14 7 24l93 109q8 9 21 10t24 -8q60 -48 133 -80.5t133 -32.5q92 0 156.5 52t64.5 147q0 97 -64 150t-157 53h-154q-14 0 -23.5 10t-9.5 23v139q0 14 9.5 23.5t23.5 9.5h154q93 0 157 52.5t64 149.5q0 95 -64.5 147t-156.5 52q-60 0 -133.5 -33t-132.5 -82 q-11 -7 -24 -6t-21 10l-93 109q-8 10 -7 24t11 23q179 158 400 158q105 0 188 -28.5t131 -71t79.5 -99t42.5 -106t11 -97.5q0 -56 -16.5 -114.5t-55 -112.5t-91.5 -78q70 -26 116.5 -122t46.5 -183q0 -33 -5.5 -68t-20 -75t-36 -76t-57.5 -70t-81.5 -58t-110.5 -39t-141 -15 q-222 0 -400 157q-10 9 -11 23z" />
<glyph unicode="4" horiz-adv-x="1161" d="M61 305v72q0 34 19 59l592 922q19 28 51 28h129q14 0 23.5 -9.5t9.5 -22.5v-865h182q14 0 23.5 -9.5t9.5 -22.5v-152q0 -13 -10 -23t-23 -10h-182v-241q0 -13 -9.5 -23t-23.5 -10h-182q-14 0 -23.5 10t-9.5 23v241h-543q-14 0 -23.5 10t-9.5 23zM373 489h264l-2 429z" />
<glyph unicode="5" horiz-adv-x="1146" d="M135 201.5q1 14.5 12 23.5l111 99q23 20 45 -2q110 -121 238 -121q114 0 180.5 74t66.5 174q0 98 -66.5 169.5t-182.5 71.5h-289q-14 0 -23.5 10t-9.5 23v627q0 13 9.5 22.5t23.5 9.5h639q14 0 23.5 -9.5t9.5 -22.5v-150q0 -14 -10 -23.5t-23 -9.5h-430v-272h80 q112 0 200 -30.5t140 -77.5t86 -110.5t46.5 -122t12.5 -118.5q0 -33 -6.5 -70.5t-22.5 -81.5t-40 -85t-63 -80t-87.5 -67.5t-117 -46t-148.5 -17.5q-235 0 -396 190q-9 9 -8 23.5z" />
<glyph unicode="6" horiz-adv-x="1198" d="M125 455q-2 606 571 931q12 7 25.5 4t21.5 -14l76 -116q7 -11 4 -23t-14 -20q-133 -76 -228.5 -175.5t-144.5 -189.5q31 19 78.5 31t85.5 12q111 0 198 -32t137.5 -80.5t83.5 -113t44.5 -121.5t11.5 -114q0 -47 -11.5 -100.5t-45 -117.5t-83.5 -114t-137.5 -84 t-197.5 -34q-80 0 -148 18.5t-115.5 49.5t-85.5 72.5t-61 85t-38 90t-21 84.5t-6 71zM360 444q0 -100 63.5 -172.5t176.5 -72.5q112 0 176 73t64 172q0 100 -62.5 172t-177.5 72q-113 0 -175 -70.5t-65 -173.5z" />
<glyph unicode="7" horiz-adv-x="985" d="M61 1200v150q0 13 9.5 22.5t23.5 9.5h770q14 0 23.5 -9.5t9.5 -22.5v-31q0 -34 -12 -64l-500 -1224q-14 -31 -45 -31h-184q-12 0 -19 10t-2 21l461 1136h-502q-14 0 -23.5 9.5t-9.5 23.5z" />
<glyph unicode="8" horiz-adv-x="1153" d="M123 385q0 97 44 183.5t114 121.5q-71 38 -114.5 119.5t-43.5 185.5q0 48 11 97.5t42.5 106t79.5 99t131 71t188 28.5q106 0 189 -28.5t132 -71t80.5 -99t42.5 -106t11 -97.5q0 -205 -158 -305q70 -43 114 -123.5t44 -181.5q0 -48 -11 -97.5t-42.5 -105.5t-80.5 -99 t-132 -71t-189 -28q-76 0 -141 15t-110.5 39t-81.5 58t-57.5 70t-36 76t-20 75t-5.5 68zM354 385q0 -95 64.5 -147t156.5 -52q94 0 158 52t64 147q0 98 -64 150.5t-158 52.5q-93 0 -157 -53t-64 -150zM354 995q0 -97 64 -149.5t157 -52.5q94 0 158 52t64 150q0 95 -64 147 t-158 52q-92 0 -156.5 -52t-64.5 -147z" />
<glyph unicode="9" horiz-adv-x="1198" d="M123 952q0 32 6 68.5t21 81.5t38 86t61 81t85.5 69t115.5 47t148 18t148 -18.5t115.5 -49.5t85.5 -72.5t61 -85t38 -90t21 -84.5t6 -71q2 -607 -571 -932q-12 -7 -25.5 -4t-21.5 14l-76 117q-8 10 -5 23.5t15 19.5q141 85 230 174.5t143 190.5q-31 -19 -78.5 -31 t-85.5 -12q-111 0 -198 32t-137.5 80.5t-83.5 112.5t-44.5 121t-11.5 114zM358 942q0 -100 62.5 -172t177.5 -72q113 0 175 70.5t65 173.5q0 100 -63.5 173t-176.5 73q-112 0 -176 -73t-64 -173z" />
<glyph unicode=":" horiz-adv-x="636" d="M164 143q0 64 46 110t109 46t108.5 -46t45.5 -110t-45.5 -108.5t-108.5 -44.5q-64 0 -109.5 44.5t-45.5 108.5zM164 872q0 64 46 110t109 46t108.5 -46t45.5 -110t-45.5 -108.5t-108.5 -44.5q-64 0 -109.5 44.5t-45.5 108.5z" />
<glyph unicode=";" horiz-adv-x="643" d="M164 106q0 61 43 106.5t106 45.5q85 0 125.5 -49t40.5 -119q0 -88 -51.5 -205t-114.5 -207q-9 -12 -23 -15t-26 3l-59 31q-26 16 -12 45q68 128 90 213q-119 25 -119 151zM164 872q0 64 46 110t109 46t108.5 -46t45.5 -110t-45.5 -108.5t-108.5 -44.5q-64 0 -109.5 44.5 t-45.5 108.5z" />
<glyph unicode="&#x3c;" horiz-adv-x="882" d="M61 600v12q0 34 29 50l604 366q12 6 25.5 3t19.5 -15l66 -115q6 -12 3 -26t-15 -21l-390 -248l390 -248q12 -7 15 -21t-3 -26l-66 -114q-6 -12 -19.5 -15.5t-25.5 2.5l-604 367q-29 16 -29 49z" />
<glyph unicode="=" horiz-adv-x="1042" d="M164 403v127q0 14 10 23.5t23 9.5h649q14 0 23.5 -9.5t9.5 -23.5v-127q0 -13 -9.5 -22.5t-23.5 -9.5h-649q-14 0 -23.5 9.5t-9.5 22.5zM164 862v129q0 13 10 23t23 10h649q14 0 23.5 -10t9.5 -23v-129q0 -14 -9.5 -23.5t-23.5 -9.5h-649q-13 0 -23 9.5t-10 23.5z" />
<glyph unicode="&#x3e;" horiz-adv-x="882" d="M74 336.5q3 13.5 14 21.5l391 248l-391 248q-11 8 -14 21.5t4 25.5l65 115q6 12 19.5 15t25.5 -3l605 -366q28 -16 28 -50v-12q0 -33 -28 -49l-605 -367q-12 -6 -25.5 -2.5t-19.5 15.5l-65 114q-7 12 -4 25.5z" />
<glyph unicode="?" horiz-adv-x="1150" d="M177 1220.5q0 13.5 9 24.5q105 110 202.5 159.5t225.5 49.5q165 0 269 -93.5t104 -260.5q0 -55 -16 -107.5t-49.5 -104.5t-57.5 -83.5t-67 -81.5q-33 -38 -51.5 -61.5t-35 -53.5t-16.5 -51v-94q0 -14 -9.5 -23.5t-22.5 -9.5h-158q-14 0 -23.5 10t-9.5 23v100q0 79 34 140 t101 135q33 37 50 58t40.5 56.5t34 71t10.5 74.5q0 22 -6.5 44t-22.5 46.5t-51.5 38.5t-85.5 12q-59 -3 -113.5 -36t-127.5 -103q-9 -9 -22.5 -9t-24.5 9l-101 98q-9 9 -9 22.5zM438 125q0 60 42 100.5t102 40.5q59 0 101 -41t42 -100q0 -57 -42.5 -99t-100.5 -42 q-62 0 -103 38.5t-41 102.5z" />
<glyph unicode="@" horiz-adv-x="2342" d="M125 369q-2 239 72.5 445t210.5 354.5t337 233.5t441 85q234 0 429 -75t327 -206t205 -311t73 -389q0 -97 -16.5 -191.5t-55.5 -187.5t-96.5 -163t-147.5 -113.5t-200 -43.5q-85 0 -150 38.5t-100 111.5q-126 -109 -299 -109q-113 0 -204 35.5t-148 91t-95 129t-53.5 145 t-15.5 142.5q0 72 15.5 143.5t53.5 144.5t95 129t148 91t204 35q167 0 295 -105l18 56q10 30 43 30h93q14 0 23 -9.5t9 -22.5v-750q4 -113 101 -113q106 0 174.5 137t68.5 339q0 163 -53.5 303t-153.5 243.5t-252.5 162.5t-340.5 59q-254 0 -441 -110t-284.5 -312 t-94.5 -473q1 -97 25 -192.5t76 -192.5t129 -181t191 -158t255 -124q12 -5 17.5 -17t-0.5 -24l-66 -139q-6 -12 -19.5 -17.5t-25.5 -1.5q-401 143 -608 418.5t-209 628.5zM881 389q0 -32 5.5 -68.5t24 -85.5t48 -87.5t83 -65.5t123.5 -27q150 0 230 123v424q-35 52 -94 87.5 t-136 35.5q-70 0 -124 -27.5t-83.5 -66t-47.5 -88.5t-23.5 -86.5t-5.5 -67.5z" />
<glyph unicode="A" horiz-adv-x="1452" d="M74 31l602 1390q4 13 17 22t28 9h10q31 0 45 -31l602 -1390q5 -11 -1.5 -21t-18.5 -10h-213q-31 0 -45 31l-135 334h-480l-133 -334q-14 -31 -45 -31h-213q-12 0 -18.5 10t-1.5 21zM571 575h310l-154 386z" />
<glyph unicode="B" horiz-adv-x="1370" d="M205 33v1368q0 13 9.5 23t23.5 10h503q112 0 201.5 -27t145 -69.5t92.5 -99.5t52 -111.5t15 -110.5q0 -93 -46.5 -178.5t-129.5 -118.5q83 -35 129.5 -123t46.5 -180q0 -56 -15 -110.5t-52 -111t-92.5 -98.5t-145 -69t-201.5 -27h-503q-14 0 -23.5 10t-9.5 23zM453 225 h309q69 0 118.5 22.5t71.5 56.5t30.5 61.5t8.5 50.5q0 22 -4.5 42.5t-19 45.5t-37.5 44t-64.5 32t-95.5 14h-317v-369zM453 821h317q67 1 114 23.5t68.5 56t30 61.5t8.5 54q0 23 -8.5 51t-30.5 62.5t-71.5 57.5t-118.5 23h-309v-389z" />
<glyph unicode="C" horiz-adv-x="1501" d="M123 719q0 67 10.5 135t35 141t61.5 138.5t94.5 125t129 102.5t169 68t211.5 25q165 0 291.5 -58t230.5 -167q9 -10 8.5 -24t-10.5 -23l-119 -115q-11 -9 -24.5 -8t-22.5 10q-66 66 -162 111t-192 45q-82 0 -150.5 -21.5t-114.5 -56t-82 -82t-56 -94t-33 -97t-17 -87 t-4 -68.5t4 -68.5t17 -87t33 -97t56 -94t82 -82t114.5 -56t150.5 -21.5q96 0 192.5 44.5t177.5 111.5q11 9 24 8t21 -12l105 -132q9 -11 8 -24.5t-12 -22.5q-214 -204 -516 -204q-157 0 -283 47.5t-204 123t-130.5 175t-73 196.5t-20.5 195z" />
<glyph unicode="D" horiz-adv-x="1538" d="M205 33v1368q0 13 9.5 23t23.5 10h469q114 0 211.5 -24t168.5 -65t128 -98.5t94 -120.5t61.5 -134.5t34.5 -138.5t10 -134q0 -98 -20.5 -193t-72 -192t-129.5 -169.5t-203.5 -118.5t-282.5 -46h-469q-14 0 -23.5 10t-9.5 23zM453 225h254q82 0 150 21t114 54.5t81.5 79.5 t55.5 91t32.5 94.5t16.5 85.5t4 68t-4 67.5t-16.5 85t-32.5 94.5t-55.5 90.5t-81.5 78.5t-114 54t-150 21h-254v-985z" />
<glyph unicode="E" horiz-adv-x="1286" d="M205 33v1368q0 13 9.5 23t23.5 10h892q14 0 23.5 -10t9.5 -23v-160q0 -13 -9.5 -23t-23.5 -10h-675v-389h522q13 0 23 -9.5t10 -23.5v-159q0 -13 -10 -23t-23 -10h-522v-369h675q14 0 23.5 -9.5t9.5 -22.5v-160q0 -13 -9.5 -23t-23.5 -10h-892q-14 0 -23.5 10t-9.5 23z " />
<glyph unicode="F" horiz-adv-x="1286" d="M205 33v1368q0 13 9.5 23t23.5 10h892q14 0 23.5 -10t9.5 -23v-160q0 -13 -9.5 -23t-23.5 -10h-675v-389h522q13 0 23 -9.5t10 -23.5v-159q0 -13 -10 -23t-23 -10h-522v-561q0 -13 -9.5 -23t-23.5 -10h-184q-14 0 -23.5 10t-9.5 23z" />
<glyph unicode="G" horiz-adv-x="1476" d="M123 719q0 67 10.5 135t35 141t61.5 138.5t94.5 125t129 102.5t169 68t211.5 25q160 0 276 -49.5t213 -147.5q9 -10 9 -24.5t-9 -24.5l-111 -114q-9 -10 -22.5 -10.5t-22.5 8.5q-64 57 -153.5 95t-179.5 38q-82 0 -150.5 -21.5t-114.5 -56t-82 -82t-56 -94t-33 -97 t-17 -87t-4 -68.5t4 -68.5t17 -87t33 -97t56 -94t82 -82t114.5 -56t150.5 -21.5q186 0 268 76v211h-258q-14 0 -23.5 9.5t-9.5 22.5v156q0 14 9.5 23.5t23.5 9.5h477q13 0 23 -9.5t10 -23.5v-463q0 -33 -25 -55q-201 -188 -495 -188q-157 0 -283 47.5t-204 123t-130.5 175 t-73 196.5t-20.5 195z" />
<glyph unicode="H" horiz-adv-x="1579" d="M205 33v1368q0 13 9.5 23t23.5 10h186q14 0 23.5 -10t9.5 -23v-582h667v582q0 13 10 23t23 10h184q13 0 23 -10t10 -23v-1368q0 -13 -10 -23t-23 -10h-184q-13 0 -23 10t-10 23v561h-667v-561q0 -13 -9.5 -23t-23.5 -10h-186q-14 0 -23.5 10t-9.5 23z" />
<glyph unicode="I" horiz-adv-x="661" d="M205 33v1368q0 13 9.5 23t23.5 10h186q14 0 23.5 -10t9.5 -23v-1368q0 -13 -9.5 -23t-23.5 -10h-186q-14 0 -23.5 10t-9.5 23z" />
<glyph unicode="J" horiz-adv-x="1273" d="M51 367q-4 12 2.5 24.5t18.5 18.5l159 57q12 5 24.5 -0.5t16.5 -17.5q40 -108 106 -169q62 -59 163 -59h10q52 1 94 16t69 37t46.5 53.5t30 60t16 63.5t7 56.5t1.5 45.5v848q0 13 9.5 23t23.5 10h188q14 0 23.5 -10t9.5 -23v-848q0 -53 -6.5 -105t-23 -109t-42 -106.5 t-66.5 -95t-93.5 -78t-126 -52t-160.5 -19.5q-110 0 -195.5 29t-143.5 83t-96 118.5t-65 148.5z" />
<glyph unicode="K" horiz-adv-x="1454" d="M205 33v1368q0 13 9.5 23t23.5 10h186q14 0 23.5 -10t9.5 -23v-559l540 567q22 25 56 25h250q6 0 11 -5.5t5 -11.5q0 -16 -12 -28l-633 -650l676 -690q12 -12 12 -31q0 -7 -5.5 -12.5t-13.5 -5.5h-249q-34 0 -56 25l-581 612v-604q0 -13 -9.5 -23t-23.5 -10h-186 q-14 0 -23.5 10t-9.5 23z" />
<glyph unicode="L" horiz-adv-x="1107" d="M205 33v1368q0 13 9.5 23t23.5 10h186q14 0 23.5 -10t9.5 -23v-1176h495q14 0 23.5 -9.5t9.5 -22.5v-160q0 -13 -9.5 -23t-23.5 -10h-714q-14 0 -23.5 10t-9.5 23z" />
<glyph unicode="M" horiz-adv-x="2064" d="M72 31l467 1392q5 14 16.5 22.5t24.5 8.5q30 0 45 -29l403 -911l404 911q5 12 17.5 20.5t25.5 8.5q33 0 43 -31l467 -1392q3 -11 -4 -21t-19 -10h-203q-33 0 -43 31l-268 866l-391 -901q-8 -19 -29 -19t-29 19l-391 901l-268 -866q-4 -13 -16.5 -22t-26.5 -9h-203 q-12 0 -18.5 10t-3.5 21z" />
<glyph unicode="N" horiz-adv-x="1581" d="M205 33v1390q0 10 7.5 18.5t16.5 8.5q27 0 45 -18l850 -865v834q0 13 10 23t23 10h186q13 0 23 -10t10 -23v-1393q0 -11 -8 -18.5t-20 -7.5q-28 0 -45 20l-846 881v-850q0 -13 -9.5 -23t-23.5 -10h-186q-14 0 -23.5 10t-9.5 23z" />
<glyph unicode="O" horiz-adv-x="1665" d="M123 719q0 67 10.5 135t35 141t61.5 138.5t94.5 125t129 102.5t169 68t211.5 25q113 0 210.5 -25t168.5 -68t128 -102.5t94 -125t61.5 -138.5t35 -141t10.5 -135q0 -69 -10.5 -138t-35 -142.5t-61.5 -139t-94 -124t-128 -101t-168.5 -67.5t-210.5 -25q-157 0 -283 47.5 t-204 123t-130.5 175t-73 196.5t-20.5 195zM377 719q0 -32 4 -68.5t17 -87.5t33 -98t56 -95t82 -82.5t114.5 -56.5t150.5 -22q81 0 149 22t113.5 56.5t81 82.5t55.5 95t32.5 98t16.5 87.5t4 68.5t-4 68.5t-16.5 87t-32.5 97t-55.5 94t-81 82t-113.5 56t-149 21.5 q-82 0 -150.5 -21.5t-114.5 -56t-82 -82t-56 -94t-33 -97t-17 -87t-4 -68.5z" />
<glyph unicode="P" horiz-adv-x="1374" d="M205 33v1368q0 13 9.5 23t23.5 10h507q112 0 201.5 -30t145 -77t93 -109t52 -121.5t14.5 -119.5q0 -101 -42 -189.5t-110 -147.5t-153 -92.5t-172 -33.5h-317v-481q0 -13 -9.5 -23t-23.5 -10h-186q-14 0 -23.5 10t-9.5 23zM457 743h307q55 1 98 19t68 43.5t41.5 58.5 t22 60.5t5.5 52.5q0 35 -10.5 71t-35 74.5t-75.5 63t-122 24.5h-299v-467z" />
<glyph unicode="Q" horiz-adv-x="1681" d="M123 719q0 67 10.5 135t35 141t61.5 138.5t94.5 125t129 102.5t169 68t211.5 25q113 0 210.5 -25t168.5 -68t128 -102.5t94 -125t61.5 -138.5t35 -141t10.5 -135q0 -83 -15.5 -165t-48.5 -165.5t-91.5 -159t-137.5 -129.5l289 -344q14 -18 14 -39q0 -9 -6.5 -15.5 t-15.5 -6.5h-211q-34 0 -55 24l-242 281q-80 -18 -188 -18q-157 0 -283 47.5t-204 123t-130.5 175t-73 196.5t-20.5 195zM377 719q0 -32 4 -68.5t17 -87.5t33 -98t56 -95t82 -82.5t114.5 -56.5t150.5 -22q81 0 149 22t113.5 56.5t81 82.5t55.5 95t32.5 98t16.5 87.5t4 68.5 t-4 68.5t-16.5 87t-32.5 97t-55.5 94t-81 82t-113.5 56t-149 21.5q-82 0 -150.5 -21.5t-114.5 -56t-82 -82t-56 -94t-33 -97t-17 -87t-4 -68.5z" />
<glyph unicode="R" horiz-adv-x="1370" d="M205 33v1368q0 13 9.5 23t23.5 10h503q112 0 201.5 -30t145 -77t93 -109t52 -121.5t14.5 -119.5q0 -150 -84.5 -263t-216.5 -165q38 -82 122 -260t122 -260q5 -9 -2 -19t-17 -10h-204q-33 0 -47 29l-228 485h-239v-481q0 -13 -9.5 -23t-23.5 -10h-182q-14 0 -23.5 10 t-9.5 23zM453 743h307q55 1 98 19t68 43.5t41.5 58.5t22 60.5t5.5 52.5q0 35 -10.5 71t-35 74.5t-75.5 63t-122 24.5h-299v-467z" />
<glyph unicode="S" horiz-adv-x="1294" d="M135.5 122.5q-4.5 12.5 1.5 24.5l68 146q6 12 18.5 17t24.5 -1q223 -98 393 -98q110 0 190 48.5t80 127.5q0 54 -26.5 95t-71 67.5t-102 47t-121.5 39.5t-128 39.5t-121.5 52t-102 72t-71 104.5t-26.5 145q0 189 127 298t330 109q230 0 475 -108q13 -6 18.5 -19.5 t0.5 -25.5l-68 -150q-4 -13 -17 -18t-26 0q-85 33 -183.5 58.5t-154.5 25.5q-55 0 -95.5 -6.5t-76 -23t-55.5 -48t-23 -78.5q1 -46 28 -80.5t72 -57t103.5 -41.5t123 -38.5t128.5 -42.5t122 -58.5t103 -82t71.5 -117.5t26.5 -160q0 -171 -146.5 -286t-367.5 -115 q-148 0 -265 29t-240 91q-12 6 -16.5 18.5z" />
<glyph unicode="T" horiz-adv-x="1243" d="M92 1241v160q0 13 10 23t23 10h993q14 0 23.5 -10t9.5 -23v-160q0 -13 -9.5 -23t-23.5 -10h-373v-1175q0 -14 -9.5 -23.5t-22.5 -9.5h-187q-13 0 -22.5 9.5t-9.5 23.5v1175h-369q-13 0 -23 10t-10 23z" />
<glyph unicode="U" horiz-adv-x="1497" d="M184 551v850q0 13 10 23t23 10h184q13 0 23 -10t10 -23v-850q0 -31 8 -71t31 -89t56.5 -88.5t90.5 -66.5t128 -27t128 27t90 66.5t55 88.5t30 88.5t8 71.5v850q0 13 9.5 23t23.5 10h188q14 0 23.5 -10t9.5 -23v-850q0 -76 -18 -151.5t-61 -151t-106 -133t-161.5 -93.5 t-218.5 -36t-218.5 36t-161 93.5t-105.5 133t-61 151t-18 151.5z" />
<glyph unicode="V" horiz-adv-x="1452" d="M74 1403q-5 11 1.5 21t18.5 10h213q31 0 45 -31l375 -930l373 930q14 31 45 31h213q12 0 18.5 -10t1.5 -21l-602 -1391q-13 -30 -45 -30h-10q-35 0 -45 30z" />
<glyph unicode="W" horiz-adv-x="2263" d="M74 1403q-5 11 1.5 21t18.5 10h213q31 0 45 -31l375 -895l371 930q6 22 32 22q27 0 33 -22l371 -930l375 895q14 31 45 31h213q12 0 18.5 -10t1.5 -21l-606 -1391q-13 -30 -45 -30t-45 30l-361 875l-360 -875q-13 -30 -45 -30q-35 0 -45 30z" />
<glyph unicode="X" horiz-adv-x="1300" d="M71 1424q5 10 15 10h229q34 0 50 -29l286 -475l285 475q16 29 49 29h229q11 0 16 -10t-1 -19l-443 -688l445 -690q6 -7 1 -17t-15 -10h-232q-33 0 -49 29l-285 475l-286 -475q-16 -29 -50 -29h-227q-10 0 -15 10t1 17l442 690l-444 688q-6 9 -1 19z" />
<glyph unicode="Y" horiz-adv-x="1357" d="M78 1405q-5 9 0.5 19t15.5 10h223q34 0 50 -29l313 -533l313 533q16 29 49 29h222q10 0 15 -10t-1 -19l-473 -760v-612q0 -13 -9.5 -23t-23.5 -10h-184q-14 0 -23.5 10t-9.5 23v608z" />
<glyph unicode="Z" horiz-adv-x="1343" d="M164 33v18q0 33 16 62l645 1097h-606q-13 0 -23 10t-10 23v158q0 13 10 23t23 10h940q13 0 23 -10t10 -23q0 -33 -16 -62l-658 -1114h658q14 0 23 -9.5t9 -22.5v-160q0 -14 -9.5 -23.5t-22.5 -9.5h-979q-13 0 -23 10t-10 23z" />
<glyph unicode="[" horiz-adv-x="530" d="M61 -387v1952q0 13 9.5 22.5t23.5 9.5h342q14 0 23.5 -9.5t9.5 -22.5v-121q0 -14 -9.5 -23.5t-23.5 -9.5h-139v-1644h139q14 0 23.5 -9.5t9.5 -23.5v-121q0 -13 -9.5 -23t-23.5 -10h-342q-14 0 -23.5 10t-9.5 23z" />
<glyph unicode="\" horiz-adv-x="798" d="M72 1403q-5 11 2.5 21t19.5 10h139q14 0 26.5 -9t16.5 -22l451 -1372q3 -11 -3.5 -21t-18.5 -10h-142q-33 0 -43 31z" />
<glyph unicode="]" horiz-adv-x="530" d="M61 -266q0 14 9.5 23.5t23.5 9.5h139v1644h-139q-14 0 -23.5 9.5t-9.5 23.5v121q0 13 9.5 22.5t23.5 9.5h342q14 0 23.5 -9.5t9.5 -22.5v-1952q0 -13 -9.5 -23t-23.5 -10h-342q-14 0 -23.5 10t-9.5 23v121z" />
<glyph unicode="^" horiz-adv-x="1267" d="M197 929.5q-1 13.5 8 24.5l387 486q17 20 41 20q26 0 43 -20l387 -486q9 -11 8 -24.5t-12 -22.5l-84 -73q-10 -9 -24 -8.5t-23 10.5l-293 333l-295 -333q-9 -10 -23 -10.5t-24 8.5l-84 73q-11 9 -12 22.5z" />
<glyph unicode="_" horiz-adv-x="843" d="M10 -39q0 13 10 23t23 10h758q13 0 23 -10t10 -23v-84q0 -13 -10 -23t-23 -10h-758q-13 0 -23 10t-10 23v84z" />
<glyph unicode="`" horiz-adv-x="1044" d="M235 1412.5q-3 13.5 5 23.5l77 110q7 10 20.5 12t22.5 -6l254 -211q10 -9 12.5 -23t-5.5 -24l-41 -59q-7 -10 -21.5 -13t-26.5 3l-282 168q-12 6 -15 19.5z" />
<glyph unicode="a" horiz-adv-x="1107" d="M123 297q0 334 428 334q47 0 149 -13v17q-2 82 -21.5 125t-52.5 56t-94 13q-38 0 -108 -16.5t-137 -42.5q-12 -5 -25.5 0.5t-17.5 17.5l-51 117q-5 12 -0.5 25.5t16.5 19.5q165 79 311 88q26 2 51 2q52 0 96 -8q65 -10 109 -30.5t76 -55.5t49.5 -70t27.5 -84.5 t12.5 -89.5t2.5 -94v-575q0 -13 -10 -23t-23 -10h-96q-33 0 -43 31l-14 51q-59 -48 -132 -74t-137 -26q-90 0 -158.5 24t-106.5 58.5t-62 80t-31.5 81.5t-7.5 71zM350 313q0 -63 41.5 -96t104.5 -33q67 0 121 36t83 83v121q-82 10 -129 10q-58 0 -104 -9t-81.5 -37.5 t-35.5 -74.5z" />
<glyph unicode="b" horiz-adv-x="1255" d="M164 33v1368q0 13 10 23t23 10h176q13 0 23 -10t10 -23v-400q103 39 217 39q113 0 203.5 -34.5t146.5 -89t93 -126t52 -140.5t15 -138q0 -70 -15 -139.5t-52 -140.5t-92 -125.5t-143 -88.5t-198 -34q-158 0 -283 96l-18 -49q-10 -31 -43 -31h-92q-13 0 -23 10t-10 23z M406 305q72 -112 217 -112q57 0 102.5 17.5t73.5 47.5t48 64t29.5 72t13 66t3.5 52q0 33 -6.5 70t-26 82.5t-49.5 81.5t-83.5 60.5t-121.5 24.5q-118 0 -200 -57v-469z" />
<glyph unicode="c" horiz-adv-x="1167" d="M123 508q0 74 13.5 143t49.5 141.5t92 126t148 87.5t209 34q210 0 373 -163q9 -9 9 -23t-9 -25l-95 -106q-9 -10 -22.5 -10.5t-22.5 8.5q-49 44 -111 71t-122 27q-124 0 -197 -92.5t-73 -218.5q0 -138 79.5 -215.5t192.5 -77.5q116 0 219 90q10 9 24.5 9t24.5 -9 l115 -102q10 -9 10.5 -23t-8.5 -24q-163 -170 -383 -170q-113 0 -204 34t-148 87.5t-95 124t-53.5 139t-15.5 137.5z" />
<glyph unicode="d" horiz-adv-x="1255" d="M123 512q0 69 15 138t52 140.5t93 126t146.5 89t203.5 34.5q114 0 217 -39v400q0 13 10 23t23 10h176q13 0 23 -10t10 -23v-1368q0 -13 -10 -23t-23 -10h-92q-33 0 -43 31l-19 49q-125 -96 -282 -96q-110 0 -198 34t-143 88.5t-92 125.5t-52 140.5t-15 139.5zM362 512 q0 -30 5 -64.5t22.5 -82t45 -84t79.5 -62.5t119 -26q145 0 217 112v469q-82 57 -201 57q-68 0 -121.5 -24.5t-83.5 -60.5t-49.5 -81.5t-26 -82.5t-6.5 -70z" />
<glyph unicode="e" horiz-adv-x="1114" d="M92 514q0 69 15 137.5t52.5 139.5t94 125t147 88t203.5 34q198 0 308 -117.5t110 -318.5q0 -66 -10 -127q-1 -13 -12 -23t-25 -10h-635q7 -43 22.5 -80.5t44.5 -75.5t79.5 -60.5t117.5 -22.5q132 0 236 67q10 6 24 4t21 -12l78 -104q8 -10 5.5 -25t-12.5 -22 q-159 -123 -352 -123q-113 0 -203.5 34t-147 87.5t-94 124.5t-52.5 140t-15 140zM350 635h441v9q-1 70 -43 124q-46 58 -146 61q-199 -2 -252 -194z" />
<glyph unicode="f" horiz-adv-x="751" d="M20 850v141q0 13 10 23t23 10h78v88q0 167 102.5 254.5t260.5 87.5q125 0 247 -51q14 -6 19.5 -19.5t-0.5 -25.5l-45 -125q-6 -12 -18.5 -18.5t-24.5 -2.5q-95 31 -162 31q-58 0 -96.5 -33.5t-38.5 -105.5v-80h166q13 0 22.5 -9.5t9.5 -23.5v-141q0 -14 -9.5 -23.5 t-22.5 -9.5h-166v-784q0 -13 -9.5 -23t-23.5 -10h-178q-14 0 -23.5 10t-9.5 23v784h-78q-13 0 -23 9.5t-10 23.5z" />
<glyph unicode="g" horiz-adv-x="1167" d="M123 -115q1 37 11.5 74.5t39 76t70.5 56.5q-48 24 -72.5 69.5t-24.5 100.5q0 60 32 111.5t87 62.5q-80 72 -80 221q0 53 11.5 105t41 104.5t73 92t113.5 64t157 24.5q118 0 200 -46l123 113q11 9 24.5 9t22.5 -9l90 -92q9 -9 9 -22.5t-9 -24.5l-110 -123q47 -65 47 -195 q0 -52 -12 -103t-41.5 -103.5t-73.5 -92.5t-113.5 -65t-156.5 -25q-92 0 -154 25q-29 0 -49.5 -17.5t-20.5 -39.5q0 -35 38 -52q33 -16 82 -16h11h36q109 0 193 -10q98 -13 158.5 -37t97 -62.5t50.5 -81.5t14 -100q0 -16 -3 -35t-13.5 -51t-28.5 -61.5t-52 -61t-78.5 -54 t-113.5 -37.5t-153 -15q-107 0 -191.5 21.5t-136 54.5t-85.5 77t-47 86t-13 84zM348 -123q0 -8 5 -18.5t20.5 -24.5t40 -25.5t68.5 -20t100 -9.5q61 0 107.5 10t68.5 23t35 29.5t15.5 24.5t2.5 13q0 20 -10 35.5t-30.5 24t-38 14t-48.5 7.5t-46 2.5t-43 0.5h-13 q-94 0 -148 -12.5t-70 -30t-16 -43.5zM432 657q0 -23 5 -46.5t18.5 -55.5t46 -52t80.5 -20q38 0 67 14.5t44.5 34t25 46t12 45t2.5 34.5q0 23 -5 47.5t-19 56.5t-47 52.5t-80 20.5q-46 0 -78 -19.5t-46.5 -50.5t-20 -57t-5.5 -50z" />
<glyph unicode="h" horiz-adv-x="1191" d="M164 33v1368q0 13 10 23t23 10h176q13 0 23 -10t10 -23v-438q43 37 106.5 57t122.5 20q82 0 147 -16t110 -42.5t78 -67t51.5 -82t29.5 -96.5t14.5 -102t3.5 -106v-495q0 -13 -9.5 -23t-23.5 -10h-176q-14 0 -23.5 10t-9.5 23v495q0 42 -2.5 73.5t-10 69t-23.5 64 t-41 49.5q-24 22 -62 34q-35 11 -82 11h-8q-60 -1 -114 -32t-78 -68v-696q0 -13 -10 -23t-23 -10h-176q-13 0 -23 10t-10 23z" />
<glyph unicode="i" horiz-adv-x="571" d="M147 1346q0 59 40 99t100 40q59 0 99 -40.5t40 -98.5q0 -61 -40 -100.5t-99 -39.5q-60 0 -100 39.5t-40 100.5zM164 33v958q0 13 10 23t23 10h178q13 0 23 -10t10 -23v-958q0 -13 -10 -23t-23 -10h-178q-13 0 -23 10t-10 23z" />
<glyph unicode="j" horiz-adv-x="563" d="M-255 -296.5q-2 14.5 5 26.5l72 116q6 12 19.5 15.5t25.5 -2.5q84 -47 145 -47q57 0 91 45.5t34 140.5v993q0 13 9.5 23t23.5 10h178q14 0 23.5 -10t9.5 -23v-993q0 -101 -19 -168q-56 -198 -251 -233q-40 -7 -84 -7q-147 0 -269 91q-11 8 -13 22.5zM121 1348 q0 59 39.5 99t99.5 40q58 0 98.5 -40.5t40.5 -98.5q0 -61 -40 -100.5t-99 -39.5q-60 0 -99.5 39.5t-39.5 100.5z" />
<glyph unicode="k" horiz-adv-x="1179" d="M164 33v1368q0 13 10 23t23 10h176q13 0 23 -10t10 -23v-813l370 411q22 25 55 25h222q9 0 12.5 -9t-2.5 -16l-424 -462l457 -512q6 -7 2 -16t-13 -9h-225q-33 0 -55 25l-399 440v-432q0 -13 -10 -23t-23 -10h-176q-13 0 -23 10t-10 23z" />
<glyph unicode="l" horiz-adv-x="571" d="M164 33v1368q0 13 10 23t23 10h178q13 0 23 -10t10 -23v-1368q0 -13 -10 -23t-23 -10h-178q-13 0 -23 10t-10 23z" />
<glyph unicode="m" horiz-adv-x="1771" d="M164 33v958q0 13 10 23t23 10h92q33 0 43 -31l18 -49q125 96 283 96q215 0 311 -114l23 18q125 96 282 96q63 0 115 -10t90.5 -26.5t69 -43.5t50.5 -54t34.5 -66t22.5 -72t12 -79t5 -79.5t1 -81.5v-495q0 -13 -9.5 -23t-23.5 -10h-180q-14 0 -23.5 10t-9.5 23v495 q0 120 -5 154q-18 126 -121 144q-17 3 -38 3q-69 0 -127.5 -32.5t-87.5 -77.5q8 -61 8 -191v-495q0 -13 -10 -23t-23 -10h-180q-13 0 -23 10t-10 23v495v30q0 27 0.5 54t-3 53.5t-9 51t-17.5 45t-29 35.5t-43.5 23.5t-61.5 8.5q-71 0 -129.5 -32.5t-87.5 -77.5v-686 q0 -13 -10 -23t-23 -10h-176q-13 0 -23 10t-10 23z" />
<glyph unicode="n" horiz-adv-x="1191" d="M164 33v958q0 13 10 23t23 10h92q33 0 43 -31l18 -49q125 96 283 96q80 0 145 -16t110 -43t78 -67.5t52.5 -83t31 -96.5t15.5 -101.5t4 -104.5v-495q0 -13 -9.5 -23t-23.5 -10h-180q-14 0 -23.5 10t-9.5 23v495q0 45 -3.5 81t-15.5 79t-32.5 72t-58.5 49t-90 20 q-71 0 -129.5 -32.5t-87.5 -77.5v-686q0 -13 -10 -23t-23 -10h-176q-13 0 -23 10t-10 23z" />
<glyph unicode="o" horiz-adv-x="1265" d="M123 514q0 69 15 138t52 140.5t93 126t146.5 89t203.5 34.5t203.5 -34.5t146.5 -89t93 -126t52 -140.5t15 -138q0 -71 -15 -140.5t-52 -140.5t-93 -125t-146.5 -88t-203.5 -34t-203.5 34t-146.5 88t-93 125t-52 140.5t-15 140.5zM362 514q0 -30 5 -64.5t22.5 -82t45 -84 t79.5 -62.5t119 -26q56 0 101.5 17.5t73.5 47.5t48 64t29.5 72t13.5 66t4 52q0 20 -2.5 43t-10 55t-19.5 61.5t-33 59.5t-48 52t-67.5 35.5t-89.5 13.5q-67 0 -119 -26t-79.5 -63t-45 -84.5t-22.5 -82t-5 -64.5z" />
<glyph unicode="p" horiz-adv-x="1255" d="M164 -377v1368q0 13 10 23t23 10h92q33 0 43 -31l18 -49q125 96 283 96q110 0 198 -34t143 -88.5t92 -125.5t52 -140.5t15 -139.5q0 -67 -14 -134t-49 -137t-87.5 -124t-137 -91t-190.5 -42h-65q-95 5 -184 39v-400q0 -13 -10 -23t-23 -10h-176q-13 0 -23 10t-10 23z M406 250q82 -57 200 -57q68 0 121.5 24.5t83.5 60.5t49.5 81.5t26 82.5t6.5 70q0 24 -3.5 52t-13 66t-29.5 72t-48 64t-73.5 47.5t-102.5 17.5q-145 0 -217 -112v-469z" />
<glyph unicode="q" horiz-adv-x="1255" d="M123 512q0 70 15 139.5t52 140.5t92 125.5t143 88.5t198 34q157 0 282 -96l19 49q10 31 43 31h92q13 0 23 -10t10 -23v-1368q0 -13 -10 -23t-23 -10h-176q-13 0 -23 10t-10 23v400q-89 -34 -184 -39h-66q-106 5 -190.5 42t-136.5 91t-87 124t-49 137t-14 134zM362 512 q0 -33 6.5 -70t26 -82.5t49.5 -81.5t83.5 -60.5t121.5 -24.5q119 0 201 57v469q-72 112 -217 112q-67 0 -119 -26t-79.5 -62.5t-45 -84t-22.5 -82t-5 -64.5z" />
<glyph unicode="r" horiz-adv-x="794" d="M164 33v958q0 13 10 23t23 10h92q33 0 43 -31l18 -49q125 96 283 96q31 0 88 -8q14 -3 22 -14.5t5 -24.5l-27 -153q-3 -13 -14 -21t-25 -6q-36 8 -64 8q-74 0 -132 -29.5t-80 -80.5v-678q0 -13 -10 -23t-23 -10h-176q-13 0 -23 10t-10 23z" />
<glyph unicode="s" horiz-adv-x="1026" d="M135.5 99.5q-4.5 13.5 1.5 25.5l60 127q6 12 18.5 17t24.5 -1q150 -75 272 -75q60 0 101.5 26t41.5 66q0 33 -22 58t-58 40t-81.5 31t-93.5 30t-93.5 39t-81.5 55t-58 80.5t-22 114.5q0 143 93 225t247 82q170 0 353 -86q13 -6 17.5 -19t-1.5 -26l-59 -133 q-6 -12 -19 -16.5t-26 0.5q-145 63 -230 63q-138 0 -143 -80q1 -30 30.5 -52.5t76 -38.5t102.5 -33.5t111.5 -43t101.5 -60.5t75 -93.5t29 -134.5q0 -134 -107.5 -218.5t-271.5 -84.5q-107 0 -193 23t-179 73q-12 6 -16.5 19.5z" />
<glyph unicode="t" horiz-adv-x="735" d="M72 848v143q0 14 9.5 23.5t22.5 9.5h78l17 170q1 13 12 23t25 10h157q13 0 23 -9.5t10 -23.5v-170h168q14 0 23.5 -10t9.5 -23v-143q0 -14 -9.5 -23.5t-23.5 -9.5h-168v-528q0 -23 2 -37.5t9 -29.5t23 -21.5t40 -5.5q16 2 112 22q13 3 24.5 -4t14.5 -21l27 -124 q3 -13 -5 -25.5t-22 -15.5q-130 -37 -237 -37q-60 0 -105 21.5t-68.5 51.5t-37.5 70t-17.5 68t-3.5 55v561h-78q-13 0 -22.5 9.5t-9.5 23.5z" />
<glyph unicode="u" horiz-adv-x="1191" d="M123 498v495q0 13 9.5 23t23.5 10h180q14 0 23.5 -10t9.5 -23v-495q0 -45 3.5 -81t15.5 -79t32.5 -72t58.5 -49t90 -20q71 0 129.5 32.5t87.5 77.5v686q0 13 10 23t23 10h176q13 0 23 -10t10 -23v-958q0 -13 -10 -23t-23 -10h-92q-33 0 -43 31l-18 49q-125 -96 -283 -96 q-80 0 -145 16t-110 43t-78 67.5t-52.5 83t-31 96.5t-15.5 101.5t-4 104.5z" />
<glyph unicode="v" horiz-adv-x="1093" d="M70 993q-5 11 1.5 21t18.5 10h201q31 0 45 -31l213 -520l211 520q14 31 45 31h201q11 0 16.5 -10.5t1.5 -20.5l-442 -985q-10 -24 -39 -24q-27 0 -37 24z" />
<glyph unicode="w" horiz-adv-x="1687" d="M74 993q-5 11 1.5 21t18.5 10h201q31 0 45 -31l219 -522l248 547q10 24 37 24t37 -24l247 -547l220 522q14 31 45 31h200q11 0 17 -10.5t2 -20.5l-443 -991q-7 -20 -30 -20t-33 20l-262 551l-262 -551q-10 -20 -33 -20t-33 20z" />
<glyph unicode="x" horiz-adv-x="997" d="M78 29l289 481l-287 485q-6 9 -0.5 19t16.5 10h213q33 0 49 -29l142 -258l139 258q16 29 49 29h215q10 0 16 -10t1 -19l-287 -485l287 -481q5 -9 -1 -19t-16 -10h-217q-33 0 -49 29l-137 254l-140 -254q-16 -29 -49 -29h-217q-10 0 -15.5 10t-0.5 19z" />
<glyph unicode="y" horiz-adv-x="1185" d="M70 993q-5 11 1.5 21t18.5 10h201q31 0 45 -31l258 -649l256 649q14 31 45 31h205q12 0 18.5 -10t1.5 -21l-579 -1370q-14 -31 -45 -31h-195q-12 0 -18.5 10t-1.5 21l184 440z" />
<glyph unicode="z" horiz-adv-x="1032" d="M121 33q0 32 16 61l402 703h-357q-14 0 -23 9.5t-9 22.5v162q0 14 9.5 23.5t22.5 9.5h692q14 0 23.5 -10t9.5 -23v-6q0 -32 -16 -61l-399 -697h393q14 0 23.5 -9.5t9.5 -22.5v-162q0 -13 -10 -23t-23 -10h-731q-14 0 -23.5 10t-9.5 23z" />
<glyph unicode="{" horiz-adv-x="638" d="M61 543v98q0 13 9.5 23t23.5 10h4q35 5 62.5 37t27.5 86v434q0 71 17.5 129t44 94.5t62.5 64t67 40.5t63.5 21t47.5 9.5t22 1.5h33q14 0 23.5 -9.5t9.5 -22.5v-121q0 -14 -10 -23.5t-23 -9.5h-25q-8 0 -17 -2t-24.5 -13t-27 -29.5t-20.5 -57t-9 -89.5v-436 q0 -57 -34.5 -107.5t-78.5 -74.5v-8q44 -22 78.5 -73t34.5 -107v-439q0 -51 9 -89t20.5 -56.5t27.5 -29.5t24.5 -13t16.5 -2h25q13 0 23 -9.5t10 -23.5v-121q0 -13 -10 -23t-23 -10h-33q-7 0 -22 1.5t-47.5 9.5t-63.5 21.5t-67 41t-62.5 63.5t-44 94.5t-17.5 129.5v436 q0 54 -27.5 85t-62.5 36h-4q-14 0 -23.5 10t-9.5 23z" />
<glyph unicode="|" horiz-adv-x="428" d="M123 -379v1925q0 14 9.5 23.5t23.5 9.5h116q14 0 23.5 -9.5t9.5 -23.5v-1925q0 -13 -9.5 -23t-23.5 -10h-116q-14 0 -23.5 10t-9.5 23z" />
<glyph unicode="}" horiz-adv-x="638" d="M61 -254q0 14 9.5 23.5t23.5 9.5h25q8 0 16.5 2t24.5 13t27.5 29.5t20.5 56.5t9 89v439q0 56 34.5 107t78.5 73v8q-44 24 -78.5 74.5t-34.5 107.5v436q0 51 -9 89.5t-20.5 57t-27 29.5t-24.5 13t-17 2h-25q-14 0 -23.5 9.5t-9.5 23.5v121q0 13 9.5 22.5t23.5 9.5h33 q7 0 22 -1.5t47.5 -9.5t63.5 -21t67 -40.5t62.5 -64t44 -94.5t17.5 -129v-434q0 -54 27.5 -86t62.5 -37h4q13 0 23 -10t10 -23v-98q0 -13 -10 -23t-23 -10h-4q-35 -5 -62.5 -36t-27.5 -85v-436q0 -71 -17.5 -129.5t-44 -94.5t-62.5 -63.5t-67 -41t-63.5 -21.5t-47.5 -9.5 t-22 -1.5h-33q-14 0 -23.5 10t-9.5 23v121z" />
<glyph unicode="~" horiz-adv-x="1273" d="M135.5 545.5q-3.5 13.5 3.5 25.5q134 209 332 209q47 0 96 -19t83 -41.5t78 -41.5t83 -19q81 0 172 107q9 9 22.5 10t22.5 -6l96 -78q12 -9 15 -23t-4 -26q-127 -209 -326 -209q-52 0 -105 19.5t-89 43t-78 43t-74 19.5q-88 0 -172 -98q-9 -9 -22.5 -11t-24.5 5l-94 69 q-11 8 -14.5 21.5z" />
<glyph unicode="&#xa1;" horiz-adv-x="688" d="M205 893q0 59 40 100t99 41q58 0 98.5 -41t40.5 -100q0 -60 -40 -99.5t-99 -39.5q-60 0 -99.5 39.5t-39.5 99.5zM223 168l35 399q0 13 10.5 23t24.5 10h100q14 0 24.5 -10t10.5 -23l37 -399v-543q0 -13 -9.5 -23t-23.5 -10h-176q-14 0 -23.5 10t-9.5 23v543z" />
<glyph unicode="&#xa2;" horiz-adv-x="1167" d="M123 508q0 67 11 130t40 129.5t73.5 119t117 92t165.5 53.5v113q0 13 10 23t23 10h117q14 0 23.5 -10t9.5 -23v-111q163 -25 295 -157q9 -9 9 -23t-9 -25l-95 -106q-9 -10 -23 -10.5t-24 8.5q-69 62 -153 86v-582q73 19 143 80q10 9 24.5 9t24.5 -9l115 -102 q10 -9 10.5 -23t-8.5 -24q-135 -144 -309 -166v-121q0 -13 -9.5 -23t-23.5 -10h-117q-13 0 -23 10t-10 23v127q-88 14 -159.5 53.5t-116.5 91.5t-75.5 117t-43 126.5t-12.5 123.5zM365 508q0 -103 45.5 -173t119.5 -99v561q-79 -34 -122 -113.5t-43 -175.5z" />
<glyph unicode="&#xa3;" horiz-adv-x="1277" d="M105 93.5q-3 13.5 4 25.5q77 121 178 172v522h-78q-13 0 -23 9.5t-10 23.5v141q0 13 10 23t23 10h78v88q0 167 102 254.5t260 87.5q126 0 248 -51q13 -6 18.5 -19.5t-0.5 -25.5l-45 -125q-6 -12 -18.5 -18.5t-24.5 -2.5q-95 31 -161 31q-58 0 -97 -33.5t-39 -105.5v-80 h166q14 0 23.5 -10t9.5 -23v-141q0 -14 -9.5 -23.5t-23.5 -9.5h-166v-502q71 -39 99 -53.5t77 -31.5t87 -17q98 0 194 104q9 10 23 11t24 -7l96 -77q11 -9 13.5 -23.5t-4.5 -26.5q-67 -106 -165 -157t-196 -51q-52 0 -105 19.5t-89 42.5t-78 42.5t-74 19.5q-88 0 -172 -98 q-9 -9 -22.5 -11t-24.5 5l-94 70q-11 8 -14 21.5z" />
<glyph unicode="&#xa4;" horiz-adv-x="1345" d="M136 143.5q0 13.5 9 22.5l168 164q-53 98 -53 221q0 136 59 240l-174 176q-9 9 -9 22.5t9 22.5l82 82q9 9 22.5 9t22.5 -9l172 -174q96 57 228 57q135 0 229 -59q27 28 86 88t86 88q9 9 22.5 9t22.5 -9l82 -82q9 -9 9 -22.5t-9 -22.5l-176 -179q59 -104 59 -237 q0 -126 -49 -219l166 -166q9 -9 9 -22.5t-9 -22.5l-82 -82q-9 -9 -22.5 -9t-22.5 9l-158 156q-101 -70 -243 -70q-154 0 -244 68q-105 -105 -156 -154q-9 -9 -22.5 -9t-22.5 9l-82 82q-9 9 -9 22.5zM508 551q0 -18 3 -39.5t13.5 -50t27.5 -51t48 -38.5t72 -16t72 16t48 38.5 t27.5 51t13.5 50t3 39.5t-3 39.5t-13.5 50.5t-27.5 52t-48 39t-72 16t-72 -16t-48 -39t-27.5 -52t-13.5 -50.5t-3 -39.5z" />
<glyph unicode="&#xa5;" horiz-adv-x="1341" d="M70 1405q-5 9 0.5 19t15.5 10h221q33 0 49 -29l314 -533l313 533q16 29 49 29h225q11 0 16 -10t-1 -19l-473 -754h196q13 0 23 -9.5t10 -23.5v-129q0 -13 -9.5 -22.5t-23.5 -9.5h-200v-144h200q14 0 23.5 -9.5t9.5 -22.5v-127q0 -14 -10 -23.5t-23 -9.5h-200v-88 q0 -13 -9.5 -23t-23.5 -10h-184q-14 0 -23.5 10t-9.5 23v88h-199q-14 0 -23.5 9.5t-9.5 23.5v127q0 13 9.5 22.5t23.5 9.5h199v144h-199q-14 0 -23.5 9.5t-9.5 22.5v129q0 14 9.5 23.5t23.5 9.5h193z" />
<glyph unicode="&#xa6;" horiz-adv-x="425" d="M123 340q0 14 9.5 23.5t23.5 9.5h114q14 0 23.5 -9.5t9.5 -23.5v-715q0 -13 -9.5 -23t-23.5 -10h-114q-14 0 -23.5 10t-9.5 23v715zM123 838v714q0 14 9.5 23.5t23.5 9.5h114q14 0 23.5 -9.5t9.5 -23.5v-714q0 -14 -9.5 -23.5t-23.5 -9.5h-114q-14 0 -23.5 9.5t-9.5 23.5 z" />
<glyph unicode="&#xa7;" horiz-adv-x="1210" d="M176 -229q-1 14 8 26l95 119q9 11 22.5 13t24.5 -5q67 -48 141.5 -81t132.5 -33q64 0 113 35.5t49 97.5q0 103 -238 223q-144 66 -233.5 167.5t-89.5 233.5q0 82 38.5 149t88.5 111q-113 127 -113 258q0 62 25 123.5t73 115t128.5 87t181.5 33.5q175 0 368 -131 q11 -8 13 -21t-5 -24l-90 -131q-8 -11 -21.5 -14t-25.5 3q-135 80 -229 86q-82 0 -124.5 -34.5t-45.5 -81.5q0 -53 50.5 -102.5t141.5 -92.5q66 -30 118 -59t105.5 -69t88.5 -81.5t57.5 -95.5t22.5 -113q0 -148 -140 -268q119 -139 119 -278q0 -159 -116 -260t-283 -101 q-232 0 -439 172q-11 9 -12 23zM440 584q0 -39 19 -72t52.5 -57.5t66 -43t74.5 -39.5t63 -34q67 58 71 131q0 36 -35.5 73.5t-73.5 59.5t-98.5 52t-74.5 38q-19 -18 -29.5 -29t-22.5 -33.5t-12 -45.5z" />
<glyph unicode="&#xa8;" horiz-adv-x="1191" d="M217 1348q0 59 39.5 99t99.5 40q59 0 99.5 -40.5t40.5 -98.5q0 -61 -40.5 -100.5t-99.5 -39.5q-60 0 -99.5 39.5t-39.5 100.5zM696 1348q0 59 40 99t100 40q58 0 98.5 -40.5t40.5 -98.5q0 -61 -40 -100.5t-99 -39.5q-60 0 -100 39.5t-40 100.5z" />
<glyph unicode="&#xa9;" horiz-adv-x="1200" d="M82 930q0 131 67.5 249t188 191.5t262.5 73.5q215 0 366.5 -151.5t151.5 -366.5t-151.5 -366.5t-366.5 -151.5q-98 0 -192 40t-166 108t-116 166t-44 208zM211 926q0 -163 113 -276t276 -113t276 113t113 276t-113 277t-276 114t-276 -114t-113 -277zM313 924 q0 -44 15.5 -91t47.5 -92.5t91 -74.5t135 -29q120 0 205 82q9 9 8.5 23.5t-10.5 23.5l-37 31q-25 21 -51 2q-59 -39 -115 -39q-61 0 -104 45t-43 119t43 118.5t104 44.5q58 0 115 -40q29 -18 51 4l37 30q10 9 10.5 23t-8.5 24q-85 82 -205 82q-76 0 -135 -29t-91 -74 t-47.5 -92t-15.5 -91z" />
<glyph unicode="&#xaa;" horiz-adv-x="821" d="M82 897q0 252 321 252q21 0 113 -10v12q-3 90 -31 117.5t-96 27.5q-64 0 -176 -41q-12 -5 -25.5 1t-17.5 18l-33 72q-5 12 0 25.5t17 19.5q121 57 227 63q62 3 110.5 -5t81.5 -23t56.5 -41.5t36.5 -52.5t20.5 -63.5t9.5 -67.5t2 -71v-421q0 -14 -9.5 -23.5t-22.5 -9.5 h-56q-33 0 -43 31l-8 30q-44 -35 -99.5 -55t-103.5 -20q-67 0 -118.5 17.5t-80 43.5t-46.5 60t-23.5 61t-5.5 53zM252 909q0 -47 31.5 -71.5t78.5 -24.5q51 0 91.5 27t62.5 63v90q-8 1 -26.5 3t-37 3.5t-34.5 1.5q-69 0 -117.5 -21t-48.5 -71z" />
<glyph unicode="&#xab;" horiz-adv-x="1060" d="M61 514q0 26 19 45l319 338q9 10 23 10.5t24 -8.5l72 -61q11 -9 12 -24t-8 -26l-221 -274l221 -276q9 -11 8 -25t-12 -23l-72 -61q-10 -9 -24 -8.5t-23 10.5l-319 338q-19 19 -19 45zM518 514q0 26 19 45l319 338q9 10 23 10.5t24 -8.5l72 -61q11 -9 12 -24t-8 -26 l-221 -274l221 -276q9 -11 8 -25t-12 -23l-72 -61q-10 -9 -24 -8.5t-23 10.5l-319 338q-19 19 -19 45z" />
<glyph unicode="&#xac;" horiz-adv-x="1284" d="M164 494v333q0 13 10 23t23 10h890q13 0 23 -10t10 -23v-618q0 -13 -10 -23t-23 -10h-352q-13 0 -23 10t-10 23v252h-505q-13 0 -23 9.5t-10 23.5z" />
<glyph unicode="&#xad;" horiz-adv-x="819" d="M125 334v135q0 13 9.5 23t23.5 10h512q13 0 22.5 -9.5t9.5 -23.5v-135q0 -14 -9.5 -23.5t-22.5 -9.5h-512q-14 0 -23.5 9.5t-9.5 23.5z" />
<glyph unicode="&#xae;" horiz-adv-x="1200" d="M82 930q0 131 67.5 249t188 191.5t262.5 73.5q215 0 366.5 -151.5t151.5 -366.5t-151.5 -366.5t-366.5 -151.5q-98 0 -192 40t-166 108t-116 166t-44 208zM211 926q0 -163 113 -276t276 -113t276 113t113 276t-113 277t-276 114t-276 -114t-113 -277zM422 700v455 q0 13 10 23t23 10h172q53 0 93 -17t61 -44.5t30.5 -56t9.5 -58.5q0 -47 -29 -90t-71 -68l90 -158q6 -9 0.5 -18.5t-16.5 -9.5h-72q-35 0 -47 28l-72 135h-65v-131q0 -13 -9.5 -22.5t-23.5 -9.5h-51q-14 0 -23.5 9.5t-9.5 22.5zM539 944h96q37 1 51 22t14 46t-15 46t-54 21 h-92v-135z" />
<glyph unicode="&#xaf;" horiz-adv-x="1056" d="M231 1253v113q0 14 9.5 23.5t23.5 9.5h551q13 0 23 -9.5t10 -23.5v-113q0 -13 -9.5 -22.5t-23.5 -9.5h-551q-14 0 -23.5 9.5t-9.5 22.5z" />
<glyph unicode="&#xb0;" horiz-adv-x="675" d="M61 1178q0 115 80.5 195.5t196.5 80.5q115 0 195.5 -78.5t80.5 -197.5q0 -115 -81 -196t-195 -81q-116 0 -196.5 80.5t-80.5 196.5zM215 1178q0 -53 36 -87t87 -34q47 0 82 34.5t35 86.5q0 50 -35 83t-82 33q-49 0 -86 -35t-37 -81z" />
<glyph unicode="&#xb1;" horiz-adv-x="1132" d="M164 80v123q0 13 10 23t23 10h739q14 0 23.5 -10t9.5 -23v-123q0 -14 -9.5 -23.5t-23.5 -9.5h-739q-13 0 -23 9.5t-10 23.5zM164 627v129q0 13 9.5 22.5t23.5 9.5h272v273q0 13 9.5 23t23.5 10h129q13 0 23 -10t10 -23v-273h272q14 0 23.5 -9.5t9.5 -22.5v-129 q0 -13 -9.5 -23t-23.5 -10h-272v-186q0 -14 -10 -23.5t-23 -9.5h-129q-14 0 -23.5 9.5t-9.5 23.5v186h-272q-13 0 -23 10t-10 23z" />
<glyph unicode="&#xb2;" d="M74 1519.5q-1 13.5 8 24.5q96 107 227 107q99 0 157 -59.5t58 -145.5q0 -44 -20 -87.5t-60 -103.5l-104 -147h137q13 0 23 -10t10 -23v-74q0 -13 -9.5 -22.5t-23.5 -9.5h-366q-9 0 -16 6.5t-7 15.5q0 23 12 41l224 320q43 62 43 100q0 22 -16 38.5t-42 16.5 q-59 0 -127 -57q-10 -9 -24 -9t-25 9l-47 47q-11 9 -12 22.5z" />
<glyph unicode="&#xb3;" horiz-adv-x="561" d="M55 1053q-1 14 8 24l41 43q9 10 23.5 11t24.5 -7q47 -32 114 -32q35 0 61.5 20.5t26.5 52.5q0 37 -26 58.5t-62 21.5h-71q-13 0 -23 9.5t-10 23.5v51q0 13 10 23t23 10h71q36 0 62 21.5t26 58.5q0 35 -26 54.5t-62 19.5q-51 0 -110 -39q-10 -8 -24 -7t-23 11l-41 47 q-8 10 -7.5 24t9.5 23q88 76 196 76q66 0 115 -21.5t73 -55.5t35 -67t11 -65q0 -36 -20.5 -78t-53.5 -61q37 -24 55.5 -63t18.5 -75q0 -31 -11 -63.5t-35 -67t-73 -56.5t-115 -22q-108 0 -200 76q-10 7 -11 21z" />
<glyph unicode="&#xb4;" horiz-adv-x="1044" d="M328 1318q2 14 12 23l254 211q9 8 22.5 6t20.5 -12l78 -110q8 -10 5 -23.5t-15 -19.5l-283 -168q-12 -6 -26 -3t-21 13l-41 59q-8 10 -6 24z" />
<glyph unicode="&#xb5;" horiz-adv-x="1232" d="M164 -375v1366q0 13 10 23t23 10h180q13 0 23 -10t10 -23v-493q0 -45 3.5 -81t15.5 -79t32.5 -72t58.5 -49t90 -20q71 0 129.5 32.5t87.5 77.5v684q0 13 9.5 23t23.5 10h176q14 0 23.5 -10t9.5 -23v-958q0 -13 -9.5 -23t-23.5 -10h-92q-33 0 -43 31l-18 51 q-125 -96 -283 -96q-116 0 -190 45v-406q0 -13 -10 -23t-23 -10h-180q-13 0 -23 10t-10 23z" />
<glyph unicode="&#xb6;" horiz-adv-x="1355" d="M82 1012q0 56 12 111.5t42.5 113.5t75.5 101.5t118.5 71.5t165.5 28h663q13 0 23 -10t10 -23v-117q0 -14 -10 -23.5t-23 -9.5h-104v-1630q0 -13 -9.5 -23t-23.5 -10h-115q-13 0 -23 10t-10 23v1630h-184v-1630q0 -13 -10 -23t-23 -10h-114q-13 0 -23 10t-10 23v961h-14 q-92 0 -165.5 28t-118.5 71.5t-75.5 101.5t-42.5 113.5t-12 111.5z" />
<glyph unicode="&#xb7;" horiz-adv-x="548" d="M123 608q0 65 42.5 107.5t106.5 42.5t109 -43t45 -107q0 -63 -45.5 -108t-108.5 -45q-64 0 -106.5 44.5t-42.5 108.5z" />
<glyph unicode="&#xb8;" horiz-adv-x="1134" d="M466 -391q-3 14 5 26l39 68q6 12 19.5 16t25.5 -2q53 -22 94 -22q32 0 51 19t19 44q0 62 -107 62h-12q-18 0 -33 12q-12 15 -12 33v178q0 13 9.5 23t23.5 10h82q13 0 22.5 -9.5t9.5 -23.5v-98q96 0 144.5 -57t48.5 -130q0 -106 -67 -162.5t-160 -56.5q-106 0 -187 49 q-12 7 -15 21z" />
<glyph unicode="&#xb9;" horiz-adv-x="446" d="M54 1465.5q3 13.5 14 21.5l184 133q24 18 59 18h11q14 0 23 -9t9 -23v-605q0 -13 -9 -22.5t-23 -9.5h-95q-13 0 -22.5 9.5t-9.5 22.5v410l-64 -29q-12 -6 -25.5 -1.5t-19.5 16.5l-29 43q-6 12 -3 25.5z" />
<glyph unicode="&#xba;" horiz-adv-x="774" d="M82 1128q0 41 8.5 82.5t31 85t56 76t87.5 53.5t122 21t122 -21t87.5 -53.5t56 -76t31 -85t8.5 -82.5q0 -43 -8.5 -84.5t-31 -84.5t-56 -75t-87.5 -52.5t-122 -20.5t-122 20.5t-87.5 52.5t-56 75t-31 84.5t-8.5 84.5zM121 496v122q0 14 9.5 23.5t23.5 9.5h464 q14 0 23.5 -9.5t9.5 -23.5v-122q0 -14 -9.5 -23.5t-23.5 -9.5h-464q-14 0 -23.5 9.5t-9.5 23.5zM266 1128q0 -17 4.5 -37.5t16 -45.5t37.5 -41.5t63 -16.5t63 16.5t37.5 41.5t16 45.5t4.5 37.5t-4.5 37t-16 45.5t-37.5 41.5t-63 16t-63 -16t-37.5 -41.5t-16 -45.5t-4.5 -37z " />
<glyph unicode="&#xbb;" horiz-adv-x="1060" d="M74 213q-1 14 8 25l221 276l-221 274q-9 11 -8 26t12 24l72 61q10 9 24 8.5t23 -10.5l319 -338q19 -19 19 -45t-19 -45l-319 -338q-9 -10 -23 -10.5t-24 8.5l-72 61q-11 9 -12 23zM531 213q-1 14 8 25l221 276l-221 274q-9 11 -8 26t12 24l71 61q10 9 24.5 8.5 t23.5 -10.5l319 -338q18 -18 18 -45t-18 -45l-319 -338q-9 -10 -23.5 -10.5t-24.5 8.5l-71 61q-11 9 -12 23z" />
<glyph unicode="&#xbc;" horiz-adv-x="1212" d="M65 1267q3 14 13 21l184 133q25 19 60 19h10q14 0 23.5 -10t9.5 -23v-604q0 -13 -9.5 -23t-23.5 -10h-94q-14 0 -23.5 10t-9.5 23v409l-64 -28q-12 -6 -25.5 -2t-19.5 16l-28 43q-6 12 -3 26zM158 29l688 1376q14 29 47 29h113q10 0 16.5 -10t1.5 -19l-686 -1376 q-14 -29 -47 -29h-115q-10 0 -16.5 10t-1.5 19zM614 139v58q0 34 19 59l266 389q20 27 51 27h60q13 0 22.5 -9.5t9.5 -23.5v-381h64q14 0 23.5 -10t9.5 -23v-86q0 -13 -9.5 -23t-23.5 -10h-64v-73q0 -14 -9.5 -23.5t-22.5 -9.5h-86q-14 0 -23.5 10t-9.5 23v73h-244 q-13 0 -23 10t-10 23zM793 258h98v148z" />
<glyph unicode="&#xbd;" horiz-adv-x="1308" d="M65 1267q3 14 13 21l184 133q25 19 60 19h10q14 0 23.5 -10t9.5 -23v-604q0 -13 -9.5 -23t-23.5 -10h-94q-14 0 -23.5 10t-9.5 23v409l-64 -28q-12 -6 -25.5 -2t-19.5 16l-28 43q-6 12 -3 26zM158 29l688 1376q14 29 47 29h113q10 0 16.5 -10t1.5 -19l-686 -1376 q-14 -29 -47 -29h-115q-10 0 -16.5 10t-1.5 19zM756 25q0 22 14 43l242 315q43 52 43 100q0 22 -16 39t-42 17q-58 0 -127 -58q-10 -9 -24 -9t-25 9l-47 47q-11 9 -12 22.5t8 24.5q96 107 227 107q99 0 157 -59.5t58 -145.5q0 -93 -79 -190l-117 -148h149q13 0 23 -9.5 t10 -23.5v-73q0 -13 -10 -23t-23 -10h-385q-10 0 -17 7t-7 18z" />
<glyph unicode="&#xbe;" horiz-adv-x="1296" d="M67.5 846q-0.5 14 8.5 24l41 43q9 10 23 11.5t24 -6.5q49 -33 115 -33q35 0 61.5 20.5t26.5 52.5q0 37 -26 58.5t-62 21.5h-72q-13 0 -23 10t-10 23v51q0 14 10 23.5t23 9.5h72q36 0 62 21.5t26 58.5q0 35 -26 54.5t-62 19.5q-52 0 -111 -39q-10 -8 -24 -7t-23 11l-41 47 q-8 10 -7.5 24t9.5 23q88 76 197 76q66 0 115 -21.5t73 -55.5t34.5 -67t10.5 -65q0 -36 -20.5 -78t-53.5 -61q37 -24 55.5 -63t18.5 -75q0 -24 -6 -49.5t-22.5 -54.5t-41 -51.5t-67 -37.5t-96.5 -15q-111 0 -201 75q-10 7 -10.5 21zM246 29l688 1376q14 29 47 29h113 q10 0 16.5 -10t1.5 -19l-686 -1376q-14 -29 -47 -29h-115q-10 0 -16.5 10t-1.5 19zM702 139v58q0 34 19 59l266 389q20 27 51 27h60q13 0 22.5 -9.5t9.5 -23.5v-381h64q14 0 23.5 -10t9.5 -23v-86q0 -13 -9.5 -23t-23.5 -10h-64v-73q0 -14 -9.5 -23.5t-22.5 -9.5h-86 q-14 0 -23.5 10t-9.5 23v73h-244q-13 0 -23 10t-10 23zM881 258h98v148z" />
<glyph unicode="&#xbf;" horiz-adv-x="1150" d="M164 -84q0 55 16 107.5t49.5 104.5t57.5 83.5t67 81.5q33 38 51.5 61.5t35 53.5t16.5 51l14 94q1 13 12 23t25 10h139q13 0 23 -10t10 -23v-100q0 -79 -34 -140t-101 -135q-33 -37 -50 -58t-40.5 -56.5t-34 -71t-10.5 -74.5q0 -22 6 -44t22 -46.5t51.5 -38.5t85.5 -12 q60 3 114.5 36t127.5 103q9 9 22.5 9t22.5 -9l101 -98q10 -9 10.5 -23t-8.5 -24q-105 -110 -202.5 -159.5t-225.5 -49.5q-165 0 -269 93.5t-104 260.5zM430 891q0 57 42.5 99t100.5 42q62 0 103 -38.5t41 -102.5q0 -60 -42 -100.5t-102 -40.5q-59 0 -101 41t-42 100z" />
<glyph unicode="&#xc0;" horiz-adv-x="1452" d="M74 31l602 1390q4 13 17 22t28 9h10q31 0 45 -31l602 -1390q5 -11 -1.5 -21t-18.5 -10h-213q-31 0 -45 31l-135 334h-480l-133 -334q-14 -31 -45 -31h-213q-12 0 -18.5 10t-1.5 21zM530 1821.5q-3 13.5 5 23.5l77 111q7 10 20.5 12t22.5 -6l254 -211q10 -9 12 -23t-6 -24 l-41 -59q-8 -11 -21.5 -14t-25.5 3l-282 168q-12 6 -15 19.5zM571 575h310l-154 386z" />
<glyph unicode="&#xc1;" horiz-adv-x="1452" d="M74 31l602 1390q4 13 17 22t28 9h10q31 0 45 -31l602 -1390q5 -11 -1.5 -21t-18.5 -10h-213q-31 0 -45 31l-135 334h-480l-133 -334q-14 -31 -45 -31h-213q-12 0 -18.5 10t-1.5 21zM529 1728q2 14 12 23l254 211q9 8 22.5 6t20.5 -12l77 -111q8 -10 5 -23.5t-15 -19.5 l-282 -168q-12 -6 -26.5 -2.5t-21.5 13.5l-40 59q-8 10 -6 24zM571 575h310l-154 386z" />
<glyph unicode="&#xc2;" horiz-adv-x="1452" d="M74 31l602 1390q4 13 17 22t28 9h10q31 0 45 -31l602 -1390q5 -11 -1.5 -21t-18.5 -10h-213q-31 0 -45 31l-135 334h-480l-133 -334q-14 -31 -45 -31h-213q-12 0 -18.5 10t-1.5 21zM434 1724q2 14 12 23l254 211q10 9 24.5 9t25.5 -9l254 -211q10 -9 12 -23t-6 -24 l-41 -60q-7 -10 -21 -13t-26 3l-197 117l-197 -117q-12 -6 -26 -3t-21 13l-41 60q-8 10 -6 24zM571 575h310l-154 386z" />
<glyph unicode="&#xc3;" horiz-adv-x="1452" d="M74 31l602 1390q4 13 17 22t28 9h10q31 0 45 -31l602 -1390q5 -11 -1.5 -21t-18.5 -10h-213q-31 0 -45 31l-135 334h-480l-133 -334q-14 -31 -45 -31h-213q-12 0 -18.5 10t-1.5 21zM397 1690q67 172 224 172q43 0 81 -18t67 -36t52 -18q44 0 82 55q8 12 20.5 16.5 t24.5 -1.5l88 -48q12 -6 16.5 -18.5t-1.5 -24.5q-86 -165 -234 -165q-48 0 -106 38.5t-93 38.5q-43 0 -79 -59q-6 -11 -19 -15.5t-24 1.5l-80 37q-12 6 -17.5 19.5t-1.5 25.5zM571 575h310l-154 386z" />
<glyph unicode="&#xc4;" horiz-adv-x="1452" d="M74 31l602 1390q4 13 17 22t28 9h10q31 0 45 -31l602 -1390q5 -11 -1.5 -21t-18.5 -10h-213q-31 0 -45 31l-135 334h-480l-133 -334q-14 -31 -45 -31h-213q-12 0 -18.5 10t-1.5 21zM352 1757q0 59 40 99t100 40q58 0 98.5 -40t40.5 -99q0 -61 -40 -100t-99 -39 q-60 0 -100 39t-40 100zM571 575h310l-154 386zM831 1757q0 59 40 99t100 40q59 0 99 -40t40 -99q0 -61 -40 -100t-99 -39q-60 0 -100 39t-40 100z" />
<glyph unicode="&#xc5;" horiz-adv-x="1452" d="M74 31l602 1390q4 13 17 22t28 9h10q31 0 45 -31l602 -1390q5 -11 -1.5 -21t-18.5 -10h-213q-31 0 -45 31l-135 334h-480l-133 -334q-14 -31 -45 -31h-213q-12 0 -18.5 10t-1.5 21zM518 1819q0 86 61.5 147.5t147.5 61.5t146.5 -61.5t60.5 -147.5t-60.5 -146.5 t-146.5 -60.5t-147.5 60.5t-61.5 146.5zM571 575h310l-154 386zM643 1819q0 -32 25 -57t59 -25q32 0 57 25t25 57q0 34 -25 59t-57 25q-34 0 -59 -25t-25 -59z" />
<glyph unicode="&#xc6;" horiz-adv-x="1808" d="M74 31l616 1372q14 31 47 31h916q13 0 23 -10t10 -23v-160q0 -13 -10 -23t-23 -10h-676v-389h522q13 0 23 -9.5t10 -23.5v-159q0 -13 -10 -23t-23 -10h-522v-369h676q14 0 23.5 -9.5t9.5 -22.5v-160q0 -13 -10 -23t-23 -10h-893q-14 0 -23.5 10t-9.5 23v334h-235 l-140 -336q-14 -31 -45 -31h-213q-12 0 -18.5 10t-1.5 21zM578 575h149v359z" />
<glyph unicode="&#xc7;" horiz-adv-x="1501" d="M123 719q0 67 10.5 135t35 141t61.5 138.5t94.5 125t129 102.5t169 68t211.5 25q165 0 291.5 -58t230.5 -167q9 -10 8.5 -24t-10.5 -23l-119 -115q-11 -9 -24.5 -8t-22.5 10q-66 66 -162 111t-192 45q-82 0 -150.5 -21.5t-114.5 -56t-82 -82t-56 -94t-33 -97t-17 -87 t-4 -68.5t4 -68.5t17 -87t33 -97t56 -94t82 -82t114.5 -56t150.5 -21.5q96 0 192.5 44.5t177.5 111.5q11 9 24 8t21 -12l105 -132q9 -11 8 -24.5t-12 -22.5q-195 -185 -461 -202v-39q96 0 144 -57t48 -130q0 -106 -67 -162.5t-160 -56.5q-105 0 -186 49q-12 8 -15 21.5 t4 25.5l39 68q6 12 19.5 16t25.5 -2q53 -22 95 -22q32 0 50.5 19t18.5 44q0 62 -106 62h-13q-17 0 -32 12q-13 16 -13 33v121q-114 11 -209.5 49.5t-161.5 96.5t-115 128.5t-77 150.5t-41.5 156t-13.5 152z" />
<glyph unicode="&#xc8;" horiz-adv-x="1286" d="M205 33v1368q0 13 9.5 23t23.5 10h892q14 0 23.5 -10t9.5 -23v-160q0 -13 -9.5 -23t-23.5 -10h-675v-389h522q13 0 23 -9.5t10 -23.5v-159q0 -13 -10 -23t-23 -10h-522v-369h675q14 0 23.5 -9.5t9.5 -22.5v-160q0 -13 -9.5 -23t-23.5 -10h-892q-14 0 -23.5 10t-9.5 23z M448 1821.5q-3 13.5 5 23.5l77 111q7 10 20.5 12t22.5 -6l254 -211q10 -9 12.5 -23t-5.5 -24l-41 -59q-7 -10 -21.5 -13.5t-26.5 2.5l-282 168q-12 6 -15 19.5z" />
<glyph unicode="&#xc9;" horiz-adv-x="1286" d="M205 33v1368q0 13 9.5 23t23.5 10h892q14 0 23.5 -10t9.5 -23v-160q0 -13 -9.5 -23t-23.5 -10h-675v-389h522q13 0 23 -9.5t10 -23.5v-159q0 -13 -10 -23t-23 -10h-522v-369h675q14 0 23.5 -9.5t9.5 -22.5v-160q0 -13 -9.5 -23t-23.5 -10h-892q-14 0 -23.5 10t-9.5 23z M447 1728q2 14 12 23l254 211q9 8 22.5 6t20.5 -12l78 -111q8 -10 4.5 -23.5t-15.5 -19.5l-282 -168q-12 -6 -25.5 -3t-21.5 14l-41 59q-8 10 -6 24z" />
<glyph unicode="&#xca;" horiz-adv-x="1286" d="M205 33v1368q0 13 9.5 23t23.5 10h892q14 0 23.5 -10t9.5 -23v-160q0 -13 -9.5 -23t-23.5 -10h-675v-389h522q13 0 23 -9.5t10 -23.5v-159q0 -13 -10 -23t-23 -10h-522v-369h675q14 0 23.5 -9.5t9.5 -22.5v-160q0 -13 -9.5 -23t-23.5 -10h-892q-14 0 -23.5 10t-9.5 23z M352.5 1724q2.5 14 12.5 23l253 211q11 9 25 9t25 -9l254 -211q10 -9 12 -23t-6 -24l-41 -60q-7 -10 -21 -13t-26 3l-197 117l-197 -117q-12 -6 -26 -3t-21 13l-41 60q-8 10 -5.5 24z" />
<glyph unicode="&#xcb;" horiz-adv-x="1286" d="M205 33v1368q0 13 9.5 23t23.5 10h892q14 0 23.5 -10t9.5 -23v-160q0 -13 -9.5 -23t-23.5 -10h-675v-389h522q13 0 23 -9.5t10 -23.5v-159q0 -13 -10 -23t-23 -10h-522v-369h675q14 0 23.5 -9.5t9.5 -22.5v-160q0 -13 -9.5 -23t-23.5 -10h-892q-14 0 -23.5 10t-9.5 23z M293 1757q0 59 39.5 99t99.5 40q58 0 98.5 -40t40.5 -99q0 -61 -40 -100t-99 -39q-60 0 -99.5 39t-39.5 100zM772 1757q0 59 39.5 99t99.5 40q59 0 99.5 -40.5t40.5 -98.5q0 -61 -40.5 -100t-99.5 -39q-60 0 -99.5 39t-39.5 100z" />
<glyph unicode="&#xcc;" horiz-adv-x="417" d="M13.5 1821.5q-3.5 13.5 4.5 23.5l78 111q7 10 20.5 12t22.5 -6l254 -211q10 -9 12 -23t-6 -24l-41 -59q-8 -11 -21.5 -14t-25.5 3l-282 168q-12 6 -15.5 19.5zM82 33v1368q0 13 10 23t23 10h186q13 0 23 -10t10 -23v-1368q0 -13 -10 -23t-23 -10h-186q-13 0 -23 10 t-10 23z" />
<glyph unicode="&#xcd;" horiz-adv-x="417" d="M12.5 1728q2.5 14 12.5 23l254 211q9 8 22.5 6t20.5 -12l77 -111q8 -10 5 -23.5t-15 -19.5l-283 -168q-12 -6 -25.5 -3t-21.5 14l-41 59q-8 10 -5.5 24zM82 33v1368q0 13 10 23t23 10h186q13 0 23 -10t10 -23v-1368q0 -13 -10 -23t-23 -10h-186q-13 0 -23 10t-10 23z" />
<glyph unicode="&#xce;" d="M12.5 1724q2.5 14 12.5 23l254 211q11 9 24.5 9t24.5 -9l254 -211q10 -9 12 -23t-6 -24l-41 -60q-7 -10 -21 -13t-26 3l-197 117l-197 -117q-12 -6 -26 -3t-21 13l-41 60q-8 10 -5.5 24zM176 33v1368q0 13 10 23t23 10h186q13 0 23 -10t10 -23v-1368q0 -13 -10 -23 t-23 -10h-186q-13 0 -23 10t-10 23z" />
<glyph unicode="&#xcf;" horiz-adv-x="757" d="M4 1724q-9 33 0 66q11 46 48 76t87 30q59 0 99.5 -40.5t40.5 -98.5q0 -61 -40.5 -100t-99.5 -39q-52 0 -89 29t-46 77zM252 33v1368q0 13 10 23t23 10h186q13 0 23 -10t10 -23v-1368q0 -13 -10 -23t-23 -10h-186q-13 0 -23 10t-10 23zM479 1757q0 59 39.5 99t99.5 40 q59 0 99.5 -40.5t40.5 -98.5q0 -61 -40.5 -100t-99.5 -39q-60 0 -99.5 39t-39.5 100z" />
<glyph unicode="&#xd0;" horiz-adv-x="1538" d="M72 647v144q0 13 9 22.5t23 9.5h101v578q0 13 9.5 23t23.5 10h469q114 0 211.5 -24t168.5 -65t128 -98.5t94 -120.5t61.5 -134.5t34.5 -138.5t10 -134q0 -98 -20.5 -193t-72 -192t-129.5 -169.5t-203.5 -118.5t-282.5 -46h-469q-14 0 -23.5 10t-9.5 23v581h-101 q-13 0 -22.5 9.5t-9.5 23.5zM453 225h254q82 0 150 21t114 54.5t81.5 79.5t55.5 91t32.5 94.5t16.5 85.5t4 68t-4 67.5t-16.5 85t-32.5 94.5t-55.5 90.5t-81.5 78.5t-114 54t-150 21h-254v-387h272q14 0 23.5 -9.5t9.5 -22.5v-144q0 -13 -10 -23t-23 -10h-272v-389z" />
<glyph unicode="&#xd1;" horiz-adv-x="1581" d="M205 33v1390q0 10 7.5 18.5t16.5 8.5q27 0 45 -18l850 -865v834q0 13 10 23t23 10h186q13 0 23 -10t10 -23v-1393q0 -11 -8 -18.5t-20 -7.5q-28 0 -45 20l-846 881v-850q0 -13 -9.5 -23t-23.5 -10h-186q-14 0 -23.5 10t-9.5 23zM461 1710q67 172 223 172q43 0 81 -18 t67.5 -36t52.5 -18q43 0 82 56q8 12 20.5 16t24.5 -2l88 -47q12 -6 16 -18.5t-2 -24.5q-86 -166 -233 -166q-48 0 -106 39t-93 39q-44 0 -80 -60q-6 -11 -19 -15.5t-24 1.5l-80 37q-12 6 -17.5 19.5t-0.5 25.5z" />
<glyph unicode="&#xd2;" horiz-adv-x="1665" d="M123 719q0 67 10.5 135t35 141t61.5 138.5t94.5 125t129 102.5t169 68t211.5 25q113 0 210.5 -25t168.5 -68t128 -102.5t94 -125t61.5 -138.5t35 -141t10.5 -135q0 -69 -10.5 -138t-35 -142.5t-61.5 -139t-94 -124t-128 -101t-168.5 -67.5t-210.5 -25q-157 0 -283 47.5 t-204 123t-130.5 175t-73 196.5t-20.5 195zM377 719q0 -32 4 -68.5t17 -87.5t33 -98t56 -95t82 -82.5t114.5 -56.5t150.5 -22q81 0 149 22t113.5 56.5t81 82.5t55.5 95t32.5 98t16.5 87.5t4 68.5t-4 68.5t-16.5 87t-32.5 97t-55.5 94t-81 82t-113.5 56t-149 21.5 q-82 0 -150.5 -21.5t-114.5 -56t-82 -82t-56 -94t-33 -97t-17 -87t-4 -68.5zM636 1821.5q-3 13.5 5 23.5l78 111q7 10 20.5 12t22.5 -6l254 -211q10 -9 12 -23t-6 -24l-41 -59q-8 -11 -21.5 -14t-25.5 3l-283 168q-12 6 -15 19.5z" />
<glyph unicode="&#xd3;" horiz-adv-x="1665" d="M123 719q0 67 10.5 135t35 141t61.5 138.5t94.5 125t129 102.5t169 68t211.5 25q113 0 210.5 -25t168.5 -68t128 -102.5t94 -125t61.5 -138.5t35 -141t10.5 -135q0 -69 -10.5 -138t-35 -142.5t-61.5 -139t-94 -124t-128 -101t-168.5 -67.5t-210.5 -25q-157 0 -283 47.5 t-204 123t-130.5 175t-73 196.5t-20.5 195zM377 719q0 -32 4 -68.5t17 -87.5t33 -98t56 -95t82 -82.5t114.5 -56.5t150.5 -22q81 0 149 22t113.5 56.5t81 82.5t55.5 95t32.5 98t16.5 87.5t4 68.5t-4 68.5t-16.5 87t-32.5 97t-55.5 94t-81 82t-113.5 56t-149 21.5 q-82 0 -150.5 -21.5t-114.5 -56t-82 -82t-56 -94t-33 -97t-17 -87t-4 -68.5zM635 1728q2 14 12 23l254 211q9 8 22.5 6t20.5 -12l78 -111q8 -10 5 -23.5t-15 -19.5l-283 -168q-12 -6 -25.5 -3t-21.5 14l-41 59q-8 10 -6 24z" />
<glyph unicode="&#xd4;" horiz-adv-x="1665" d="M123 719q0 67 10.5 135t35 141t61.5 138.5t94.5 125t129 102.5t169 68t211.5 25q113 0 210.5 -25t168.5 -68t128 -102.5t94 -125t61.5 -138.5t35 -141t10.5 -135q0 -69 -10.5 -138t-35 -142.5t-61.5 -139t-94 -124t-128 -101t-168.5 -67.5t-210.5 -25q-157 0 -283 47.5 t-204 123t-130.5 175t-73 196.5t-20.5 195zM377 719q0 -32 4 -68.5t17 -87.5t33 -98t56 -95t82 -82.5t114.5 -56.5t150.5 -22q81 0 149 22t113.5 56.5t81 82.5t55.5 95t32.5 98t16.5 87.5t4 68.5t-4 68.5t-16.5 87t-32.5 97t-55.5 94t-81 82t-113.5 56t-149 21.5 q-82 0 -150.5 -21.5t-114.5 -56t-82 -82t-56 -94t-33 -97t-17 -87t-4 -68.5zM541 1724q2 14 12 23l254 211q11 9 25 9t24 -9l254 -211q10 -9 12 -23t-6 -24l-41 -60q-7 -10 -21 -13t-26 3l-197 117l-196 -117q-12 -6 -26 -3t-21 13l-41 60q-8 10 -6 24z" />
<glyph unicode="&#xd5;" horiz-adv-x="1665" d="M123 719q0 67 10.5 135t35 141t61.5 138.5t94.5 125t129 102.5t169 68t211.5 25q113 0 210.5 -25t168.5 -68t128 -102.5t94 -125t61.5 -138.5t35 -141t10.5 -135q0 -69 -10.5 -138t-35 -142.5t-61.5 -139t-94 -124t-128 -101t-168.5 -67.5t-210.5 -25q-157 0 -283 47.5 t-204 123t-130.5 175t-73 196.5t-20.5 195zM377 719q0 -32 4 -68.5t17 -87.5t33 -98t56 -95t82 -82.5t114.5 -56.5t150.5 -22q81 0 149 22t113.5 56.5t81 82.5t55.5 95t32.5 98t16.5 87.5t4 68.5t-4 68.5t-16.5 87t-32.5 97t-55.5 94t-81 82t-113.5 56t-149 21.5 q-82 0 -150.5 -21.5t-114.5 -56t-82 -82t-56 -94t-33 -97t-17 -87t-4 -68.5zM504 1690q67 172 223 172q43 0 81 -18t67.5 -36t52.5 -18q44 0 82 55q8 12 20.5 16.5t24.5 -1.5l88 -48q12 -6 16 -18.5t-2 -24.5q-86 -165 -233 -165q-48 0 -106 38.5t-93 38.5q-44 0 -80 -59 q-6 -11 -19 -15.5t-24 1.5l-80 37q-12 6 -17.5 19.5t-0.5 25.5z" />
<glyph unicode="&#xd6;" horiz-adv-x="1665" d="M123 719q0 67 10.5 135t35 141t61.5 138.5t94.5 125t129 102.5t169 68t211.5 25q113 0 210.5 -25t168.5 -68t128 -102.5t94 -125t61.5 -138.5t35 -141t10.5 -135q0 -69 -10.5 -138t-35 -142.5t-61.5 -139t-94 -124t-128 -101t-168.5 -67.5t-210.5 -25q-157 0 -283 47.5 t-204 123t-130.5 175t-73 196.5t-20.5 195zM377 719q0 -32 4 -68.5t17 -87.5t33 -98t56 -95t82 -82.5t114.5 -56.5t150.5 -22q81 0 149 22t113.5 56.5t81 82.5t55.5 95t32.5 98t16.5 87.5t4 68.5t-4 68.5t-16.5 87t-32.5 97t-55.5 94t-81 82t-113.5 56t-149 21.5 q-82 0 -150.5 -21.5t-114.5 -56t-82 -82t-56 -94t-33 -97t-17 -87t-4 -68.5zM453 1757q0 59 39.5 99t99.5 40q58 0 98.5 -40t40.5 -99q0 -61 -40 -100t-99 -39q-60 0 -99.5 39t-39.5 100zM932 1757q0 59 39.5 99t99.5 40q59 0 99 -40t40 -99q0 -61 -40 -100t-99 -39 q-60 0 -99.5 39t-39.5 100z" />
<glyph unicode="&#xd7;" horiz-adv-x="1116" d="M218 196.5q0 13.5 9 22.5l193 193l-193 194q-9 9 -9 22.5t9 22.5l92 92q9 9 23 9t23 -9l192 -192l195 192q9 9 22.5 9t22.5 -9l92 -92q9 -9 9 -22.5t-9 -22.5l-193 -194l193 -193q9 -9 9 -22.5t-9 -22.5l-92 -92q-9 -9 -22.5 -9t-22.5 9l-195 192l-192 -192q-9 -9 -23 -9 t-23 9l-92 92q-9 9 -9 22.5z" />
<glyph unicode="&#xd8;" horiz-adv-x="1665" d="M123 719q0 67 10.5 135t35 141t61.5 138.5t94.5 125t129 102.5t169 68t211.5 25q221 0 387 -98l69 82q8 9 21 10t24 -6l90 -76q9 -8 10.5 -22t-5.5 -23l-70 -82q93 -107 137.5 -245.5t44.5 -274.5q0 -69 -10.5 -138t-35 -142.5t-61.5 -139t-94 -124t-128 -101 t-168.5 -67.5t-210.5 -25q-261 0 -428 122l-76 -88q-7 -10 -21.5 -11t-23.5 7l-90 76q-10 7 -11.5 21t6.5 24l84 100q-78 102 -114.5 230t-36.5 256zM377 719q0 -154 67 -283l619 731q-98 58 -229 58q-82 0 -150.5 -21.5t-114.5 -56t-82 -82t-56 -94t-33 -97t-17 -87 t-4 -68.5zM563 291q110 -82 271 -82q81 0 149 22t113.5 56.5t81 82.5t55.5 95t32.5 98t16.5 87.5t4 68.5q0 69 -20.5 156.5t-71.5 164.5z" />
<glyph unicode="&#xd9;" horiz-adv-x="1497" d="M184 551v850q0 13 10 23t23 10h184q13 0 23 -10t10 -23v-850q0 -31 8 -71t31 -89t56.5 -88.5t90.5 -66.5t128 -27t128 27t90 66.5t55 88.5t30 88.5t8 71.5v850q0 13 9.5 23t23.5 10h188q14 0 23.5 -10t9.5 -23v-850q0 -76 -18 -151.5t-61 -151t-106 -133t-161.5 -93.5 t-218.5 -36t-218.5 36t-161 93.5t-105.5 133t-61 151t-18 151.5zM552 1821.5q-3 13.5 5 23.5l78 111q7 10 20.5 12t22.5 -6l254 -211q10 -9 12 -23t-6 -24l-41 -59q-8 -11 -21.5 -14t-25.5 3l-283 168q-12 6 -15 19.5z" />
<glyph unicode="&#xda;" horiz-adv-x="1497" d="M184 551v850q0 13 10 23t23 10h184q13 0 23 -10t10 -23v-850q0 -31 8 -71t31 -89t56.5 -88.5t90.5 -66.5t128 -27t128 27t90 66.5t55 88.5t30 88.5t8 71.5v850q0 13 9.5 23t23.5 10h188q14 0 23.5 -10t9.5 -23v-850q0 -76 -18 -151.5t-61 -151t-106 -133t-161.5 -93.5 t-218.5 -36t-218.5 36t-161 93.5t-105.5 133t-61 151t-18 151.5zM551 1728q2 14 12 23l254 211q9 8 22.5 6t20.5 -12l78 -111q8 -10 5 -23.5t-15 -19.5l-283 -168q-12 -6 -25.5 -3t-21.5 14l-41 59q-8 10 -6 24z" />
<glyph unicode="&#xdb;" horiz-adv-x="1497" d="M184 551v850q0 13 10 23t23 10h184q13 0 23 -10t10 -23v-850q0 -31 8 -71t31 -89t56.5 -88.5t90.5 -66.5t128 -27t128 27t90 66.5t55 88.5t30 88.5t8 71.5v850q0 13 9.5 23t23.5 10h188q14 0 23.5 -10t9.5 -23v-850q0 -76 -18 -151.5t-61 -151t-106 -133t-161.5 -93.5 t-218.5 -36t-218.5 36t-161 93.5t-105.5 133t-61 151t-18 151.5zM457 1724q2 14 12 23l254 211q11 9 25 9t24 -9l254 -211q10 -9 12 -23t-6 -24l-41 -60q-7 -10 -21 -13t-26 3l-196 117l-197 -117q-12 -6 -26 -3t-21 13l-41 60q-8 10 -6 24z" />
<glyph unicode="&#xdc;" horiz-adv-x="1497" d="M184 551v850q0 13 10 23t23 10h184q13 0 23 -10t10 -23v-850q0 -31 8 -71t31 -89t56.5 -88.5t90.5 -66.5t128 -27t128 27t90 66.5t55 88.5t30 88.5t8 71.5v850q0 13 9.5 23t23.5 10h188q14 0 23.5 -10t9.5 -23v-850q0 -76 -18 -151.5t-61 -151t-106 -133t-161.5 -93.5 t-218.5 -36t-218.5 36t-161 93.5t-105.5 133t-61 151t-18 151.5zM369 1757q0 59 39.5 99t99.5 40q58 0 98.5 -40t40.5 -99q0 -61 -40 -100t-99 -39q-60 0 -99.5 39t-39.5 100zM848 1757q0 59 39.5 99t99.5 40q59 0 99 -40t40 -99q0 -61 -40 -100t-99 -39q-60 0 -99.5 39 t-39.5 100z" />
<glyph unicode="&#xdd;" horiz-adv-x="1357" d="M78 1405q-5 9 0.5 19t15.5 10h223q34 0 50 -29l313 -533l313 533q16 29 49 29h222q10 0 15 -10t-1 -19l-473 -760v-612q0 -13 -9.5 -23t-23.5 -10h-184q-14 0 -23.5 10t-9.5 23v608zM473 1728q2 14 12 23l254 211q9 8 22.5 6t20.5 -12l78 -111q8 -10 5 -23.5t-15 -19.5 l-283 -168q-12 -6 -25.5 -3t-21.5 14l-41 59q-8 10 -6 24z" />
<glyph unicode="&#xde;" horiz-adv-x="1308" d="M205 33v1368q0 13 9.5 23t23.5 10h180q14 0 23.5 -10t9.5 -23v-156h219q114 0 205.5 -35t148 -90t94.5 -127.5t53 -142t15 -139.5t-15 -139.5t-53 -142t-94.5 -128t-148 -90.5t-205.5 -35h-219v-143q0 -13 -9.5 -23t-23.5 -10h-180q-14 0 -23.5 10t-9.5 23zM451 389h202 q69 0 122.5 25t84 61t50 82.5t26 83.5t6.5 70t-6.5 70.5t-26 84t-50 82.5t-84 61t-122.5 25h-202v-645z" />
<glyph unicode="&#xdf;" horiz-adv-x="1339" d="M205 -111v1129q0 87 23.5 157t57.5 113t82 75t88 47t85 23.5t63.5 9.5t32.5 1q105 0 187 -29t129.5 -72t78.5 -99t42 -104t11 -93q0 -64 -20.5 -118.5t-45 -84t-46 -57.5t-23.5 -44q0 -24 19 -50t46 -54t54.5 -62t46.5 -86.5t19 -115.5q0 -176 -133 -284.5t-388 -108.5 h-30q-14 0 -23.5 9.5t-9.5 22.5v150q0 14 9.5 23.5t23.5 9.5h51q131 0 187.5 53t56.5 133v16q-2 33 -23 67t-49.5 64t-56 60t-47 67t-19.5 74q0 38 25.5 79t55.5 71.5t55.5 74.5t25.5 88v13t-3.5 25.5t-9.5 35t-20 35t-33 34t-51 23t-72 9.5q-24 0 -47.5 -4t-52 -17 t-49.5 -33.5t-35.5 -57.5t-15.5 -85v-1133q0 -13 -9.5 -22.5t-23.5 -9.5h-186q-14 0 -23.5 9.5t-9.5 22.5z" />
<glyph unicode="&#xe0;" horiz-adv-x="1107" d="M123 297q0 334 428 334q47 0 149 -13v17q-2 82 -21.5 125t-52.5 56t-94 13q-38 0 -108 -16.5t-137 -42.5q-12 -5 -25.5 0.5t-17.5 17.5l-51 117q-5 12 -0.5 25.5t16.5 19.5q165 79 311 88q82 5 147 -5.5t109 -31t76 -55.5t49.5 -70t27.5 -84.5t12.5 -89.5t2.5 -94v-575 q0 -13 -10 -23t-23 -10h-96q-33 0 -43 31l-14 51q-59 -48 -132 -74t-137 -26q-90 0 -158.5 24t-106.5 58.5t-62 80t-31.5 81.5t-7.5 71zM350 313q0 -63 41.5 -96t104.5 -33q67 0 121 36t83 83v121q-82 10 -129 10q-58 0 -104 -9t-81.5 -37.5t-35.5 -74.5zM357.5 1412.5 q-3.5 13.5 4.5 23.5l78 110q7 10 20.5 12t22.5 -6l254 -211q10 -9 12 -23t-6 -24l-41 -59q-7 -10 -21 -13t-26 3l-282 168q-12 6 -15.5 19.5z" />
<glyph unicode="&#xe1;" horiz-adv-x="1107" d="M123 297q0 334 428 334q47 0 149 -13v17q-2 82 -21.5 125t-52.5 56t-94 13q-38 0 -108 -16.5t-137 -42.5q-12 -5 -25.5 0.5t-17.5 17.5l-51 117q-5 12 -0.5 25.5t16.5 19.5q165 79 311 88q82 5 147 -5.5t109 -31t76 -55.5t49.5 -70t27.5 -84.5t12.5 -89.5t2.5 -94v-575 q0 -13 -10 -23t-23 -10h-96q-33 0 -43 31l-14 51q-59 -48 -132 -74t-137 -26q-90 0 -158.5 24t-106.5 58.5t-62 80t-31.5 81.5t-7.5 71zM350 313q0 -63 41.5 -96t104.5 -33q67 0 121 36t83 83v121q-82 10 -129 10q-58 0 -104 -9t-81.5 -37.5t-35.5 -74.5zM356.5 1318 q2.5 14 12.5 23l254 211q9 8 22.5 6t20.5 -12l77 -110q8 -10 5 -23.5t-15 -19.5l-282 -168q-12 -6 -26.5 -3t-21.5 13l-41 59q-8 10 -5.5 24z" />
<glyph unicode="&#xe2;" horiz-adv-x="1107" d="M123 297q0 334 428 334q47 0 149 -13v17q-2 82 -21.5 125t-52.5 56t-94 13q-38 0 -108 -16.5t-137 -42.5q-12 -5 -25.5 0.5t-17.5 17.5l-51 117q-5 12 -0.5 25.5t16.5 19.5q165 79 311 88q82 5 147 -5.5t109 -31t76 -55.5t49.5 -70t27.5 -84.5t12.5 -89.5t2.5 -94v-575 q0 -13 -10 -23t-23 -10h-96q-33 0 -43 31l-14 51q-59 -48 -132 -74t-137 -26q-90 0 -158.5 24t-106.5 58.5t-62 80t-31.5 81.5t-7.5 71zM262 1314q2 14 12 23l254 211q10 9 24.5 9t25.5 -9l253 -211q10 -9 12.5 -23t-5.5 -24l-41 -59q-7 -10 -21 -13t-26 3l-197 116 l-197 -116q-12 -6 -26 -3t-21 13l-41 59q-8 10 -6 24zM350 313q0 -63 41.5 -96t104.5 -33q67 0 121 36t83 83v121q-82 10 -129 10q-58 0 -104 -9t-81.5 -37.5t-35.5 -74.5z" />
<glyph unicode="&#xe3;" horiz-adv-x="1107" d="M123 297q0 334 428 334q47 0 149 -13v17q-2 82 -21.5 125t-52.5 56t-94 13q-38 0 -108 -16.5t-137 -42.5q-12 -5 -25.5 0.5t-17.5 17.5l-51 117q-5 12 -0.5 25.5t16.5 19.5q165 79 311 88q82 5 147 -5.5t109 -31t76 -55.5t49.5 -70t27.5 -84.5t12.5 -89.5t2.5 -94v-575 q0 -13 -10 -23t-23 -10h-96q-33 0 -43 31l-14 51q-59 -48 -132 -74t-137 -26q-90 0 -158.5 24t-106.5 58.5t-62 80t-31.5 81.5t-7.5 71zM225 1280q67 172 224 172q43 0 81 -18t67 -36t52 -18q43 0 82 56q8 12 20.5 16t24.5 -2l88 -47q12 -6 16.5 -18.5t-1.5 -24.5 q-86 -166 -234 -166q-48 0 -106 39t-93 39q-43 0 -79 -60q-6 -11 -19 -15.5t-24 1.5l-80 37q-12 6 -17.5 19.5t-1.5 25.5zM350 313q0 -63 41.5 -96t104.5 -33q67 0 121 36t83 83v121q-82 10 -129 10q-58 0 -104 -9t-81.5 -37.5t-35.5 -74.5z" />
<glyph unicode="&#xe4;" horiz-adv-x="1107" d="M123 297q0 334 428 334q47 0 149 -13v17q-2 82 -21.5 125t-52.5 56t-94 13q-38 0 -108 -16.5t-137 -42.5q-12 -5 -25.5 0.5t-17.5 17.5l-51 117q-5 12 -0.5 25.5t16.5 19.5q165 79 311 88q82 5 147 -5.5t109 -31t76 -55.5t49.5 -70t27.5 -84.5t12.5 -89.5t2.5 -94v-575 q0 -13 -10 -23t-23 -10h-96q-33 0 -43 31l-14 51q-59 -48 -132 -74t-137 -26q-90 0 -158.5 24t-106.5 58.5t-62 80t-31.5 81.5t-7.5 71zM176 1348q0 59 39.5 99t99.5 40q59 0 99.5 -40.5t40.5 -98.5q0 -61 -40.5 -100.5t-99.5 -39.5q-60 0 -99.5 39.5t-39.5 100.5zM350 313 q0 -63 41.5 -96t104.5 -33q67 0 121 36t83 83v121q-82 10 -129 10q-58 0 -104 -9t-81.5 -37.5t-35.5 -74.5zM655 1348q0 59 40 99t100 40q59 0 99 -40.5t40 -98.5q0 -61 -40 -100.5t-99 -39.5q-60 0 -100 39.5t-40 100.5z" />
<glyph unicode="&#xe5;" horiz-adv-x="1107" d="M123 297q0 334 428 334q47 0 149 -13v17q-2 82 -21.5 125t-52.5 56t-94 13q-38 0 -108 -16.5t-137 -42.5q-12 -5 -25.5 0.5t-17.5 17.5l-51 117q-5 12 -0.5 25.5t16.5 19.5q165 79 311 88q82 5 147 -5.5t109 -31t76 -55.5t49.5 -70t27.5 -84.5t12.5 -89.5t2.5 -94v-575 q0 -13 -10 -23t-23 -10h-96q-33 0 -43 31l-14 51q-59 -48 -132 -74t-137 -26q-90 0 -158.5 24t-106.5 58.5t-62 80t-31.5 81.5t-7.5 71zM346 1409q0 86 61.5 147.5t147.5 61.5t146.5 -61.5t60.5 -147.5t-60.5 -146.5t-146.5 -60.5t-147.5 60.5t-61.5 146.5zM350 313 q0 -63 41.5 -96t104.5 -33q67 0 121 36t83 83v121q-82 10 -129 10q-58 0 -104 -9t-81.5 -37.5t-35.5 -74.5zM487 1409q0 -26 20 -46t48 -20q26 0 46 20t20 46q0 28 -20 48t-46 20q-28 0 -48 -20t-20 -48z" />
<glyph unicode="&#xe6;" horiz-adv-x="1681" d="M123 297q0 334 428 334q43 0 117 -8q9 44 24 92q-13 68 -50 91t-110 23q-38 0 -108 -16.5t-137 -42.5q-12 -5 -25.5 0.5t-17.5 17.5l-51 117q-5 12 -0.5 25.5t16.5 19.5q165 79 311 88q233 14 334 -96q124 96 317 96q198 0 308 -117.5t110 -318.5q0 -66 -10 -127 q-1 -13 -12 -23t-25 -10h-635q7 -43 22.5 -80.5t44.5 -75.5t79.5 -60.5t117.5 -22.5q132 0 236 67q10 6 24 4t21 -12l78 -104q8 -10 6 -25t-12 -22q-159 -123 -353 -123q-221 0 -354 123q-152 -129 -328 -129q-90 0 -158.5 24t-106.5 58.5t-62 80t-31.5 81.5t-7.5 71z M350 313q0 -63 41.5 -96t104.5 -33q54 0 101.5 25t78.5 61q21 24 10 58q-13 43 -20 100q-44 6 -95 6q-58 0 -104 -9t-81.5 -37.5t-35.5 -74.5zM918 635h440q3 75 -42.5 132.5t-146.5 61.5q-198 -2 -251 -194z" />
<glyph unicode="&#xe7;" horiz-adv-x="1167" d="M123 508q0 74 13.5 143t49.5 141.5t92 126t148 87.5t209 34q210 0 373 -163q9 -9 9 -23t-9 -25l-95 -106q-9 -10 -22.5 -10.5t-22.5 8.5q-49 44 -111 71t-122 27q-124 0 -197 -92.5t-73 -218.5q0 -138 79.5 -215.5t192.5 -77.5q116 0 219 90q10 9 24.5 9t24.5 -9 l115 -102q10 -9 10.5 -23t-8.5 -24q-148 -155 -344 -168v-43q96 0 144 -57t48 -130q0 -106 -67 -162.5t-160 -56.5q-105 0 -186 49q-12 8 -15 21.5t4 25.5l39 68q6 12 19.5 16t25.5 -2q53 -22 95 -22q32 0 50.5 19t18.5 44q0 62 -106 62h-13q-17 0 -32 12q-13 16 -13 33v131 q-88 14 -159.5 53.5t-116.5 91.5t-75.5 117t-43 126.5t-12.5 123.5z" />
<glyph unicode="&#xe8;" horiz-adv-x="1114" d="M92 514q0 69 15 137.5t52.5 139.5t94 125t147 88t203.5 34q198 0 308 -117.5t110 -318.5q0 -66 -10 -127q-1 -13 -12 -23t-25 -10h-635q7 -43 22.5 -80.5t44.5 -75.5t79.5 -60.5t117.5 -22.5q132 0 236 67q10 6 24 4t21 -12l78 -104q8 -10 5.5 -25t-12.5 -22 q-159 -123 -352 -123q-113 0 -203.5 34t-147 87.5t-94 124.5t-52.5 140t-15 140zM350 635h441q3 75 -42.5 132.5t-146.5 61.5q-199 -2 -252 -194zM362 1412.5q-3 13.5 5 23.5l77 110q7 10 20.5 12t22.5 -6l254 -211q10 -9 12.5 -23t-5.5 -24l-41 -59q-7 -10 -21.5 -13 t-26.5 3l-282 168q-12 6 -15 19.5z" />
<glyph unicode="&#xe9;" horiz-adv-x="1114" d="M92 514q0 69 15 137.5t52.5 139.5t94 125t147 88t203.5 34q198 0 308 -117.5t110 -318.5q0 -66 -10 -127q-1 -13 -12 -23t-25 -10h-635q7 -43 22.5 -80.5t44.5 -75.5t79.5 -60.5t117.5 -22.5q132 0 236 67q10 6 24 4t21 -12l78 -104q8 -10 5.5 -25t-12.5 -22 q-159 -123 -352 -123q-113 0 -203.5 34t-147 87.5t-94 124.5t-52.5 140t-15 140zM350 635h441q3 75 -42.5 132.5t-146.5 61.5q-199 -2 -252 -194zM361 1318q2 14 12 23l254 211q9 8 22.5 6t20.5 -12l78 -110q8 -10 4.5 -23.5t-15.5 -19.5l-282 -168q-12 -6 -26 -3t-21 13 l-41 59q-8 10 -6 24z" />
<glyph unicode="&#xea;" horiz-adv-x="1114" d="M92 514q0 69 15 137.5t52.5 139.5t94 125t147 88t203.5 34q198 0 308 -117.5t110 -318.5q0 -66 -10 -127q-1 -13 -12 -23t-25 -10h-635q7 -43 22.5 -80.5t44.5 -75.5t79.5 -60.5t117.5 -22.5q132 0 236 67q10 6 24 4t21 -12l78 -104q8 -10 5.5 -25t-12.5 -22 q-159 -123 -352 -123q-113 0 -203.5 34t-147 87.5t-94 124.5t-52.5 140t-15 140zM295 1314q2 14 12 23l254 211q11 9 24.5 9t24.5 -9l254 -211q10 -9 12 -23t-6 -24l-41 -59q-7 -10 -21 -13t-26 3l-196 116l-197 -116q-12 -6 -26 -3t-21 13l-41 59q-8 10 -6 24zM350 635h441 q3 75 -42.5 132.5t-146.5 61.5q-199 -2 -252 -194z" />
<glyph unicode="&#xeb;" horiz-adv-x="1114" d="M92 514q0 69 15 137.5t52.5 139.5t94 125t147 88t203.5 34q198 0 308 -117.5t110 -318.5q0 -66 -10 -127q-1 -13 -12 -23t-25 -10h-635q7 -43 22.5 -80.5t44.5 -75.5t79.5 -60.5t117.5 -22.5q132 0 236 67q10 6 24 4t21 -12l78 -104q8 -10 5.5 -25t-12.5 -22 q-159 -123 -352 -123q-113 0 -203.5 34t-147 87.5t-94 124.5t-52.5 140t-15 140zM199 1348q0 59 39.5 99t99.5 40q58 0 98.5 -40.5t40.5 -98.5q0 -61 -40 -100.5t-99 -39.5q-60 0 -99.5 39.5t-39.5 100.5zM350 635h441q3 75 -42.5 132.5t-146.5 61.5q-199 -2 -252 -194z M678 1348q0 59 39.5 99t99.5 40q59 0 99 -40.5t40 -98.5q0 -61 -40 -100.5t-99 -39.5q-60 0 -99.5 39.5t-39.5 100.5z" />
<glyph unicode="&#xec;" horiz-adv-x="499" d="M54.5 1412.5q-3.5 13.5 4.5 23.5l78 110q7 10 20.5 12t22.5 -6l254 -211q10 -9 12 -23t-6 -24l-41 -59q-7 -10 -21 -13t-26 3l-282 168q-12 6 -15.5 19.5zM127 33v958q0 13 9.5 23t23.5 10h178q14 0 23.5 -10t9.5 -23v-958q0 -13 -9.5 -23t-23.5 -10h-178q-14 0 -23.5 10 t-9.5 23z" />
<glyph unicode="&#xed;" horiz-adv-x="499" d="M53.5 1318q2.5 14 12.5 23l253 211q9 8 22.5 6t20.5 -12l78 -110q8 -10 5 -23.5t-15 -19.5l-283 -168q-12 -6 -26 -3t-21 13l-41 59q-8 10 -5.5 24zM127 33v958q0 13 9.5 23t23.5 10h178q14 0 23.5 -10t9.5 -23v-958q0 -13 -9.5 -23t-23.5 -10h-178q-14 0 -23.5 10 t-9.5 23z" />
<glyph unicode="&#xee;" d="M12.5 1314q2.5 14 12.5 23l254 211q11 9 25 9t24 -9l254 -211q10 -9 12 -23t-6 -24l-41 -59q-7 -10 -21 -13t-26 3l-197 116l-197 -116q-12 -6 -26 -3t-21 13l-41 59q-8 10 -5.5 24zM180 33v958q0 13 10 23t23 10h178q13 0 23 -10t10 -23v-958q0 -13 -10 -23t-23 -10 h-178q-13 0 -23 10t-10 23z" />
<glyph unicode="&#xef;" horiz-adv-x="757" d="M4 1315q-8 33 0 65q11 47 48 77t87 30q59 0 99.5 -40.5t40.5 -98.5q0 -61 -40.5 -100.5t-99.5 -39.5q-52 0 -89 29.5t-46 77.5zM256 33v958q0 13 10 23t23 10h178q13 0 23 -10t10 -23v-958q0 -13 -10 -23t-23 -10h-178q-13 0 -23 10t-10 23zM479 1348q0 59 39.5 99 t99.5 40q59 0 99.5 -40.5t40.5 -98.5q0 -61 -40.5 -100.5t-99.5 -39.5q-60 0 -99.5 39.5t-39.5 100.5z" />
<glyph unicode="&#xf0;" horiz-adv-x="1196" d="M123 434q0 57 11.5 114t44.5 121.5t83.5 113t137.5 80.5t198 32q38 0 85.5 -12t78.5 -31q-55 124 -160 240l-92 -93q-9 -9 -22.5 -9t-22.5 9l-80 78q-9 9 -9 22.5t9 22.5l90 90q-39 31 -96 66q-12 6 -15 19.5t5 23.5l75 117q8 11 22 14t26 -4q67 -39 131 -88l108 108 q9 9 22.5 9t22.5 -9l80 -77q9 -9 9 -22.5t-9 -22.5l-102 -103q145 -150 232 -348t87 -440q0 -33 -6 -71t-21 -84.5t-38 -90t-61 -85t-85.5 -72.5t-115.5 -49.5t-148 -18.5q-110 0 -197.5 34t-137.5 84t-83.5 114t-45 117.5t-11.5 100.5zM358 444q0 -99 64 -172t176 -73 q113 0 176.5 72.5t63.5 172.5q-3 103 -65 173.5t-175 70.5q-115 0 -177.5 -72t-62.5 -172z" />
<glyph unicode="&#xf1;" horiz-adv-x="1191" d="M164 33v958q0 13 10 23t23 10h92q33 0 43 -31l18 -49q125 96 283 96q80 0 145 -16t110 -43t78 -67.5t52.5 -83t31 -96.5t15.5 -101.5t4 -104.5v-495q0 -13 -9.5 -23t-23.5 -10h-180q-14 0 -23.5 10t-9.5 23v495q0 45 -3.5 81t-15.5 79t-32.5 72t-58.5 49t-90 20 q-71 0 -129.5 -32.5t-87.5 -77.5v-686q0 -13 -10 -23t-23 -10h-176q-13 0 -23 10t-10 23zM266 1280q67 172 223 172q43 0 81 -18t67.5 -36t52.5 -18q43 0 82 56q8 12 20.5 16t24.5 -2l88 -47q12 -6 16.5 -18.5t-1.5 -24.5q-86 -166 -234 -166q-48 0 -106 39t-93 39 q-43 0 -79 -60q-6 -11 -19 -15.5t-24 1.5l-80 37q-12 6 -17.5 19.5t-1.5 25.5z" />
<glyph unicode="&#xf2;" horiz-adv-x="1265" d="M123 514q0 69 15 138t52 140.5t93 126t146.5 89t203.5 34.5t203.5 -34.5t146.5 -89t93 -126t52 -140.5t15 -138q0 -71 -15 -140.5t-52 -140.5t-93 -125t-146.5 -88t-203.5 -34t-203.5 34t-146.5 88t-93 125t-52 140.5t-15 140.5zM362 514q0 -30 5 -64.5t22.5 -82t45 -84 t79.5 -62.5t119 -26q56 0 101.5 17.5t73.5 47.5t48 64t29.5 72t13.5 66t4 52q0 20 -2.5 43t-10 55t-19.5 61.5t-33 59.5t-48 52t-67.5 35.5t-89.5 13.5q-67 0 -119 -26t-79.5 -63t-45 -84.5t-22.5 -82t-5 -64.5zM437.5 1412.5q-3.5 13.5 4.5 23.5l78 110q7 10 20.5 12 t22.5 -6l254 -211q10 -9 12 -23t-6 -24l-41 -59q-7 -10 -21 -13t-26 3l-282 168q-12 6 -15.5 19.5z" />
<glyph unicode="&#xf3;" horiz-adv-x="1265" d="M123 514q0 69 15 138t52 140.5t93 126t146.5 89t203.5 34.5t203.5 -34.5t146.5 -89t93 -126t52 -140.5t15 -138q0 -71 -15 -140.5t-52 -140.5t-93 -125t-146.5 -88t-203.5 -34t-203.5 34t-146.5 88t-93 125t-52 140.5t-15 140.5zM362 514q0 -30 5 -64.5t22.5 -82t45 -84 t79.5 -62.5t119 -26q56 0 101.5 17.5t73.5 47.5t48 64t29.5 72t13.5 66t4 52q0 20 -2.5 43t-10 55t-19.5 61.5t-33 59.5t-48 52t-67.5 35.5t-89.5 13.5q-67 0 -119 -26t-79.5 -63t-45 -84.5t-22.5 -82t-5 -64.5zM436.5 1318q2.5 14 12.5 23l253 211q9 8 22.5 6t20.5 -12 l78 -110q8 -10 5 -23.5t-15 -19.5l-283 -168q-12 -6 -26 -3t-21 13l-41 59q-8 10 -5.5 24z" />
<glyph unicode="&#xf4;" horiz-adv-x="1265" d="M123 514q0 69 15 138t52 140.5t93 126t146.5 89t203.5 34.5t203.5 -34.5t146.5 -89t93 -126t52 -140.5t15 -138q0 -71 -15 -140.5t-52 -140.5t-93 -125t-146.5 -88t-203.5 -34t-203.5 34t-146.5 88t-93 125t-52 140.5t-15 140.5zM342 1314q2 14 12 23l254 211q10 9 24 9 t25 -9l254 -211q10 -9 12.5 -23t-5.5 -24l-41 -59q-7 -10 -21.5 -13t-26.5 3l-196 116l-197 -116q-12 -6 -26 -3t-21 13l-41 59q-8 10 -6 24zM362 514q0 -30 5 -64.5t22.5 -82t45 -84t79.5 -62.5t119 -26q56 0 101.5 17.5t73.5 47.5t48 64t29.5 72t13.5 66t4 52 q0 20 -2.5 43t-10 55t-19.5 61.5t-33 59.5t-48 52t-67.5 35.5t-89.5 13.5q-67 0 -119 -26t-79.5 -63t-45 -84.5t-22.5 -82t-5 -64.5z" />
<glyph unicode="&#xf5;" horiz-adv-x="1265" d="M123 514q0 69 15 138t52 140.5t93 126t146.5 89t203.5 34.5t203.5 -34.5t146.5 -89t93 -126t52 -140.5t15 -138q0 -71 -15 -140.5t-52 -140.5t-93 -125t-146.5 -88t-203.5 -34t-203.5 34t-146.5 88t-93 125t-52 140.5t-15 140.5zM303 1280q67 172 223 172q43 0 81 -18 t67.5 -36t52.5 -18q43 0 82 56q8 12 20.5 16t24.5 -2l88 -47q12 -6 16 -18.5t-2 -24.5q-86 -166 -233 -166q-48 0 -106 39t-93 39q-44 0 -80 -60q-6 -11 -19 -15.5t-24 1.5l-79 37q-12 6 -17.5 19.5t-1.5 25.5zM362 514q0 -30 5 -64.5t22.5 -82t45 -84t79.5 -62.5t119 -26 q56 0 101.5 17.5t73.5 47.5t48 64t29.5 72t13.5 66t4 52q0 20 -2.5 43t-10 55t-19.5 61.5t-33 59.5t-48 52t-67.5 35.5t-89.5 13.5q-67 0 -119 -26t-79.5 -63t-45 -84.5t-22.5 -82t-5 -64.5z" />
<glyph unicode="&#xf6;" horiz-adv-x="1265" d="M123 514q0 69 15 138t52 140.5t93 126t146.5 89t203.5 34.5t203.5 -34.5t146.5 -89t93 -126t52 -140.5t15 -138q0 -71 -15 -140.5t-52 -140.5t-93 -125t-146.5 -88t-203.5 -34t-203.5 34t-146.5 88t-93 125t-52 140.5t-15 140.5zM250 1348q0 59 39.5 99t99.5 40 q59 0 99 -40.5t40 -98.5q0 -61 -40 -100.5t-99 -39.5q-60 0 -99.5 39.5t-39.5 100.5zM362 514q0 -30 5 -64.5t22.5 -82t45 -84t79.5 -62.5t119 -26q56 0 101.5 17.5t73.5 47.5t48 64t29.5 72t13.5 66t4 52q0 20 -2.5 43t-10 55t-19.5 61.5t-33 59.5t-48 52t-67.5 35.5 t-89.5 13.5q-67 0 -119 -26t-79.5 -63t-45 -84.5t-22.5 -82t-5 -64.5zM729 1348q0 59 39.5 99t99.5 40q59 0 99.5 -40.5t40.5 -98.5q0 -61 -40.5 -100.5t-99.5 -39.5q-60 0 -99.5 39.5t-39.5 100.5z" />
<glyph unicode="&#xf7;" horiz-adv-x="944" d="M123 442v138q0 13 9.5 22.5t23.5 9.5h632q14 0 23.5 -9.5t9.5 -22.5v-138q0 -13 -9.5 -22.5t-23.5 -9.5h-632q-14 0 -23.5 9.5t-9.5 22.5zM332 139q0 59 39.5 99.5t99.5 40.5q58 0 98.5 -40.5t40.5 -99.5q0 -61 -40 -100t-99 -39q-60 0 -99.5 39t-39.5 100zM336 856 q-9 33 0 66q11 46 48 76t87 30q59 0 99 -40t40 -99q0 -61 -40 -100t-99 -39q-52 0 -89 29t-46 77z" />
<glyph unicode="&#xf8;" horiz-adv-x="1265" d="M123 514q0 69 15 138t52 140.5t93 126t146.5 89t203.5 34.5q141 0 252 -57l55 66q8 11 21 12t24 -8l90 -72q10 -9 12 -22.5t-6 -22.5l-55 -68q59 -75 88 -170t29 -186q0 -71 -15 -140.5t-52 -140.5t-93 -125t-146.5 -88t-203.5 -34q-171 0 -285 71l-45 -53 q-7 -10 -21.5 -11t-23.5 7l-90 76q-10 7 -11 21t7 24l53 63q-94 137 -94 330zM362 514q0 -64 21 -131l358 430q-54 21 -108 21q-67 0 -119 -26t-79.5 -63t-45 -84.5t-22.5 -82t-5 -64.5zM492 231q58 -36 141 -36q56 0 101.5 17.5t73.5 47.5t48 64t29.5 72t13.5 66t4 52 q0 88 -37 168z" />
<glyph unicode="&#xf9;" horiz-adv-x="1191" d="M123 498v495q0 13 9.5 23t23.5 10h180q14 0 23.5 -10t9.5 -23v-495q0 -45 3.5 -81t15.5 -79t32.5 -72t58.5 -49t90 -20q71 0 129.5 32.5t87.5 77.5v686q0 13 10 23t23 10h176q13 0 23 -10t10 -23v-958q0 -13 -10 -23t-23 -10h-92q-33 0 -43 31l-18 49q-125 -96 -283 -96 q-80 0 -145 16t-110 43t-78 67.5t-52.5 83t-31 96.5t-15.5 101.5t-4 104.5zM401 1412.5q-3 13.5 5 23.5l77 110q7 10 20.5 12t22.5 -6l254 -211q10 -9 12 -23t-6 -24l-41 -59q-7 -10 -21 -13t-26 3l-282 168q-12 6 -15 19.5z" />
<glyph unicode="&#xfa;" horiz-adv-x="1191" d="M123 498v495q0 13 9.5 23t23.5 10h180q14 0 23.5 -10t9.5 -23v-495q0 -45 3.5 -81t15.5 -79t32.5 -72t58.5 -49t90 -20q71 0 129.5 32.5t87.5 77.5v686q0 13 10 23t23 10h176q13 0 23 -10t10 -23v-958q0 -13 -10 -23t-23 -10h-92q-33 0 -43 31l-18 49q-125 -96 -283 -96 q-80 0 -145 16t-110 43t-78 67.5t-52.5 83t-31 96.5t-15.5 101.5t-4 104.5zM400 1318q2 14 12 23l254 211q9 8 22.5 6t20.5 -12l77 -110q8 -10 5 -23.5t-15 -19.5l-282 -168q-12 -6 -26.5 -3t-21.5 13l-40 59q-8 10 -6 24z" />
<glyph unicode="&#xfb;" horiz-adv-x="1191" d="M123 498v495q0 13 9.5 23t23.5 10h180q14 0 23.5 -10t9.5 -23v-495q0 -45 3.5 -81t15.5 -79t32.5 -72t58.5 -49t90 -20q71 0 129.5 32.5t87.5 77.5v686q0 13 10 23t23 10h176q13 0 23 -10t10 -23v-958q0 -13 -10 -23t-23 -10h-92q-33 0 -43 31l-18 49q-125 -96 -283 -96 q-80 0 -145 16t-110 43t-78 67.5t-52.5 83t-31 96.5t-15.5 101.5t-4 104.5zM305 1314q2 14 12 23l254 211q10 9 24.5 9t25.5 -9l253 -211q10 -9 12.5 -23t-5.5 -24l-41 -59q-7 -10 -21 -13t-26 3l-197 116l-197 -116q-12 -6 -26 -3t-21 13l-41 59q-8 10 -6 24z" />
<glyph unicode="&#xfc;" horiz-adv-x="1191" d="M123 498v495q0 13 9.5 23t23.5 10h180q14 0 23.5 -10t9.5 -23v-495q0 -45 3.5 -81t15.5 -79t32.5 -72t58.5 -49t90 -20q71 0 129.5 32.5t87.5 77.5v686q0 13 10 23t23 10h176q13 0 23 -10t10 -23v-958q0 -13 -10 -23t-23 -10h-92q-33 0 -43 31l-18 49q-125 -96 -283 -96 q-80 0 -145 16t-110 43t-78 67.5t-52.5 83t-31 96.5t-15.5 101.5t-4 104.5zM217 1348q0 59 39.5 99t99.5 40q59 0 99.5 -40.5t40.5 -98.5q0 -61 -40.5 -100.5t-99.5 -39.5q-60 0 -99.5 39.5t-39.5 100.5zM696 1348q0 59 40 99t100 40q58 0 98.5 -40.5t40.5 -98.5 q0 -61 -40 -100.5t-99 -39.5q-60 0 -100 39.5t-40 100.5z" />
<glyph unicode="&#xfd;" horiz-adv-x="1185" d="M70 993q-5 11 1.5 21t18.5 10h201q31 0 45 -31l258 -649l256 649q14 31 45 31h203q12 0 18.5 -10t1.5 -21l-577 -1370q-14 -31 -45 -31h-195q-12 0 -18.5 10t-1.5 21l184 440zM395.5 1318q2.5 14 12.5 23l254 211q9 8 22.5 6t20.5 -12l77 -110q8 -10 5 -23.5t-15 -19.5 l-283 -168q-12 -6 -26 -3t-21 13l-41 59q-8 10 -5.5 24z" />
<glyph unicode="&#xfe;" horiz-adv-x="1255" d="M164 -377v1778q0 13 10 23t23 10h176q13 0 23 -10t10 -23v-400q103 39 217 39q113 0 203.5 -34.5t146.5 -89t93 -126t52 -140.5t15 -138t-15 -138t-52 -140.5t-93 -126t-146.5 -89t-203.5 -34.5q-114 0 -217 39v-400q0 -13 -10 -23t-23 -10h-176q-13 0 -23 10t-10 23z M406 250q82 -57 200 -57q68 0 121.5 24.5t83.5 60.5t49.5 81.5t26 82.5t6.5 70t-6.5 70t-26 82.5t-49.5 81.5t-83.5 60.5t-121.5 24.5q-118 0 -200 -57v-524z" />
<glyph unicode="&#xff;" horiz-adv-x="1185" d="M70 993q-5 11 1.5 21t18.5 10h201q31 0 45 -31l258 -649l256 649q14 31 45 31h203q12 0 18.5 -10t1.5 -21l-577 -1370q-14 -31 -45 -31h-195q-12 0 -18.5 10t-1.5 21l184 440zM215 1348q0 59 39.5 99t99.5 40q59 0 99.5 -40.5t40.5 -98.5q0 -61 -40.5 -100.5t-99.5 -39.5 q-60 0 -99.5 39.5t-39.5 100.5zM694 1348q0 59 40 99t100 40q58 0 98.5 -40.5t40.5 -98.5q0 -61 -40 -100.5t-99 -39.5q-60 0 -100 39.5t-40 100.5z" />
<glyph unicode="&#x152;" horiz-adv-x="2091" d="M123 719q0 67 10.5 135t35 141t61.5 138.5t94.5 125t129 102.5t169 68t211.5 25q93 0 188 -20h913q13 0 23 -10t10 -23v-160q0 -13 -10 -23t-23 -10h-675v-389h522q14 0 23.5 -9.5t9.5 -23.5v-159q0 -13 -9.5 -23t-23.5 -10h-522v-369h675q14 0 23.5 -9.5t9.5 -22.5v-160 q0 -13 -10 -23t-23 -10h-919q-82 -18 -182 -18q-157 0 -283 47.5t-204 123t-130.5 175t-73 196.5t-20.5 195zM377 719q0 -32 4 -68.5t17 -87.5t33 -98t56 -95t82 -82.5t114.5 -56.5t150.5 -22q94 0 176 29v956q-88 31 -176 31q-82 0 -150.5 -21.5t-114.5 -56t-82 -82 t-56 -94t-33 -97t-17 -87t-4 -68.5z" />
<glyph unicode="&#x153;" horiz-adv-x="1925" d="M123 514q0 69 15 138t52 140.5t93 126t146.5 89t203.5 34.5q256 0 391 -170q138 166 391 166q198 0 308 -117.5t110 -318.5q0 -66 -10 -127q-1 -13 -12 -23t-25 -10h-635q7 -43 22.5 -80.5t44.5 -75.5t79.5 -60.5t117.5 -22.5q132 0 236 67q10 6 24 4t21 -12l78 -104 q8 -10 5.5 -25t-12.5 -22q-159 -123 -352 -123q-254 0 -391 164q-135 -166 -391 -166q-113 0 -203.5 34t-146.5 88t-93 125t-52 140.5t-15 140.5zM362 514q0 -30 5 -64.5t22.5 -82t45 -84t79.5 -62.5t119 -26q56 0 101.5 17.5t73.5 47.5t48 64t29.5 72t13.5 66t4 52 q0 20 -2.5 43t-10 55t-19.5 61.5t-33 59.5t-48 52t-67.5 35.5t-89.5 13.5q-67 0 -119 -26t-79.5 -63t-45 -84.5t-22.5 -82t-5 -64.5zM1161 635h441q3 75 -42.5 132.5t-146.5 61.5q-199 -2 -252 -194z" />
<glyph unicode="&#x178;" horiz-adv-x="1357" d="M78 1405q-5 9 0.5 19t15.5 10h223q34 0 50 -29l313 -533l313 533q16 29 49 29h222q10 0 15 -10t-1 -19l-473 -760v-612q0 -13 -9.5 -23t-23.5 -10h-184q-14 0 -23.5 10t-9.5 23v608zM303 1724q-9 33 0 66q11 46 48 76t87 30q59 0 99.5 -40.5t40.5 -98.5q0 -61 -40.5 -100 t-99.5 -39q-52 0 -89 29t-46 77zM778 1757q0 59 40 99t100 40q58 0 98.5 -40t40.5 -99q0 -61 -40 -100t-99 -39q-60 0 -100 39t-40 100z" />
<glyph unicode="&#x17f;" horiz-adv-x="751" d="M20 850v141q0 13 10 23t23 10h78v88q0 167 102.5 254.5t260.5 87.5q125 0 247 -51q14 -6 19.5 -19.5t-0.5 -25.5l-45 -125q-6 -12 -18.5 -18.5t-24.5 -2.5q-95 31 -162 31q-58 0 -96.5 -33.5t-38.5 -105.5v-1071q0 -13 -9.5 -23t-23.5 -10h-178q-14 0 -23.5 10t-9.5 23 v784h-78q-13 0 -23 9.5t-10 23.5z" />
<glyph unicode="&#x2c6;" horiz-adv-x="1060" d="M248 1314q2 14 12 23l254 211q10 9 24 9t25 -9l254 -211q10 -9 12 -23t-6 -24l-41 -59q-7 -10 -21 -13t-26 3l-196 116l-197 -116q-12 -6 -26 -3t-21 13l-41 59q-8 10 -6 24z" />
<glyph unicode="&#x2dc;" horiz-adv-x="1056" d="M190 1300q67 173 224 173q43 0 81 -18t67 -36t52 -18q44 0 82 55q8 12 20.5 16t24.5 -2l88 -47q12 -6 16.5 -18.5t-1.5 -24.5q-86 -166 -234 -166q-48 0 -105.5 39t-92.5 39q-44 0 -80 -59q-6 -11 -19 -15.5t-24 1.5l-80 36q-12 6 -17.5 19.5t-1.5 25.5z" />
<glyph unicode="&#x2000;" horiz-adv-x="1014" />
<glyph unicode="&#x2001;" horiz-adv-x="2028" />
<glyph unicode="&#x2002;" horiz-adv-x="1014" />
<glyph unicode="&#x2003;" horiz-adv-x="2028" />
<glyph unicode="&#x2004;" horiz-adv-x="676" />
<glyph unicode="&#x2005;" horiz-adv-x="507" />
<glyph unicode="&#x2006;" horiz-adv-x="338" />
<glyph unicode="&#x2007;" horiz-adv-x="338" />
<glyph unicode="&#x2008;" horiz-adv-x="253" />
<glyph unicode="&#x2009;" horiz-adv-x="405" />
<glyph unicode="&#x200a;" horiz-adv-x="112" />
<glyph unicode="&#x2010;" horiz-adv-x="897" d="M164 520v144q0 13 9.5 22.5t23.5 9.5h503q14 0 23.5 -9.5t9.5 -22.5v-144q0 -14 -9.5 -23.5t-23.5 -9.5h-503q-13 0 -23 9.5t-10 23.5z" />
<glyph unicode="&#x2011;" horiz-adv-x="897" d="M164 520v144q0 13 9.5 22.5t23.5 9.5h503q14 0 23.5 -9.5t9.5 -22.5v-144q0 -14 -9.5 -23.5t-23.5 -9.5h-503q-13 0 -23 9.5t-10 23.5z" />
<glyph unicode="&#x2012;" horiz-adv-x="897" d="M164 520v144q0 13 9.5 22.5t23.5 9.5h503q14 0 23.5 -9.5t9.5 -22.5v-144q0 -14 -9.5 -23.5t-23.5 -9.5h-503q-13 0 -23 9.5t-10 23.5z" />
<glyph unicode="&#x2013;" horiz-adv-x="1126" d="M164 586v129q0 13 10 23t23 10h735q14 0 23.5 -10t9.5 -23v-129q0 -14 -9.5 -23.5t-23.5 -9.5h-735q-13 0 -23 9.5t-10 23.5z" />
<glyph unicode="&#x2014;" horiz-adv-x="1376" d="M164 586v129q0 13 10 23t23 10h983q13 0 22.5 -9.5t9.5 -23.5v-129q0 -14 -9.5 -23.5t-22.5 -9.5h-983q-13 0 -23 9.5t-10 23.5z" />
<glyph unicode="&#x2018;" horiz-adv-x="561" d="M123 1022q0 88 51.5 205t114.5 207q9 12 23 15t26 -5l59 -31q12 -6 15.5 -18.5t-2.5 -24.5q-70 -132 -91 -213q119 -25 119 -151q0 -61 -43 -106.5t-106 -45.5q-85 0 -125.5 49t-40.5 119z" />
<glyph unicode="&#x2019;" horiz-adv-x="561" d="M123 1309q0 61 43 106t106 45q85 0 125.5 -49t40.5 -119q0 -88 -51.5 -204.5t-114.5 -206.5q-20 -27 -49 -13l-59 31q-26 16 -12 45q68 128 90 213q-119 25 -119 152z" />
<glyph unicode="&#x201a;" horiz-adv-x="643" d="M164 106q0 61 43 106.5t106 45.5q85 0 125.5 -49t40.5 -119q0 -88 -51.5 -205t-114.5 -207q-9 -12 -23 -15t-26 3l-59 31q-26 16 -12 45q68 128 90 213q-119 25 -119 151z" />
<glyph unicode="&#x201c;" horiz-adv-x="999" d="M123 1022q0 88 51.5 205t114.5 207q9 12 23 15t26 -5l59 -31q12 -6 15.5 -18.5t-2.5 -24.5q-70 -132 -91 -213q119 -25 119 -151q0 -61 -43 -106.5t-106 -45.5q-85 0 -125.5 49t-40.5 119zM561 1022q0 88 51.5 205t114.5 207q9 12 23 15t26 -5l60 -31q12 -6 15 -18.5 t-3 -24.5q-68 -128 -90 -213q119 -25 119 -151q0 -61 -43.5 -106.5t-106.5 -45.5q-85 0 -125.5 49t-40.5 119z" />
<glyph unicode="&#x201d;" horiz-adv-x="999" d="M123 1309q0 61 43 106t106 45q85 0 125.5 -49t40.5 -119q0 -88 -51.5 -204.5t-114.5 -206.5q-20 -27 -49 -13l-59 31q-26 16 -12 45q68 128 90 213q-119 25 -119 152zM561 1309q0 61 43.5 106t106.5 45q85 0 125.5 -49t40.5 -119q0 -88 -51.5 -204.5t-114.5 -206.5 q-20 -27 -49 -13l-60 31q-26 16 -12 45q68 128 90 213q-119 25 -119 152z" />
<glyph unicode="&#x201e;" horiz-adv-x="1034" d="M164 106q0 61 43 106.5t106 45.5q85 0 125.5 -49t40.5 -119q0 -88 -51.5 -205t-114.5 -207q-9 -12 -23 -15t-26 3l-59 31q-26 16 -12 45q68 128 90 213q-119 25 -119 151zM637 106q0 61 43 106.5t106 45.5q85 0 125.5 -49t40.5 -119q0 -88 -51.5 -205t-114.5 -207 q-9 -12 -23 -15t-26 3l-59 31q-26 16 -12 45q68 128 90 213q-119 25 -119 151z" />
<glyph unicode="&#x2022;" horiz-adv-x="839" d="M164 588q0 104 76 182t176 78q107 0 183.5 -77.5t76.5 -182.5q0 -102 -76.5 -177t-183.5 -75q-100 0 -176 75.5t-76 176.5z" />
<glyph unicode="&#x2026;" horiz-adv-x="1583" d="M164 141q0 64 46 110t109 46t108.5 -46t45.5 -110t-45.5 -108.5t-108.5 -44.5q-64 0 -109.5 44.5t-45.5 108.5zM676 141q0 64 46 110t109 46t108.5 -46t45.5 -110t-45.5 -108.5t-108.5 -44.5q-64 0 -109.5 44.5t-45.5 108.5zM1192 141q0 64 46.5 110t109.5 46t108 -46 t45 -110t-45 -108.5t-108 -44.5q-64 0 -110 44.5t-46 108.5z" />
<glyph unicode="&#x202f;" horiz-adv-x="405" />
<glyph unicode="&#x2039;" horiz-adv-x="604" d="M61 514q0 26 19 45l319 338q9 10 23 10.5t24 -8.5l72 -61q11 -9 12 -24t-8 -26l-221 -274l221 -276q9 -11 8 -25t-12 -23l-72 -61q-10 -9 -24 -8.5t-23 10.5l-319 338q-19 19 -19 45z" />
<glyph unicode="&#x203a;" horiz-adv-x="604" d="M74 213q-1 14 8 25l221 276l-221 274q-9 11 -8 26t12 24l72 61q10 9 24 8.5t23 -10.5l319 -338q19 -19 19 -45t-19 -45l-319 -338q-9 -10 -23 -10.5t-24 8.5l-72 61q-11 9 -12 23z" />
<glyph unicode="&#x2044;" horiz-adv-x="137" d="M-365 29l689 1376q14 29 47 29h112q10 0 17 -10t2 -19l-686 -1376q-14 -29 -47 -29h-115q-10 0 -17 10t-2 19z" />
<glyph unicode="&#x205f;" horiz-adv-x="507" />
<glyph unicode="&#x2070;" horiz-adv-x="659" d="M61 1300q0 45 8 90.5t27.5 92.5t49 82.5t77.5 58.5t107 23t107 -23t77 -58.5t49 -82.5t27.5 -92.5t7.5 -90.5q0 -58 -13.5 -114t-42.5 -108.5t-83.5 -84.5t-128.5 -32q-60 0 -107.5 22t-77 56t-49 80t-27.5 90.5t-8 90.5zM219 1300q0 -24 4.5 -52.5t15.5 -64t34.5 -58.5 t56.5 -23t56.5 23t34 58.5t15 64t4.5 52.5t-4.5 53.5t-15 65.5t-34 60t-56.5 24t-56.5 -24t-34.5 -60t-15.5 -65.5t-4.5 -53.5z" />
<glyph unicode="&#x2074;" d="M41 1108v57q0 36 18 60l267 389q19 26 51 26h59q14 0 23.5 -9.5t9.5 -22.5v-381h63q14 0 23.5 -9.5t9.5 -23.5v-86q0 -14 -9.5 -23.5t-23.5 -9.5h-63v-74q0 -13 -9.5 -22.5t-23.5 -9.5h-86q-14 0 -23.5 9.5t-9.5 22.5v74h-243q-14 0 -23.5 9.5t-9.5 23.5zM219 1227h98 v147z" />
<glyph unicode="&#x2075;" horiz-adv-x="600" d="M74 1076.5q1 14.5 12 23.5l49 49q22 19 47 -2q48 -43 113 -43q41 0 63.5 23.5t22.5 58.5q0 36 -23 62t-65 26h-139q-14 0 -23.5 10t-9.5 23v299q0 13 9.5 22.5t23.5 9.5h307q14 0 23.5 -9.5t9.5 -22.5v-80q0 -14 -10 -23.5t-23 -9.5h-180v-76h12q60 0 105.5 -15t71.5 -38 t42.5 -55t21.5 -60.5t5 -60.5q0 -33 -12 -69t-37.5 -74t-76.5 -62.5t-120 -24.5q-119 0 -211 95q-9 9 -8 23.5z" />
<glyph unicode="&#x2076;" horiz-adv-x="610" d="M63 1192q-5 280 263 450q12 8 26 5t23 -15l43 -55q8 -10 6 -24t-12 -21q-99 -67 -133 -117q59 9 106.5 -2t77 -35.5t49.5 -58t28 -65.5t7 -62q-1 -25 -6.5 -51.5t-22.5 -60t-42.5 -59t-70.5 -43t-102 -17.5q-69 0 -119.5 25t-75 63.5t-35 74t-10.5 68.5zM219 1198 q0 -36 22.5 -63t61.5 -27q41 0 64.5 27t23.5 63q0 35 -23 60.5t-65 25.5q-35 0 -58.5 -25t-25.5 -61z" />
<glyph unicode="&#x2077;" horiz-adv-x="518" d="M41 1526v80q0 13 9.5 22.5t23.5 9.5h362q14 0 23.5 -9.5t9.5 -22.5v-9q0 -33 -12 -63l-221 -537q-13 -30 -46 -30h-100q-12 0 -18.5 9.5t-1.5 20.5l202 494l-198 2q-14 0 -23.5 9.5t-9.5 23.5z" />
<glyph unicode="&#x2078;" horiz-adv-x="575" d="M61 1163q0 46 20 85t54 61q-74 52 -74 137q0 32 10.5 64.5t34 65t71 53t112.5 20.5q64 0 111 -20.5t70.5 -53.5t33.5 -65t10 -64q0 -33 -18.5 -74t-55.5 -63q39 -21 56.5 -63.5t17.5 -82.5q0 -25 -5.5 -50.5t-21.5 -53.5t-40 -49t-65 -35t-93 -14q-65 0 -112.5 20t-71 53 t-34 65t-10.5 64zM215 1163q0 -29 22 -47t52 -18q29 0 50 17.5t21 47.5q0 31 -21 49.5t-50 18.5q-30 0 -52 -18.5t-22 -49.5zM215 1446q0 -31 22 -48.5t52 -17.5q29 0 50 17.5t21 48.5t-20.5 48t-50.5 17t-52 -17.5t-22 -47.5z" />
<glyph unicode="&#x2079;" horiz-adv-x="610" d="M63 1421q1 25 6.5 51.5t22.5 60t42.5 59.5t70.5 43.5t102 17.5q69 0 119.5 -25t75 -64t35 -74.5t10.5 -68.5q5 -276 -262 -450q-12 -8 -26 -5t-23 15l-43 55q-9 11 -7 24t13 21q102 72 133 117q-72 -12 -128 7.5t-85 58t-43 79t-13 78.5zM219 1415q0 -35 23 -60.5 t65 -25.5q35 0 58.5 25t25.5 61q0 36 -22.5 63t-61.5 27q-41 0 -64.5 -27t-23.5 -63z" />
<glyph unicode="&#x2080;" horiz-adv-x="659" d="M61 0q0 45 8 90.5t27.5 92t49 82.5t77.5 58.5t107 22.5t107 -22.5t77 -58.5t49 -83t27.5 -92t7.5 -90q0 -58 -13.5 -114t-42.5 -109t-83.5 -85t-128.5 -32q-60 0 -107.5 22t-77 56.5t-49 80.5t-27.5 90.5t-8 90.5zM219 0q0 -24 4.5 -53t15.5 -64t34.5 -58.5t56.5 -23.5 t56.5 23.5t34 58.5t15 64t4.5 53t-4.5 53.5t-15 65.5t-34 60t-56.5 24t-56.5 -24t-34.5 -60t-15.5 -65.5t-4.5 -53.5z" />
<glyph unicode="&#x2081;" horiz-adv-x="446" d="M54 164.5q3 13.5 14 21.5l184 133q25 19 59 19h11q13 0 22.5 -9.5t9.5 -23.5v-604q0 -14 -9.5 -23.5t-22.5 -9.5h-95q-13 0 -22.5 9.5t-9.5 23.5v410l-64 -29q-12 -6 -25.5 -2t-19.5 16l-29 43q-6 12 -3 25.5z" />
<glyph unicode="&#x2082;" d="M72 219.5q-1 13.5 8 24.5q95 106 227 106q99 0 157 -59.5t58 -145.5q0 -43 -19.5 -86t-60.5 -104l-104 -148h137q14 0 23.5 -9.5t9.5 -22.5v-74q0 -13 -10 -23t-23 -10h-346q-12 0 -21.5 9.5t-9.5 21.5q0 31 19 59l205 293q43 62 43 101q0 22 -16 38.5t-42 16.5 q-59 0 -127 -57q-10 -9 -24 -9t-25 9l-47 47q-11 9 -12 22.5z" />
<glyph unicode="&#x2083;" horiz-adv-x="561" d="M55 -247q-1 14 8 24l41 43q9 10 23.5 11t24.5 -7q49 -33 114 -33q35 0 61.5 20.5t26.5 53.5q0 37 -26 58.5t-62 21.5h-71q-14 0 -23.5 9.5t-9.5 22.5v52q0 13 9.5 22.5t23.5 9.5h71q36 0 62 21.5t26 58.5q0 35 -26 54.5t-62 19.5q-51 0 -110 -39q-10 -8 -24 -7t-23 11 l-41 47q-8 10 -7.5 24t9.5 23q88 76 196 76q66 0 115 -21.5t73 -55.5t35 -67t11 -65q0 -36 -20.5 -78t-53.5 -61q37 -24 55.5 -62.5t18.5 -74.5q0 -31 -11 -63.5t-35 -67t-73 -56.5t-115 -22q-108 0 -200 76q-10 7 -11 21z" />
<glyph unicode="&#x2084;" d="M41 -135q0 35 18 59l267 389q20 27 51 27h59q14 0 23.5 -10t9.5 -23v-381h63q14 0 23.5 -9.5t9.5 -22.5v-87q0 -13 -9.5 -22.5t-23.5 -9.5h-63v-74q0 -13 -9.5 -23t-23.5 -10h-86q-14 0 -23.5 10t-9.5 23v74h-243q-14 0 -23.5 9.5t-9.5 22.5v58zM219 -74h98v148z" />
<glyph unicode="&#x2085;" horiz-adv-x="600" d="M74 -224.5q1 14.5 12 23.5l49 49q22 19 47 -2q48 -43 113 -43q41 0 63.5 23.5t22.5 58.5q0 36 -23 62t-65 26h-139q-14 0 -23.5 9.5t-9.5 23.5v299q0 13 9.5 23t23.5 10h307q13 0 23 -10t10 -23v-80q0 -13 -9.5 -22.5t-23.5 -9.5h-180v-76h12q60 0 105.5 -15t71.5 -38.5 t42.5 -55.5t21.5 -60.5t5 -60.5q0 -25 -6.5 -53t-24 -60t-44 -57.5t-71 -42t-100.5 -16.5q-120 0 -211 94q-9 9 -8 23.5z" />
<glyph unicode="&#x2086;" horiz-adv-x="610" d="M63 -109q-5 281 263 451q12 8 26 5t23 -15l43 -56q8 -10 6 -24t-12 -21q-100 -68 -133 -116q72 12 127.5 -7.5t84.5 -58t43 -79.5t13 -79q-1 -25 -6.5 -51.5t-22.5 -60t-42.5 -59t-70.5 -43t-102 -17.5q-69 0 -119.5 25t-75 63.5t-35 74t-10.5 68.5zM219 -102 q0 -36 22.5 -63.5t61.5 -27.5q41 0 64.5 27.5t23.5 63.5q0 35 -23 60.5t-65 25.5q-35 0 -58.5 -25t-25.5 -61z" />
<glyph unicode="&#x2087;" horiz-adv-x="518" d="M41 225v80q0 13 9.5 23t23.5 10h364q14 0 23.5 -10t9.5 -23v-14q0 -34 -12 -64l-223 -530q-14 -31 -46 -31h-100q-12 0 -18.5 10t-1.5 21l209 496h-205q-14 0 -23.5 9.5t-9.5 22.5z" />
<glyph unicode="&#x2088;" horiz-adv-x="575" d="M61 -137q0 45 20 84t54 61q-74 52 -74 137q0 32 10.5 64.5t34 65t71 53t112.5 20.5q64 0 111 -20.5t70.5 -53.5t33.5 -65t10 -64q0 -33 -18.5 -74t-55.5 -63q39 -21 56.5 -63t17.5 -82q0 -32 -10 -64t-33.5 -65t-70.5 -53.5t-111 -20.5q-65 0 -112.5 20.5t-71 53t-34 65 t-10.5 64.5zM215 -137q0 -29 22.5 -47.5t51.5 -18.5t50 18t21 48q0 31 -21 49t-50 18q-30 0 -52 -18t-22 -49zM215 145q0 -31 22 -48t52 -17t50.5 17t20.5 48t-21 48.5t-50 17.5q-30 0 -52 -17.5t-22 -48.5z" />
<glyph unicode="&#x2089;" horiz-adv-x="610" d="M63 121q1 25 6.5 51.5t22.5 60t42.5 59t70.5 43t102 17.5q69 0 119.5 -25t75 -63.5t35 -74t10.5 -68.5q5 -277 -262 -451q-12 -7 -26 -4t-23 15l-43 55q-9 11 -7 24t13 21q102 72 133 117q-72 -12 -128 7.5t-85 58t-43 79t-13 78.5zM219 115q0 -35 23 -60.5t65 -25.5 q35 0 58.5 25t25.5 61q0 36 -22.5 63t-61.5 27q-41 0 -64.5 -27t-23.5 -63z" />
<glyph unicode="&#x20ac;" horiz-adv-x="1148" d="M31 514l37 119q10 31 43 31h45q-4 50 -4 73v49h-99q-12 0 -19.5 10t-2.5 21l37 119q10 31 43 31h63q17 78 43.5 146t69.5 131t98.5 107.5t132.5 71.5t168 27q204 0 356 -162q9 -10 8.5 -24t-10.5 -23l-102 -96q-10 -9 -24 -9t-23 9q-101 88 -205 88q-204 0 -274 -266h419 q12 0 19.5 -10.5t3.5 -20.5l-35 -119q-4 -13 -16.5 -22t-26.5 -9h-389v-45q0 -48 2 -77h330q12 0 19.5 -10t4.5 -21l-34 -119q-3 -13 -15 -22t-26 -9h-248q16 -58 38 -106t54 -89t76.5 -64t97.5 -23q108 0 209 90q11 9 25 9t24 -9l98 -96q10 -9 10.5 -23.5t-8.5 -24.5 q-155 -161 -358 -161q-208 0 -333.5 134t-172.5 363h-127q-12 0 -19.5 10t-2.5 21z" />
<glyph unicode="&#x2122;" horiz-adv-x="1292" d="M92 1466v50q0 13 9.5 22.5t23.5 9.5h332q13 0 22.5 -9t9.5 -23v-50q0 -14 -9.5 -23t-22.5 -9h-105v-375q0 -13 -10 -23t-23 -10h-57q-14 0 -23.5 10t-9.5 23v375h-104q-14 0 -23.5 9.5t-9.5 22.5zM508 1057l168 473q4 14 18 14q15 0 21 -12l135 -266l129 266q8 12 20 12 q15 0 19 -14l172 -473q3 -11 -4 -21t-19 -10h-63q-33 0 -43 31l-72 233l-131 -264q-3 -6 -12 -6q-7 0 -10 6l-129 260l-68 -229q-4 -13 -16.5 -22t-26.5 -9h-66q-12 0 -18.5 10t-3.5 21z" />
<glyph unicode="&#x2153;" horiz-adv-x="1290" d="M65 1267q3 14 13 21l184 133q25 19 60 19h10q14 0 23.5 -10t9.5 -23v-604q0 -13 -9.5 -23t-23.5 -10h-94q-14 0 -23.5 10t-9.5 23v409l-64 -28q-12 -6 -25.5 -2t-19.5 16l-28 43q-6 12 -3 26zM158 29l688 1376q14 29 47 29h113q10 0 16.5 -10t1.5 -19l-686 -1376 q-14 -29 -47 -29h-115q-10 0 -16.5 10t-1.5 19zM769.5 91q-0.5 14 8.5 24l41 43q9 10 23 11t24 -7q49 -33 115 -33q35 0 61.5 20.5t26.5 53.5q0 37 -26 58.5t-62 21.5h-72q-13 0 -22.5 9.5t-9.5 22.5v52q0 13 9.5 22.5t22.5 9.5h72q36 0 62 21.5t26 58.5q0 35 -26 54.5 t-62 19.5q-52 0 -111 -39q-10 -8 -24 -7t-23 11l-41 47q-8 10 -7.5 24t9.5 23q88 76 197 76q66 0 115 -21.5t73 -55.5t34.5 -67t10.5 -65q0 -36 -20 -78t-53 -61q37 -24 55 -62.5t18 -74.5q0 -31 -10.5 -63.5t-34.5 -67t-73 -56.5t-115 -22q-109 0 -201 76q-10 7 -10.5 21z " />
<glyph unicode="&#x2154;" horiz-adv-x="1413" d="M74 1323q-1 14 8 25q95 106 227 106q99 0 157 -59.5t58 -145.5q0 -43 -19.5 -86t-60.5 -104l-104 -148h137q14 0 23.5 -9.5t9.5 -22.5v-74q0 -13 -10 -23t-23 -10h-356q-11 0 -19 8t-8 19q0 23 15 49l215 307q43 62 43 100q0 22 -16 39t-42 17q-58 0 -127 -58 q-10 -9 -24 -9t-25 9l-47 47q-11 9 -12 23zM276 31l689 1376q15 29 47 29h112q10 0 17 -10t2 -19l-686 -1376q-15 -29 -47 -29h-115q-10 0 -17 10t-2 19zM888.5 93q-0.5 14 8.5 24l41 43q9 10 23 11t24 -7q49 -33 115 -33q35 0 61.5 20.5t26.5 53.5q0 37 -26 58.5t-62 21.5 h-72q-14 0 -23.5 9.5t-9.5 22.5v52q0 13 9.5 22.5t23.5 9.5h72q36 0 62 21.5t26 58.5q0 35 -26 54.5t-62 19.5q-52 0 -111 -39q-10 -8 -24 -7t-23 11l-41 47q-8 10 -7.5 24t9.5 23q88 76 197 76q66 0 115 -21.5t73 -55.5t34.5 -67t10.5 -65q0 -36 -20 -78t-53 -61 q37 -24 55 -62.5t18 -74.5q0 -31 -10.5 -63.5t-34.5 -67t-73 -56.5t-115 -22q-109 0 -201 76q-10 7 -10.5 21z" />
<glyph unicode="&#x215b;" horiz-adv-x="1286" d="M65 1263q3 14 13 21l184 133q25 19 60 19h10q14 0 23.5 -10t9.5 -23v-604q0 -13 -9.5 -23t-23.5 -10h-94q-14 0 -23.5 10t-9.5 23v409l-64 -28q-12 -6 -25.5 -2t-19.5 16l-28 43q-6 12 -3 26zM158 29l688 1376q14 29 47 29h113q10 0 16.5 -10t1.5 -19l-686 -1376 q-14 -29 -47 -29h-115q-10 0 -16.5 10t-1.5 19zM745 195q0 45 20 84t54 61q-74 52 -74 137q0 32 10.5 64.5t34 65t71 53t112.5 20.5q64 0 111 -20.5t70.5 -53.5t33.5 -65t10 -64q0 -33 -18.5 -74t-55.5 -63q39 -21 56.5 -63t17.5 -82q0 -32 -10 -64t-33.5 -65t-70.5 -53.5 t-111 -20.5q-65 0 -112.5 20.5t-71 53t-34 65t-10.5 64.5zM899 195q0 -29 22.5 -47.5t51.5 -18.5t50 18t21 48q0 31 -21 49t-50 18q-30 0 -52 -18t-22 -49zM899 477q0 -31 22 -48t52 -17t50.5 17t20.5 48t-21 48.5t-50 17.5q-30 0 -52 -17.5t-22 -48.5z" />
<glyph unicode="&#x215c;" horiz-adv-x="1347" d="M73.5 848q-0.5 14 8.5 24l41 43q9 10 23 11.5t24 -6.5q49 -33 115 -33q35 0 61.5 20.5t26.5 53.5q0 36 -26 57.5t-62 21.5h-72q-13 0 -23 10t-10 23v51q0 14 10 23.5t23 9.5h72q36 0 62 21.5t26 58.5q0 35 -26 54.5t-62 19.5q-52 0 -111 -39q-10 -8 -24 -7t-23 11l-41 47 q-8 10 -7.5 24t9.5 23q88 76 197 76q66 0 115 -21.5t73 -55.5t34.5 -67t10.5 -65q0 -36 -20.5 -78t-53.5 -61q37 -24 55.5 -62.5t18.5 -74.5q0 -31 -10.5 -63.5t-34.5 -67t-73 -56.5t-115 -22q-111 0 -201 75q-10 7 -10.5 21zM238 29l688 1376q14 29 47 29h112q10 0 17 -10 t2 -19l-686 -1376q-14 -29 -47 -29h-115q-10 0 -16.5 10t-1.5 19zM825 195q0 45 20 84t54 61q-74 52 -74 137q0 32 10.5 64.5t34 65t71 53t112.5 20.5q64 0 111 -20.5t70.5 -53.5t33.5 -65t10 -64q0 -33 -18.5 -74t-55.5 -63q39 -21 56.5 -63t17.5 -82q0 -32 -10 -64 t-33.5 -65t-70.5 -53.5t-111 -20.5q-65 0 -112.5 20.5t-71 53t-34 65t-10.5 64.5zM979 195q0 -29 22.5 -47.5t51.5 -18.5t50 18t21 48q0 31 -21 49t-50 18q-30 0 -52 -18t-22 -49zM979 477q0 -31 22 -48t52 -17t50.5 17t20.5 48t-21 48.5t-50 17.5q-30 0 -52 -17.5 t-22 -48.5z" />
<glyph unicode="&#x215d;" horiz-adv-x="1341" d="M74 875.5q1 14.5 12 23.5l49 49q22 19 47 -2q48 -43 113 -43q41 0 63.5 23.5t22.5 58.5q0 36 -23 62t-65 26h-139q-14 0 -23.5 9.5t-9.5 23.5v299q0 13 9.5 23t23.5 10h307q13 0 23 -10t10 -23v-80q0 -13 -10 -23t-23 -10h-180v-75h12q60 0 105.5 -15t71.5 -38.5 t42.5 -55.5t21.5 -60.5t5 -60.5q0 -25 -6.5 -53t-24 -60t-44 -57.5t-71 -42t-100.5 -16.5q-120 0 -211 94q-9 9 -8 23.5zM238 29l688 1376q14 29 47 29h112q10 0 17 -10t2 -19l-686 -1376q-14 -29 -47 -29h-115q-10 0 -16.5 10t-1.5 19zM825 195q0 45 20 84t54 61 q-74 52 -74 137q0 32 10.5 64.5t34 65t71 53t112.5 20.5q64 0 111 -20.5t70.5 -53.5t33.5 -65t10 -64q0 -33 -18.5 -74t-55.5 -63q39 -21 56.5 -63t17.5 -82q0 -32 -10 -64t-33.5 -65t-70.5 -53.5t-111 -20.5q-65 0 -112.5 20.5t-71 53t-34 65t-10.5 64.5zM979 195 q0 -29 22.5 -47.5t51.5 -18.5t50 18t21 48q0 31 -21 49t-50 18q-30 0 -52 -18t-22 -49zM979 477q0 -31 22 -48t52 -17t50.5 17t20.5 48t-21 48.5t-50 17.5q-30 0 -52 -17.5t-22 -48.5z" />
<glyph unicode="&#x215e;" horiz-adv-x="1257" d="M78 1325v80q0 13 10 23t23 10h362q13 0 23 -10t10 -23v-25q0 -33 -12 -63l-222 -520q-14 -31 -45 -31h-100q-12 0 -19 10t-2 21l199 495h-194q-13 0 -23 10t-10 23zM131 29l688 1376q15 29 47 29h113q10 0 16.5 -10t1.5 -19l-686 -1376q-15 -29 -47 -29h-114 q-10 0 -17 10t-2 19zM719 195q0 45 20 84t54 61q-74 52 -74 137q0 25 5.5 50.5t21.5 53.5t40.5 49.5t65.5 35.5t94 14q64 0 111 -20.5t70.5 -53.5t33.5 -65t10 -64q0 -33 -18 -74t-55 -63q38 -21 55.5 -63t17.5 -82q0 -32 -10 -64t-33.5 -65t-70.5 -53.5t-111 -20.5 q-53 0 -94 14t-65.5 35.5t-40.5 49.5t-21.5 53.5t-5.5 50.5zM872 195q0 -29 22.5 -47.5t51.5 -18.5t50.5 18t21.5 48q0 31 -21.5 49t-50.5 18q-30 0 -52 -18t-22 -49zM872 477q0 -31 22 -48t52 -17t51 17t21 48t-21 48.5t-51 17.5t-52 -17.5t-22 -48.5z" />
<glyph unicode="&#x25fc;" horiz-adv-x="1024" d="M0 0v1024h1024v-1024h-1024z" />
<glyph horiz-adv-x="1179" d="M123 512q0 65 11.5 130t44 138t82.5 128t135.5 91.5t193.5 36.5q103 0 185.5 -35.5t134 -91t86 -128.5t48 -142.5t13.5 -138.5q0 -67 -11.5 -132t-44 -135.5t-83 -123t-135 -87t-193.5 -34.5q-79 0 -145 18.5t-113.5 49.5t-84.5 74.5t-60 90t-37.5 99t-20.5 99.5t-6 93z M367 512q0 -23 2 -45.5t8 -61.5t21.5 -71.5t38.5 -63.5t62.5 -49t90.5 -18t90.5 17t62.5 47t38.5 61t21.5 68.5t8 59.5t2 44q0 23 -2 46.5t-8 63.5t-21.5 73.5t-38.5 66t-62.5 51t-90.5 18.5q-44 0 -79.5 -14t-58 -35.5t-39.5 -52t-25.5 -58t-13.5 -59.5t-6 -50.5t-1 -37.5z " />
<glyph horiz-adv-x="950" d="M75 720q3 14 13 21l414 291q25 19 59 19h4q13 0 23 -9.5t10 -23.5v-842h197q13 0 22.5 -9.5t9.5 -23.5v-110q0 -14 -9.5 -23.5t-22.5 -9.5h-643q-14 0 -23.5 10t-9.5 23v110q0 13 9.5 23t23.5 10h227v533l-207 -109q-12 -6 -25.5 -2t-19.5 16l-49 80q-6 12 -3 26z" />
<glyph horiz-adv-x="890" d="M61 33q0 33 21 57l387 488q58 73 70 139q1 10 1 24t-7 29.5t-17.5 29t-31.5 22.5t-48 9q-95 0 -221 -102q-10 -8 -24 -7t-21 11l-84 96q-9 10 -8.5 25t10.5 25q159 159 348 159q156 0 248.5 -89t79.5 -253q-7 -95 -125 -256l-186 -235h282q13 0 23 -9.5t10 -23.5v-139 q0 -13 -10 -23t-23 -10h-641q-14 0 -23.5 10t-9.5 23z" />
<glyph horiz-adv-x="997" d="M95 866q1 14 11 23q166 145 363 145q94 0 168 -25.5t117.5 -64.5t71.5 -90t38 -96.5t10 -89.5q0 -68 -41 -148t-108 -114q67 -33 108 -111.5t41 -161.5q0 -44 -10 -89t-38 -97t-71.5 -91.5t-117.5 -65.5t-168 -26q-114 0 -198 43t-162 113q-10 9 -11.5 23t6.5 24l89 103 q8 9 21 10t24 -8q51 -42 113.5 -69.5t117.5 -27.5q74 0 125 41t51 117q0 77 -52 124.5t-124 47.5h-143q-14 0 -23.5 9.5t-9.5 23.5v137q0 13 9.5 23t23.5 10h143q73 0 124.5 42.5t51.5 117.5q0 78 -51 119.5t-125 41.5q-55 0 -117 -25t-114 -67q-10 -9 -24.5 -8.5 t-23.5 10.5l-88 103q-8 10 -7 24z" />
<glyph horiz-adv-x="1052" d="M61 61v74q0 35 19 60l518 802q20 27 51 27h125q14 0 23.5 -10t9.5 -23v-749h151q14 0 23.5 -10t9.5 -23v-148q0 -13 -9.5 -22.5t-23.5 -9.5h-151v-224q0 -13 -9.5 -22.5t-23.5 -9.5h-178q-14 0 -23.5 9.5t-9.5 22.5v224h-469q-14 0 -23.5 9.5t-9.5 22.5zM367 242h196v315 z" />
<glyph horiz-adv-x="1073" d="M135 -24.5q1 13.5 10 22.5l103 100q11 9 24 8t21 -10q102 -112 219 -112q95 0 151 61t56 141q0 90 -59.5 148.5t-161.5 58.5h-260q-14 0 -23.5 9.5t-9.5 23.5v565q0 13 9.5 23t23.5 10h610q14 0 23.5 -10t9.5 -23v-149q0 -14 -9.5 -23.5t-23.5 -9.5h-408v-209h70 q102 0 182 -26.5t127.5 -68.5t78 -99.5t41.5 -112.5t11 -115q0 -44 -11.5 -93.5t-42.5 -107t-78.5 -102t-127.5 -74.5t-180 -30q-111 0 -198 44t-169 136q-9 11 -8 24.5z" />
<glyph horiz-adv-x="1112" d="M125 399q-3 125 25 240.5t76 206t117.5 172t142 141t157.5 111.5q12 7 25.5 4t21.5 -14l84 -121q7 -11 4 -24t-14 -19q-113 -66 -184 -136.5t-131 -158.5q56 20 110 20q101 0 180 -29.5t125 -73.5t75.5 -103.5t39.5 -111.5t10 -104q0 -34 -8 -74t-26 -88t-51.5 -91 t-78.5 -79t-114.5 -57.5t-153.5 -21.5q-71 0 -132.5 16t-104.5 42.5t-77.5 62.5t-56 73.5t-35.5 78t-20 74.5t-6 64zM358 410q0 -82 53 -144.5t146 -62.5q94 0 146.5 62.5t52.5 144.5t-52 142t-147 60q-92 0 -145.5 -59.5t-53.5 -142.5z" />
<glyph horiz-adv-x="888" d="M61 844v147q0 13 9.5 23t23.5 10h682q14 0 23.5 -10t9.5 -23q0 -31 -12 -61l-435 -1127q-13 -30 -45 -30h-180q-12 0 -18.5 9.5t-1.5 20.5l391 1008h-414q-14 0 -23.5 9.5t-9.5 23.5z" />
<glyph horiz-adv-x="1093" d="M123 360q0 83 41.5 163.5t101.5 107.5q-61 41 -95 113t-34 157q0 36 7.5 74t24 81t47.5 80.5t74 68.5t108 49t145 18h8q95 0 169 -26t117.5 -65.5t71 -91.5t37.5 -97.5t10 -90.5q0 -85 -34 -157t-95 -113q61 -27 102.5 -107.5t41.5 -163.5q0 -49 -12 -97.5t-43 -100 t-77.5 -90t-122.5 -63.5t-171 -25h4q-95 0 -171 25t-122.5 63.5t-77.5 90t-43 100t-12 97.5zM348 360q0 -88 58 -131t143 -43h-4q85 0 142.5 43t57.5 131q0 61 -50.5 116.5t-149.5 55.5h4q-99 0 -150 -55.5t-51 -116.5zM362 901q0 -19 9 -44.5t28.5 -54.5t58 -50t89.5 -23 q51 2 89.5 23t57.5 50t28 54.5t9 44.5q0 78 -54.5 123t-129.5 45t-130 -45t-55 -123z" />
<glyph horiz-adv-x="1112" d="M123 629q0 34 8 74t26 88t51.5 91t78.5 79t114.5 57.5t153.5 21.5q71 0 132.5 -16t104.5 -42.5t77.5 -62.5t56 -73.5t35.5 -78t20 -74.5t6 -64q3 -126 -25 -242t-76 -206.5t-117.5 -171.5t-142 -140.5t-157.5 -110.5q-12 -7 -25.5 -3.5t-21.5 14.5l-84 120q-8 10 -5 23.5 t15 19.5q112 64 184 135t132 160q-56 -20 -111 -20q-101 0 -180 29.5t-125 73.5t-75.5 103.5t-39.5 111.5t-10 104zM356 618q0 -82 52 -142t147 -60q92 0 145.5 59.5t53.5 142.5q0 82 -53 144.5t-146 62.5q-94 0 -146.5 -62.5t-52.5 -144.5z" />
<glyph horiz-adv-x="1148" d="M135 381l25 70q13 30 45 30h16v66h-65q-12 0 -19 10t-2 21l25 69q14 31 45 31h35q17 71 49 130.5t83.5 113t132.5 84t183 30.5q187 0 313 -104q10 -7 12.5 -22t-5.5 -25l-82 -113q-8 -11 -21 -13t-24 5q-44 27 -97.5 41t-95.5 14q-139 0 -196 -141h313q12 0 18.5 -10 t1.5 -21l-24 -69q-14 -31 -45 -31h-291v-35q0 -3 -0.5 -8.5t-0.5 -11t1 -11.5h227q12 0 19 -9.5t2 -20.5l-25 -70q-14 -31 -45 -31h-154q52 -147 199 -147q74 0 180 59q12 6 26 3t21 -13l74 -117q8 -10 6 -24t-14 -23q-141 -100 -293 -100q-103 0 -184.5 31t-133 85 t-83.5 114.5t-49 131.5h-82q-12 0 -19 10t-2 21z" />
<glyph horiz-adv-x="1277" d="M105 87.5q-3 13.5 4 25.5q77 121 178 172v143h-78q-13 0 -23 10t-10 23v98q0 13 10 23t23 10h78v123q0 167 102 254.5t260 87.5q126 0 248 -51q13 -6 18.5 -19.5t-0.5 -25.5l-45 -125q-6 -12 -18.5 -18.5t-24.5 -2.5q-95 31 -161 31q-58 0 -97 -33.5t-39 -105.5v-115h166 q14 0 23.5 -10t9.5 -23v-98q0 -13 -9.5 -23t-23.5 -10h-166v-123q71 -39 99 -53.5t77 -31.5t87 -17q98 0 194 104q9 10 23 11t24 -7l96 -78q11 -9 13.5 -23t-4.5 -26q-67 -106 -165.5 -157.5t-195.5 -51.5q-52 0 -105 19.5t-89 43t-78 43t-74 19.5q-88 0 -172 -98 q-9 -9 -22.5 -11t-24.5 5l-94 70q-11 8 -14 21.5z" />
<glyph horiz-adv-x="1241" d="M123 1014q4 10 14 10h221q32 0 52 -27l208 -282l207 282q17 27 52 27h225q10 0 14 -10t-2 -17l-346 -458h174q14 0 23.5 -9.5t9.5 -23.5v-98q0 -14 -9.5 -23.5t-23.5 -9.5h-199v-99h199q14 0 23.5 -9.5t9.5 -22.5v-80q0 -14 -9.5 -23.5t-23.5 -9.5h-199v-98 q0 -14 -9.5 -23.5t-22.5 -9.5h-183q-13 0 -22.5 9.5t-9.5 23.5v98h-203q-13 0 -23 9.5t-10 23.5v80q0 13 9.5 22.5t23.5 9.5h203v99h-203q-13 0 -23 9.5t-10 23.5v98q0 14 10 23.5t23 9.5h178l-346 458q-6 7 -2 17z" />
<glyph horiz-adv-x="1771" d="M61 815q0 55 16 108.5t50 104.5t98.5 83t151.5 32q86 0 150 -32t98 -83t49.5 -104.5t15.5 -108.5q0 -43 -9 -86t-32 -87t-57 -77.5t-89.5 -54.5t-125.5 -21t-126 21t-91 54.5t-58 77.5t-32 87t-9 86zM256 815q0 -19 4.5 -39.5t16 -46t37.5 -41.5t63 -16q29 0 51.5 11.5 t34.5 27.5t20 37t10.5 37t2.5 30t-2.5 30t-10.5 37t-20 37t-34.5 27.5t-51.5 11.5q-37 0 -63 -16t-37.5 -41.5t-16 -46t-4.5 -39.5zM608 31l355 1079q10 31 43 31h139q12 0 18.5 -10t3.5 -21l-352 -1079q-4 -13 -16.5 -22t-26.5 -9h-141q-12 0 -19.5 10.5t-3.5 20.5z M1081 315q0 55 16 108.5t50 104.5t98.5 83t151.5 32q86 0 150 -32t98 -83t49.5 -104.5t15.5 -108.5q0 -43 -9 -85.5t-32 -87t-57 -77.5t-89.5 -54t-125.5 -21t-126 21t-91 54t-58 77.5t-32 87t-9 85.5zM1276 315q0 -19 4.5 -39.5t16 -46t37.5 -41.5t63 -16q29 0 51.5 11.5 t34.5 27.5t20 37t10.5 37t2.5 30q0 19 -4.5 40t-16 46t-37 41.5t-61.5 16.5q-37 0 -63 -16.5t-37.5 -42t-16 -46t-4.5 -39.5z" />
<glyph horiz-adv-x="1255" d="M123 512q0 70 15 139.5t52 140.5t92 125.5t143 88.5t198 34q157 0 282 -96l19 49q10 31 43 31h92q13 0 23 -10t10 -23v-958q0 -13 -10 -23t-23 -10h-92q-33 0 -43 31l-19 49q-125 -96 -282 -96q-110 0 -198 34t-143 88.5t-92 125.5t-52 140.5t-15 139.5zM362 512 q0 -30 5 -64.5t22.5 -82t45 -84t79.5 -62.5t119 -26q145 0 217 112v414q-72 112 -217 112q-67 0 -119 -26t-79.5 -62.5t-45 -84t-22.5 -82t-5 -64.5z" />
<glyph horiz-adv-x="1253" d="M123 512q0 70 15 139.5t52 140.5t92 125.5t143 88.5t198 34q157 0 282 -96l19 49q10 31 43 31h92q13 0 23 -10t10 -23v-958q0 -13 -10 -23t-23 -10h-92q-33 0 -43 31l-19 49q-125 -96 -282 -96q-110 0 -198 34t-143 88.5t-92 125.5t-52 140.5t-15 139.5zM299 1348 q0 59 39.5 99t99.5 40q59 0 99.5 -40.5t40.5 -98.5q0 -61 -40.5 -100.5t-99.5 -39.5q-60 0 -99.5 39.5t-39.5 100.5zM362 512q0 -30 5 -64.5t22.5 -82t45 -84t79.5 -62.5t119 -26q145 0 217 112v414q-72 112 -217 112q-67 0 -119 -26t-79.5 -62.5t-45 -84t-22.5 -82 t-5 -64.5zM778 1348q0 59 40 99t100 40q58 0 98.5 -40.5t40.5 -98.5q0 -61 -40 -100.5t-99 -39.5q-60 0 -100 39.5t-40 100.5z" />
<glyph horiz-adv-x="1253" d="M123 512q0 70 15 139.5t52 140.5t92 125.5t143 88.5t198 34q157 0 282 -96l19 49q10 31 43 31h92q13 0 23 -10t10 -23v-958q0 -13 -10 -23t-23 -10h-92q-33 0 -43 31l-19 49q-125 -96 -282 -96q-110 0 -198 34t-143 88.5t-92 125.5t-52 140.5t-15 139.5zM362 512 q0 -30 5 -64.5t22.5 -82t45 -84t79.5 -62.5t119 -26q145 0 217 112v414q-72 112 -217 112q-67 0 -119 -26t-79.5 -62.5t-45 -84t-22.5 -82t-5 -64.5zM430 1409q0 86 61.5 147.5t147.5 61.5t146.5 -61.5t60.5 -147.5t-60.5 -146.5t-146.5 -60.5t-147.5 60.5t-61.5 146.5z M571 1409q0 -26 20 -46t48 -20q26 0 46 20t20 46q0 28 -20 48t-46 20q-28 0 -48 -20t-20 -48z" />
<glyph horiz-adv-x="1253" d="M123 512q0 70 15 139.5t52 140.5t92 125.5t143 88.5t198 34q157 0 282 -96l19 49q10 31 43 31h92q13 0 23 -10t10 -23v-958q0 -13 -10 -23t-23 -10h-92q-33 0 -43 31l-19 49q-125 -96 -282 -96q-110 0 -198 34t-143 88.5t-92 125.5t-52 140.5t-15 139.5zM362 512 q0 -30 5 -64.5t22.5 -82t45 -84t79.5 -62.5t119 -26q145 0 217 112v414q-72 112 -217 112q-67 0 -119 -26t-79.5 -62.5t-45 -84t-22.5 -82t-5 -64.5zM380 1412.5q-3 13.5 5 23.5l78 110q7 10 20.5 12t22.5 -6l254 -211q10 -9 12 -23t-6 -24l-41 -59q-7 -10 -21 -13t-26 3 l-283 168q-12 6 -15 19.5z" />
<glyph horiz-adv-x="1253" d="M123 512q0 70 15 139.5t52 140.5t92 125.5t143 88.5t198 34q157 0 282 -96l19 49q10 31 43 31h92q13 0 23 -10t10 -23v-958q0 -13 -10 -23t-23 -10h-92q-33 0 -43 31l-19 49q-125 -96 -282 -96q-110 0 -198 34t-143 88.5t-92 125.5t-52 140.5t-15 139.5zM340 1314 q2 14 12 23l254 211q11 9 25 9t24 -9l254 -211q10 -9 12 -23t-6 -24l-41 -59q-7 -10 -21 -13t-26 3l-196 116l-197 -116q-12 -6 -26 -3t-21 13l-41 59q-8 10 -6 24zM362 512q0 -30 5 -64.5t22.5 -82t45 -84t79.5 -62.5t119 -26q145 0 217 112v414q-72 112 -217 112 q-67 0 -119 -26t-79.5 -62.5t-45 -84t-22.5 -82t-5 -64.5z" />
<glyph horiz-adv-x="1253" d="M123 512q0 70 15 139.5t52 140.5t92 125.5t143 88.5t198 34q157 0 282 -96l19 49q10 31 43 31h92q13 0 23 -10t10 -23v-958q0 -13 -10 -23t-23 -10h-92q-33 0 -43 31l-19 49q-125 -96 -282 -96q-110 0 -198 34t-143 88.5t-92 125.5t-52 140.5t-15 139.5zM362 512 q0 -30 5 -64.5t22.5 -82t45 -84t79.5 -62.5t119 -26q145 0 217 112v414q-72 112 -217 112q-67 0 -119 -26t-79.5 -62.5t-45 -84t-22.5 -82t-5 -64.5zM443 1318q2 14 12 23l254 211q9 8 22.5 6t20.5 -12l77 -110q8 -10 5 -23.5t-15 -19.5l-282 -168q-12 -6 -26.5 -3t-21.5 13 l-40 59q-8 10 -6 24z" />
<glyph horiz-adv-x="1253" d="M123 512q0 70 15 139.5t52 140.5t92 125.5t143 88.5t198 34q157 0 282 -96l19 49q10 31 43 31h92q13 0 23 -10t10 -23v-958q0 -13 -10 -23t-23 -10h-92q-33 0 -43 31l-19 49q-125 -96 -282 -96q-110 0 -198 34t-143 88.5t-92 125.5t-52 140.5t-15 139.5zM311 1296 q67 172 224 172q43 0 81 -18t67 -35.5t52 -17.5q44 0 82 55q8 12 20.5 16t24.5 -2l88 -47q12 -6 16.5 -18.5t-1.5 -24.5q-86 -166 -234 -166q-48 0 -106 39t-93 39q-43 0 -79 -59q-6 -11 -19 -16t-24 1l-80 37q-12 6 -17.5 19.5t-1.5 25.5zM362 512q0 -30 5 -64.5t22.5 -82 t45 -84t79.5 -62.5t119 -26q145 0 217 112v414q-72 112 -217 112q-67 0 -119 -26t-79.5 -62.5t-45 -84t-22.5 -82t-5 -64.5z" />
<glyph horiz-adv-x="614" d="M61 727q0 498 314 963q8 11 21 13t24 -5l104 -66q12 -8 16 -21.5t-3 -25.5q-232 -438 -232 -856q0 -427 232 -868q7 -12 3 -25.5t-16 -21.5l-104 -66q-11 -7 -24 -5t-21 13q-314 462 -314 971z" />
<glyph horiz-adv-x="614" d="M73.5 -164.5q-3.5 13.5 2.5 25.5q233 437 233 868q0 422 -233 856q-6 12 -2.5 25.5t14.5 21.5l105 66q12 7 25.5 5t21.5 -13q313 -463 313 -963q0 -511 -313 -971q-8 -11 -21.5 -13t-25.5 5l-105 66q-11 8 -14.5 21.5z" />
<glyph horiz-adv-x="897" d="M164 655v144q0 13 9.5 22.5t23.5 9.5h503q14 0 23.5 -9.5t9.5 -22.5v-144q0 -13 -9.5 -22.5t-23.5 -9.5h-503q-14 0 -23.5 9.5t-9.5 22.5z" />
<glyph horiz-adv-x="530" d="M61 -248v1952q0 14 9.5 23.5t23.5 9.5h342q14 0 23.5 -9.5t9.5 -23.5v-121q0 -13 -9.5 -23t-23.5 -10h-139v-1644h139q14 0 23.5 -10t9.5 -23v-121q0 -14 -9.5 -23.5t-23.5 -9.5h-342q-14 0 -23.5 9.5t-9.5 23.5z" />
<glyph horiz-adv-x="530" d="M61 -127q0 13 9.5 23t23.5 10h139v1644h-139q-14 0 -23.5 10t-9.5 23v121q0 14 9.5 23.5t23.5 9.5h342q14 0 23.5 -9.5t9.5 -23.5v-1952q0 -14 -9.5 -23.5t-23.5 -9.5h-342q-14 0 -23.5 9.5t-9.5 23.5v121z" />
<glyph horiz-adv-x="638" d="M61 674v98q0 14 9.5 23.5t23.5 9.5h4q35 5 62.5 37t27.5 86v434q0 71 17.5 129t44 94.5t62.5 64t67 40.5t63.5 21t47.5 9.5t22 1.5h33q14 0 23.5 -9.5t9.5 -22.5v-121q0 -13 -10 -23t-23 -10h-25q-8 0 -16.5 -2t-24.5 -13t-27.5 -29.5t-20.5 -56.5t-9 -89v-437 q0 -57 -34.5 -107.5t-78.5 -74.5v-8q44 -22 78.5 -73t34.5 -107v-439q0 -51 9 -89t20.5 -56.5t27.5 -29.5t24.5 -13t16.5 -2h25q13 0 23 -10t10 -23v-121q0 -13 -9.5 -22.5t-23.5 -9.5h-33q-7 0 -22 1.5t-47.5 9.5t-63.5 21t-67 40.5t-62.5 64t-44 94.5t-17.5 129v436 q0 54 -27.5 85t-62.5 36h-4q-14 0 -23.5 9.5t-9.5 23.5z" />
<glyph horiz-adv-x="428" d="M123 -242v1925q0 13 9.5 23t23.5 10h116q14 0 23.5 -10t9.5 -23v-1925q0 -13 -9.5 -22.5t-23.5 -9.5h-116q-14 0 -23.5 9.5t-9.5 22.5z" />
<glyph horiz-adv-x="638" d="M61 -123q0 13 9.5 23t23.5 10h25q8 0 16.5 2t24.5 13t27.5 29.5t20.5 56.5t9 89v439q0 56 34.5 107t78.5 73v8q-44 24 -78.5 74.5t-34.5 107.5v437q0 51 -9 89t-20.5 56.5t-27.5 29.5t-24.5 13t-16.5 2h-25q-14 0 -23.5 10t-9.5 23v121q0 13 9.5 22.5t23.5 9.5h33 q7 0 22 -1.5t47.5 -9.5t63.5 -21t67 -40.5t62.5 -64t44 -94.5t17.5 -129v-434q0 -54 27.5 -86t62.5 -37h4q13 0 23 -9.5t10 -23.5v-98q0 -14 -10 -23.5t-23 -9.5h-4q-35 -5 -62.5 -36t-27.5 -85v-436q0 -71 -17.5 -129t-44 -94.5t-62.5 -64t-67 -40.5t-63.5 -21t-47.5 -9.5 t-22 -1.5h-33q-14 0 -23.5 9.5t-9.5 22.5v121z" />
<glyph horiz-adv-x="604" d="M61 723q0 26 19 45l319 338q9 10 23 10.5t24 -8.5l72 -61q11 -9 12 -24t-8 -26l-221 -274l221 -277q9 -11 8 -24.5t-12 -22.5l-72 -61q-10 -9 -24 -8.5t-23 10.5l-319 338q-19 19 -19 45z" />
<glyph horiz-adv-x="604" d="M74 421.5q-1 13.5 8 24.5l221 277l-221 274q-9 11 -8 26t12 24l72 61q10 9 24 8.5t23 -10.5l319 -338q19 -19 19 -45t-19 -45l-319 -338q-9 -10 -23 -10.5t-24 8.5l-72 61q-11 9 -12 22.5z" />
<glyph horiz-adv-x="1060" d="M61 698q0 26 19 45l319 338q9 10 23 10.5t24 -8.5l72 -61q11 -9 12 -23.5t-8 -25.5l-221 -275l221 -276q9 -11 8 -24.5t-12 -22.5l-72 -62q-10 -9 -24 -8.5t-23 10.5l-319 338q-19 19 -19 45zM518 698q0 26 19 45l319 338q9 10 23 10.5t24 -8.5l72 -61q11 -9 12 -23.5 t-8 -25.5l-221 -275l221 -276q9 -11 8 -24.5t-12 -22.5l-72 -62q-10 -9 -24 -8.5t-23 10.5l-319 338q-19 19 -19 45z" />
<glyph horiz-adv-x="1060" d="M74 397.5q-1 13.5 8 24.5l221 276l-221 275q-9 11 -8 25.5t12 23.5l72 61q10 9 24 8.5t23 -10.5l319 -338q19 -19 19 -45t-19 -45l-319 -338q-9 -10 -23 -10.5t-24 8.5l-72 62q-11 9 -12 22.5zM531 397.5q-1 13.5 8 24.5l221 276l-221 275q-9 11 -8 25.5t12 23.5l71 61 q10 9 24.5 8.5t23.5 -10.5l319 -338q18 -18 18 -45t-18 -45l-319 -338q-9 -10 -23.5 -10.5t-24.5 8.5l-71 62q-11 9 -12 22.5z" />
<glyph horiz-adv-x="1126" d="M164 715v129q0 14 10 23.5t23 9.5h735q14 0 23.5 -9.5t9.5 -23.5v-129q0 -13 -9.5 -23t-23.5 -10h-735q-13 0 -23 10t-10 23z" />
<glyph horiz-adv-x="1376" d="M164 713v129q0 13 9.5 22.5t23.5 9.5h983q14 0 23 -9t9 -23v-129q0 -14 -9.5 -23.5t-22.5 -9.5h-983q-13 0 -23 10t-10 23z" />
<glyph horiz-adv-x="839" d="M164 725q0 104 76 182t176 78q107 0 183.5 -77.5t76.5 -182.5q0 -102 -76.5 -177t-183.5 -75q-100 0 -176 75.5t-76 176.5z" />
<glyph horiz-adv-x="548" d="M123 745q0 65 42.5 107.5t106.5 42.5t109 -43t45 -107q0 -63 -45.5 -108t-108.5 -45q-64 0 -106.5 44.5t-42.5 108.5z" />
<glyph horiz-adv-x="425" d="M123 -242v715q0 13 9.5 23t23.5 10h114q14 0 23.5 -10t9.5 -23v-715q0 -13 -9.5 -22.5t-23.5 -9.5h-114q-14 0 -23.5 9.5t-9.5 22.5zM123 971v715q0 13 9.5 22.5t23.5 9.5h114q14 0 23.5 -9.5t9.5 -22.5v-715q0 -13 -9.5 -23t-23.5 -10h-114q-14 0 -23.5 10t-9.5 23z" />
<glyph horiz-adv-x="1177" d="M123 254v127q0 13 9.5 23t23.5 10h139v198h-139q-14 0 -23.5 10t-9.5 23v127q0 14 9.5 23.5t23.5 9.5h139v186q0 13 9.5 23t23.5 10h129q13 0 22.5 -9.5t9.5 -23.5v-186h197v186q0 13 10 23t23 10h129q14 0 23.5 -10t9.5 -23v-186h141q14 0 23.5 -9.5t9.5 -23.5v-127 q0 -13 -9.5 -23t-23.5 -10h-141v-198h141q14 0 23.5 -10t9.5 -23v-127q0 -14 -9.5 -23.5t-23.5 -9.5h-141v-188q0 -13 -9.5 -23t-23.5 -10h-129q-13 0 -23 10t-10 23v188h-197v-188q0 -14 -9.5 -23.5t-22.5 -9.5h-129q-14 0 -23.5 10t-9.5 23v188h-139q-14 0 -23.5 9.5 t-9.5 23.5zM489 414h197v198h-197v-198z" />
<glyph horiz-adv-x="1026" d="M135.5 99.5q-4.5 13.5 1.5 25.5l60 127q6 12 18.5 17t24.5 -1q112 -56 198 -69v233q-43 14 -71 24.5t-66 29t-62.5 40t-48 50.5t-34.5 69t-11 88q0 130 79.5 211.5t213.5 93.5v105q0 13 10 23t23 10h90q13 0 23 -10t10 -23v-113q116 -18 244 -76q13 -6 17.5 -19t-1.5 -26 l-59 -133q-6 -12 -19.5 -16.5t-25.5 0.5q-91 37 -156 53v-199q51 -17 88.5 -32t82 -43t72.5 -60.5t47 -82t19 -109.5q0 -119 -85.5 -199t-223.5 -98v-115q0 -13 -10 -23t-23 -10h-90q-13 0 -23 10t-10 23v113q-142 14 -286 92q-12 6 -16.5 19.5zM377 743q0 -41 61 -71v141 q-58 -20 -61 -70zM594 207q37 15 53 47q16 28 2 63q-15 35 -55 56v-166z" />
<glyph horiz-adv-x="1142" d="M123 508q0 68 11.5 132.5t42 132.5t77.5 120.5t123.5 91t173.5 49.5v103q0 13 9.5 22.5t23.5 9.5h86q14 0 23 -9.5t9 -22.5v-101q165 -21 306 -159q9 -9 9 -23t-9 -25l-95 -106q-9 -10 -22.5 -10.5t-22.5 8.5q-70 64 -166 90v-588q83 19 154 82q10 9 24.5 9t24.5 -9 l115 -102q10 -9 10.5 -23t-8.5 -24q-143 -150 -320 -166v-119q0 -14 -9.5 -23.5t-22.5 -9.5h-86q-14 0 -23.5 10t-9.5 23v121q-93 12 -168.5 50.5t-122.5 91t-79 118.5t-45 129.5t-13 126.5zM365 508q0 -110 51.5 -182.5t134.5 -98.5v578q-88 -30 -137 -113t-49 -184z" />
<glyph horiz-adv-x="1255" d="M123 512q0 70 15 139.5t52 140.5t92 125.5t143 88.5t198 34q157 0 282 -96l19 49q10 31 43 31h92q13 0 23 -10t10 -23v-956q0 -43 -4 -83.5t-16 -92.5t-32.5 -96t-57 -87.5t-85 -74t-120 -49.5t-159.5 -19q-220 0 -438 174q-10 7 -11 21t7 24l92 107q8 9 21 10t24 -6 q146 -119 297 -119q240 0 240 272v7q-103 -39 -217 -39q-113 0 -203.5 34.5t-146.5 89t-93 126t-52 140.5t-15 138zM362 512q0 -33 6.5 -70t26 -82.5t49.5 -81.5t83.5 -60.5t121.5 -24.5q119 0 201 57v469q-72 112 -217 112q-67 0 -119 -26t-79.5 -62.5t-45 -84t-22.5 -82 t-5 -64.5z" />
<glyph horiz-adv-x="659" d="M61 1100q0 45 8 90.5t27.5 92t49 82.5t77.5 58.5t107 22.5t107 -22.5t77 -58.5t49 -83t27.5 -92t7.5 -90q0 -58 -13.5 -114t-42.5 -109t-83.5 -85t-128.5 -32q-60 0 -107.5 22t-77 56.5t-49 80.5t-27.5 90.5t-8 90.5zM219 1100q0 -24 4.5 -53t15.5 -64t34.5 -58.5 t56.5 -23.5t56.5 23.5t34 58.5t15 64t4.5 53t-4.5 53.5t-15 65.5t-34 60t-56.5 24t-56.5 -24t-34.5 -60t-15.5 -65.5t-4.5 -53.5z" />
<glyph horiz-adv-x="446" d="M54 1264.5q3 13.5 14 21.5l184 133q25 19 59 19h11q13 0 22.5 -9.5t9.5 -23.5v-604q0 -14 -9.5 -23.5t-22.5 -9.5h-95q-13 0 -22.5 9.5t-9.5 23.5v409l-64 -28q-12 -6 -25.5 -2t-19.5 16l-29 43q-6 12 -3 25.5z" />
<glyph d="M74 1318.5q-1 13.5 8 24.5q96 107 227 107q99 0 157 -59.5t58 -145.5q0 -43 -19.5 -86t-60.5 -104l-104 -148h137q13 0 23 -9.5t10 -23.5v-73q0 -13 -10 -23t-23 -10h-375q-8 0 -13 5t-5 13q0 20 10 37l230 328q43 62 43 100q0 22 -16 39t-42 17q-58 0 -127 -58 q-10 -9 -24 -9t-25 9l-47 47q-11 9 -12 22.5z" />
<glyph horiz-adv-x="561" d="M55 852.5q-1 14.5 8 24.5l41 43q9 10 23.5 11t24.5 -7q49 -33 114 -33q35 0 61.5 20.5t26.5 53.5q0 36 -26 57.5t-62 21.5h-71q-13 0 -23 10t-10 23v51q0 14 10 23.5t23 9.5h71q36 0 62 21.5t26 58.5q0 35 -26 54.5t-62 19.5q-51 0 -110 -39q-10 -8 -24 -7t-23 11l-41 47 q-8 10 -7.5 24t9.5 23q88 76 196 76q66 0 115 -21.5t73 -55.5t35 -67t11 -65q0 -36 -20.5 -78t-53.5 -61q37 -24 55.5 -62.5t18.5 -74.5q0 -31 -11 -63.5t-35 -67t-73 -56.5t-115 -22q-110 0 -200 75q-10 7 -11 21.5z" />
<glyph d="M41 907v58q0 35 18 59l267 389q20 27 51 27h59q14 0 23.5 -10t9.5 -23v-381h63q14 0 23.5 -10t9.5 -23v-86q0 -13 -9.5 -23t-23.5 -10h-63v-73q0 -13 -9.5 -23t-23.5 -10h-86q-14 0 -23.5 10t-9.5 23v73h-243q-14 0 -23.5 10t-9.5 23zM219 1026h98v148z" />
<glyph horiz-adv-x="600" d="M74 875.5q1 14.5 12 23.5l49 49q22 19 47 -2q48 -43 113 -43q41 0 63.5 23.5t22.5 58.5q0 36 -23 62t-65 26h-139q-14 0 -23.5 9.5t-9.5 23.5v299q0 13 9.5 23t23.5 10h307q13 0 23 -10t10 -23v-80q0 -13 -10 -23t-23 -10h-180v-75h12q60 0 105.5 -15t71.5 -38.5 t42.5 -55.5t21.5 -60.5t5 -60.5q0 -25 -6.5 -53t-24 -60t-44 -57.5t-71 -42t-100.5 -16.5q-120 0 -211 94q-9 9 -8 23.5z" />
<glyph horiz-adv-x="610" d="M63 991q-5 281 263 451q12 8 26 5t23 -15l43 -56q8 -10 6 -24t-12 -21q-103 -70 -138 -121q61 14 107.5 4t79 -33.5t52 -57.5t28 -67.5t6.5 -64.5q-1 -25 -7 -51t-23 -60t-42 -59.5t-70 -43t-102 -17.5q-69 0 -119.5 25t-75 63.5t-35 74t-10.5 68.5zM219 997 q0 -36 22.5 -63t61.5 -27q41 0 64.5 27t23.5 63q0 35 -23 60.5t-65 25.5q-35 0 -58.5 -25t-25.5 -61z" />
<glyph horiz-adv-x="518" d="M41 1321v80q0 13 9.5 23t23.5 10h372q8 0 14.5 -7t6.5 -14q0 -23 -8 -39l-223 -581q-14 -31 -46 -31h-100q-12 0 -18.5 10t-1.5 21l192 495h-188q-14 0 -23.5 10t-9.5 23z" />
<glyph horiz-adv-x="575" d="M61 963q0 45 20 84t54 61q-74 52 -74 137q0 32 10.5 64.5t34 65t71 53t112.5 20.5q64 0 111 -20.5t70.5 -53.5t33.5 -65t10 -64q0 -33 -18.5 -74t-55.5 -63q39 -21 56.5 -63t17.5 -82q0 -32 -10 -64t-33.5 -65t-70.5 -53.5t-111 -20.5q-65 0 -112.5 20.5t-71 53t-34 65 t-10.5 64.5zM215 963q0 -29 22.5 -47.5t51.5 -18.5t50 18t21 48q0 31 -21 49t-50 18q-30 0 -52 -18t-22 -49zM215 1245q0 -31 22 -48t52 -17t50.5 17t20.5 48t-21 48.5t-50 17.5q-30 0 -52 -17.5t-22 -48.5z" />
<glyph horiz-adv-x="610" d="M63 1221q1 25 6.5 51.5t22.5 60t42.5 59t70.5 43t102 17.5q69 0 119.5 -25t75 -63.5t35 -74t10.5 -68.5q5 -277 -262 -451q-12 -8 -26 -5t-23 15l-43 56q-9 11 -7 24t13 21q103 73 133 116q-59 -9 -107 2t-77.5 35.5t-49.5 58.5t-28 66t-7 62zM219 1214q0 -35 23 -60.5 t65 -25.5q35 0 58.5 25t25.5 61q0 36 -22.5 63.5t-61.5 27.5q-41 0 -64.5 -27.5t-23.5 -63.5z" />
<glyph horiz-adv-x="659" d="M61 332q0 45 8 90.5t27.5 92t49 82.5t77.5 58.5t107 22.5t107 -22.5t77 -58.5t49 -83t27.5 -92t7.5 -90q0 -58 -13.5 -114t-42.5 -109t-83.5 -85t-128.5 -32q-60 0 -107.5 22t-77 56.5t-49 80.5t-27.5 90.5t-8 90.5zM219 332q0 -24 4.5 -53t15.5 -64t34.5 -58.5 t56.5 -23.5t56.5 23.5t34 58.5t15 64t4.5 53t-4.5 53.5t-15 65.5t-34 60t-56.5 24t-56.5 -24t-34.5 -60t-15.5 -65.5t-4.5 -53.5z" />
<glyph horiz-adv-x="446" d="M54 496.5q3 13.5 14 21.5l184 133q25 19 59 19h11q13 0 22.5 -9.5t9.5 -23.5v-604q0 -14 -9.5 -23.5t-22.5 -9.5h-95q-13 0 -22.5 9.5t-9.5 23.5v409l-64 -28q-12 -6 -25.5 -2t-19.5 16l-29 43q-6 12 -3 25.5z" />
<glyph d="M72 550.5q-1 13.5 8 24.5q96 107 227 107q99 0 157 -59.5t58 -145.5q0 -43 -19.5 -86t-60.5 -104l-104 -148h137q13 0 23 -9.5t10 -23.5v-73q0 -13 -10 -23t-23 -10h-366q-9 0 -16 7t-7 16q0 22 12 40l224 320q43 62 43 100q0 22 -16 39t-42 17q-58 0 -127 -58 q-10 -9 -24.5 -9t-24.5 9l-47 47q-11 9 -12 22.5z" />
<glyph horiz-adv-x="561" d="M55 84.5q-1 14.5 8 24.5l41 43q9 10 23.5 11t24.5 -7q49 -33 114 -33q35 0 61.5 20.5t26.5 53.5q0 36 -26 57.5t-62 21.5h-71q-13 0 -23 10t-10 23v51q0 14 10 23.5t23 9.5h71q36 0 62 21.5t26 58.5q0 35 -26 54.5t-62 19.5q-51 0 -110 -39q-10 -8 -24 -7t-23 11l-41 47 q-8 10 -7.5 24t9.5 23q88 76 196 76q66 0 115 -21.5t73 -55.5t35 -67t11 -65q0 -36 -20.5 -78t-53.5 -61q37 -24 55.5 -62.5t18.5 -74.5q0 -31 -11 -63.5t-35 -67t-73 -56.5t-115 -22q-110 0 -200 75q-10 7 -11 21.5z" />
<glyph d="M41 139v58q0 35 18 59l267 389q20 27 51 27h59q14 0 23.5 -10t9.5 -23v-381h63q14 0 23.5 -10t9.5 -23v-86q0 -13 -9.5 -23t-23.5 -10h-63v-73q0 -13 -9.5 -23t-23.5 -10h-86q-14 0 -23.5 10t-9.5 23v73h-243q-14 0 -23.5 10t-9.5 23zM219 258h98v148z" />
<glyph horiz-adv-x="600" d="M74 107.5q1 14.5 12 23.5l49 49q22 19 47 -2q48 -43 113 -43q41 0 63.5 23.5t22.5 58.5q0 36 -23 62t-65 26h-139q-14 0 -23.5 9.5t-9.5 23.5v299q0 13 9.5 23t23.5 10h307q13 0 23 -10t10 -23v-80q0 -13 -10 -23t-23 -10h-180v-75h12q60 0 105.5 -15t71.5 -38.5 t42.5 -55.5t21.5 -60.5t5 -60.5q0 -25 -6.5 -53t-24 -60t-44 -57.5t-71 -42t-100.5 -16.5q-120 0 -211 94q-9 9 -8 23.5z" />
<glyph horiz-adv-x="610" d="M63 223q-5 281 263 451q12 8 26 5t23 -15l43 -56q8 -10 6 -24t-12 -21q-99 -67 -133 -117q59 9 106.5 -2t77 -35.5t49.5 -58t28 -65.5t7 -62q-1 -25 -6.5 -51.5t-22.5 -60t-42.5 -59t-70.5 -43t-102 -17.5q-69 0 -119.5 25t-75 63.5t-35 74t-10.5 68.5zM219 229 q0 -36 22.5 -63t61.5 -27q41 0 64.5 27t23.5 63q0 35 -23 60.5t-65 25.5q-35 0 -58.5 -25t-25.5 -61z" />
<glyph horiz-adv-x="518" d="M41 557v80q0 13 9.5 23t23.5 10h358q12 0 20.5 -8.5t8.5 -20.5q0 -25 -10 -55l-215 -555q-14 -31 -46 -31h-100q-12 0 -18.5 10t-1.5 21l196 493h-192q-14 0 -23.5 10t-9.5 23z" />
<glyph horiz-adv-x="575" d="M61 195q0 45 20 84t54 61q-74 52 -74 137q0 32 10.5 64.5t34 65t71 53t112.5 20.5q64 0 111 -20.5t70.5 -53.5t33.5 -65t10 -64q0 -33 -18.5 -74t-55.5 -63q39 -21 56.5 -63t17.5 -82q0 -32 -10 -64t-33.5 -65t-70.5 -53.5t-111 -20.5q-65 0 -112.5 20.5t-71 53t-34 65 t-10.5 64.5zM215 195q0 -29 22.5 -47.5t51.5 -18.5t50 18t21 48q0 31 -21 49t-50 18q-30 0 -52 -18t-22 -49zM215 477q0 -31 22 -48t52 -17t50.5 17t20.5 48t-21 48.5t-50 17.5q-30 0 -52 -17.5t-22 -48.5z" />
<glyph horiz-adv-x="610" d="M63 453q1 25 6.5 51.5t22.5 60t42.5 59t70.5 43t102 17.5q69 0 119.5 -25t75 -63.5t35 -74t10.5 -68.5q5 -277 -262 -451q-12 -8 -26 -5t-23 15l-43 56q-9 11 -7 24t13 21q103 73 133 116q-59 -9 -107 2t-77.5 35.5t-49.5 58.5t-28 66t-7 62zM219 446q0 -35 23 -60.5 t65 -25.5q35 0 58.5 25t25.5 61q0 36 -22.5 63.5t-61.5 27.5q-41 0 -64.5 -27.5t-23.5 -63.5z" />
<glyph horiz-adv-x="1406" d="M164 694q0 76 11.5 153t35.5 158t67 150.5t100 124.5t140.5 87t183.5 32q120 0 215.5 -46t155 -118.5t99 -168t55.5 -187.5t16 -185q0 -95 -16 -188t-55.5 -188.5t-99 -167t-155 -117t-215.5 -45.5q-100 0 -183.5 31.5t-140.5 86t-100 123.5t-67 150.5t-35.5 159 t-11.5 155.5zM406 694q0 -46 5.5 -99.5t24.5 -127t49 -130.5t86.5 -97.5t130.5 -40.5t130.5 40.5t87 97.5t49.5 130.5t24.5 127t5.5 99.5q0 37 -4 80t-14.5 102t-32.5 111.5t-53 99t-81 74t-112 27.5q-74 0 -130.5 -40.5t-86.5 -97t-49 -130t-24.5 -127t-5.5 -99.5z" />
<glyph horiz-adv-x="1011" d="M135 1048q2 14 12 23l371 297q31 21 60 21h71q13 0 23 -9.5t10 -23.5v-1159h174q14 0 23.5 -9.5t9.5 -23.5v-131q0 -13 -9.5 -23t-23.5 -10h-680q-14 0 -23.5 10t-9.5 23v131q0 14 9.5 23.5t23.5 9.5h262v825l-188 -107q-12 -7 -25.5 -3.5t-21.5 14.5l-62 98q-8 10 -6 24 z" />
<glyph horiz-adv-x="1198" d="M145 1170q0 14 9 24q101 102 212.5 152.5t219.5 50.5q190 0 309 -102t119 -294q0 -85 -47 -186t-125 -199l-307 -393h407q14 0 23.5 -9.5t9.5 -23.5v-157q0 -13 -9.5 -23t-23.5 -10h-745q-13 0 -23 10t-10 23v33q0 33 20 59l482 631q114 151 114 254q0 75 -45.5 126.5 t-146.5 51.5q-129 0 -291 -146q-10 -9 -24 -8.5t-23 10.5l-96 101q-9 11 -9 25z" />
<glyph horiz-adv-x="1163" d="M136 166q-1 14 7 24l93 109q8 9 21 10t24 -8q60 -48 133 -80.5t133 -32.5q92 0 156.5 52t64.5 147q0 97 -64 150t-157 53h-154q-13 0 -23 10t-10 23v139q0 14 10 23.5t23 9.5h154q93 0 157 52.5t64 149.5q0 95 -64.5 147t-156.5 52q-60 0 -133.5 -33t-132.5 -82 q-11 -7 -24 -6t-21 10l-93 109q-8 10 -7 24t11 23q179 158 400 158q105 0 188 -28.5t131 -71t79.5 -99t42.5 -106t11 -97.5q0 -56 -16.5 -114.5t-55 -112.5t-91.5 -78q70 -26 116.5 -122t46.5 -183q0 -33 -5.5 -68t-20 -75t-36 -76t-57.5 -70t-81.5 -58t-110.5 -39t-141 -15 q-222 0 -400 157q-10 9 -11 23z" />
<glyph horiz-adv-x="1284" d="M123 305v72q0 35 18 59l592 922q19 28 51 28h129q14 0 23.5 -9.5t9.5 -22.5v-865h182q14 0 23.5 -9.5t9.5 -22.5v-152q0 -13 -9.5 -23t-23.5 -10h-182v-241q0 -13 -10 -23t-23 -10h-182q-13 0 -23 10t-10 23v241h-542q-14 0 -23.5 10t-9.5 23zM434 489h264l-2 429z" />
<glyph horiz-adv-x="1228" d="M176 201.5q1 14.5 12 23.5l111 99q23 20 45 -2q110 -121 238 -121q114 0 180.5 74t66.5 174q0 98 -66.5 169.5t-182.5 71.5h-289q-13 0 -23 10t-10 23v627q0 13 9.5 22.5t23.5 9.5h639q14 0 23.5 -9.5t9.5 -22.5v-150q0 -14 -9.5 -23.5t-23.5 -9.5h-430v-272h80 q112 0 200 -30.5t140 -77.5t86 -110.5t46.5 -122t12.5 -118.5q0 -33 -6.5 -70.5t-22.5 -81.5t-40 -85t-63 -80t-87.5 -67.5t-117 -46t-148.5 -17.5q-235 0 -396 190q-9 9 -8 23.5z" />
<glyph horiz-adv-x="1320" d="M186 455q-2 606 572 931q12 7 25.5 4t21.5 -14l76 -116q7 -11 3.5 -23t-14.5 -20q-133 -76 -227.5 -175.5t-144.5 -189.5q31 19 78.5 31t85.5 12q111 0 198 -32t137.5 -80.5t83.5 -113t44.5 -121.5t11.5 -114q0 -47 -11.5 -100.5t-45 -117.5t-83.5 -114t-137.5 -84 t-197.5 -34q-93 0 -169.5 24.5t-126.5 66t-87 91t-56 104.5t-28 100t-9 85zM422 444q0 -100 63.5 -172.5t176.5 -72.5q112 0 175.5 72.5t63.5 172.5t-62 172t-177 72q-113 0 -175 -70.5t-65 -173.5z" />
<glyph horiz-adv-x="1048" d="M102 1200v150q0 13 9.5 22.5t23.5 9.5h754q14 0 23.5 -9.5t9.5 -22.5v-56q0 -30 -13 -63l-483 -1200q-14 -31 -45 -31h-184q-12 0 -19 10t-2 21l461 1136h-502q-13 0 -23 9.5t-10 23.5z" />
<glyph horiz-adv-x="1234" d="M164 385q0 97 44 183.5t114 121.5q-71 38 -114.5 119.5t-43.5 185.5q0 48 11 97.5t42.5 106t79.5 99t131 71t188 28.5q106 0 189 -28.5t132 -71t80.5 -99t42.5 -106t11 -97.5q0 -205 -158 -305q70 -43 114 -123.5t44 -181.5q0 -48 -11 -97.5t-42.5 -105.5t-80.5 -99 t-132 -71t-189 -28q-76 0 -141 15t-110.5 39t-81.5 58t-57.5 70t-36 76t-20 75t-5.5 68zM395 385q0 -95 64.5 -147t156.5 -52q94 0 158 52t64 147q0 98 -64 150.5t-158 52.5q-93 0 -157 -53t-64 -150zM395 995q0 -97 64 -149.5t157 -52.5q94 0 158 52t64 150q0 95 -64 147 t-158 52q-92 0 -156.5 -52t-64.5 -147z" />
<glyph horiz-adv-x="1320" d="M184 952q0 32 6 68.5t21 81.5t38 86t61 81t85.5 69t115.5 47t148 18q93 0 169.5 -24.5t126.5 -66t87 -91t56 -104.5t28 -100t9 -85q2 -607 -572 -932q-12 -7 -25.5 -4t-21.5 14l-76 117q-8 10 -4.5 23.5t15.5 19.5q141 85 229.5 174.5t142.5 190.5q-31 -19 -78.5 -31 t-85.5 -12q-111 0 -198 32t-137.5 80.5t-83.5 112.5t-44.5 121t-11.5 114zM420 942q0 -100 62 -172t177 -72q113 0 175 70.5t65 173.5q0 100 -63.5 173t-176.5 73q-112 0 -175.5 -73t-63.5 -173z" />
<glyph horiz-adv-x="1644" d="M61 1169v152q0 13 9.5 24.5t23.5 14.5q35 4 76 4q143 0 207.5 -81.5t64.5 -238.5v-571q0 -57 17 -100.5t43.5 -70t62.5 -43t70 -22.5t70 -6q78 0 184 56l-66 47q-136 94 -196.5 178.5t-61.5 189.5q0 38 13.5 81.5t46 85.5t77.5 59q-39 33 -59 83t-20 95q0 154 110 251 t268 97q125 0 220.5 -44t151 -119.5t83 -167t27.5 -195.5q0 -169 -51.5 -327t-143.5 -286l207 -151q11 -8 13 -21t-7 -24l-110 -144q-9 -11 -23 -13t-25 5l-233 160q-192 -141 -401 -141q-240 0 -379.5 130.5t-139.5 377.5v542q-2 51 -23 73t-73 26q-14 2 -23.5 11.5 t-9.5 22.5zM827 711q0 -40 28 -73t99 -85l125 -94q146 213 146 467q0 126 -57 210.5t-162 84.5q-55 0 -85 -39.5t-30 -85.5q0 -31 19.5 -54.5t52.5 -23.5h92q13 0 22.5 -9.5t9.5 -23.5v-168q0 -14 -9.5 -23.5t-22.5 -9.5h-142q-39 0 -62.5 -21.5t-23.5 -51.5z" />
<glyph horiz-adv-x="1212" d="M41 602v107q0 33 31 43l215 79v109l-215 -76q-11 -3 -21 4t-10 19v102q0 33 31 43l215 80v289q0 14 9.5 23.5t22.5 9.5h189q14 0 23.5 -10t9.5 -23v-197l368 137q11 5 21 -1.5t10 -18.5v-113q0 -33 -31 -43l-368 -133v-108l368 137q11 5 21 -2t10 -19v-112q0 -31 -31 -45 l-368 -133v-502q142 40 234 148.5t118 269.5q1 13 12 22.5t25 9.5h168q13 0 21.5 -9t8.5 -23q-17 -157 -83.5 -286.5t-164.5 -213.5t-217.5 -130t-246.5 -46q-31 0 -97 4q-13 1 -22.5 12t-9.5 25v628l-215 -79q-11 -3 -21 3.5t-10 18.5z" />
</font>
</defs>
</svg>
