<?xml version="1.0" standalone="no"?>
<!DOCTYPE svg PUBLIC "-//W3C//DTD SVG 1.1//EN" "http://www.w3.org/Graphics/SVG/1.1/DTD/svg11.dtd" >
<svg xmlns="http://www.w3.org/2000/svg" xmlns:xlink="http://www.w3.org/1999/xlink" version="1.1">
<metadata></metadata>
<defs>
<font id="halis_rbold" horiz-adv-x="614" >
<font-face units-per-em="2048" ascent="1638" descent="-410" />
<missing-glyph horiz-adv-x="500" />
<glyph unicode="&#xfb00;" horiz-adv-x="1372" d="M20 817v174q0 13 10 23t23 10h74v76q0 92 29 161t81 109t116 59t141 19q161 0 340 -88q101 88 264 88q129 0 264 -59q13 -6 18.5 -20t-0.5 -26l-57 -157q-6 -12 -18.5 -17.5t-24.5 -1.5q-108 33 -166 33q-45 0 -75.5 -25.5t-30.5 -82.5v-68h157q13 0 23 -10t10 -23v-174 q0 -13 -10 -23t-23 -10h-157v-751q0 -13 -10 -23t-23 -10h-213q-14 0 -23.5 10t-9.5 23v751h-323v-751q0 -13 -10 -23t-23 -10h-213q-14 0 -23.5 10t-9.5 23v751h-74q-13 0 -23 10t-10 23zM406 1024h323v76q0 38 6 76q-95 53 -182 53q-65 0 -106 -28.5t-41 -92.5v-84z" />
<glyph unicode="&#xfb01;" horiz-adv-x="1208" d="M20 817v174q0 13 10 23t23 10h74v76q0 170 103.5 259t265.5 89q129 0 264 -59q13 -6 18.5 -20t-0.5 -26l-57 -157q-6 -12 -18.5 -17.5t-24.5 -1.5q-108 33 -166 33q-45 0 -75.5 -25.5t-30.5 -82.5v-68h606q13 0 22.5 -9.5t9.5 -23.5v-958q0 -14 -9.5 -23.5t-22.5 -9.5 h-213q-13 0 -23 10t-10 23v751h-360v-751q0 -13 -10 -23t-23 -10h-213q-14 0 -23.5 10t-9.5 23v751h-74q-13 0 -23 10t-10 23z" />
<glyph unicode="&#xfb02;" horiz-adv-x="1224" d="M20 817v174q0 13 10 23t23 10h74v76q0 173 100 262.5t250 89.5q92 0 185.5 -33.5t168.5 -95.5l21 78q3 15 15 24t26 9h135q14 0 23.5 -10t9.5 -23v-1368q0 -13 -9.5 -23t-23.5 -10h-211q-13 0 -23 10t-10 23v1071q-24 50 -97 85.5t-146 35.5q-60 0 -97.5 -28.5 t-37.5 -88.5v-84h184q14 0 23.5 -10t9.5 -23v-174q0 -13 -9.5 -23t-23.5 -10h-184v-751q0 -13 -10 -23t-23 -10h-213q-14 0 -23.5 10t-9.5 23v751h-74q-13 0 -23 10t-10 23z" />
<glyph unicode="&#xfb03;" horiz-adv-x="1804" d="M20 817v174q0 13 10 23t23 10h74v76q0 92 29 161t81 109t116 59t141 19q161 0 340 -88q101 88 264 88q129 0 264 -59q13 -6 18.5 -20t-0.5 -26l-57 -157q-6 -12 -18.5 -17.5t-24.5 -1.5q-108 33 -166 33q-45 0 -75.5 -25.5t-30.5 -82.5v-68h600q13 0 22.5 -9.5t9.5 -23.5 v-958q0 -14 -9.5 -23.5t-22.5 -9.5h-213q-13 0 -23 10t-10 23v751h-354v-751q0 -13 -10 -23t-23 -10h-213q-14 0 -23.5 10t-9.5 23v751h-323v-751q0 -13 -10 -23t-23 -10h-213q-14 0 -23.5 10t-9.5 23v751h-74q-13 0 -23 10t-10 23zM406 1024h323v76q0 38 6 76 q-95 53 -182 53q-65 0 -106 -28.5t-41 -92.5v-84z" />
<glyph unicode="&#xfb04;" horiz-adv-x="1826" d="M20 817v174q0 13 10 23t23 10h74v76q0 92 29 161t81 109t116 59t141 19q152 0 335 -86q93 90 250 90q92 0 186 -33.5t169 -95.5l20 78q3 15 15 24t26 9h135q14 0 23.5 -10t9.5 -23v-1368q0 -13 -9.5 -23t-23.5 -10h-211q-13 0 -23 10t-10 23v1071q-24 50 -97 85.5 t-146 35.5q-60 0 -97.5 -28.5t-37.5 -88.5v-84h202q14 0 23.5 -10t9.5 -23v-174q0 -13 -9.5 -23t-23.5 -10h-202v-751q0 -13 -10 -23t-23 -10h-213q-14 0 -23.5 10t-9.5 23v751h-323v-751q0 -13 -10 -23t-23 -10h-213q-14 0 -23.5 10t-9.5 23v751h-74q-13 0 -23 10t-10 23z M406 1024h323v76q0 38 6 76q-88 53 -182 53q-65 0 -106 -28.5t-41 -92.5v-84z" />
<glyph unicode="fh" horiz-adv-x="1814" d="M20 817v174q0 13 10 23t23 10h74v76q0 173 100 262.5t250 89.5q92 0 185.5 -33.5t168.5 -95.5l21 78q3 15 15 24t26 9h135q14 0 23.5 -10t9.5 -23v-414q87 53 194 53q82 0 148 -16t111 -42.5t78 -67t52 -82t30 -96.5t14.5 -102t3.5 -106v-495q0 -13 -10 -23t-23 -10h-211 q-14 0 -23.5 10t-9.5 23v495q0 44 -3 77t-14.5 71t-32 61.5t-57 39t-87.5 14.5t-95.5 -24.5t-66.5 -53.5v-680q0 -13 -9.5 -23t-23.5 -10h-209q-13 0 -23 10t-10 23v1071q-24 50 -97 85.5t-146 35.5q-60 0 -97.5 -28.5t-37.5 -88.5v-84h169q13 0 23 -10t10 -23v-174 q0 -13 -10 -23t-23 -10h-169v-751q0 -13 -10 -23t-23 -10h-213q-14 0 -23.5 10t-9.5 23v751h-74q-13 0 -23 10t-10 23z" />
<glyph unicode="fj" horiz-adv-x="1218" d="M20 817v174q0 13 10 23t23 10h74v76q0 170 103.5 259t265.5 89q129 0 264 -59q13 -6 18.5 -20t-0.5 -26l-57 -157q-6 -12 -18.5 -17.5t-24.5 -1.5q-108 33 -166 33q-45 0 -75.5 -25.5t-30.5 -82.5v-68h616q14 0 23.5 -10t9.5 -23v-1018q0 -24 -2 -49t-10.5 -65.5 t-22.5 -75.5t-42 -73t-65 -64.5t-94.5 -44t-128.5 -17.5q-82 0 -163.5 30.5t-133.5 70.5q-10 7 -12 22t6 25l80 125q7 10 21 13t26 -3q80 -41 143 -41q119 0 119 154v804h-370v-751q0 -13 -10 -23t-23 -10h-213q-14 0 -23.5 10t-9.5 23v751h-74q-13 0 -23 10t-10 23z" />
<glyph unicode="fk" horiz-adv-x="1849" d="M20 817v174q0 13 10 23t23 10h74v76q0 173 100 262.5t250 89.5q92 0 185.5 -33.5t168.5 -95.5l21 78q3 15 15 24t26 9h135q14 0 23.5 -10t9.5 -23v-817l369 415q22 25 55 25h248q9 0 12.5 -9t-2.5 -16l-412 -467l445 -507q7 -7 2.5 -16t-13.5 -9h-252q-33 0 -55 25 l-397 434v-426q0 -13 -9.5 -23t-23.5 -10h-211q-13 0 -23 10t-10 23v1071q-24 50 -97 85.5t-146 35.5q-60 0 -97.5 -28.5t-37.5 -88.5v-84h169q13 0 23 -10t10 -23v-174q0 -13 -10 -23t-23 -10h-169v-751q0 -13 -10 -23t-23 -10h-213q-14 0 -23.5 10t-9.5 23v751h-74 q-13 0 -23 10t-10 23z" />
<glyph unicode="fb" horiz-adv-x="1878" d="M20 815v174q0 13 10 23t23 10h74v76q0 173 100 262.5t250 89.5q92 0 185.5 -33.5t168.5 -95.5l21 80q3 15 15 24t26 9h135q14 0 23.5 -10t9.5 -23v-393q72 34 184 34q119 0 211 -34t147 -87t90.5 -125t48.5 -141t13 -143q0 -70 -14 -139.5t-49 -141.5t-88.5 -126 t-141 -88.5t-196.5 -34.5q-66 0 -146 26t-123 64l-12 -41q-4 -13 -16.5 -22t-26.5 -9h-125q-13 0 -23 10t-10 23v1069q-23 50 -96.5 86.5t-146.5 36.5q-60 0 -97.5 -29.5t-37.5 -89.5v-84h169q13 0 23 -10t10 -23v-174q0 -13 -10 -23t-23 -10h-169v-751q0 -13 -10 -23 t-23 -10h-213q-14 0 -23.5 10t-9.5 23v751h-74q-13 0 -23 10t-10 23zM1061 311q23 -31 74 -55.5t110 -24.5q60 0 105.5 22t69.5 53t38.5 72.5t18.5 72.5t4 61q0 36 -4.5 68.5t-20.5 73.5t-42 70.5t-73.5 50t-111.5 20.5q-36 0 -87 -15t-81 -35v-434z" />
<glyph unicode="ffb" horiz-adv-x="2480" d="M20 817v174q0 13 10 23t23 10h74v76q0 92 29 161t81 109t116 59t141 19q152 0 335 -86q93 90 250 90q92 0 186 -33.5t169 -95.5l20 78q3 15 15 24t26 9h135q14 0 23.5 -10t9.5 -23v-393q72 34 184 34q119 0 211 -34t147 -87t90.5 -125t48.5 -141t13 -143 q0 -70 -14 -139.5t-49 -141.5t-88.5 -126t-141 -88.5t-196.5 -34.5q-66 0 -146 26t-123 64l-12 -41q-4 -13 -16.5 -22t-26.5 -9h-125q-13 0 -23 10t-10 23v1071q-24 50 -97 85.5t-146 35.5q-60 0 -97.5 -28.5t-37.5 -88.5v-84h202q14 0 23.5 -10t9.5 -23v-174 q0 -13 -9.5 -23t-23.5 -10h-202v-751q0 -13 -10 -23t-23 -10h-213q-14 0 -23.5 10t-9.5 23v751h-323v-751q0 -13 -10 -23t-23 -10h-213q-14 0 -23.5 10t-9.5 23v751h-74q-13 0 -23 10t-10 23zM406 1024h323v76q0 38 6 76q-88 53 -182 53q-65 0 -106 -28.5t-41 -92.5v-84z M1663 311q23 -31 74 -55.5t110 -24.5q60 0 105.5 22t69.5 53t38.5 72.5t18.5 72.5t4 61q0 36 -4.5 68.5t-20.5 73.5t-42 70.5t-73.5 50t-111.5 20.5q-36 0 -87 -15t-81 -35v-434z" />
<glyph unicode="ffh" horiz-adv-x="2418" d="M20 817v174q0 13 10 23t23 10h74v76q0 92 29 161t81 109t116 59t141 19q152 0 335 -86q93 90 250 90q92 0 186 -33.5t169 -95.5l20 78q3 15 15 24t26 9h135q14 0 23.5 -10t9.5 -23v-414q87 53 197 53q82 0 148 -16t110.5 -42.5t78 -67t52 -82t29.5 -96.5t14.5 -102 t3.5 -106v-495q0 -13 -10 -23t-23 -10h-211q-14 0 -23.5 10t-9.5 23v495q0 44 -3 77t-14.5 71t-32 61.5t-57 39t-87.5 14.5t-95.5 -24.5t-66.5 -53.5v-680q0 -13 -9.5 -23t-23.5 -10h-211q-13 0 -23 10t-10 23v1071q-24 50 -97 85.5t-146 35.5q-60 0 -97.5 -28.5 t-37.5 -88.5v-84h202q14 0 23.5 -10t9.5 -23v-174q0 -13 -9.5 -23t-23.5 -10h-202v-751q0 -13 -10 -23t-23 -10h-213q-14 0 -23.5 10t-9.5 23v751h-323v-751q0 -13 -10 -23t-23 -10h-213q-14 0 -23.5 10t-9.5 23v751h-74q-13 0 -23 10t-10 23zM406 1024h323v76q0 38 6 76 q-88 53 -182 53q-65 0 -106 -28.5t-41 -92.5v-84z" />
<glyph unicode="ffj" horiz-adv-x="1804" d="M20 817v174q0 13 10 23t23 10h74v76q0 92 29 161t81 109t116 59t141 19q161 0 340 -88q101 88 264 88q129 0 264 -59q13 -6 18.5 -20t-0.5 -26l-57 -157q-6 -12 -18.5 -17.5t-24.5 -1.5q-108 33 -166 33q-45 0 -75.5 -25.5t-30.5 -82.5v-68h600q13 0 22.5 -9.5t9.5 -23.5 v-1018q0 -24 -2 -49t-10.5 -65.5t-22.5 -75t-41.5 -73t-64.5 -65t-94.5 -44t-128.5 -17.5q-82 0 -163.5 30.5t-133.5 70.5q-10 7 -12 22t6 25l80 125q7 10 21 13t26 -3q80 -41 143 -41q119 0 119 154v804h-354v-751q0 -13 -10 -23t-23 -10h-213q-14 0 -23.5 10t-9.5 23v751 h-323v-751q0 -13 -10 -23t-23 -10h-213q-14 0 -23.5 10t-9.5 23v751h-74q-13 0 -23 10t-10 23zM406 1024h323v76q0 38 6 76q-95 53 -182 53q-65 0 -106 -28.5t-41 -92.5v-84z" />
<glyph unicode="ffk" horiz-adv-x="2453" d="M20 817v174q0 13 10 23t23 10h74v76q0 92 29 161t81 109t116 59t141 19q152 0 335 -86q93 90 250 90q92 0 186 -33.5t169 -95.5l20 78q3 15 15 24t26 9h135q14 0 23.5 -10t9.5 -23v-817l369 415q22 25 55 25h254q9 0 12.5 -9t-2.5 -16l-418 -467l457 -507q6 -7 2.5 -16 t-12.5 -9h-264q-34 0 -56 25l-397 434v-426q0 -13 -9.5 -23t-23.5 -10h-211q-13 0 -23 10t-10 23v1071q-24 50 -97 85.5t-146 35.5q-60 0 -97.5 -28.5t-37.5 -88.5v-84h202q14 0 23.5 -10t9.5 -23v-174q0 -13 -9.5 -23t-23.5 -10h-202v-751q0 -13 -10 -23t-23 -10h-213 q-14 0 -23.5 10t-9.5 23v751h-323v-751q0 -13 -10 -23t-23 -10h-213q-14 0 -23.5 10t-9.5 23v751h-74q-13 0 -23 10t-10 23zM406 1024h323v76q0 38 6 76q-88 53 -182 53q-65 0 -106 -28.5t-41 -92.5v-84z" />
<glyph horiz-adv-x="0" />
<glyph horiz-adv-x="682" />
<glyph unicode=" " />
<glyph unicode="!" horiz-adv-x="720" d="M205 141q0 68 44 113t111 45q66 0 111 -45.5t45 -112.5q0 -65 -45 -111t-111 -46q-67 0 -111 46t-44 111zM223 860v541q0 13 10.5 24t24.5 11h209q13 0 24 -11t11 -24v-541l-37 -399q0 -15 -11 -25t-26 -10h-131q-15 0 -26.5 10t-12.5 25z" />
<glyph unicode="&#x22;" horiz-adv-x="880" d="M86 1403q-2 14 8 24.5t23 10.5h217q13 0 23 -10.5t8 -24.5l-41 -453q-1 -15 -12.5 -25t-26.5 -10h-119q-15 0 -26.5 10t-12.5 25zM516 1403q-2 14 8 24.5t23 10.5h217q13 0 23 -10.5t8 -24.5l-41 -453q-1 -15 -12.5 -25t-26.5 -10h-119q-15 0 -26.5 10t-12.5 25z" />
<glyph unicode="#" horiz-adv-x="1177" d="M123 248v153q0 13 10.5 24t24.5 11h129v152h-129q-14 0 -24.5 11t-10.5 24v155q0 14 10.5 24.5t24.5 10.5h129v176q0 13 10.5 24t24.5 11h157q13 0 24 -11t11 -24v-176h150v176q0 14 10.5 24.5t23.5 10.5h158q14 0 24.5 -11t10.5 -24v-176h129q14 0 24.5 -10.5 t10.5 -24.5v-155q0 -13 -10.5 -24t-24.5 -11h-129v-152h129q14 0 24.5 -11t10.5 -24v-153q0 -14 -10.5 -24.5t-24.5 -10.5h-129v-178q0 -13 -10.5 -24t-24.5 -11h-158q-13 0 -23.5 10.5t-10.5 24.5v178h-150v-178q0 -13 -11 -24t-24 -11h-157q-14 0 -24.5 11t-10.5 24v178 h-129q-14 0 -24.5 10.5t-10.5 24.5zM514 436h150v152h-150v-152z" />
<glyph unicode="$" horiz-adv-x="1314" d="M127.5 133.5q-4.5 14.5 3.5 26.5l88 178q8 12 21.5 17t25.5 -1q223 -102 389 -102q98 0 168 40t70 105q0 27 -9.5 50.5t-21 40.5t-38.5 34.5t-45 27.5t-57.5 24.5t-59.5 21t-68 20.5q-15 5 -23 7q-54 16 -88.5 27.5t-83.5 32.5t-81 41.5t-67.5 52t-56 68t-34 86 t-13.5 107.5q0 178 111.5 288.5t294.5 125.5v150q0 13 10.5 23.5t24.5 10.5h139q14 0 24.5 -10.5t10.5 -23.5v-160q161 -25 340 -103q13 -6 18.5 -20t-0.5 -27l-82 -184q-6 -12 -19.5 -17.5t-27.5 -0.5q-90 35 -187.5 62.5t-146.5 27.5t-84.5 -5.5t-66.5 -19t-48.5 -40 t-19.5 -66.5q1 -29 17.5 -53.5t37 -40t63 -33t71 -26.5t86.5 -26q60 -18 95.5 -29.5t92.5 -34.5t92 -45.5t77 -59.5t65.5 -78.5t40 -100t16.5 -127.5q0 -156 -120 -268t-310 -137v-154q0 -14 -11 -24.5t-24 -10.5h-139q-14 0 -24.5 10.5t-10.5 24.5v154q-202 16 -408 123 q-13 6 -17.5 20.5z" />
<glyph unicode="%" horiz-adv-x="1748" d="M61 1108q0 44 9.5 88t33 90t59.5 81t94 57t130 22q71 0 128.5 -22t92.5 -57t58.5 -81t33 -90t9.5 -88t-9.5 -87.5t-33 -89t-59 -79.5t-92.5 -56t-128 -22q-72 0 -130 22t-94 56t-59.5 79.5t-33 89t-9.5 87.5zM295 1108q0 -15 3 -31t11.5 -36.5t28.5 -33t49 -12.5 q27 0 46 12.5t27.5 33t11.5 36.5t3 31q0 16 -3 32.5t-11.5 37t-27.5 33t-46 12.5q-23 0 -41 -9t-27 -21.5t-15 -30t-7.5 -30t-1.5 -24.5zM528 33l457 1368q5 14 17.5 23.5t27.5 9.5h172q12 0 20 -10.5t5 -22.5l-455 -1368q-4 -15 -17 -24t-28 -9h-174q-12 0 -20 10.5 t-5 22.5zM1042 324q0 44 9.5 88t33 90t59 81t93 57t129.5 22q71 0 128.5 -22t92.5 -57t58.5 -81t33 -90t9.5 -88t-9.5 -87.5t-33 -89t-59 -79.5t-92.5 -56t-128 -22q-72 0 -129.5 22t-93 56t-59 79.5t-33 89t-9.5 87.5zM1274 324q0 -15 3.5 -31.5t12 -36t28.5 -32.5t48 -13 q27 0 46.5 13t28 32.5t12 36t3.5 31.5q0 23 -5.5 45.5t-27 45.5t-57.5 23q-37 0 -59 -23t-27.5 -45.5t-5.5 -45.5z" />
<glyph unicode="&#x26;" horiz-adv-x="1472" d="M164 412q0 129 58.5 215.5t164.5 156.5q-5 3 -10.5 11t-7.5 10q-115 130 -115 297q0 65 22.5 126.5t66.5 113t118 83t168 31.5q88 0 158 -30t112 -80t64 -111t22 -127q0 -204 -207 -367l207 -221q40 94 64 199q3 14 14.5 22t26.5 7l163 -33q15 -3 23.5 -14.5t7.5 -26.5 q-21 -187 -113 -357l154 -163q10 -11 9.5 -25t-9.5 -25l-131 -118q-10 -10 -24 -10t-25 10l-131 135q-152 -135 -393 -135q-99 2 -185 38.5t-145 95.5t-93 135t-34 157zM432 424q0 -84 60.5 -135t142.5 -51q125 0 203 67l-269 289q-135 -94 -137 -170zM510 1104 q0 -36 17 -72.5t35 -58t48 -51.5q56 42 86.5 84t30.5 100q0 47 -27.5 81t-78.5 34q-59 0 -85 -38t-26 -79z" />
<glyph unicode="'" horiz-adv-x="450" d="M86 1403q-2 14 8 24.5t23 10.5h217q13 0 23 -10.5t8 -24.5l-41 -453q-1 -15 -12.5 -25t-26.5 -10h-119q-15 0 -26.5 10t-12.5 25z" />
<glyph unicode="(" horiz-adv-x="655" d="M61 602q0 508 324 989q9 12 23 15t26 -4l129 -78q13 -7 17 -22t-2 -27q-240 -454 -240 -871q0 -431 240 -885q6 -12 2 -27t-17 -22l-127 -76q-14 -7 -28 -4t-23 15q-324 477 -324 997z" />
<glyph unicode=")" horiz-adv-x="655" d="M75 -308q-4 15 3 27q239 452 239 885q0 419 -239 871q-6 12 -3 27t15 22l129 78q14 7 28 4t23 -15q324 -481 324 -989q0 -520 -324 -997q-9 -12 -23 -15t-28 4l-127 76q-13 7 -17 22z" />
<glyph unicode="*" horiz-adv-x="983" d="M136.5 943q3.5 15 15.5 22l141 94l-141 92q-27 17 -13 49l54 90q7 13 22 18t27 -3l151 -76l8 170q2 14 12.5 24.5t24.5 10.5h107q13 0 24 -10.5t13 -24.5l8 -170l151 76q12 8 26.5 3t20.5 -18l54 -90q7 -14 4 -27.5t-15 -21.5l-143 -92l143 -94q12 -7 15.5 -22.5 t-4.5 -27.5l-54 -90q-6 -13 -20.5 -17.5t-26.5 3.5l-151 76l-8 -170q-1 -15 -12 -25t-25 -10h-107q-15 0 -25 10t-12 25l-8 170l-151 -76q-12 -8 -27 -3.5t-22 17.5l-54 90q-6 13 -2.5 28z" />
<glyph unicode="+" horiz-adv-x="1142" d="M164 612v162q0 14 11 24.5t24 10.5h256v256q0 14 10.5 24.5t23.5 10.5h164q13 0 24 -11t11 -24v-256h256q14 0 24.5 -10.5t10.5 -24.5v-162q0 -13 -10.5 -23.5t-24.5 -10.5h-256v-256q0 -14 -11 -24.5t-24 -10.5h-164q-13 0 -23.5 10.5t-10.5 24.5v256h-256 q-14 0 -24.5 10.5t-10.5 23.5z" />
<glyph unicode="," horiz-adv-x="679" d="M168 147q0 71 47.5 119.5t118.5 48.5q94 0 138 -53.5t44 -130.5q0 -85 -60 -217t-128 -229q-9 -12 -23.5 -16.5t-28.5 1.5l-81 41q-12 6 -16.5 19.5t1.5 25.5q30 56 59 124.5t40 107.5q-111 36 -111 159z" />
<glyph unicode="-" horiz-adv-x="913" d="M164 522v166q0 14 11 24.5t24 10.5h516q13 0 24 -10.5t11 -24.5v-166q0 -14 -11 -24.5t-24 -10.5h-516q-13 0 -24 10.5t-11 24.5z" />
<glyph unicode="." horiz-adv-x="669" d="M164 158q0 71 51 121.5t121 50.5q71 0 120.5 -50t49.5 -122q0 -70 -50 -120t-120 -50t-121 50t-51 120z" />
<glyph unicode="/" horiz-adv-x="841" d="M72 33l456 1368q5 14 17.5 23.5t27.5 9.5h172q12 0 20 -10.5t5 -22.5l-455 -1368q-4 -15 -17 -24t-28 -9h-174q-12 0 -19.5 10.5t-4.5 22.5z" />
<glyph unicode="0" horiz-adv-x="1323" d="M123 694q0 91 15.5 183t55 188t98.5 168.5t154 119t213 46.5q119 0 214.5 -46.5t155 -119t99.5 -168.5t56 -188t16 -183q0 -94 -16 -186.5t-56 -188t-99.5 -168t-155 -118t-214.5 -45.5q-118 0 -213 46t-154 118t-98.5 167.5t-55 188t-15.5 186.5zM399 694q0 -41 5 -91 t22 -117.5t44 -121t76 -91t113 -37.5t114 37.5t76.5 91t43.5 121t22 117.5t5 91t-5 90.5t-22 117t-43.5 120t-76.5 90t-114 37.5q-54 0 -97.5 -25.5t-70.5 -68.5t-46 -91.5t-28.5 -102.5t-13.5 -94t-4 -73z" />
<glyph unicode="1" horiz-adv-x="854" d="M95.5 1048q2.5 14 13.5 23l383 297q28 21 61 21h82q13 0 24 -10.5t11 -24.5v-1319q0 -13 -11 -24t-24 -11h-209q-14 0 -24.5 11t-10.5 24v934l-160 -88q-32 -14 -49 12l-82 129q-7 12 -4.5 26z" />
<glyph unicode="2" horiz-adv-x="1101" d="M96 1160q0 14 10 24q105 110 218.5 163.5t222.5 53.5q192 0 312 -103.5t120 -298.5q0 -148 -170 -383l-264 -356h362q13 0 24 -11t11 -24v-190q0 -13 -11 -24t-24 -11h-755q-14 0 -24.5 11t-10.5 24v45q0 37 20 63l467 637q105 148 105 228q0 61 -37.5 103t-122.5 42 q-116 0 -277 -145q-11 -10 -24.5 -9.5t-24.5 9.5l-117 127q-10 11 -10 25z" />
<glyph unicode="3" horiz-adv-x="1097" d="M95.5 186q-0.5 15 8.5 25l113 133q9 11 23 12t26 -8q58 -50 128.5 -83.5t125.5 -33.5q78 0 132.5 43t54.5 123q0 82 -55 130t-132 48h-168q-14 0 -24.5 10.5t-10.5 24.5v172q0 14 10.5 24.5t24.5 10.5h168q76 0 131.5 49t55.5 131q0 80 -54.5 123t-132.5 43 q-54 0 -124.5 -33.5t-129.5 -82.5q-11 -9 -25.5 -8t-23.5 12l-113 133q-9 10 -8.5 25t10.5 24q86 77 185 124.5t229 47.5q106 0 189 -29t132 -72t80.5 -100t42.5 -107.5t11 -99.5q0 -88 -39 -171t-107 -132q73 -43 109.5 -126.5t36.5 -170.5q0 -49 -11 -99t-42.5 -107 t-80.5 -100.5t-132 -72t-189 -28.5q-130 0 -229 47.5t-185 124.5q-10 9 -10.5 24z" />
<glyph unicode="4" horiz-adv-x="1136" d="M61 307v90q0 35 19 64l575 893q16 28 54 28h151q14 0 24.5 -10.5t10.5 -23.5v-822h145q14 0 24.5 -10.5t10.5 -23.5v-185q0 -13 -10.5 -24t-24.5 -11h-145v-237q0 -13 -10.5 -24t-24.5 -11h-215q-13 0 -24 11t-11 24v237h-514q-14 0 -24.5 11t-10.5 24zM422 526h188v301z " />
<glyph unicode="5" horiz-adv-x="1161" d="M137.5 220.5q1.5 14.5 12.5 23.5l133 121q11 9 25.5 7.5t23.5 -12.5q105 -122 221 -122q98 0 155.5 64t57.5 149q0 84 -57.5 144t-157.5 60h-315q-14 0 -24.5 10.5t-10.5 24.5v666q0 14 10.5 24.5t24.5 10.5h679q13 0 24 -10.5t11 -24.5v-182q0 -14 -11 -24.5t-24 -10.5 h-423v-244h59q113 0 201 -30t140.5 -76.5t86.5 -109t46.5 -121t12.5 -118.5q0 -49 -12.5 -104t-47.5 -118.5t-87 -113t-140.5 -83t-199.5 -33.5q-235 0 -406 207q-9 11 -7.5 25.5z" />
<glyph unicode="6" horiz-adv-x="1200" d="M125 461q-1 139 33 266.5t89 224.5t132 183t154 146.5t165 111.5q12 6 27.5 2.5t22.5 -15.5l96 -145q7 -11 3 -25t-16 -20q-193 -112 -331 -305q55 24 141 24q102 -5 181.5 -38.5t126.5 -81t77 -110.5t40.5 -120t10.5 -117q0 -33 -6 -70t-21 -81.5t-38 -86.5t-61 -81.5 t-85.5 -69t-115.5 -47.5t-148 -18q-111 0 -198.5 36t-138 89t-84 120.5t-45 123t-11.5 104.5zM395 453q0 -86 55 -148.5t152 -62.5q95 0 150 63t55 148t-54 147t-151 62t-150.5 -60.5t-56.5 -148.5z" />
<glyph unicode="7" horiz-adv-x="1009" d="M61 1171v183q0 14 10.5 24.5t24.5 10.5h795q13 0 24 -10.5t11 -24.5v-47q0 -33 -15 -68l-501 -1206q-4 -15 -18 -24t-30 -9h-219q-12 0 -19 10.5t-3 22.5l444 1104h-469q-14 0 -24.5 10.5t-10.5 23.5z" />
<glyph unicode="8" horiz-adv-x="1159" d="M123 399q0 89 38.5 172.5t108.5 124.5q-147 105 -147 297q0 49 11 99.5t43 107.5t80.5 100t132 72t190.5 29t190.5 -29t132 -72t80 -100t42.5 -107.5t11 -99.5q0 -44 -12 -93t-49 -108t-94 -98q155 -93 155 -293q0 -49 -11 -99.5t-42.5 -108.5t-80 -102t-132 -73.5 t-190.5 -29.5t-190.5 29t-132 73t-80.5 101.5t-43 108t-11 99.5zM391 399q0 -81 55 -125.5t134 -44.5q77 0 131.5 46.5t54.5 123.5q0 82 -54 128t-132 46q-79 0 -134 -46t-55 -128zM391 993q0 -82 55 -128t134 -46q78 0 132 46t54 128q0 80 -53.5 123t-132.5 43t-134 -43 t-55 -123z" />
<glyph unicode="9" horiz-adv-x="1200" d="M123 948q0 33 6 70t21 82t38 86.5t61 81.5t85.5 69.5t115.5 47.5t148 18q111 0 198.5 -36t138 -89t84 -120.5t45 -123t11.5 -104.5q1 -139 -33 -266.5t-89 -224.5t-132 -183t-154 -146.5t-165 -111.5q-12 -7 -26.5 -3.5t-22.5 15.5l-97 146q-7 11 -3 25t16 20 q193 112 331 305q-58 -25 -141 -25q-102 5 -181.5 38.5t-126.5 81t-77 110.5t-40.5 120t-10.5 117zM393 938q0 -85 54 -147t151 -62t150.5 60.5t56.5 148.5q0 86 -55 148.5t-152 62.5q-95 0 -150 -63t-55 -148z" />
<glyph unicode=":" horiz-adv-x="669" d="M164 158q0 71 51 121.5t121 50.5q71 0 120.5 -50t49.5 -122q0 -70 -50 -120t-120 -50t-121 50t-51 120zM164 858q0 71 51 121.5t121 50.5q71 0 120.5 -50t49.5 -122q0 -70 -50 -120t-120 -50t-121 50t-51 120z" />
<glyph unicode=";" horiz-adv-x="679" d="M164 858q0 71 51 121.5t121 50.5q71 0 120.5 -50t49.5 -122q0 -70 -50 -120t-120 -50t-121 50t-51 120zM168 147q0 71 47.5 119.5t118.5 48.5q94 0 138 -53.5t44 -130.5q0 -85 -60 -217t-128 -229q-9 -12 -23.5 -16.5t-28.5 1.5l-81 41q-12 6 -16.5 19.5t1.5 25.5 q30 56 59 124.5t40 107.5q-111 36 -111 159z" />
<glyph unicode="&#x3c;" horiz-adv-x="903" d="M61 588v28q0 33 31 54l602 362q12 7 26.5 3.5t20.5 -15.5l82 -141q8 -13 5 -28t-15 -22l-358 -227l358 -227q12 -7 15 -22t-3 -27l-84 -144q-6 -12 -20.5 -15.5t-26.5 3.5l-604 365q-29 19 -29 53z" />
<glyph unicode="=" horiz-adv-x="1044" d="M164 395v160q0 13 11 24t24 11h647q14 0 24.5 -11t10.5 -24v-160q0 -13 -10.5 -24t-24.5 -11h-647q-13 0 -24 11t-11 24zM164 831v164q0 13 11 24t24 11h647q14 0 24.5 -11t10.5 -24v-164q0 -13 -10.5 -23.5t-24.5 -10.5h-647q-14 0 -24.5 10.5t-10.5 23.5z" />
<glyph unicode="&#x3e;" horiz-adv-x="903" d="M75 353q3 15 15 22l359 227l-359 227q-12 7 -15 22t3 28l82 141q8 12 22.5 15.5t26.5 -3.5l602 -362q31 -21 31 -54v-28q0 -32 -31 -53l-604 -365q-10 -8 -24.5 -4t-20.5 16l-84 144q-6 12 -3 27z" />
<glyph unicode="?" horiz-adv-x="1169" d="M177.5 1207q-0.5 15 8.5 24q110 117 212 170t229 53q168 0 273.5 -95t105.5 -265q0 -55 -16 -108.5t-48 -104.5t-57.5 -83.5t-65.5 -78.5q-30 -35 -46 -55.5t-31 -46.5t-15 -42v-110q0 -13 -10.5 -24t-24.5 -11h-190q-14 0 -24.5 11t-10.5 24v117q0 43 10 81t32.5 74.5 t40.5 59t52 61.5q31 36 45.5 54t36.5 51t31.5 64.5t9.5 64.5q0 18 -5 35t-18 36.5t-41.5 30t-68.5 8.5q-54 -3 -105.5 -35t-124.5 -102q-10 -11 -25 -11t-24 11l-125 117q-10 10 -10.5 25zM436 125q0 67 46 112.5t114 45.5q67 0 113.5 -45.5t46.5 -112.5t-47 -113.5 t-113 -46.5q-69 0 -114.5 44t-45.5 116z" />
<glyph unicode="@" horiz-adv-x="2347" d="M125 375q-1 239 73.5 445t211 355.5t337.5 234.5t441 85q234 0 429.5 -75.5t328 -207.5t205.5 -312.5t73 -389.5q0 -98 -16.5 -193.5t-56.5 -189.5t-98.5 -165t-150 -115t-204.5 -44q-82 0 -148 36.5t-104 103.5q-123 -97 -289 -97q-115 0 -208 36t-150.5 92.5t-96 131 t-54 146.5t-15.5 145q0 60 11.5 120.5t35 124t65.5 117.5t97.5 97t136.5 67.5t178 24.5q166 0 281 -88l12 39q15 33 47 33h119q14 0 24.5 -11t10.5 -24v-754q2 -44 18.5 -69t61.5 -25q97 0 159 129.5t62 321.5q0 157 -52 291.5t-148 233.5t-242.5 155.5t-327.5 56.5 q-369 0 -581.5 -233t-207.5 -629q2 -117 41 -232t117.5 -225.5t210.5 -206t305 -157.5q12 -6 17 -18.5t1 -24.5l-84 -170q-6 -13 -20 -19t-27 0q-406 146 -616.5 423t-212.5 630zM905 395q0 -29 5.5 -63t22.5 -79.5t44 -81t76.5 -60.5t113.5 -25q137 0 209 109v405 q-35 46 -89.5 77.5t-119.5 31.5q-54 0 -98 -17.5t-71 -46.5t-46.5 -62.5t-29 -71t-13.5 -65t-4 -51.5z" />
<glyph unicode="A" horiz-adv-x="1482" d="M76 31l629 1399q11 22 34 22q26 0 37 -22l631 -1399q5 -11 -2 -21t-19 -10h-251q-16 0 -30 9t-18 24l-124 303h-443l-123 -303q-13 -33 -47 -33h-254q-12 0 -18.5 10t-1.5 21zM612 565h258l-129 322z" />
<glyph unicode="B" horiz-adv-x="1382" d="M205 35v1364q0 13 10.5 24t24.5 11h508q113 0 203.5 -26.5t147 -69t94 -100t52.5 -115t15 -117.5q0 -81 -51 -166t-126 -121q76 -39 126.5 -117.5t50.5 -175.5q0 -60 -15 -117.5t-52.5 -114.5t-94 -99t-147 -68.5t-203.5 -26.5h-508q-14 0 -24.5 11t-10.5 24zM492 266 h276q49 0 86.5 13t57.5 31.5t33 42.5t16.5 41t3.5 32q0 24 -7 46.5t-25.5 48t-59 42t-99.5 17.5h-282v-314zM492 838h282q58 1 99 20.5t59.5 48.5t25.5 53t7 46q0 15 -3.5 32.5t-16.5 41.5t-33 43t-57.5 32.5t-86.5 13.5h-276v-331z" />
<glyph unicode="C" horiz-adv-x="1517" d="M123 719q0 67 10.5 135t35.5 141t62 139t95 125t129.5 102t169 68t211.5 25q166 0 295 -63t241 -181q9 -9 8.5 -24t-10.5 -25l-141 -135q-9 -10 -23.5 -9.5t-23.5 11.5q-66 66 -162 111t-184 45q-76 0 -138.5 -20t-105 -51.5t-75 -75t-51 -86t-30 -89t-15 -80.5t-3.5 -63 t4 -62.5t15.5 -80t30 -89t51.5 -85.5t75 -74.5t105 -51.5t139 -20q89 0 185 40.5t173 102.5q11 9 25.5 8t23.5 -12l119 -145q9 -10 8.5 -25.5t-10.5 -25.5q-233 -217 -526 -217q-114 0 -211.5 25t-169 67.5t-129.5 101t-95 124t-62 139t-35.5 142.5t-10.5 138z" />
<glyph unicode="D" horiz-adv-x="1546" d="M205 35v1364q0 13 10.5 24t24.5 11h475q132 0 241.5 -32t185 -87.5t131.5 -125.5t88 -152t47 -160.5t15 -157.5q0 -98 -20.5 -193t-72.5 -192t-129.5 -169.5t-203 -118.5t-282.5 -46h-475q-14 0 -24.5 11t-10.5 24zM492 266h223q75 0 137 19t104 50t74.5 73t50.5 83.5 t29.5 87t15.5 78.5t4 62q0 43 -8 92.5t-34.5 116t-69.5 117.5t-121.5 87.5t-181.5 36.5h-223v-903z" />
<glyph unicode="E" horiz-adv-x="1302" d="M205 35v1364q0 13 10.5 24t24.5 11h905q13 0 24 -11t11 -24v-197q0 -14 -11 -24.5t-24 -10.5h-651v-327h501q13 0 24 -11t11 -24v-197q0 -14 -11 -24.5t-24 -10.5h-501v-307h651q13 0 24 -11t11 -24v-196q0 -13 -11 -24t-24 -11h-905q-14 0 -24.5 11t-10.5 24z" />
<glyph unicode="F" horiz-adv-x="1302" d="M205 35v1364q0 13 10.5 24t24.5 11h905q13 0 24 -11t11 -24v-197q0 -14 -11 -24.5t-24 -10.5h-651v-327h501q13 0 24 -11t11 -24v-197q0 -14 -11 -24.5t-24 -10.5h-501v-538q0 -13 -11 -24t-24 -11h-219q-14 0 -24.5 11t-10.5 24z" />
<glyph unicode="G" horiz-adv-x="1488" d="M123 719q0 67 10.5 135t35.5 141t62 139t95 125t129.5 102t169 68t211.5 25q296 0 505 -209q11 -11 11 -26t-11 -25l-131 -141q-9 -9 -23 -9t-24 9q-65 56 -155.5 93.5t-171.5 37.5q-76 0 -138.5 -19.5t-105 -51t-75 -74.5t-51 -85.5t-30 -88.5t-15 -79.5t-3.5 -62.5 t3.5 -63.5t15 -82t30 -91.5t51 -88.5t75 -77.5t105 -53.5t138.5 -20.5q63 0 130.5 20t104.5 53v183h-248q-13 0 -24 11t-11 24v192q0 13 11 24t24 11h504q13 0 24 -11t11 -24v-502q0 -34 -25 -59q-205 -186 -501 -186q-114 0 -211.5 25t-169 67.5t-129.5 101t-95 124 t-62 139t-35.5 142.5t-10.5 138z" />
<glyph unicode="H" horiz-adv-x="1587" d="M205 35v1364q0 13 10.5 24t24.5 11h221q13 0 24 -11t11 -24v-559h598v559q0 14 10.5 24.5t23.5 10.5h220q13 0 23.5 -10.5t10.5 -24.5v-1364q0 -14 -10.5 -24.5t-23.5 -10.5h-220q-13 0 -23.5 10.5t-10.5 24.5v538h-598v-538q0 -13 -11 -24t-24 -11h-221q-14 0 -24.5 11 t-10.5 24z" />
<glyph unicode="I" horiz-adv-x="700" d="M205 35v1364q0 13 10.5 24t24.5 11h221q13 0 24 -11t11 -24v-1364q0 -13 -11 -24t-24 -11h-221q-14 0 -24.5 11t-10.5 24z" />
<glyph unicode="J" horiz-adv-x="1292" d="M51 389q-4 13 2.5 26.5t20.5 18.5l192 70q14 5 26.5 -1.5t16.5 -19.5q82 -221 247 -221h7q63 2 109 27t68.5 57t36 77.5t16 74.5t2.5 61v840q0 14 10.5 24.5t23.5 10.5h224q13 0 23.5 -10.5t10.5 -24.5v-840q0 -77 -13 -150.5t-49.5 -152t-92.5 -136t-151.5 -95 t-217.5 -37.5q-90 0 -165 21t-128 56t-96.5 87.5t-71.5 109t-51 127.5z" />
<glyph unicode="K" horiz-adv-x="1464" d="M205 35v1364q0 13 10.5 24t24.5 11h221q13 0 24 -11t11 -24v-539l495 547q24 27 58 27h268q10 0 14 -10t-2 -17l-612 -668l661 -712q6 -7 2 -17t-14 -10h-279q-34 0 -59 25l-532 579v-569q0 -13 -11 -24t-24 -11h-221q-14 0 -24.5 11t-10.5 24z" />
<glyph unicode="L" horiz-adv-x="1155" d="M205 35v1364q0 13 10.5 24t24.5 11h221q13 0 24 -11t11 -24v-1133h501q13 0 24 -11t11 -24v-196q0 -13 -11 -24t-24 -11h-757q-14 0 -24.5 11t-10.5 24z" />
<glyph unicode="M" horiz-adv-x="2134" d="M74 33l493 1392q3 11 13 18t22 7q26 0 37 -25l428 -927l428 927q11 25 37 25q12 0 22 -7t13 -18l493 -1392q4 -12 -3 -22.5t-19 -10.5h-240q-15 0 -27.5 9.5t-17.5 23.5l-252 798l-395 -819q-14 -24 -39 -24t-39 24l-395 819l-252 -798q-5 -14 -17.5 -23.5t-27.5 -9.5 h-240q-12 0 -19 10.5t-3 22.5z" />
<glyph unicode="N" horiz-adv-x="1589" d="M205 35v1386q0 12 7.5 20.5t18.5 8.5q30 0 50 -20l813 -809v778q0 14 10.5 24.5t23.5 10.5h222q13 0 23.5 -10.5t10.5 -24.5v-1387q0 -10 -7 -17t-17 -7q-24 0 -43 16l-821 830v-799q0 -13 -11 -24t-24 -11h-221q-14 0 -24.5 11t-10.5 24z" />
<glyph unicode="O" horiz-adv-x="1667" d="M123 719q0 67 10.5 135.5t35.5 142t62 139t95 125.5t129.5 103t169 68.5t211.5 25.5q113 0 210 -25.5t168 -68.5t128.5 -102.5t94.5 -125.5t61.5 -139.5t35 -142t10.5 -135.5q0 -69 -10.5 -138t-35 -143t-61.5 -140t-94.5 -125.5t-128.5 -102.5t-168 -68t-210 -25 q-114 0 -211.5 25t-169 68t-129.5 102.5t-95 125.5t-62 140t-35.5 143t-10.5 138zM418 719q0 -29 3.5 -63t15 -81.5t30 -91t51 -88t75 -76.5t105 -52.5t138.5 -20.5q74 0 136 20.5t103.5 52.5t74 76.5t50.5 88t29.5 90.5t15.5 81.5t4 63.5q0 44 -8 94.5t-34.5 120t-69 123.5 t-121 92.5t-180.5 38.5q-76 0 -138.5 -20t-105 -52t-75 -76t-51 -87t-30 -90t-15 -81t-3.5 -63z" />
<glyph unicode="P" horiz-adv-x="1386" d="M205 35v1364q0 13 10.5 24t24.5 11h512q113 0 203.5 -30.5t147 -78t94 -111t52.5 -124t15 -121.5q0 -136 -72.5 -246t-182.5 -167.5t-231 -57.5h-282v-463q0 -13 -11 -24t-24 -11h-221q-14 0 -24.5 11t-10.5 24zM496 766h274q47 1 84.5 16.5t59 38t35.5 51t19 52.5t5 45 q0 24 -5 48t-19.5 52.5t-37 49.5t-61 35.5t-88.5 14.5h-266v-403z" />
<glyph unicode="Q" horiz-adv-x="1687" d="M123 719q0 67 10.5 135t35.5 141t62 139t95 125t129.5 102t169 68t211.5 25q113 0 210 -25t168 -68t128.5 -102t94.5 -125t61.5 -139t35 -141t10.5 -135q0 -108 -26 -213.5t-90.5 -213t-161.5 -179.5l313 -369q11 -15 2 -27q-6 -12 -20 -12h-269q-33 0 -57 27l-213 270 q-102 -20 -186 -20q-114 0 -211.5 25t-169 67.5t-129.5 101t-95 124t-62 139t-35.5 142.5t-10.5 138zM418 719q0 -29 3.5 -63t15 -81t30 -90t51 -87t75 -76t105 -52t138.5 -20q102 0 180.5 38.5t121 92.5t69 123.5t34.5 120t8 94.5q0 43 -8 94t-34.5 119.5t-69 122 t-121 91.5t-180.5 38q-76 0 -138.5 -20t-105 -51.5t-75 -75t-51 -86t-30 -89t-15 -80.5t-3.5 -63z" />
<glyph unicode="R" horiz-adv-x="1382" d="M205 35v1364q0 13 10.5 24t24.5 11h508q113 0 203.5 -30.5t147 -78t94 -111t52.5 -124t15 -121.5q0 -149 -78 -260t-205 -166l242 -512q5 -11 -2 -21t-19 -10h-246q-35 0 -49 31l-219 467h-192v-463q0 -13 -11 -24t-24 -11h-217q-14 0 -24.5 11t-10.5 24zM492 766h274 q47 1 84.5 16.5t59 38t35.5 51t19 52.5t5 45q0 24 -5 48t-19.5 52.5t-37 49.5t-61 35.5t-88.5 14.5h-266v-403z" />
<glyph unicode="S" horiz-adv-x="1314" d="M129 133.5q-4 14.5 2 26.5l94 178q6 12 20.5 17t26.5 -1q220 -102 383 -102q94 0 157 37t73 100q2 11 2 21q-1 56 -53 96q-62 46 -179 84q-172 54 -222 75q-194 80 -254 214q-32 70 -32 159q0 193 129.5 305.5t335.5 112.5q84 0 213 -25.5t279 -91.5q12 -6 17 -19.5 t-1 -27.5l-76 -178q-6 -13 -19.5 -19t-27.5 -1q-221 92 -364 92q-84 0 -138 -31.5t-57 -101.5q1 -28 17 -52t35 -40t61 -35t67.5 -28.5t83.5 -29.5q184 -63 261 -104q199 -106 226 -283q4 -27 4 -56q0 -15 -1 -30q-11 -177 -156 -294t-366 -117q-148 0 -272.5 32t-252.5 97 q-12 6 -16 20.5z" />
<glyph unicode="T" horiz-adv-x="1255" d="M92 1202v197q0 13 11 24t24 11h1001q14 0 24.5 -11t10.5 -24v-197q0 -14 -10.5 -24.5t-24.5 -10.5h-356v-1132q0 -13 -11 -24t-24 -11h-223q-14 0 -24.5 11t-10.5 24v1132h-352q-13 0 -24 10.5t-11 24.5z" />
<glyph unicode="U" horiz-adv-x="1507" d="M184 557v842q0 13 11 24t24 11h221q14 0 24.5 -11t10.5 -24v-842q0 -29 7.5 -64.5t27.5 -79.5t50 -79.5t80.5 -59.5t113.5 -24t113.5 24t79.5 59.5t49 79.5t27 79.5t7 64.5v842q0 13 11 24t24 11h223q14 0 24.5 -11t10.5 -24v-842q0 -76 -18 -152.5t-61 -153 t-106.5 -134.5t-163 -94.5t-220.5 -36.5q-122 0 -221 36.5t-162.5 94.5t-107 134.5t-61.5 153t-18 152.5z" />
<glyph unicode="V" horiz-adv-x="1482" d="M76 1401q-5 12 1.5 22.5t18.5 10.5h254q34 0 47 -33l344 -860l346 860q4 15 18 24t30 9h251q12 0 18.5 -10.5t2.5 -22.5l-631 -1397q-9 -22 -37 -22q-25 0 -34 22z" />
<glyph unicode="W" horiz-adv-x="2234" d="M76 1401q-5 12 1.5 22.5t18.5 10.5h254q34 0 47 -33l340 -832l342 854q11 25 37 25t37 -25l342 -854l340 832q4 15 18 24t29 9h254q12 0 18.5 -10.5t2.5 -22.5l-629 -1391q-7 -20 -31 -20t-31 20l-350 807l-350 -807q-7 -20 -31 -20q-23 0 -33 20z" />
<glyph unicode="X" horiz-adv-x="1349" d="M79.5 10q-5.5 10 0.5 19l442 690l-442 688q-6 9 -0.5 19t16.5 10h269q32 0 53 -31l256 -440l258 440q21 31 53 31h268q11 0 17 -10t0 -19l-445 -688l445 -690q6 -9 0 -19t-17 -10h-264q-32 0 -53 31l-262 444l-260 -444q-21 -31 -54 -31h-264q-11 0 -16.5 10z" />
<glyph unicode="Y" horiz-adv-x="1386" d="M79.5 1424q5.5 10 16.5 10h250q32 0 53 -31l293 -500l293 500q21 31 53 31h252q11 0 17 -10.5t0 -20.5l-469 -762v-606q0 -13 -11 -24t-24 -11h-219q-14 0 -24.5 11t-10.5 24v602l-469 766q-6 11 -0.5 21z" />
<glyph unicode="Z" horiz-adv-x="1353" d="M160 35v12q0 34 16 66l588 1056h-545q-13 0 -24 10.5t-11 24.5v195q0 13 11 24t24 11h938q13 0 24 -11t11 -24v-17q0 -33 -16 -65l-598 -1051h606q14 0 24.5 -11t10.5 -24v-196q0 -13 -10.5 -24t-24.5 -11h-989q-13 0 -24 11t-11 24z" />
<glyph unicode="[" horiz-adv-x="552" d="M61 -385v1948q0 13 10.5 23.5t24.5 10.5h361q14 0 24.5 -10.5t10.5 -23.5v-150q0 -13 -11 -24t-24 -11h-129v-1579h129q13 0 24 -10.5t11 -24.5v-149q0 -13 -11 -24t-24 -11h-361q-14 0 -24.5 11t-10.5 24z" />
<glyph unicode="\" horiz-adv-x="841" d="M72 1401q-3 12 4.5 22.5t19.5 10.5h172q15 0 27.5 -9.5t17.5 -23.5l457 -1368q3 -12 -5 -22.5t-20 -10.5h-174q-15 0 -28 9t-17 24z" />
<glyph unicode="]" horiz-adv-x="552" d="M61 -236q0 14 10.5 24.5t24.5 10.5h129v1579h-129q-14 0 -24.5 11t-10.5 24v150q0 13 10.5 23.5t24.5 10.5h361q14 0 24.5 -10.5t10.5 -23.5v-1948q0 -13 -11 -24t-24 -11h-361q-14 0 -24.5 11t-10.5 24v149z" />
<glyph unicode="^" horiz-adv-x="1247" d="M178 937q-1 15 8 26l404 489q13 16 35 16q21 0 37 -16l399 -489q9 -11 8 -26t-12 -24l-105 -96q-11 -9 -25.5 -8t-23.5 12l-278 316l-281 -314q-9 -11 -23.5 -12t-25.5 8l-105 94q-11 9 -12 24z" />
<glyph unicode="_" horiz-adv-x="862" d="M10 -41q0 13 11 24t24 11h772q13 0 24 -11t11 -24v-102q0 -13 -11 -24t-24 -11h-772q-13 0 -24 11t-11 24v102z" />
<glyph unicode="`" horiz-adv-x="1044" d="M219 1426.5q-3 13.5 6 25.5l92 129q7 12 22.5 14t25.5 -6l276 -215q11 -8 13 -22.5t-7 -26.5l-65 -94q-9 -12 -23.5 -15t-26.5 5l-299 184q-11 8 -14 21.5z" />
<glyph unicode="a" horiz-adv-x="1122" d="M123 301q0 340 438 340q54 0 119 -14q0 101 -32 134.5t-105 33.5q-34 0 -103.5 -16.5t-138.5 -43.5q-14 -5 -27.5 1.5t-19.5 19.5l-61 145q-6 14 -1 27.5t17 21.5q200 92 371 92q73 0 131 -13.5t97 -35.5t67.5 -57t44 -70t24.5 -83t11.5 -86.5t2.5 -90.5v-571 q0 -14 -10.5 -24.5t-23.5 -10.5h-123q-15 0 -27.5 9.5t-17.5 23.5l-11 33q-95 -80 -243 -86q-15 -1 -29 -1q-75 0 -133 18q-70 21 -110 54.5t-65 80.5t-33.5 87.5t-8.5 81.5zM387 315q0 -44 35.5 -69t85.5 -25q54 0 102.5 25t69.5 55v111q-85 22 -127 22q-166 0 -166 -119z " />
<glyph unicode="b" horiz-adv-x="1257" d="M164 35v1366q0 13 11 24t24 11h207q13 0 23.5 -10.5t10.5 -24.5v-393q72 34 185 34q119 0 211 -34t147 -87t90.5 -125t48.5 -141t13 -143q0 -70 -14 -139.5t-49.5 -141.5t-89 -126t-141 -88.5t-196.5 -34.5q-66 0 -145.5 26t-122.5 64l-12 -39q-5 -14 -18 -23.5t-28 -9.5 h-120q-13 0 -24 11t-11 24zM440 311q22 -31 74 -55.5t111 -24.5q60 0 105 22t69 53t38.5 72.5t18.5 72t4 61.5q0 36 -4.5 68.5t-20.5 73.5t-42 70.5t-73.5 50t-111.5 20.5q-36 0 -87 -15t-81 -35v-434z" />
<glyph unicode="c" horiz-adv-x="1134" d="M123 508q0 74 13.5 143t49.5 141.5t91.5 126t147.5 87.5t210 34q212 0 383 -178q10 -10 10.5 -25.5t-8.5 -25.5l-115 -125q-9 -10 -23 -10.5t-24 8.5q-50 45 -110 71.5t-113 26.5q-112 0 -174 -80t-62 -188q0 -121 70 -191.5t168 -70.5q104 0 199 80q10 8 25 7t24 -11 l116 -142q9 -10 8.5 -25.5t-10.5 -25.5q-159 -149 -360 -149q-113 0 -204 34t-148 87.5t-95 124t-53.5 139t-15.5 137.5z" />
<glyph unicode="d" horiz-adv-x="1257" d="M123 512q0 74 13 143t48.5 141t90.5 125t147 87t211 34q112 0 184 -34v393q0 13 10.5 24t24.5 11h207q13 0 24 -11t11 -24v-1366q0 -13 -11 -24t-24 -11h-121q-15 0 -27.5 9.5t-17.5 23.5l-12 39q-43 -38 -123 -64t-146 -26q-109 0 -196.5 34.5t-141 88.5t-88.5 126 t-49 141.5t-14 139.5zM397 512q0 -30 4 -61t18.5 -72.5t38.5 -72.5t69.5 -53t105.5 -22q59 0 110 24.5t74 55.5v434q-30 20 -81 35t-87 15q-64 0 -111.5 -20.5t-73.5 -50t-42 -70.5t-20.5 -73.5t-4.5 -68.5z" />
<glyph unicode="e" horiz-adv-x="1120" d="M92 514q0 69 15 137.5t53 139.5t94.5 125t147 88t202.5 34q201 0 312.5 -119t111.5 -321q0 -48 -6 -98q0 -15 -11 -25t-26 -10h-606q13 -97 71.5 -161t153.5 -64q118 0 227 71q12 8 26.5 6t23.5 -14l94 -129q9 -12 7 -27t-13 -24q-176 -135 -365 -135q-112 0 -202.5 34 t-147 87.5t-94.5 124.5t-53 140.5t-15 139.5zM387 629h367q-4 160 -150 162q-83 0 -137.5 -44t-79.5 -118z" />
<glyph unicode="f" horiz-adv-x="770" d="M20 819v170q0 13 11 24t24 11h72v76q0 170 103.5 259t265.5 89q129 0 264 -59q12 -6 17.5 -20t0.5 -28l-57 -153q-4 -13 -17.5 -19.5t-27.5 -1.5q-94 33 -164 33q-45 0 -75.5 -25.5t-30.5 -82.5v-68h155q13 0 24 -11t11 -24v-170q0 -13 -11 -24t-24 -11h-155v-749 q0 -13 -11 -24t-24 -11h-209q-14 0 -24.5 11t-10.5 24v749h-72q-13 0 -24 11t-11 24z" />
<glyph unicode="g" horiz-adv-x="1198" d="M123 -135q2 54 29.5 112.5t78.5 92.5q-84 67 -84 190q0 51 30 100t77 72q-72 78 -72 215q0 55 12.5 108.5t43 107.5t76 94.5t118 66t162.5 25.5q121 0 194 -41l121 112q9 10 24 10t25 -10l113 -112q11 -10 11 -25.5t-11 -24.5l-119 -129q28 -41 43 -93.5t15 -92.5 q0 -53 -13 -106t-44.5 -106t-77.5 -93.5t-118.5 -66t-162.5 -25.5q-93 0 -156 24q-19 -2 -33 -13t-14 -24q0 -38 23 -56q21 -15 71 -15h17q43 2 83 2q82 0 149 -8q100 -13 161.5 -38.5t99.5 -66t52 -85.5t14 -103q0 -25 -6.5 -57t-34 -83.5t-73 -91.5t-134.5 -70t-207 -30 q-109 0 -195.5 22t-139 56.5t-87 80t-48 88.5t-13.5 87zM385 -137q0 -17 8.5 -34.5t28.5 -38t64.5 -34t107.5 -14.5q68 0 113.5 13.5t63 35t23 37t5.5 31.5q0 96 -205 96q-122 0 -165.5 -25t-43.5 -67zM465 647q0 -19 4 -40t16 -48.5t40 -45t69 -17.5q39 0 67 17.5t39.5 45 t16 48.5t4.5 40t-4.5 40.5t-16 49.5t-39.5 46t-67 18t-66.5 -17t-40 -44t-17.5 -49.5t-5 -43.5z" />
<glyph unicode="h" horiz-adv-x="1196" d="M164 35v1364q0 13 11 24t24 11h207q13 0 23.5 -10.5t10.5 -24.5v-412q87 53 197 53q82 0 148 -16t110.5 -42.5t78 -67t52 -82t29.5 -96.5t14.5 -102t3.5 -106v-493q0 -13 -10.5 -24t-24.5 -11h-207q-13 0 -23.5 10.5t-10.5 24.5v493q0 44 -3 77t-15 71t-32 62 q-20 22 -57 38q-35 15 -82 15h-6q-51 -1 -95.5 -24.5t-66.5 -53.5v-678q0 -14 -10.5 -24.5t-23.5 -10.5h-207q-13 0 -24 11t-11 24z" />
<glyph unicode="i" horiz-adv-x="641" d="M164 1358q0 66 45.5 112t112.5 46q66 0 110.5 -46t44.5 -112q0 -67 -44.5 -111.5t-110.5 -44.5q-68 0 -113 44.5t-45 111.5zM180 35v954q0 13 11 24t24 11h209q14 0 24.5 -11t10.5 -24v-954q0 -13 -10.5 -24t-24.5 -11h-209q-13 0 -24 11t-11 24z" />
<glyph unicode="j" horiz-adv-x="600" d="M-254 -293q-2 15 6 27l80 121q17 26 49 12q80 -41 142 -41q114 0 114 154v1009q0 13 10.5 24t24.5 11h213q13 0 24 -11t11 -24v-993v-23q0 -24 -2 -49t-10.5 -65.5t-22.5 -75.5t-42 -73t-65 -64.5t-94.5 -44t-128.5 -17.5q-81 0 -161.5 30t-133.5 69q-12 9 -14 24z M123 1360q0 67 44.5 112.5t111.5 45.5q66 0 111.5 -46t45.5 -112q0 -68 -45 -112t-112 -44q-68 0 -112 43.5t-44 112.5z" />
<glyph unicode="k" horiz-adv-x="1230" d="M164 35v1364q0 13 11 24t24 11h207q13 0 23.5 -10.5t10.5 -24.5v-815l369 413q24 27 57 27h252q9 0 13 -9.5t-3 -15.5l-438 -467l471 -507q7 -6 3 -15.5t-13 -9.5h-256q-30 0 -59 25l-396 434v-424q0 -14 -10.5 -24.5t-23.5 -10.5h-207q-13 0 -24 11t-11 24z" />
<glyph unicode="l" horiz-adv-x="608" d="M164 35v1366q0 13 11 24t24 11h211q13 0 23.5 -10.5t10.5 -24.5v-1366q0 -14 -10.5 -24.5t-23.5 -10.5h-211q-13 0 -24 11t-11 24z" />
<glyph unicode="m" horiz-adv-x="1751" d="M164 35v954q0 13 11 24t24 11h118q15 0 27.5 -9.5t17.5 -23.5l15 -45q53 45 122 69.5t136 24.5q207 0 301 -102q130 102 287 102q113 0 192 -32.5t120 -76.5t63 -121t26 -134t4 -148v-493q0 -13 -11 -24t-24 -11h-213q-13 0 -23.5 10.5t-10.5 24.5v520q2 27 0.5 55 t-4 54.5t-12 50t-23.5 41.5t-38 28.5t-57 10.5q-54 0 -99.5 -26t-74.5 -62v-672q0 -14 -10.5 -24.5t-23.5 -10.5h-211q-13 0 -24 11t-11 24v520v38v29q-1 25 -7.5 62t-19.5 58t-40 37t-66 16q-60 0 -108.5 -26t-76.5 -64v-670q0 -14 -10.5 -24.5t-23.5 -10.5h-207 q-13 0 -24 11t-11 24z" />
<glyph unicode="n" horiz-adv-x="1198" d="M164 35v954q0 13 11 24t24 11h118q15 0 27.5 -9.5t17.5 -23.5l15 -41q111 90 258 90q81 0 146.5 -16t111 -43t79 -67.5t53 -83t31 -96.5t15.5 -101.5t4 -104.5v-493q0 -13 -10.5 -24t-24.5 -11h-213q-13 0 -23.5 10.5t-10.5 24.5v493q0 39 -2.5 70.5t-13 70t-27.5 64 t-49 43t-76 17.5q-60 0 -109 -25.5t-76 -62.5v-670q0 -14 -10.5 -24.5t-23.5 -10.5h-207q-13 0 -24 11t-11 24z" />
<glyph unicode="o" horiz-adv-x="1265" d="M123 512q0 69 15 138t52 141.5t93 127.5t146.5 90t203.5 35t203.5 -35t146.5 -90t93 -127.5t52 -141.5t15 -138q0 -71 -15 -140.5t-52 -141t-93 -125.5t-146.5 -88.5t-203.5 -34.5t-203.5 34.5t-146.5 88.5t-93 125.5t-52 141t-15 140.5zM397 512q0 -26 4.5 -57t20 -72.5 t39.5 -74.5t69 -56t103 -23t102.5 23t68.5 56t39 75t19 72.5t4 56.5t-4 57t-19 73t-39 75t-68.5 56.5t-102.5 23.5t-103 -23.5t-69 -56.5t-39.5 -75t-20 -73t-4.5 -57z" />
<glyph unicode="p" horiz-adv-x="1257" d="M164 -375v1366q0 13 11 24t24 11h120q15 0 28 -9.5t18 -23.5l12 -39q43 38 122.5 64t145.5 26q109 0 196.5 -34.5t141 -88.5t89 -126t49.5 -141.5t14 -139.5q0 -72 -12.5 -139t-45.5 -138t-84.5 -124t-137.5 -88.5t-196 -40.5q-47 0 -75.5 1.5t-69 9.5t-74.5 23v-393 q0 -14 -10.5 -24.5t-23.5 -10.5h-207q-13 0 -24 11t-11 24zM440 281q30 -20 81 -35t87 -15q64 0 111.5 20.5t73.5 50t42 70.5t20.5 73.5t4.5 68.5q0 31 -4 61.5t-18.5 72t-38.5 72.5t-69 53t-105 22q-59 0 -111 -24.5t-74 -55.5v-434z" />
<glyph unicode="q" horiz-adv-x="1257" d="M123 514q0 70 14 139.5t49 141.5t88.5 126t141 88.5t196.5 34.5q66 0 146 -26t123 -64l12 39q5 14 17.5 23.5t27.5 9.5h121q13 0 24 -11t11 -24v-1366q0 -13 -11 -24t-24 -11h-207q-14 0 -24.5 11t-10.5 24v393q-35 -17 -81 -24t-138 -10q-93 4 -168 29t-125.5 66.5 t-87 92t-56.5 110.5t-29 116.5t-9 115.5zM397 514q0 -36 4.5 -68.5t20.5 -73.5t42 -70.5t73.5 -50t111.5 -20.5q36 0 87 15t81 35v434q-23 31 -74 55.5t-110 24.5q-60 0 -105.5 -22t-69.5 -53t-38.5 -72.5t-18.5 -72.5t-4 -61z" />
<glyph unicode="r" horiz-adv-x="849" d="M164 35v954q0 13 11 24t24 11h118q35 0 48 -33l12 -30q116 75 262 75q60 0 135 -10q13 -1 21.5 -14t3.5 -25l-60 -188q-10 -30 -45 -27q-54 8 -86 8q-118 0 -168 -84v-661q0 -14 -10.5 -24.5t-23.5 -10.5h-207q-13 0 -24 11t-11 24z" />
<glyph unicode="s" horiz-adv-x="1048" d="M136 112.5q-5 14.5 3 26.5l78 156q7 12 21 16t26 -2q163 -78 266 -78q46 0 79.5 18t33.5 46q0 21 -12.5 38t-39.5 30.5t-51 21.5t-67 21q-40 12 -64 20.5t-61.5 24.5t-61 31t-51 40t-43 52.5t-26 65.5t-10.5 83q0 147 95.5 232t252.5 85q169 0 366 -92q12 -6 17.5 -19.5 t-0.5 -25.5l-76 -166q-6 -12 -19.5 -17t-27.5 1q-103 46 -227 65q-17 3 -32 3q-29 -1 -49 -11q-32 -16 -32 -47q0 -25 36 -43t115 -43q45 -14 69 -22.5t67 -26.5t68 -34.5t56.5 -44t48.5 -57.5t29.5 -72t12.5 -91q0 -138 -109 -225.5t-276 -87.5q-199 0 -387 108 q-13 6 -18 20.5z" />
<glyph unicode="t" horiz-adv-x="757" d="M72 813v176q0 14 10.5 24.5t23.5 10.5h72l17 166q2 15 12.5 25t25.5 10h189q14 0 24.5 -10.5t10.5 -24.5v-166h157q14 0 24.5 -11t10.5 -24v-176q0 -13 -10.5 -24t-24.5 -11h-157v-481q0 -66 57 -66q34 0 113 23q14 3 26 -5.5t13 -21.5l32 -155q3 -15 -4 -28t-20 -17 q-152 -39 -252 -39q-63 0 -110.5 22.5t-72 53.5t-39.5 73t-18.5 71t-3.5 58v512h-72q-13 0 -23.5 10.5t-10.5 24.5z" />
<glyph unicode="u" horiz-adv-x="1198" d="M123 496v493q0 13 10.5 24t24.5 11h213q13 0 24 -11t11 -24v-493q0 -39 2.5 -70.5t12.5 -70t27.5 -64t49 -43t75.5 -17.5q60 0 109 25.5t76 62.5v670q0 13 11 24t24 11h206q13 0 24 -11t11 -24v-954q0 -13 -11 -24t-24 -11h-118q-15 0 -28 9t-17 24l-15 41 q-111 -90 -258 -90q-81 0 -146.5 16t-111 43t-79 67.5t-53 83t-31 96.5t-15.5 101.5t-4 104.5z" />
<glyph unicode="v" horiz-adv-x="1155" d="M70 993q-5 11 1.5 21t18.5 10h236q15 0 29 -9t20 -24l203 -475l202 475q6 15 20 24t29 9h236q12 0 18.5 -10t1.5 -21l-475 -987q-10 -20 -35 -20q-22 0 -32 20z" />
<glyph unicode="w" horiz-adv-x="1708" d="M76 991q-5 12 1.5 22.5t18.5 10.5h223q16 0 30 -9t18 -24l208 -499l250 526q7 18 29 18t29 -18l250 -526l206 499q6 15 20.5 24t29.5 9h223q12 0 18.5 -10.5t1.5 -22.5l-442 -989q-7 -20 -31 -20q-20 0 -31 18l-274 504l-274 -504q-11 -18 -33 -18t-29 20z" />
<glyph unicode="x" horiz-adv-x="1032" d="M79 10q-5 10 1 21l293 481l-293 481q-6 11 -1 21t17 10h248q34 0 51 -31l121 -233l121 233q17 31 51 31h248q11 0 16.5 -10t-0.5 -21l-295 -481l295 -481q6 -11 0.5 -21t-16.5 -10h-248q-34 0 -51 31l-121 233l-121 -233q-17 -31 -51 -31h-248q-12 0 -17 10z" />
<glyph unicode="y" horiz-adv-x="1247" d="M76 991q-5 12 1.5 22.5t18.5 10.5h248q15 0 29 -9t18 -24l234 -583l237 583q4 15 18 24t29 9h242q12 0 18.5 -10.5t1.5 -22.5l-579 -1366q-6 -15 -20 -24t-29 -9h-228q-12 0 -19 10.5t-3 22.5l188 457z" />
<glyph unicode="z" horiz-adv-x="1042" d="M131 35v16q0 34 16 66l353 643h-328q-14 0 -24.5 11t-10.5 24v194q0 13 10.5 24t24.5 11h715q13 0 24 -11t11 -24q0 -31 -17 -65l-358 -660h348q13 0 24 -11t11 -24v-194q0 -13 -11 -24t-24 -11h-729q-14 0 -24.5 11t-10.5 24z" />
<glyph unicode="{" horiz-adv-x="659" d="M61 535v118q0 13 10.5 24t24.5 11h21q26 3 46.5 28.5t20.5 67.5v443q0 72 18 131t45 96t64 64.5t68.5 41t65 21t48 9t21.5 1.5h49q13 0 24 -10.5t11 -24.5v-147q0 -13 -11 -24t-24 -11h-6h-16.5t-25.5 -8t-32.5 -23t-22.5 -49.5t-11 -83.5v-440q0 -53 -32 -103.5 t-71 -72.5q40 -26 71.5 -76t31.5 -104v-441q0 -44 10.5 -76.5t24.5 -48.5t31.5 -25.5t27 -11t16.5 -1.5h4q13 0 24 -11t11 -24v-148q0 -13 -11 -24t-24 -11h-49q-7 0 -21.5 1.5t-48 9.5t-65 21t-68.5 41t-64 65t-45 96.5t-18 132.5v442q0 41 -20.5 67.5t-46.5 31.5h-21 q-14 0 -24.5 11t-10.5 24z" />
<glyph unicode="|" horiz-adv-x="454" d="M123 -377v1921q0 14 10.5 24.5t24.5 10.5h139q13 0 24 -10.5t11 -24.5v-1921q0 -13 -11 -24t-24 -11h-139q-14 0 -24.5 11t-10.5 24z" />
<glyph unicode="}" horiz-adv-x="659" d="M61 -225q0 13 10.5 24t24.5 11h4q7 0 16.5 1.5t27.5 11t32 25.5t24.5 48.5t10.5 76.5v441q0 54 31 104t71 76q-39 22 -70.5 72.5t-31.5 103.5v440q0 47 -10 81t-22 49.5t-30 24t-26.5 9t-18.5 0.5h-2h-6q-14 0 -24.5 11t-10.5 24v147q0 14 10.5 24.5t24.5 10.5h49 q7 0 21.5 -1.5t48 -9t65 -21t68.5 -41t64 -64.5t45 -96t18 -131v-443q0 -42 21 -67.5t47 -28.5h20q13 0 24 -11t11 -24v-118q0 -13 -11 -24t-24 -11h-20q-26 -5 -47 -31.5t-21 -67.5v-442q0 -73 -18 -132.5t-45 -96.5t-64 -65t-68.5 -41t-65 -21t-48 -9.5t-21.5 -1.5h-49 q-14 0 -24.5 11t-10.5 24v148z" />
<glyph unicode="~" horiz-adv-x="1290" d="M137 547q-3 14 4 28q143 232 346 232q35 0 73 -12t56.5 -21.5t59.5 -32.5q84 -49 135 -49q68 0 156 109q9 11 24 13t27 -7l121 -88q12 -9 15 -24t-5 -27q-70 -119 -158.5 -178.5t-181.5 -59.5q-95 0 -213 74q-88 45 -117 45q-73 0 -157 -100q-26 -26 -52 -7l-118 82 q-12 9 -15 23z" />
<glyph unicode="&#xa0;" />
<glyph unicode="&#xa1;" horiz-adv-x="720" d="M205 887q0 65 44 111t111 46q66 0 111 -46t45 -111q0 -67 -45 -112.5t-111 -45.5q-67 0 -111 45t-44 113zM223 168l35 399q1 15 12.5 25t26.5 10h131q15 0 26 -10t11 -25l37 -399v-541q0 -13 -11 -24t-24 -11h-209q-14 0 -24.5 11t-10.5 24v541z" />
<glyph unicode="&#xa2;" horiz-adv-x="1134" d="M123 508q0 66 11 129t39.5 129.5t72.5 119t116.5 92.5t165.5 54v125q0 13 11 24t24 11h139q14 0 24.5 -11t10.5 -24v-127q150 -34 281 -168q10 -10 10.5 -25.5t-8.5 -25.5l-115 -125q-9 -10 -23 -10.5t-24 8.5q-50 45 -110 71.5t-113 26.5q-112 0 -174 -80t-62 -188 q0 -121 70 -191.5t168 -70.5q104 0 199 80q10 8 25 7t24 -11l116 -142q9 -10 8.5 -25.5t-10.5 -25.5q-120 -113 -262 -139v-139q0 -13 -10.5 -24t-24.5 -11h-139q-13 0 -24 11t-11 24v139q-88 15 -159.5 54.5t-116 91.5t-74.5 116.5t-42.5 126t-12.5 123.5z" />
<glyph unicode="&#xa3;" horiz-adv-x="1323" d="M102 107.5q-3 13.5 4 27.5q81 135 191 195v454h-72q-13 0 -24 11t-11 24v170q0 13 11 24t24 11h72v76q0 170 103.5 259t265.5 89q129 0 264 -59q12 -6 17.5 -20t0.5 -28l-57 -153q-4 -13 -17.5 -19.5t-27.5 -1.5q-94 33 -164 33q-45 0 -76 -25.5t-31 -82.5v-68h156 q13 0 24 -11t11 -24v-170q0 -13 -11 -24t-24 -11h-156v-444q30 -6 113.5 -48t136.5 -42q34 0 83.5 27.5t92.5 82.5q9 12 23.5 14.5t26.5 -5.5l120 -88q12 -9 15.5 -24.5t-4.5 -27.5q-70 -116 -167 -174.5t-192 -58.5q-48 0 -102 18.5t-94 40t-89.5 40t-88.5 18.5 q-73 0 -158 -101q-25 -25 -51 -8l-123 82q-12 8 -15 21.5z" />
<glyph unicode="&#xa4;" horiz-adv-x="1359" d="M136 196q0 14 11 25l162 156q-45 90 -45 207q0 126 51 225l-165 168q-10 11 -10 25t10 24l104 107q10 11 24 11t25 -11l166 -168q93 49 211 49q123 0 215 -53l164 172q11 9 25 9t24 -9l104 -107q10 -10 10 -24t-10 -25l-170 -170q54 -100 54 -223q0 -117 -41 -207 l157 -158q10 -11 10 -25t-10 -24l-104 -102q-10 -10 -24 -10t-25 10l-148 147q-103 -61 -231 -61q-135 0 -231 59l-148 -145q-11 -10 -25 -10t-24 10l-105 104q-11 10 -11 24zM547 584q0 -20 5 -43.5t17.5 -52.5t41 -47.5t69.5 -18.5q40 0 68.5 19t41.5 47.5t18 52t5 43.5 t-5 43.5t-18 53t-41.5 48.5t-68.5 19q-41 0 -69.5 -19t-41 -48.5t-17.5 -53t-5 -43.5z" />
<glyph unicode="&#xa5;" horiz-adv-x="1384" d="M79 1424q5 10 17 10h248q32 0 53 -31l293 -490l295 490q21 31 53 31h250q11 0 17 -10.5t0 -20.5l-457 -741h166q14 0 24.5 -11t10.5 -24v-142q0 -13 -10.5 -23.5t-24.5 -10.5h-178v-127h178q14 0 24.5 -11t10.5 -24v-137q0 -14 -10.5 -24.5t-24.5 -10.5h-178v-82 q0 -13 -11 -24t-24 -11h-219q-14 0 -24.5 11t-10.5 24v82h-180q-13 0 -24 10.5t-11 24.5v137q0 13 11 24t24 11h180v127h-180q-14 0 -24.5 10.5t-10.5 23.5v142q0 13 11 24t24 11h163l-450 741q-6 11 -1 21z" />
<glyph unicode="&#xa6;" horiz-adv-x="454" d="M123 350q0 14 10.5 24.5t24.5 10.5h139q13 0 24 -10.5t11 -24.5v-723q0 -13 -11 -24t-24 -11h-139q-14 0 -24.5 11t-10.5 24v723zM123 829v721q0 14 10.5 24.5t24.5 10.5h139q13 0 24 -10.5t11 -24.5v-721q0 -13 -10.5 -23.5t-24.5 -10.5h-139q-14 0 -24.5 10.5 t-10.5 23.5z" />
<glyph unicode="&#xa7;" horiz-adv-x="1234" d="M177.5 -222q-1.5 15 6.5 25l109 140q9 10 24 12t27 -6q171 -115 270 -115q57 0 101.5 30.5t44.5 84.5q0 95 -225 207v2q-147 64 -238.5 168t-91.5 241q0 80 35.5 146t83.5 110q-105 128 -105 256q0 64 25.5 127t74.5 118.5t132 89.5t186 34q188 0 387 -137 q12 -9 14.5 -23t-6.5 -26l-102 -152q-20 -27 -51 -10q-145 82 -232 88q-72 0 -110 -30t-41 -71q1 -44 52 -91.5t128 -84.5q82 -40 145.5 -79.5t123.5 -92.5t93 -118t33 -138q0 -79 -39 -148t-92 -118q113 -131 113 -274q0 -109 -56.5 -195t-150 -131t-205.5 -45 q-243 0 -451 182q-11 9 -12.5 24zM473 584q0 -34 16.5 -63.5t48 -53t59.5 -40.5t69 -37.5t59 -31.5q43 50 54 85q4 14 5 28q0 31 -31.5 63t-68.5 52t-90.5 47t-73.5 39q-47 -43 -47 -88z" />
<glyph unicode="&#xa8;" horiz-adv-x="1191" d="M203 1366q0 66 45 112t112 46q66 0 111 -46t45 -112q0 -67 -45 -111.5t-111 -44.5q-68 0 -112.5 44.5t-44.5 111.5zM672 1366q0 66 45 112t112 46q66 0 111 -46t45 -112q0 -67 -45 -111.5t-111 -44.5q-68 0 -112.5 44.5t-44.5 111.5z" />
<glyph unicode="&#xa9;" horiz-adv-x="1200" d="M82 930q0 131 67.5 249t188 191.5t262.5 73.5q215 0 366.5 -151.5t151.5 -366.5t-151.5 -366.5t-366.5 -151.5q-98 0 -192 40t-166 108t-116 166t-44 208zM229 926q0 -155 108 -262t263 -107t262 107t107 262t-107 262.5t-262 107.5t-263 -107.5t-108 -262.5zM313 922 q0 -39 9.5 -78t31.5 -78.5t55 -70t84.5 -49.5t114.5 -19q116 0 207 94q9 10 8.5 25.5t-10.5 25.5l-43 45q-23 20 -51 2q-52 -41 -111 -41q-53 0 -90 39.5t-37 104.5q0 64 37 103.5t90 39.5q58 0 111 -45q11 -9 25 -9t24 9l45 49q10 10 10.5 25.5t-8.5 25.5q-91 94 -207 94 q-63 0 -114.5 -19.5t-84.5 -49.5t-55 -69.5t-31.5 -78t-9.5 -75.5z" />
<glyph unicode="&#xaa;" horiz-adv-x="823" d="M82 903q0 252 324 252q34 0 88 -12q0 75 -23.5 100t-77.5 25q-67 0 -170 -41q-14 -5 -27.5 1t-19.5 19l-39 90q-6 13 -1 27.5t18 21.5q116 57 266 66q75 0 128.5 -20t82.5 -49t45 -75.5t20 -85.5t4 -94v-413q0 -14 -10.5 -24.5t-23.5 -10.5h-74q-15 0 -27.5 9.5 t-17.5 23.5l-4 16q-68 -60 -181 -63q-68 -3 -120 12t-81.5 40t-48 59.5t-24.5 64.5t-6 61zM276 913q0 -32 26.5 -50.5t64.5 -18.5q41 0 77 18t50 41v82q-61 16 -95 16q-123 0 -123 -88z" />
<glyph unicode="&#xab;" horiz-adv-x="1132" d="M61 522q0 12 9 25l350 373q11 9 25.5 10t25.5 -8l96 -86q11 -9 12 -24t-8 -26l-211 -262l211 -266q9 -11 8 -25.5t-12 -23.5l-96 -86q-10 -9 -25.5 -8.5t-25.5 10.5l-350 375q-9 14 -9 22zM539 522q0 13 8 25l350 373q11 9 25.5 10t25.5 -8l96 -86q11 -9 12.5 -24 t-7.5 -26l-211 -262l211 -266q9 -11 7.5 -25.5t-12.5 -23.5l-96 -86q-10 -9 -25.5 -8.5t-25.5 10.5l-350 375q-8 12 -8 22z" />
<glyph unicode="&#xac;" horiz-adv-x="1284" d="M164 471v354q0 13 11 24t24 11h886q13 0 24 -11t11 -24v-614q0 -13 -11 -24t-24 -11h-383q-13 0 -23.5 10.5t-10.5 24.5v225h-469q-13 0 -24 11t-11 24z" />
<glyph unicode="&#xad;" horiz-adv-x="819" d="M125 342v168q0 14 10.5 24.5t24.5 10.5h508q13 0 23.5 -10.5t10.5 -24.5v-168q0 -14 -10.5 -24.5t-23.5 -10.5h-508q-14 0 -24.5 10.5t-10.5 24.5z" />
<glyph unicode="&#xae;" horiz-adv-x="1200" d="M82 930q0 131 67.5 249t188 191.5t262.5 73.5q215 0 366.5 -151.5t151.5 -366.5t-151.5 -366.5t-366.5 -151.5q-98 0 -192 40t-166 108t-116 166t-44 208zM229 926q0 -155 108 -262t263 -107t262 107t107 262t-107 262.5t-262 107.5t-263 -107.5t-108 -262.5zM410 713 v442q0 14 10.5 24.5t23.5 10.5h170q52 0 91.5 -17.5t60.5 -46t31 -58t10 -58.5q0 -41 -24.5 -83.5t-59.5 -66.5l86 -151q5 -11 -0.5 -21t-17.5 -10h-95q-34 0 -51 31l-63 118h-33v-114q0 -13 -10.5 -24t-24.5 -11h-70q-13 0 -23.5 10.5t-10.5 24.5zM549 965h72 q24 1 34.5 15.5t10.5 29.5q0 16 -11.5 31.5t-38.5 15.5h-67v-92z" />
<glyph unicode="&#xaf;" horiz-adv-x="1056" d="M231 1257v129q0 14 10.5 24.5t24.5 10.5h547q13 0 24 -10.5t11 -24.5v-129q0 -13 -10.5 -23.5t-24.5 -10.5h-547q-14 0 -24.5 10.5t-10.5 23.5z" />
<glyph unicode="&#xb0;" horiz-adv-x="675" d="M61 1178q0 115 80.5 195.5t196.5 80.5q115 0 195.5 -78.5t80.5 -197.5q0 -115 -81 -196t-195 -81q-116 0 -196.5 80.5t-80.5 196.5zM227 1178q0 -48 32.5 -78.5t78.5 -30.5q43 0 73.5 30.5t30.5 78.5q0 45 -31 74.5t-73 29.5q-44 0 -77.5 -31.5t-33.5 -72.5z" />
<glyph unicode="&#xb1;" horiz-adv-x="1132" d="M164 57v144q0 13 11 24t24 11h735q14 0 24.5 -11t10.5 -24v-144q0 -13 -10.5 -23.5t-24.5 -10.5h-735q-14 0 -24.5 10.5t-10.5 23.5zM164 612v162q0 14 11 24.5t24 10.5h256v256q0 14 10.5 24.5t23.5 10.5h164q13 0 24 -11t11 -24v-256h256q14 0 24.5 -10.5t10.5 -24.5 v-162q0 -13 -10.5 -23.5t-24.5 -10.5h-256v-170q0 -14 -11 -24.5t-24 -10.5h-164q-13 0 -23.5 10.5t-10.5 24.5v170h-256q-14 0 -24.5 10.5t-10.5 23.5z" />
<glyph unicode="&#xb2;" horiz-adv-x="624" d="M75.5 1510.5q-0.5 15.5 8.5 25.5q107 113 235 113q105 0 164.5 -58.5t59.5 -154.5q0 -79 -82 -193l-84 -117h121q14 0 24 -10t10 -24v-91q0 -13 -10 -23.5t-24 -10.5h-379q-11 0 -18 7t-7 17q0 24 15 45l215 310q8 12 14.5 22.5t10.5 18.5t6.5 13.5t3.5 12t1 8v7.5v6 q0 17 -13.5 32t-35.5 15q-48 0 -112 -56q-29 -21 -52 2l-61 58q-10 10 -10.5 25.5z" />
<glyph unicode="&#xb3;" horiz-adv-x="577" d="M55 1056q-1 15 8 25l56 58q9 11 23 12t26 -8q48 -31 111 -31q29 0 50 15.5t21 39.5q0 31 -20.5 47.5t-50.5 16.5h-78q-13 0 -24 10.5t-11 24.5v67q0 13 11 24t24 11h78q29 0 50 17.5t21 48.5q0 25 -21 40t-50 15q-49 0 -109 -37q-12 -8 -27 -6t-24 12l-51 58 q-9 10 -8.5 25t10.5 24q93 82 209 82q68 0 117.5 -22t74 -57t35 -68t10.5 -66t-17 -72t-46 -64q63 -50 63 -131q0 -31 -10.5 -64t-35 -68.5t-74 -58t-117.5 -22.5q-114 0 -211 78q-12 9 -13 24z" />
<glyph unicode="&#xb4;" horiz-adv-x="1044" d="M302 1351.5q2 14.5 13 22.5l277 215q10 8 24 6t23 -14l92 -129q7 -12 5 -25.5t-13 -21.5l-299 -184q-12 -8 -26 -5t-23 15l-66 94q-9 12 -7 26.5z" />
<glyph unicode="&#xb5;" horiz-adv-x="1239" d="M164 -371v1360q0 13 11 24t24 11h213q13 0 23.5 -10.5t10.5 -24.5v-493q0 -39 2.5 -70.5t13 -70t27.5 -64t49 -43t76 -17.5q60 0 109 25.5t76 62.5v670q0 13 10.5 24t24.5 11h206q14 0 24.5 -11t10.5 -24v-954q0 -13 -10.5 -24t-24.5 -11h-118q-15 0 -28 9t-17 24l-15 41 q-115 -93 -258 -90q-106 3 -158 55v-410q0 -14 -10.5 -24.5t-23.5 -10.5h-213q-13 0 -24 11t-11 24z" />
<glyph unicode="&#xb6;" horiz-adv-x="1503" d="M82 1006q0 57 12 113t42.5 114.5t76 102.5t120 72t167.5 28h805q13 0 23.5 -10.5t10.5 -24.5v-152q0 -14 -10.5 -24.5t-23.5 -10.5h-103v-1587q0 -13 -11 -24t-24 -11h-196q-13 0 -24 11t-11 24v1587h-180v-1587q0 -13 -11 -24t-24 -11h-197q-14 0 -24.5 11t-10.5 24v948 q-90 1 -162 30t-117 73t-74.5 102.5t-41.5 114t-12 111.5z" />
<glyph unicode="&#xb7;" horiz-adv-x="581" d="M123 612q0 72 47 119t119 47q71 0 120.5 -47.5t49.5 -118.5q0 -70 -49.5 -120t-120.5 -50t-118.5 49.5t-47.5 120.5z" />
<glyph unicode="&#xb8;" horiz-adv-x="1134" d="M510.5 -407.5q-4.5 14.5 1.5 26.5l33 72q6 13 19.5 19t27.5 1q53 -22 102 -22q29 0 51.5 20.5t24.5 46.5q2 29 -23.5 48.5t-78.5 19.5h-35q-19 0 -31 12q-12 15 -12 33v168q0 13 11 24t24 11h98q13 0 24 -11t11 -24v-94q100 -3 148 -63t48 -124q0 -109 -69 -166t-170 -57 q-94 0 -187 39q-13 6 -17.5 20.5z" />
<glyph unicode="&#xb9;" horiz-adv-x="466" d="M55 1460q3 14 15 23l186 133q30 20 63 20h21q14 0 24.5 -10.5t10.5 -23.5v-601q0 -13 -10.5 -23.5t-24.5 -10.5h-111q-13 0 -23.5 10.5t-10.5 23.5v392l-54 -29q-12 -7 -26.5 -3.5t-22.5 15.5l-33 56q-7 14 -4 28z" />
<glyph unicode="&#xba;" horiz-adv-x="774" d="M82 1128q0 41 8.5 82.5t31 85t56 76t87.5 53.5t122 21t122 -21t87.5 -53.5t56 -76t31 -85t8.5 -82.5q0 -43 -8.5 -84.5t-31 -84.5t-56 -75t-87.5 -52.5t-122 -20.5t-122 20.5t-87.5 52.5t-56 75t-31 84.5t-8.5 84.5zM121 479v146q0 13 10.5 23.5t24.5 10.5h460 q14 0 24.5 -10.5t10.5 -23.5v-146q0 -13 -10.5 -24t-24.5 -11h-460q-14 0 -24.5 11t-10.5 24zM299 1128q0 -13 3 -27.5t11.5 -33t27.5 -30t46 -11.5t46 11.5t27.5 30t11.5 33t3 27.5t-3 27t-11.5 32.5t-27.5 30t-46 11.5t-46 -11.5t-27.5 -30t-11.5 -32.5t-3 -27z" />
<glyph unicode="&#xbb;" horiz-adv-x="1132" d="M76 232.5q-1 14.5 8 25.5l211 266l-211 262q-9 11 -8 26t12 24l96 86q11 9 26 8t26 -10l348 -373q10 -10 10 -25q0 -10 -8 -22l-350 -375q-10 -10 -26 -10.5t-26 8.5l-96 86q-11 9 -12 23.5zM553 232.5q-1 14.5 8 25.5l211 266l-211 262q-9 11 -8 26t12 24l97 86 q11 9 25.5 8t25.5 -10l348 -373q10 -10 10 -25q0 -10 -8 -22l-350 -375q-10 -10 -25.5 -10.5t-25.5 8.5l-97 86q-11 9 -12 23.5z" />
<glyph unicode="&#xbc;" horiz-adv-x="1212" d="M55 1263q3 14 15 23l186 133q32 21 63 21h21q14 0 24.5 -11t10.5 -24v-600q0 -13 -10.5 -24t-24.5 -11h-111q-13 0 -23.5 10.5t-10.5 24.5v391l-54 -29q-12 -7 -26.5 -3t-22.5 16l-33 55q-7 14 -4 28zM141 31l684 1372q17 31 52 31h137q12 0 18 -10.5t0 -20.5l-682 -1372 q-17 -31 -51 -31h-139q-12 0 -18.5 10.5t-0.5 20.5zM604 133v66q0 36 21 63l260 383q19 29 55 29h70q13 0 23.5 -10.5t10.5 -24.5v-389h60q14 0 24.5 -11t10.5 -24v-82q0 -13 -10.5 -24t-24.5 -11h-60v-61q0 -14 -10.5 -24.5t-23.5 -10.5h-101q-13 0 -24 11t-11 24v61h-235 q-13 0 -24 11t-11 24zM788 250h86v125z" />
<glyph unicode="&#xbd;" horiz-adv-x="1308" d="M55 1263q3 14 15 23l186 133q32 21 63 21h21q14 0 24.5 -11t10.5 -24v-600q0 -13 -10.5 -24t-24.5 -11h-111q-13 0 -23.5 10.5t-10.5 24.5v391l-54 -29q-12 -7 -26.5 -3t-22.5 16l-33 55q-7 14 -4 28zM141 31l684 1372q17 31 52 31h137q12 0 18 -10.5t0 -20.5l-682 -1372 q-17 -31 -51 -31h-139q-12 0 -18.5 10.5t-0.5 20.5zM752 20q0 22 12 37l240 322q36 48 36 88q0 17 -13.5 32t-35.5 15q-49 0 -112 -55q-29 -21 -52 2l-61 57q-10 10 -10.5 25.5t8.5 25.5q107 113 235 113q103 0 163.5 -62t60.5 -151q0 -83 -82 -193l-88 -116h125 q13 0 23.5 -10.5t10.5 -24.5v-90q0 -14 -10.5 -24.5t-23.5 -10.5h-406q-20 0 -20 20z" />
<glyph unicode="&#xbe;" horiz-adv-x="1296" d="M55 858q-1 15 8 25l56 57q9 11 23 12t26 -8q48 -31 111 -31q29 0 50 16t21 40q0 31 -20.5 47t-50.5 16h-78q-13 0 -24 11t-11 24v68q0 13 10.5 23.5t24.5 10.5h78q29 0 50 17.5t21 48.5q0 25 -21 40t-50 15q-49 0 -109 -37q-12 -8 -27 -5.5t-24 12.5l-51 57 q-9 10 -8.5 25t10.5 24q93 82 209 82q68 0 117.5 -22t74 -57t35 -68t10.5 -66t-17 -71.5t-46 -63.5q63 -50 63 -131q0 -31 -10.5 -64t-35 -68.5t-74 -58t-117.5 -22.5q-114 0 -211 78q-12 9 -13 24zM217 31l684 1372q17 31 51 31h138q12 0 18 -10.5t0 -20.5l-682 -1372 q-17 -31 -51 -31h-139q-12 0 -18.5 10.5t-0.5 20.5zM680 133v66q0 37 20 63l261 383q19 29 55 29h69q13 0 24 -11t11 -24v-389h60q13 0 23.5 -10.5t10.5 -24.5v-82q0 -14 -10.5 -24.5t-23.5 -10.5h-60v-61q0 -13 -11 -24t-24 -11h-100q-13 0 -24 11t-11 24v61h-235 q-13 0 -24 11t-11 24zM864 250h86v125z" />
<glyph unicode="&#xbf;" horiz-adv-x="1169" d="M164 -90q0 55 16 109t47.5 104t57 83t65.5 79q31 36 46.5 55.5t30.5 45.5t15 42v111q0 13 10.5 23.5t24.5 10.5h191q14 0 24 -10.5t10 -23.5v-117q0 -57 -21.5 -110t-45 -84t-68.5 -83q-32 -37 -46 -54t-36 -50.5t-31.5 -64.5t-9.5 -64q0 -18 5 -35.5t18 -36.5t42 -30 t69 -9q54 3 104.5 35.5t124.5 102.5q11 11 25 11t24 -11l125 -117q9 -11 9.5 -25.5t-9.5 -23.5q-109 -117 -210 -170.5t-228 -53.5q-168 0 -273.5 95.5t-105.5 265.5zM414 879q0 67 46.5 113t112.5 46q69 0 114.5 -43.5t45.5 -115.5q0 -67 -46 -112.5t-114 -45.5 q-66 0 -112.5 45.5t-46.5 112.5z" />
<glyph unicode="&#xc0;" horiz-adv-x="1482" d="M76 31l629 1399q11 22 34 22q26 0 37 -22l631 -1399q5 -11 -2 -21t-19 -10h-251q-16 0 -30 9t-18 24l-124 303h-443l-123 -303q-13 -33 -47 -33h-254q-12 0 -18.5 10t-1.5 21zM525 1836.5q-3 13.5 5 25.5l93 129q7 12 22 14t25 -6l276 -215q11 -8 13 -22.5t-7 -26.5 l-65 -95q-9 -12 -23 -15t-26 5l-299 185q-11 8 -14 21.5zM612 565h258l-129 322z" />
<glyph unicode="&#xc1;" horiz-adv-x="1482" d="M76 31l629 1399q11 22 34 22q26 0 37 -22l631 -1399q5 -11 -2 -21t-19 -10h-251q-16 0 -30 9t-18 24l-124 303h-443l-123 -303q-13 -33 -47 -33h-254q-12 0 -18.5 10t-1.5 21zM523.5 1761.5q2.5 14.5 13.5 22.5l276 215q10 8 25 6t22 -14l92 -129q9 -12 6 -25.5 t-14 -21.5l-299 -185q-12 -8 -26 -5t-23 15l-66 95q-9 12 -6.5 26.5zM612 565h258l-129 322z" />
<glyph unicode="&#xc2;" horiz-adv-x="1482" d="M76 31l629 1399q11 22 34 22q26 0 37 -22l631 -1399q5 -11 -2 -21t-19 -10h-251q-16 0 -30 9t-18 24l-124 303h-443l-123 -303q-13 -33 -47 -33h-254q-12 0 -18.5 10t-1.5 21zM425 1759.5q2 14.5 13 22.5l277 215q10 9 25.5 9t27.5 -9l276 -215q11 -8 13.5 -22.5 t-6.5 -26.5l-66 -95q-20 -27 -51 -10l-193 119l-194 -119q-12 -8 -26 -5t-23 15l-66 95q-9 12 -7 26.5zM612 565h258l-129 322z" />
<glyph unicode="&#xc3;" horiz-adv-x="1482" d="M76 31l629 1399q11 22 34 22q26 0 37 -22l631 -1399q5 -11 -2 -21t-19 -10h-251q-16 0 -30 9t-18 24l-124 303h-443l-123 -303q-13 -33 -47 -33h-254q-12 0 -18.5 10t-1.5 21zM387 1741q21 54 52.5 92t67 57.5t68 28t66.5 8.5q42 0 79 -16.5t65.5 -32.5t50.5 -16 q46 0 82 51q8 11 22.5 14.5t26.5 -2.5l106 -55q12 -8 16.5 -21.5t-2.5 -25.5q-92 -178 -256 -178q-47 0 -103 34.5t-89 34.5q-52 0 -86 -49q-8 -12 -21.5 -17t-25.5 1l-98 45q-12 6 -18.5 20t-2.5 27zM612 565h258l-129 322z" />
<glyph unicode="&#xc4;" horiz-adv-x="1482" d="M76 31l629 1399q11 22 34 22q26 0 37 -22l631 -1399q5 -11 -2 -21t-19 -10h-251q-16 0 -30 9t-18 24l-124 303h-443l-123 -303q-13 -33 -47 -33h-254q-12 0 -18.5 10t-1.5 21zM350 1776q0 66 45.5 111.5t112.5 45.5q66 0 111 -45.5t45 -111.5q0 -67 -45 -111.5 t-111 -44.5q-68 0 -113 44.5t-45 111.5zM612 565h258l-129 322zM819 1776q0 66 45.5 111.5t112.5 45.5q66 0 111 -45.5t45 -111.5q0 -67 -45 -111.5t-111 -44.5q-68 0 -113 44.5t-45 111.5z" />
<glyph unicode="&#xc5;" horiz-adv-x="1482" d="M76 31l629 1399q11 22 34 22q26 0 37 -22l631 -1399q5 -11 -2 -21t-19 -10h-251q-16 0 -30 9t-18 24l-124 303h-443l-123 -303q-13 -33 -47 -33h-254q-12 0 -18.5 10t-1.5 21zM532 1819q0 86 61.5 147.5t147.5 61.5t146.5 -61.5t60.5 -147.5t-60.5 -146.5t-146.5 -60.5 t-147.5 60.5t-61.5 146.5zM612 565h258l-129 322zM680 1819q0 -23 18 -41.5t43 -18.5q23 0 41.5 18.5t18.5 41.5q0 25 -18.5 43t-41.5 18q-25 0 -43 -18t-18 -43z" />
<glyph unicode="&#xc6;" horiz-adv-x="1839" d="M76 29l624 1372q6 15 20.5 24t29.5 9h931q13 0 24 -11t11 -24v-197q0 -14 -11 -24.5t-24 -10.5h-651v-327h502q14 0 24.5 -11t10.5 -24v-197q0 -14 -10.5 -24.5t-24.5 -10.5h-502v-307h651q13 0 24 -11t11 -24v-196q0 -13 -11 -24t-24 -11h-905q-14 0 -24.5 11t-10.5 24 v301h-217l-127 -305q-4 -15 -18 -24t-29 -9h-254q-12 0 -18.5 10t-1.5 21zM625 575h116v281z" />
<glyph unicode="&#xc7;" horiz-adv-x="1517" d="M123 719q0 67 10.5 135t35.5 141t62 139t95 125t129.5 102t169 68t211.5 25q166 0 295 -63t241 -181q9 -9 8.5 -24t-10.5 -25l-141 -135q-9 -10 -23.5 -9.5t-23.5 11.5q-66 66 -162 111t-184 45q-76 0 -138.5 -20t-105 -51.5t-75 -75t-51 -86t-30 -89t-15 -80.5t-3.5 -63 t4 -62.5t15.5 -80t30 -89t51.5 -85.5t75 -74.5t105 -51.5t139 -20q89 0 185 40.5t173 102.5q11 9 25.5 8t23.5 -12l119 -145q9 -10 8.5 -25.5t-10.5 -25.5q-206 -194 -465 -213v-43q53 -1 93.5 -21t62 -49.5t31.5 -59.5t10 -57q0 -109 -69 -166t-171 -57q-93 0 -186 39 q-13 6 -18 20.5t1 26.5l33 72q6 13 19.5 19t27.5 1q53 -22 103 -22q29 0 51 20t24 47q2 29 -23.5 48.5t-78.5 19.5h-35q-19 0 -31 12q-12 15 -12 33v119q-133 15 -240 68.5t-174 128t-111.5 168.5t-62.5 184.5t-18 181.5z" />
<glyph unicode="&#xc8;" horiz-adv-x="1302" d="M205 35v1364q0 13 10.5 24t24.5 11h905q13 0 24 -11t11 -24v-197q0 -14 -11 -24.5t-24 -10.5h-651v-327h501q13 0 24 -11t11 -24v-197q0 -14 -11 -24.5t-24 -10.5h-501v-307h651q13 0 24 -11t11 -24v-196q0 -13 -11 -24t-24 -11h-905q-14 0 -24.5 11t-10.5 24z M435 1836.5q-3 13.5 5 25.5l92 129q7 12 22.5 14t25.5 -6l276 -215q11 -8 13 -22.5t-7 -26.5l-65 -95q-9 -12 -23 -15t-26 5l-299 185q-11 8 -14 21.5z" />
<glyph unicode="&#xc9;" horiz-adv-x="1302" d="M205 35v1364q0 13 10.5 24t24.5 11h905q13 0 24 -11t11 -24v-197q0 -14 -11 -24.5t-24 -10.5h-651v-327h501q13 0 24 -11t11 -24v-197q0 -14 -11 -24.5t-24 -10.5h-501v-307h651q13 0 24 -11t11 -24v-196q0 -13 -11 -24t-24 -11h-905q-14 0 -24.5 11t-10.5 24z M433 1761.5q2 14.5 13 22.5l277 215q10 8 24 6t23 -14l92 -129q7 -12 5 -25.5t-13 -21.5l-299 -185q-12 -8 -26 -5t-23 15l-66 95q-9 12 -7 26.5z" />
<glyph unicode="&#xca;" horiz-adv-x="1302" d="M205 35v1364q0 13 10.5 24t24.5 11h905q13 0 24 -11t11 -24v-197q0 -14 -11 -24.5t-24 -10.5h-651v-327h501q13 0 24 -11t11 -24v-197q0 -14 -11 -24.5t-24 -10.5h-501v-307h651q13 0 24 -11t11 -24v-196q0 -13 -11 -24t-24 -11h-905q-14 0 -24.5 11t-10.5 24z M335 1759.5q2 14.5 13 22.5l277 215q11 9 26 9t27 -9l276 -215q11 -8 13.5 -22.5t-6.5 -26.5l-66 -95q-20 -27 -51 -10l-193 119l-194 -119q-12 -8 -26 -5t-23 15l-66 95q-9 12 -7 26.5z" />
<glyph unicode="&#xcb;" horiz-adv-x="1302" d="M205 35v1364q0 13 10.5 24t24.5 11h905q13 0 24 -11t11 -24v-197q0 -14 -11 -24.5t-24 -10.5h-651v-327h501q13 0 24 -11t11 -24v-197q0 -14 -11 -24.5t-24 -10.5h-501v-307h651q13 0 24 -11t11 -24v-196q0 -13 -11 -24t-24 -11h-905q-14 0 -24.5 11t-10.5 24zM283 1776 q0 66 45 111.5t112 45.5q66 0 111 -45.5t45 -111.5q0 -67 -45 -111.5t-111 -44.5q-68 0 -112.5 44.5t-44.5 111.5zM752 1776q0 66 45 111.5t112 45.5q66 0 111 -45.5t45 -111.5q0 -67 -45 -111.5t-111 -44.5q-68 0 -112.5 44.5t-44.5 111.5z" />
<glyph unicode="&#xcc;" horiz-adv-x="544" d="M56 1836.5q-3 13.5 5 25.5l93 129q7 12 22 14t25 -6l276 -215q11 -8 13 -22.5t-7 -26.5l-65 -95q-9 -12 -23 -15t-26 5l-299 185q-11 8 -14 21.5zM127 35v1364q0 13 10.5 24t24.5 11h221q13 0 24 -11t11 -24v-1364q0 -13 -11 -24t-24 -11h-221q-14 0 -24.5 11t-10.5 24z " />
<glyph unicode="&#xcd;" horiz-adv-x="544" d="M54.5 1761.5q2.5 14.5 13.5 22.5l276 215q10 8 24 6t23 -14l92 -129q7 -12 5 -25.5t-13 -21.5l-299 -185q-12 -8 -26 -5t-23 15l-66 95q-9 12 -6.5 26.5zM127 35v1364q0 13 10.5 24t24.5 11h221q13 0 24 -11t11 -24v-1364q0 -13 -11 -24t-24 -11h-221q-14 0 -24.5 11 t-10.5 24z" />
<glyph unicode="&#xce;" horiz-adv-x="659" d="M13.5 1759.5q2.5 14.5 13.5 22.5l276 215q11 9 26 9t27 -9l277 -215q11 -8 13 -22.5t-7 -26.5l-66 -95q-20 -27 -51 -10l-192 119l-195 -119q-12 -8 -26 -5t-23 15l-66 95q-9 12 -6.5 26.5zM184 35v1364q0 13 11 24t24 11h221q14 0 24.5 -11t10.5 -24v-1364 q0 -13 -10.5 -24t-24.5 -11h-221q-13 0 -24 11t-11 24z" />
<glyph unicode="&#xcf;" horiz-adv-x="815" d="M4 1731q-9 35 0 69q11 53 53.5 88t100.5 35q66 0 110.5 -46t44.5 -112q0 -67 -44.5 -111t-110.5 -44q-58 0 -100.5 33.5t-53.5 87.5zM262 35v1364q0 13 11 24t24 11h221q14 0 24.5 -11t10.5 -24v-1364q0 -13 -10.5 -24t-24.5 -11h-221q-13 0 -24 11t-11 24zM502 1765 q0 66 45 112t112 46q66 0 111 -46t45 -112q0 -67 -45 -111t-111 -44q-68 0 -112.5 44t-44.5 111z" />
<glyph unicode="&#xd0;" horiz-adv-x="1546" d="M59 639v166q0 13 10.5 24t24.5 11h111v559q0 13 10.5 24t24.5 11h475q132 0 241.5 -32t185 -87.5t131.5 -125.5t88 -152t47 -160.5t15 -157.5q0 -98 -20.5 -193t-72.5 -192t-129.5 -169.5t-203 -118.5t-282.5 -46h-475q-14 0 -24.5 11t-10.5 24v569h-111q-14 0 -24.5 11 t-10.5 24zM492 266h223q75 0 137 19t104 50t74.5 73t50.5 83.5t29.5 87t15.5 78.5t4 62q0 43 -8 92.5t-34.5 116t-69.5 117.5t-121.5 87.5t-181.5 36.5h-223v-329h243q13 0 24 -11t11 -24v-166q0 -13 -11 -24t-24 -11h-243v-338z" />
<glyph unicode="&#xd1;" horiz-adv-x="1589" d="M205 35v1386q0 12 7.5 20.5t18.5 8.5q30 0 50 -20l813 -809v778q0 14 10.5 24.5t23.5 10.5h222q13 0 23.5 -10.5t10.5 -24.5v-1387q0 -10 -7 -17t-17 -7q-24 0 -43 16l-821 830v-799q0 -13 -11 -24t-24 -11h-221q-14 0 -24.5 11t-10.5 24zM440 1714q21 54 52.5 92.5 t66.5 58t68 28t67 8.5q42 0 79 -16.5t65.5 -33t50.5 -16.5q46 0 82 51q8 11 22.5 14.5t26.5 -2.5l106 -55q13 -8 17.5 -21.5t-2.5 -25.5q-92 -178 -256 -178q-38 0 -71.5 17.5t-63 35t-58.5 17.5q-51 0 -86 -50q-8 -12 -21.5 -17t-25.5 1l-98 45q-12 6 -18.5 20t-2.5 27z " />
<glyph unicode="&#xd2;" horiz-adv-x="1667" d="M123 719q0 67 10.5 135.5t35.5 142t62 139t95 125.5t129.5 103t169 68.5t211.5 25.5q113 0 210 -25.5t168 -68.5t128.5 -102.5t94.5 -125.5t61.5 -139.5t35 -142t10.5 -135.5q0 -69 -10.5 -138t-35 -143t-61.5 -140t-94.5 -125.5t-128.5 -102.5t-168 -68t-210 -25 q-114 0 -211.5 25t-169 68t-129.5 102.5t-95 125.5t-62 140t-35.5 143t-10.5 138zM418 719q0 -29 3.5 -63t15 -81.5t30 -91t51 -88t75 -76.5t105 -52.5t138.5 -20.5q74 0 136 20.5t103.5 52.5t74 76.5t50.5 88t29.5 90.5t15.5 81.5t4 63.5q0 44 -8 94.5t-34.5 120t-69 123.5 t-121 92.5t-180.5 38.5q-76 0 -138.5 -20t-105 -52t-75 -76t-51 -87t-30 -90t-15 -81t-3.5 -63zM617 1836.5q-3 13.5 6 25.5l92 129q7 12 22 14t25 -6l276 -215q11 -8 13 -22.5t-7 -26.5l-65 -95q-9 -12 -23 -15t-26 5l-299 185q-11 8 -14 21.5z" />
<glyph unicode="&#xd3;" horiz-adv-x="1667" d="M123 719q0 67 10.5 135.5t35.5 142t62 139t95 125.5t129.5 103t169 68.5t211.5 25.5q113 0 210 -25.5t168 -68.5t128.5 -102.5t94.5 -125.5t61.5 -139.5t35 -142t10.5 -135.5q0 -69 -10.5 -138t-35 -143t-61.5 -140t-94.5 -125.5t-128.5 -102.5t-168 -68t-210 -25 q-114 0 -211.5 25t-169 68t-129.5 102.5t-95 125.5t-62 140t-35.5 143t-10.5 138zM418 719q0 -29 3.5 -63t15 -81.5t30 -91t51 -88t75 -76.5t105 -52.5t138.5 -20.5q74 0 136 20.5t103.5 52.5t74 76.5t50.5 88t29.5 90.5t15.5 81.5t4 63.5q0 44 -8 94.5t-34.5 120t-69 123.5 t-121 92.5t-180.5 38.5q-76 0 -138.5 -20t-105 -52t-75 -76t-51 -87t-30 -90t-15 -81t-3.5 -63zM616 1761.5q2 14.5 13 22.5l276 215q10 8 25 6t22 -14l92 -129q9 -12 6 -25.5t-14 -21.5l-299 -185q-12 -8 -26 -5t-23 15l-65 95q-9 12 -7 26.5z" />
<glyph unicode="&#xd4;" horiz-adv-x="1667" d="M123 719q0 67 10.5 135.5t35.5 142t62 139t95 125.5t129.5 103t169 68.5t211.5 25.5q113 0 210 -25.5t168 -68.5t128.5 -102.5t94.5 -125.5t61.5 -139.5t35 -142t10.5 -135.5q0 -69 -10.5 -138t-35 -143t-61.5 -140t-94.5 -125.5t-128.5 -102.5t-168 -68t-210 -25 q-114 0 -211.5 25t-169 68t-129.5 102.5t-95 125.5t-62 140t-35.5 143t-10.5 138zM418 719q0 -29 3.5 -63t15 -81.5t30 -91t51 -88t75 -76.5t105 -52.5t138.5 -20.5q74 0 136 20.5t103.5 52.5t74 76.5t50.5 88t29.5 90.5t15.5 81.5t4 63.5q0 44 -8 94.5t-34.5 120t-69 123.5 t-121 92.5t-180.5 38.5q-76 0 -138.5 -20t-105 -52t-75 -76t-51 -87t-30 -90t-15 -81t-3.5 -63zM517 1765.5q2 14.5 13 22.5l277 215q11 9 26 9t27 -9l277 -215q11 -8 13 -22.5t-7 -26.5l-66 -94q-9 -12 -23 -15t-28 4l-192 119l-195 -119q-12 -7 -26 -4t-23 15l-66 94 q-9 12 -7 26.5z" />
<glyph unicode="&#xd5;" horiz-adv-x="1667" d="M123 719q0 67 10.5 135.5t35.5 142t62 139t95 125.5t129.5 103t169 68.5t211.5 25.5q113 0 210 -25.5t168 -68.5t128.5 -102.5t94.5 -125.5t61.5 -139.5t35 -142t10.5 -135.5q0 -69 -10.5 -138t-35 -143t-61.5 -140t-94.5 -125.5t-128.5 -102.5t-168 -68t-210 -25 q-114 0 -211.5 25t-169 68t-129.5 102.5t-95 125.5t-62 140t-35.5 143t-10.5 138zM418 719q0 -29 3.5 -63t15 -81.5t30 -91t51 -88t75 -76.5t105 -52.5t138.5 -20.5q74 0 136 20.5t103.5 52.5t74 76.5t50.5 88t29.5 90.5t15.5 81.5t4 63.5q0 44 -8 94.5t-34.5 120t-69 123.5 t-121 92.5t-180.5 38.5q-76 0 -138.5 -20t-105 -52t-75 -76t-51 -87t-30 -90t-15 -81t-3.5 -63zM469 1681q19 63 50.5 108.5t69 68.5t72.5 33t72 10q42 0 79 -16.5t65.5 -33t50.5 -16.5q55 0 100 80l168 -88q-95 -209 -272 -209q-48 0 -104 35t-89 35q-64 0 -102 -80z" />
<glyph unicode="&#xd6;" horiz-adv-x="1667" d="M123 719q0 67 10.5 135.5t35.5 142t62 139t95 125.5t129.5 103t169 68.5t211.5 25.5q113 0 210 -25.5t168 -68.5t128.5 -102.5t94.5 -125.5t61.5 -139.5t35 -142t10.5 -135.5q0 -69 -10.5 -138t-35 -143t-61.5 -140t-94.5 -125.5t-128.5 -102.5t-168 -68t-210 -25 q-114 0 -211.5 25t-169 68t-129.5 102.5t-95 125.5t-62 140t-35.5 143t-10.5 138zM418 719q0 -29 3.5 -63t15 -81.5t30 -91t51 -88t75 -76.5t105 -52.5t138.5 -20.5q74 0 136 20.5t103.5 52.5t74 76.5t50.5 88t29.5 90.5t15.5 81.5t4 63.5q0 44 -8 94.5t-34.5 120t-69 123.5 t-121 92.5t-180.5 38.5q-76 0 -138.5 -20t-105 -52t-75 -76t-51 -87t-30 -90t-15 -81t-3.5 -63zM442 1776q0 66 45.5 111.5t112.5 45.5q66 0 111 -45.5t45 -111.5q0 -67 -45 -111.5t-111 -44.5q-68 0 -113 44.5t-45 111.5zM911 1776q0 66 45.5 111.5t112.5 45.5 q66 0 111 -45.5t45 -111.5q0 -67 -45 -111.5t-111 -44.5q-68 0 -113 44.5t-45 111.5z" />
<glyph unicode="&#xd7;" horiz-adv-x="1150" d="M218 206q0 14 11 25l183 181l-183 182q-11 10 -11 24t11 25l117 115q10 10 24 10t25 -10l180 -180l183 180q10 10 24 10t25 -10l115 -115q10 -11 10 -25t-10 -24l-183 -180l183 -183q10 -11 10 -25t-10 -24l-117 -114q-11 -10 -25 -10t-24 10l-181 180l-182 -180 q-11 -10 -25 -10t-24 10l-115 114q-11 10 -11 24z" />
<glyph unicode="&#xd8;" horiz-adv-x="1667" d="M123 719q0 67 10.5 135.5t35.5 142t62 139t95 125.5t129.5 103t169 68.5t211.5 25.5q222 0 389 -102l82 96q9 11 23.5 12t25.5 -8l106 -88q11 -9 12 -23.5t-8 -25.5l-86 -102q84 -106 124 -238t40 -260q0 -69 -10.5 -138t-35 -143t-61.5 -140t-94.5 -125.5t-128.5 -102.5 t-168 -68t-210 -25q-242 0 -406 109l-94 -113q-9 -11 -23.5 -12t-25.5 8l-107 88q-11 9 -12 23.5t8 25.5l103 121q-80 104 -118 234.5t-38 257.5zM418 719q0 -137 57 -256l565 674q-87 51 -204 51q-76 0 -138.5 -20t-105 -52t-75 -76t-51 -87t-30 -90t-15 -81t-3.5 -63z M614 303q90 -57 222 -57q74 0 136 20.5t103.5 52.5t74 76.5t50.5 88t29.5 90.5t15.5 81.5t4 63.5q0 144 -65 264z" />
<glyph unicode="&#xd9;" horiz-adv-x="1507" d="M184 557v842q0 13 11 24t24 11h221q14 0 24.5 -11t10.5 -24v-842q0 -29 7.5 -64.5t27.5 -79.5t50 -79.5t80.5 -59.5t113.5 -24t113.5 24t79.5 59.5t49 79.5t27 79.5t7 64.5v842q0 13 11 24t24 11h223q14 0 24.5 -11t10.5 -24v-842q0 -76 -18 -152.5t-61 -153 t-106.5 -134.5t-163 -94.5t-220.5 -36.5q-122 0 -221 36.5t-162.5 94.5t-107 134.5t-61.5 153t-18 152.5zM537 1836.5q-3 13.5 6 25.5l92 129q7 12 22 14t25 -6l276 -215q11 -8 13.5 -22.5t-6.5 -26.5l-66 -95q-9 -12 -23 -15t-26 5l-299 185q-11 8 -14 21.5z" />
<glyph unicode="&#xda;" horiz-adv-x="1507" d="M184 557v842q0 13 11 24t24 11h221q14 0 24.5 -11t10.5 -24v-842q0 -29 7.5 -64.5t27.5 -79.5t50 -79.5t80.5 -59.5t113.5 -24t113.5 24t79.5 59.5t49 79.5t27 79.5t7 64.5v842q0 13 11 24t24 11h223q14 0 24.5 -11t10.5 -24v-842q0 -76 -18 -152.5t-61 -153 t-106.5 -134.5t-163 -94.5t-220.5 -36.5q-122 0 -221 36.5t-162.5 94.5t-107 134.5t-61.5 153t-18 152.5zM536 1761.5q2 14.5 13 22.5l276 215q10 8 25 6t22 -14l93 -129q8 -12 5 -25.5t-14 -21.5l-299 -185q-12 -8 -26 -5t-23 15l-65 95q-9 12 -7 26.5z" />
<glyph unicode="&#xdb;" horiz-adv-x="1507" d="M184 557v842q0 13 11 24t24 11h221q14 0 24.5 -11t10.5 -24v-842q0 -29 7.5 -64.5t27.5 -79.5t50 -79.5t80.5 -59.5t113.5 -24t113.5 24t79.5 59.5t49 79.5t27 79.5t7 64.5v842q0 13 11 24t24 11h223q14 0 24.5 -11t10.5 -24v-842q0 -76 -18 -152.5t-61 -153 t-106.5 -134.5t-163 -94.5t-220.5 -36.5q-122 0 -221 36.5t-162.5 94.5t-107 134.5t-61.5 153t-18 152.5zM437.5 1765.5q2.5 14.5 13.5 22.5l276 215q11 9 26 9t27 -9l277 -215q11 -8 13 -22.5t-7 -26.5l-66 -94q-9 -12 -23 -15t-28 4l-192 119l-195 -119q-12 -7 -26 -4 t-23 15l-66 94q-9 12 -6.5 26.5z" />
<glyph unicode="&#xdc;" horiz-adv-x="1507" d="M184 557v842q0 13 11 24t24 11h221q14 0 24.5 -11t10.5 -24v-842q0 -29 7.5 -64.5t27.5 -79.5t50 -79.5t80.5 -59.5t113.5 -24t113.5 24t79.5 59.5t49 79.5t27 79.5t7 64.5v842q0 13 11 24t24 11h223q14 0 24.5 -11t10.5 -24v-842q0 -76 -18 -152.5t-61 -153 t-106.5 -134.5t-163 -94.5t-220.5 -36.5q-122 0 -221 36.5t-162.5 94.5t-107 134.5t-61.5 153t-18 152.5zM362 1776q0 66 45.5 111.5t112.5 45.5q66 0 111 -45.5t45 -111.5q0 -67 -45 -111.5t-111 -44.5q-68 0 -113 44.5t-45 111.5zM831 1776q0 66 45.5 111.5t112.5 45.5 q66 0 111 -45.5t45 -111.5q0 -67 -45 -111.5t-111 -44.5q-68 0 -113 44.5t-45 111.5z" />
<glyph unicode="&#xdd;" horiz-adv-x="1361" d="M67.5 1424q5.5 10 16.5 10h250q32 0 53 -31l293 -508l293 508q21 31 53 31h252q11 0 16.5 -10t-0.5 -21l-469 -762v-606q0 -14 -10.5 -24.5t-23.5 -10.5h-220q-13 0 -23.5 10.5t-10.5 24.5v602l-469 766q-6 11 -0.5 21zM462 1761.5q2 14.5 13 22.5l277 215q10 8 24 6 t23 -14l92 -129q7 -12 5 -25.5t-13 -21.5l-299 -185q-12 -8 -26 -5t-23 15l-66 95q-9 12 -7 26.5z" />
<glyph unicode="&#xde;" horiz-adv-x="1341" d="M205 35v1364q0 13 10.5 24t24.5 11h215q13 0 23.5 -10.5t10.5 -24.5v-148h207q115 0 207.5 -35.5t150 -91t96 -129t54 -144t15.5 -140.5t-15.5 -140.5t-54 -144t-96 -129.5t-150 -91.5t-207.5 -35.5h-207v-135q0 -14 -10.5 -24.5t-23.5 -10.5h-215q-14 0 -24.5 11 t-10.5 24zM489 424h191q61 0 108.5 22t74 54.5t44 73.5t23.5 74.5t6 62.5q0 39 -11 82.5t-36.5 92.5t-79.5 81t-129 32h-191v-575z" />
<glyph unicode="&#xdf;" horiz-adv-x="1361" d="M205 -113v1127q0 89 24 161t59 116.5t84 77.5t90 48t88 24t65.5 10t33.5 1q107 0 191 -30t133 -74.5t81 -102.5t43 -107.5t11 -95.5q0 -61 -17.5 -113.5t-39 -81t-45 -58t-29.5 -44.5q2 -21 21 -45.5t45 -52.5t52 -62.5t44 -86.5t18 -113q0 -177 -125.5 -287.5 t-369.5 -117.5q-14 0 -24.5 10.5t-10.5 23.5v166q0 13 10.5 24t24.5 13q112 7 158 56.5t46 119.5q-3 34 -23.5 69t-48 64.5t-54.5 60.5t-45.5 68.5t-18.5 77.5q0 42 25 84.5t55 72t55 70t25 80.5v12t-3 22t-8.5 30t-18 30.5t-29.5 29t-44.5 20t-62.5 8.5q-21 0 -42 -4 t-46 -15.5t-44 -29.5t-32 -50.5t-14 -74.5v-1131q0 -13 -10.5 -23.5t-24.5 -10.5h-217q-14 0 -24.5 10.5t-10.5 23.5z" />
<glyph unicode="&#xe0;" horiz-adv-x="1122" d="M123 301q0 340 438 340q54 0 119 -14q0 101 -32 134.5t-105 33.5q-34 0 -103.5 -16.5t-138.5 -43.5q-14 -5 -27.5 1.5t-19.5 19.5l-61 145q-6 13 -1.5 27.5t17.5 21.5q171 83 371 92q73 0 131 -13.5t97 -35.5t67.5 -57t44 -70t24.5 -83t11.5 -86.5t2.5 -90.5v-571 q0 -14 -10.5 -24.5t-23.5 -10.5h-123q-15 0 -27.5 9.5t-17.5 23.5l-11 33q-95 -80 -243 -86q-91 -4 -161.5 17t-110.5 54.5t-65 80.5t-33.5 87.5t-8.5 81.5zM344 1426.5q-3 13.5 6 25.5l92 129q7 12 22 14t25 -6l277 -215q11 -8 13 -22.5t-7 -26.5l-65 -94q-9 -12 -23.5 -15 t-26.5 5l-299 184q-11 8 -14 21.5zM387 315q0 -44 35.5 -69t85.5 -25q54 0 102.5 25t69.5 55v111q-85 22 -127 22q-166 0 -166 -119z" />
<glyph unicode="&#xe1;" horiz-adv-x="1122" d="M123 301q0 340 438 340q54 0 119 -14q0 101 -32 134.5t-105 33.5q-34 0 -103.5 -16.5t-138.5 -43.5q-14 -5 -27.5 1.5t-19.5 19.5l-61 145q-6 14 -1 27.5t17 21.5q200 92 371 92q73 0 131 -13.5t97 -35.5t67.5 -57t44 -70t24.5 -83t11.5 -86.5t2.5 -90.5v-571 q0 -14 -10.5 -24.5t-23.5 -10.5h-123q-15 0 -27.5 9.5t-17.5 23.5l-11 33q-95 -80 -243 -86q-91 -4 -161.5 17t-110.5 54.5t-65 80.5t-33.5 87.5t-8.5 81.5zM343 1351.5q2 14.5 13 22.5l277 215q10 8 24 6t23 -14l92 -129q7 -12 5 -25.5t-13 -21.5l-299 -184q-12 -8 -26 -5 t-23 15l-66 94q-9 12 -7 26.5zM387 315q0 -44 35.5 -69t85.5 -25q54 0 102.5 25t69.5 55v111q-85 22 -127 22q-166 0 -166 -119z" />
<glyph unicode="&#xe2;" horiz-adv-x="1122" d="M123 301q0 340 438 340q54 0 119 -14q0 101 -32 134.5t-105 33.5q-34 0 -103.5 -16.5t-138.5 -43.5q-14 -5 -27.5 1.5t-19.5 19.5l-61 145q-6 14 -1 27.5t17 21.5q200 92 371 92q73 0 131 -13.5t97 -35.5t67.5 -57t44 -70t24.5 -83t11.5 -86.5t2.5 -90.5v-571 q0 -14 -10.5 -24.5t-23.5 -10.5h-123q-15 0 -27.5 9.5t-17.5 23.5l-11 33q-95 -80 -243 -86q-91 -4 -161.5 17t-110.5 54.5t-65 80.5t-33.5 87.5t-8.5 81.5zM245 1349.5q2 14.5 13 22.5l277 215q10 9 25.5 9t27.5 -9l276 -215q11 -8 13 -22.5t-7 -26.5l-65 -94 q-20 -27 -51 -10l-193 118l-194 -118q-12 -8 -26.5 -5t-23.5 15l-65 94q-9 12 -7 26.5zM387 315q0 -44 35.5 -69t85.5 -25q54 0 102.5 25t69.5 55v111q-85 22 -127 22q-166 0 -166 -119z" />
<glyph unicode="&#xe3;" horiz-adv-x="1122" d="M123 301q0 340 438 340q54 0 119 -14q0 101 -32 134.5t-105 33.5q-34 0 -103.5 -16.5t-138.5 -43.5q-14 -5 -27.5 1.5t-19.5 19.5l-61 145q-6 14 -1 27.5t17 21.5q200 92 371 92q73 0 131 -13.5t97 -35.5t67.5 -57t44 -70t24.5 -83t11.5 -86.5t2.5 -90.5v-571 q0 -14 -10.5 -24.5t-23.5 -10.5h-123q-15 0 -27.5 9.5t-17.5 23.5l-11 33q-95 -80 -243 -86q-91 -4 -161.5 17t-110.5 54.5t-65 80.5t-33.5 87.5t-8.5 81.5zM207 1331q21 54 52.5 92.5t66.5 58t68 28t67 8.5q42 0 79 -16.5t65 -33t50 -16.5q46 0 82 51q8 11 22.5 15t26.5 -2 l107 -56q12 -8 16.5 -21.5t-2.5 -25.5q-92 -178 -256 -178q-47 0 -103 35t-89 35q-51 0 -86 -50q-8 -12 -21.5 -17t-25.5 1l-99 45q-12 6 -18 20t-2 27zM387 315q0 -44 35.5 -69t85.5 -25q54 0 102.5 25t69.5 55v111q-85 22 -127 22q-166 0 -166 -119z" />
<glyph unicode="&#xe4;" horiz-adv-x="1122" d="M123 301q0 340 438 340q54 0 119 -14q0 101 -32 134.5t-105 33.5q-34 0 -103.5 -16.5t-138.5 -43.5q-14 -5 -27.5 1.5t-19.5 19.5l-61 145q-6 14 -1 27.5t17 21.5q200 92 371 92q73 0 131 -13.5t97 -35.5t67.5 -57t44 -70t24.5 -83t11.5 -86.5t2.5 -90.5v-571 q0 -14 -10.5 -24.5t-23.5 -10.5h-123q-15 0 -27.5 9.5t-17.5 23.5l-11 33q-95 -80 -243 -86q-91 -4 -161.5 17t-110.5 54.5t-65 80.5t-33.5 87.5t-8.5 81.5zM170 1366q0 66 45.5 112t112.5 46q66 0 110.5 -46t44.5 -112q0 -67 -44.5 -111.5t-110.5 -44.5q-68 0 -113 44.5 t-45 111.5zM387 315q0 -44 35.5 -69t85.5 -25q54 0 102.5 25t69.5 55v111q-85 22 -127 22q-166 0 -166 -119zM639 1366q0 66 45.5 112t112.5 46q66 0 110.5 -46t44.5 -112q0 -67 -44.5 -111.5t-110.5 -44.5q-68 0 -113 44.5t-45 111.5z" />
<glyph unicode="&#xe5;" horiz-adv-x="1122" d="M123 301q0 340 438 340q54 0 119 -14q0 101 -32 134.5t-105 33.5q-34 0 -103.5 -16.5t-138.5 -43.5q-14 -5 -27.5 1.5t-19.5 19.5l-61 145q-6 14 -1 27.5t17 21.5q200 92 371 92q73 0 131 -13.5t97 -35.5t67.5 -57t44 -70t24.5 -83t11.5 -86.5t2.5 -90.5v-571 q0 -14 -10.5 -24.5t-23.5 -10.5h-123q-15 0 -27.5 9.5t-17.5 23.5l-11 33q-95 -80 -243 -86q-91 -4 -161.5 17t-110.5 54.5t-65 80.5t-33.5 87.5t-8.5 81.5zM352 1409q0 86 61.5 147.5t147.5 61.5t146.5 -61.5t60.5 -147.5t-60.5 -146.5t-146.5 -60.5t-147.5 60.5 t-61.5 146.5zM387 315q0 -44 35.5 -69t85.5 -25q54 0 102.5 25t69.5 55v111q-85 22 -127 22q-166 0 -166 -119zM500 1409q0 -23 18 -41t43 -18q23 0 41.5 18t18.5 41q0 25 -18.5 43t-41.5 18q-25 0 -43 -18t-18 -43z" />
<glyph unicode="&#xe6;" horiz-adv-x="1671" d="M123 301q0 340 438 340q34 0 92 -8q9 35 21 72q-11 52 -42.5 71t-88.5 19q-34 0 -103.5 -16.5t-138.5 -43.5q-14 -5 -27.5 1.5t-19.5 19.5l-61 145q-6 13 -1.5 27.5t17.5 21.5q166 81 319 90q9 0 26.5 1t25.5 1q187 0 276 -86q127 82 299 82q201 0 312.5 -119t111.5 -321 q0 -48 -6 -98q0 -15 -11 -25t-26 -10h-606q13 -97 71.5 -161t153.5 -64q118 0 227 71q12 8 26.5 6t23.5 -14l94 -129q9 -12 7 -27t-13 -24q-176 -135 -365 -135q-217 0 -348 118q-124 -114 -305 -126q-91 -4 -161.5 17t-110.5 54.5t-65 80.5t-33.5 87.5t-8.5 81.5zM387 315 q0 -44 35.5 -69t85.5 -25q84 0 147 55q27 18 15 58q-15 44 -21 86q-68 14 -96 14q-166 0 -166 -119zM938 629h367q-4 160 -150 162q-83 0 -137.5 -44t-79.5 -118z" />
<glyph unicode="&#xe7;" horiz-adv-x="1181" d="M123 508q0 74 13.5 143t49.5 141.5t91.5 126t147.5 87.5t210 34q212 0 383 -178q10 -10 10.5 -25.5t-8.5 -25.5l-115 -125q-9 -10 -23 -10.5t-24 8.5q-50 45 -110 71.5t-113 26.5q-112 0 -174 -80t-62 -188q0 -121 70 -191.5t168 -70.5q104 0 199 80q10 8 25 7t24 -11 l116 -142q9 -10 8.5 -25.5t-10.5 -25.5q-143 -133 -315 -147v-45q53 -1 93.5 -21t62 -49.5t31.5 -59.5t10 -57q0 -109 -69 -166t-171 -57q-93 0 -186 39q-13 6 -18 20.5t1 26.5l33 72q6 13 19.5 19t27.5 1q53 -22 103 -22q29 0 51 20t24 47q2 29 -23.5 48.5t-78.5 19.5h-35 q-19 0 -31 12q-12 15 -12 33v129q-86 16 -154.5 56t-112.5 92t-73 116t-41 125t-12 121z" />
<glyph unicode="&#xe8;" horiz-adv-x="1120" d="M92 514q0 69 15 137.5t53 139.5t94.5 125t147 88t202.5 34q201 0 312.5 -119t111.5 -321q0 -48 -6 -98q0 -15 -11 -25t-26 -10h-606q13 -97 71.5 -161t153.5 -64q118 0 227 71q12 8 26.5 6t23.5 -14l94 -129q9 -12 7 -27t-13 -24q-176 -135 -365 -135q-112 0 -202.5 34 t-147 87.5t-94.5 124.5t-53 140.5t-15 139.5zM342 1426.5q-3 13.5 6 25.5l92 129q7 12 22 14t25 -6l277 -215q11 -8 13 -22.5t-7 -26.5l-65 -94q-9 -12 -23.5 -15t-26.5 5l-299 184q-11 8 -14 21.5zM387 629h367q-3 84 -51 124.5t-134 34.5q-68 -9 -114.5 -51t-67.5 -108z " />
<glyph unicode="&#xe9;" horiz-adv-x="1120" d="M92 514q0 69 15 137.5t53 139.5t94.5 125t147 88t202.5 34q201 0 312.5 -119t111.5 -321q0 -48 -6 -98q0 -15 -11 -25t-26 -10h-606q13 -97 71.5 -161t153.5 -64q118 0 227 71q12 8 26.5 6t23.5 -14l94 -129q9 -12 7 -27t-13 -24q-176 -135 -365 -135q-112 0 -202.5 34 t-147 87.5t-94.5 124.5t-53 140.5t-15 139.5zM341 1351.5q2 14.5 13 22.5l277 215q10 8 25 6t22 -14l92 -129q9 -12 6 -25.5t-14 -21.5l-299 -184q-12 -8 -26 -5t-23 15l-66 94q-9 12 -7 26.5zM387 629h367q-3 84 -51 124.5t-134 34.5q-68 -9 -114.5 -51t-67.5 -108z" />
<glyph unicode="&#xea;" horiz-adv-x="1120" d="M92 514q0 69 15 137.5t53 139.5t94.5 125t147 88t202.5 34q201 0 312.5 -119t111.5 -321q0 -48 -6 -98q0 -15 -11 -25t-26 -10h-606q13 -97 71.5 -161t153.5 -64q118 0 227 71q12 8 26.5 6t23.5 -14l94 -129q9 -12 7 -27t-13 -24q-176 -135 -365 -135q-112 0 -202.5 34 t-147 87.5t-94.5 124.5t-53 140.5t-15 139.5zM276 1349.5q2 14.5 13 22.5l276 215q11 9 26 9t27 -9l277 -215q11 -8 13 -22.5t-7 -26.5l-65 -94q-21 -27 -52 -10l-192 118l-195 -118q-12 -8 -26 -5t-23 15l-65 94q-9 12 -7 26.5zM387 629h367q-4 140 -115 157q-31 5 -70 2 q-68 -9 -114.5 -51t-67.5 -108z" />
<glyph unicode="&#xeb;" horiz-adv-x="1120" d="M92 514q0 69 15 137.5t53 139.5t94.5 125t147 88t202.5 34q201 0 312.5 -119t111.5 -321q0 -48 -6 -98q0 -15 -11 -25t-26 -10h-606q13 -97 71.5 -161t153.5 -64q118 0 227 71q12 8 26.5 6t23.5 -14l94 -129q9 -12 7 -27t-13 -24q-176 -135 -365 -135q-112 0 -202.5 34 t-147 87.5t-94.5 124.5t-53 140.5t-15 139.5zM170 1366q0 66 45.5 112t112.5 46q66 0 110.5 -46t44.5 -112q0 -67 -44.5 -111.5t-110.5 -44.5q-68 0 -113 44.5t-45 111.5zM387 629h367q-4 140 -115 157q-31 5 -70 2q-68 -9 -114.5 -51t-67.5 -108zM639 1366q0 66 45.5 112 t112.5 46q66 0 110.5 -46t44.5 -112q0 -67 -44.5 -111.5t-110.5 -44.5q-68 0 -113 44.5t-45 111.5z" />
<glyph unicode="&#xec;" horiz-adv-x="544" d="M56 1426.5q-3 13.5 5 25.5l93 129q7 12 22 14t25 -6l276 -215q11 -8 13 -22.5t-7 -26.5l-65 -94q-9 -12 -23 -15t-26 5l-299 184q-11 8 -14 21.5zM133 35v954q0 13 10.5 24t24.5 11h209q13 0 24 -11t11 -24v-954q0 -13 -11 -24t-24 -11h-209q-14 0 -24.5 11t-10.5 24z " />
<glyph unicode="&#xed;" horiz-adv-x="544" d="M54.5 1351.5q2.5 14.5 13.5 22.5l276 215q10 8 24 6t23 -14l92 -129q7 -12 5 -25.5t-13 -21.5l-299 -184q-12 -8 -26 -5t-23 15l-66 94q-9 12 -6.5 26.5zM133 35v954q0 13 10.5 24t24.5 11h209q13 0 24 -11t11 -24v-954q0 -13 -11 -24t-24 -11h-209q-14 0 -24.5 11 t-10.5 24z" />
<glyph unicode="&#xee;" horiz-adv-x="659" d="M13.5 1355.5q2.5 14.5 13.5 22.5l276 215q11 9 26 9t27 -9l277 -215q11 -8 13 -22.5t-7 -26.5l-66 -94q-20 -27 -51 -10l-192 118l-195 -118q-12 -8 -26 -5t-23 15l-66 94q-9 12 -6.5 26.5zM190 35v954q0 13 11 24t24 11h209q14 0 24.5 -11t10.5 -24v-954 q0 -13 -10.5 -24t-24.5 -11h-209q-13 0 -24 11t-11 24z" />
<glyph unicode="&#xef;" horiz-adv-x="782" d="M4 1331q-9 35 0 70q11 53 53.5 88t100.5 35q66 0 110.5 -46t44.5 -112q0 -67 -44.5 -111.5t-110.5 -44.5q-58 0 -100.5 33.5t-53.5 87.5zM252 35v954q0 13 11 24t24 11h209q13 0 23.5 -10.5t10.5 -24.5v-954q0 -14 -10.5 -24.5t-23.5 -10.5h-209q-13 0 -24 11t-11 24z M469 1366q0 66 45.5 112t112.5 46q66 0 110.5 -46t44.5 -112q0 -67 -44.5 -111.5t-110.5 -44.5q-68 0 -113 44.5t-45 111.5z" />
<glyph unicode="&#xf0;" horiz-adv-x="1196" d="M123 442q0 60 10.5 117t40.5 120t77 110.5t126.5 81t181.5 38.5q86 0 141 -24q-44 95 -145 200l-74 -73q-11 -10 -25 -10t-24 10l-78 78q-10 10 -10 24t10 25l68 67q-22 18 -64 47q-11 8 -13 21t5 24l109 142q8 12 22.5 14.5t26.5 -6.5q38 -23 88 -64l96 99q10 11 24 11 t25 -11l82 -82q11 -11 11 -25t-11 -24l-88 -88q340 -348 340 -803q0 -49 -11.5 -104.5t-45 -123t-84 -120.5t-138 -89t-198.5 -36q-80 0 -148 18t-115.5 47.5t-85.5 69t-61 81.5t-38 86.5t-21 81.5t-6 70zM393 453q0 -85 55 -148t150 -63q97 0 152 62.5t55 148.5 q-3 88 -56.5 148.5t-150.5 60.5t-151 -62t-54 -147z" />
<glyph unicode="&#xf1;" horiz-adv-x="1198" d="M164 35v954q0 13 11 24t24 11h118q15 0 27.5 -9.5t17.5 -23.5l15 -41q111 90 258 90q81 0 146.5 -16t111 -43t79 -67.5t53 -83t31 -96.5t15.5 -101.5t4 -104.5v-493q0 -13 -10.5 -24t-24.5 -11h-213q-13 0 -23.5 10.5t-10.5 24.5v493q0 39 -2.5 70.5t-13 70t-27.5 64 t-49 43t-76 17.5q-60 0 -109 -25.5t-76 -62.5v-670q0 -14 -10.5 -24.5t-23.5 -10.5h-207q-13 0 -24 11t-11 24zM246 1305q21 54 52.5 92t67 57.5t68 28t66.5 8.5q42 0 79 -16.5t65 -33t50 -16.5q45 0 82 52q8 11 22.5 14.5t26.5 -2.5l107 -55q12 -8 16.5 -22t-2.5 -26 q-92 -178 -256 -178q-38 0 -71.5 17.5t-62.5 35t-58 17.5q-52 0 -86 -49q-8 -12 -21.5 -17.5t-25.5 0.5l-99 45q-12 6 -18 20.5t-2 27.5z" />
<glyph unicode="&#xf2;" horiz-adv-x="1265" d="M123 512q0 69 15 138t52 141.5t93 127.5t146.5 90t203.5 35t203.5 -35t146.5 -90t93 -127.5t52 -141.5t15 -138q0 -71 -15 -140.5t-52 -141t-93 -125.5t-146.5 -88.5t-203.5 -34.5t-203.5 34.5t-146.5 88.5t-93 125.5t-52 141t-15 140.5zM397 512q0 -26 4.5 -57t20 -72.5 t39.5 -74.5t69 -56t103 -23t102.5 23t68.5 56t39 75t19 72.5t4 56.5t-4 57t-19 73t-39 75t-68.5 56.5t-102.5 23.5t-103 -23.5t-69 -56.5t-39.5 -75t-20 -73t-4.5 -57zM416 1426.5q-3 13.5 6 25.5l92 129q7 12 22 14t25 -6l277 -215q11 -8 13 -22.5t-7 -26.5l-66 -94 q-9 -12 -23 -15t-26 5l-299 184q-11 8 -14 21.5z" />
<glyph unicode="&#xf3;" horiz-adv-x="1265" d="M123 512q0 69 15 138t52 141.5t93 127.5t146.5 90t203.5 35t203.5 -35t146.5 -90t93 -127.5t52 -141.5t15 -138q0 -71 -15 -140.5t-52 -141t-93 -125.5t-146.5 -88.5t-203.5 -34.5t-203.5 34.5t-146.5 88.5t-93 125.5t-52 141t-15 140.5zM397 512q0 -26 4.5 -57t20 -72.5 t39.5 -74.5t69 -56t103 -23t102.5 23t68.5 56t39 75t19 72.5t4 56.5t-4 57t-19 73t-39 75t-68.5 56.5t-102.5 23.5t-103 -23.5t-69 -56.5t-39.5 -75t-20 -73t-4.5 -57zM415 1351.5q2 14.5 13 22.5l277 215q10 8 25 6t22 -14l92 -129q9 -12 6 -25.5t-14 -21.5l-299 -184 q-12 -8 -26.5 -5t-23.5 15l-65 94q-9 12 -7 26.5z" />
<glyph unicode="&#xf4;" horiz-adv-x="1265" d="M123 512q0 69 15 138t52 141.5t93 127.5t146.5 90t203.5 35t203.5 -35t146.5 -90t93 -127.5t52 -141.5t15 -138q0 -71 -15 -140.5t-52 -141t-93 -125.5t-146.5 -88.5t-203.5 -34.5t-203.5 34.5t-146.5 88.5t-93 125.5t-52 141t-15 140.5zM317 1355.5q2 14.5 13 22.5 l276 215q11 9 26 9t27 -9l277 -215q11 -8 13 -22.5t-7 -26.5l-65 -94q-21 -27 -52 -10l-192 118l-195 -118q-12 -8 -26 -5t-23 15l-65 94q-9 12 -7 26.5zM397 512q0 -26 4.5 -57t20 -72.5t39.5 -74.5t69 -56t103 -23t102.5 23t68.5 56t39 75t19 72.5t4 56.5t-4 57t-19 73 t-39 75t-68.5 56.5t-102.5 23.5t-103 -23.5t-69 -56.5t-39.5 -75t-20 -73t-4.5 -57z" />
<glyph unicode="&#xf5;" horiz-adv-x="1265" d="M123 512q0 69 15 138t52 141.5t93 127.5t146.5 90t203.5 35t203.5 -35t146.5 -90t93 -127.5t52 -141.5t15 -138q0 -71 -15 -140.5t-52 -141t-93 -125.5t-146.5 -88.5t-203.5 -34.5t-203.5 34.5t-146.5 88.5t-93 125.5t-52 141t-15 140.5zM279 1305q21 54 52 92t66.5 57.5 t68 28t66.5 8.5q42 0 79 -16.5t65.5 -33t50.5 -16.5q45 0 82 52q8 11 22.5 14.5t26.5 -2.5l107 -55q12 -8 16.5 -22t-2.5 -26q-92 -178 -256 -178q-38 0 -71.5 17.5t-63 35t-58.5 17.5q-52 0 -86 -49q-8 -12 -21.5 -17.5t-25.5 0.5l-98 45q-12 6 -18 20.5t-2 27.5zM397 512 q0 -26 4.5 -57t20 -72.5t39.5 -74.5t69 -56t103 -23t102.5 23t68.5 56t39 75t19 72.5t4 56.5t-4 57t-19 73t-39 75t-68.5 56.5t-102.5 23.5t-103 -23.5t-69 -56.5t-39.5 -75t-20 -73t-4.5 -57z" />
<glyph unicode="&#xf6;" horiz-adv-x="1265" d="M123 512q0 69 15 138t52 141.5t93 127.5t146.5 90t203.5 35t203.5 -35t146.5 -90t93 -127.5t52 -141.5t15 -138q0 -71 -15 -140.5t-52 -141t-93 -125.5t-146.5 -88.5t-203.5 -34.5t-203.5 34.5t-146.5 88.5t-93 125.5t-52 141t-15 140.5zM242 1366q0 66 45 112t112 46 q66 0 111 -46t45 -112q0 -67 -45 -111.5t-111 -44.5q-68 0 -112.5 44.5t-44.5 111.5zM397 512q0 -26 4.5 -57t20 -72.5t39.5 -74.5t69 -56t103 -23t102.5 23t68.5 56t39 75t19 72.5t4 56.5t-4 57t-19 73t-39 75t-68.5 56.5t-102.5 23.5t-103 -23.5t-69 -56.5t-39.5 -75 t-20 -73t-4.5 -57zM711 1366q0 66 45 112t112 46q66 0 111 -46t45 -112q0 -67 -45 -111.5t-111 -44.5q-68 0 -112.5 44.5t-44.5 111.5z" />
<glyph unicode="&#xf7;" horiz-adv-x="944" d="M123 444v134q0 13 10.5 23.5t24.5 10.5h628q14 0 24.5 -10.5t10.5 -23.5v-134q0 -13 -10.5 -23.5t-24.5 -10.5h-628q-14 0 -24.5 10.5t-10.5 23.5zM332 139q0 59 39.5 99.5t99.5 40.5q58 0 98.5 -40.5t40.5 -99.5q0 -61 -40 -100t-99 -39q-60 0 -99.5 39t-39.5 100z M336 854q-9 35 0 70q11 45 48 74.5t87 29.5q59 0 99 -40t40 -99q0 -61 -40 -100t-99 -39q-51 0 -87.5 28.5t-47.5 75.5z" />
<glyph unicode="&#xf8;" horiz-adv-x="1265" d="M123 512q0 69 15 138t52 141.5t93 127.5t146.5 90t203.5 35q146 0 254 -59l88 105q9 11 23.5 12t25.5 -8l106 -88q11 -9 12.5 -24t-7.5 -26l-93 -108q101 -142 101 -336q0 -71 -15 -140.5t-52 -141t-93 -125.5t-146.5 -88.5t-203.5 -34.5q-159 0 -268 61l-70 -82 q-9 -11 -23.5 -12t-25.5 8l-107 88q-11 9 -12 23.5t8 25.5l78 92q-90 136 -90 326zM397 512q0 -44 13 -92l305 362q-43 15 -82 15q-58 0 -103 -23.5t-69 -56.5t-39.5 -75t-20 -73t-4.5 -57zM537 248q43 -19 96 -19q58 0 102.5 23t68.5 56t39 75t19 72.5t4 56.5q0 49 -16 106 z" />
<glyph unicode="&#xf9;" horiz-adv-x="1198" d="M123 496v493q0 13 10.5 24t24.5 11h213q13 0 24 -11t11 -24v-493q0 -39 2.5 -70.5t12.5 -70t27.5 -64t49 -43t75.5 -17.5q60 0 109 25.5t76 62.5v670q0 13 11 24t24 11h206q13 0 24 -11t11 -24v-954q0 -13 -11 -24t-24 -11h-118q-15 0 -28 9t-17 24l-15 41 q-111 -90 -258 -90q-81 0 -146.5 16t-111 43t-79 67.5t-53 83t-31 96.5t-15.5 101.5t-4 104.5zM381 1426.5q-3 13.5 6 25.5l92 129q7 12 22 14t25 -6l277 -215q11 -8 13 -22.5t-7 -26.5l-66 -94q-9 -12 -23 -15t-26 5l-299 184q-11 8 -14 21.5z" />
<glyph unicode="&#xfa;" horiz-adv-x="1198" d="M123 496v493q0 13 10.5 24t24.5 11h213q13 0 24 -11t11 -24v-493q0 -39 2.5 -70.5t12.5 -70t27.5 -64t49 -43t75.5 -17.5q60 0 109 25.5t76 62.5v670q0 13 11 24t24 11h206q13 0 24 -11t11 -24v-954q0 -13 -11 -24t-24 -11h-118q-15 0 -28 9t-17 24l-15 41 q-111 -90 -258 -90q-81 0 -146.5 16t-111 43t-79 67.5t-53 83t-31 96.5t-15.5 101.5t-4 104.5zM380 1351.5q2 14.5 13 22.5l277 215q10 8 24 6t23 -14l92 -129q7 -12 5 -25.5t-13 -21.5l-299 -184q-12 -8 -26 -5t-23 15l-66 94q-9 12 -7 26.5z" />
<glyph unicode="&#xfb;" horiz-adv-x="1198" d="M123 496v493q0 13 10.5 24t24.5 11h213q13 0 24 -11t11 -24v-493q0 -39 2.5 -70.5t12.5 -70t27.5 -64t49 -43t75.5 -17.5q60 0 109 25.5t76 62.5v670q0 13 11 24t24 11h206q13 0 24 -11t11 -24v-954q0 -13 -11 -24t-24 -11h-118q-15 0 -28 9t-17 24l-15 41 q-111 -90 -258 -90q-81 0 -146.5 16t-111 43t-79 67.5t-53 83t-31 96.5t-15.5 101.5t-4 104.5zM282 1355.5q2 14.5 13 22.5l276 215q10 9 26 9t28 -9l276 -215q11 -8 13 -22.5t-7 -26.5l-65 -94q-20 -27 -51 -10l-193 118l-195 -118q-12 -8 -26 -5t-23 15l-65 94 q-9 12 -7 26.5z" />
<glyph unicode="&#xfc;" horiz-adv-x="1198" d="M123 496v493q0 13 10.5 24t24.5 11h213q13 0 24 -11t11 -24v-493q0 -39 2.5 -70.5t12.5 -70t27.5 -64t49 -43t75.5 -17.5q60 0 109 25.5t76 62.5v670q0 13 11 24t24 11h206q13 0 24 -11t11 -24v-954q0 -13 -11 -24t-24 -11h-118q-15 0 -28 9t-17 24l-15 41 q-111 -90 -258 -90q-81 0 -146.5 16t-111 43t-79 67.5t-53 83t-31 96.5t-15.5 101.5t-4 104.5zM207 1366q0 66 45.5 112t112.5 46q66 0 110.5 -46t44.5 -112q0 -67 -44.5 -111.5t-110.5 -44.5q-68 0 -113 44.5t-45 111.5zM676 1366q0 66 45.5 112t112.5 46q66 0 110.5 -46 t44.5 -112q0 -67 -44.5 -111.5t-110.5 -44.5q-68 0 -113 44.5t-45 111.5z" />
<glyph unicode="&#xfd;" horiz-adv-x="1224" d="M61 991q-4 12 2.5 22.5t18.5 10.5h248q15 0 29 -9t18 -24l239 -583l232 583q4 15 18 24t29 9h242q12 0 18.5 -10.5t1.5 -22.5l-579 -1366q-6 -15 -20.5 -24t-29.5 -9h-227q-12 0 -19 10.5t-3 22.5l188 457zM394.5 1351.5q2.5 14.5 13.5 22.5l276 215q10 8 24 6t23 -14 l92 -129q7 -12 5 -25.5t-13 -21.5l-299 -184q-12 -8 -26 -5t-23 15l-66 94q-9 12 -6.5 26.5z" />
<glyph unicode="&#xfe;" horiz-adv-x="1257" d="M164 -373v1774q0 13 11 24t24 11h207q13 0 23.5 -10.5t10.5 -24.5v-389q86 28 185 28q113 0 203.5 -34.5t146.5 -89t93 -126t52 -140.5t15 -138q0 -67 -14 -134t-49 -137t-87.5 -124t-136.5 -91t-189 -42h-69q-79 6 -150 28v-385q0 -14 -10.5 -24.5t-23.5 -10.5h-207 q-13 0 -24 11t-11 24zM440 276q67 -45 168 -45q50 0 91.5 15t68 40t45.5 54.5t29 62.5t14 59.5t4 49.5t-4 49.5t-14 59.5t-29 62.5t-45.5 54.5t-68 40t-91.5 15q-101 0 -168 -45v-472z" />
<glyph unicode="&#xff;" horiz-adv-x="1185" d="M61 991q-4 12 2.5 22.5t18.5 10.5h248q15 0 29 -9t18 -24l239 -583l232 583q4 15 18 24t29 9h242q12 0 18.5 -10.5t1.5 -22.5l-579 -1366q-6 -15 -20.5 -24t-29.5 -9h-227q-12 0 -19 10.5t-3 22.5l188 457zM201 1366q0 66 45 112t112 46q66 0 111 -46t45 -112 q0 -67 -45 -111.5t-111 -44.5q-68 0 -112.5 44.5t-44.5 111.5zM670 1366q0 66 45 112t112 46q66 0 111 -46t45 -112q0 -67 -45 -111.5t-111 -44.5q-68 0 -112.5 44.5t-44.5 111.5z" />
<glyph unicode="&#x152;" horiz-adv-x="2144" d="M123 719q0 67 10.5 135.5t35.5 142t62 139t95 125.5t129.5 103t169 68.5t211.5 25.5q103 0 211 -24h940q13 0 23.5 -10.5t10.5 -24.5v-197q0 -14 -10.5 -24.5t-23.5 -10.5h-652v-327h502q13 0 24 -11t11 -24v-197q0 -14 -11 -24.5t-24 -10.5h-502v-307h652 q13 0 23.5 -10.5t10.5 -24.5v-196q0 -14 -10.5 -24.5t-23.5 -10.5h-940q-121 -23 -211 -23q-114 0 -211.5 25t-169 68t-129.5 102.5t-95 125.5t-62 140t-35.5 143t-10.5 138zM418 719q0 -29 3.5 -63t15 -81.5t30 -91t51 -88t75 -76.5t105 -52.5t138.5 -20.5q123 0 211 53 v834q-92 55 -211 55q-76 0 -138.5 -20t-105 -52t-75 -76t-51 -87t-30 -90t-15 -81t-3.5 -63z" />
<glyph unicode="&#x153;" horiz-adv-x="1894" d="M123 512q0 69 15 138t52 141.5t93 127.5t146.5 90t203.5 35q236 0 373 -151q135 145 372 145q201 0 312.5 -119t111.5 -321q0 -48 -6 -98q0 -15 -11 -25t-26 -10h-606q13 -97 71.5 -161t153.5 -64q119 0 228 71q29 18 49 -8l94 -129q9 -12 7 -27t-13 -24 q-176 -135 -365 -135q-230 0 -374 151q-146 -157 -371 -157q-113 0 -203.5 34.5t-146.5 88.5t-93 125.5t-52 141t-15 140.5zM397 512q0 -26 4.5 -57t20 -72.5t39.5 -74.5t69 -56t103 -23q56 0 98.5 21.5t66.5 52t40 71.5t21.5 73t6.5 65q2 39 -8 83.5t-33.5 92t-73 78.5 t-118.5 31q-58 0 -103 -23.5t-69 -56.5t-39.5 -75t-20 -73t-4.5 -57zM1161 629h367q-4 160 -150 162q-83 0 -137.5 -44t-79.5 -118z" />
<glyph unicode="&#x178;" horiz-adv-x="1386" d="M79.5 1424q5.5 10 16.5 10h250q32 0 53 -31l293 -498l293 498q21 31 53 31h252q11 0 17 -10.5t0 -20.5l-469 -762v-606q0 -13 -11 -24t-24 -11h-219q-14 0 -24.5 11t-10.5 24v602l-469 766q-6 11 -0.5 21zM305 1741q-9 35 0 69q11 53 53.5 88t100.5 35q66 0 110.5 -45.5 t44.5 -111.5q0 -67 -44.5 -111.5t-110.5 -44.5q-58 0 -100.5 33.5t-53.5 87.5zM770 1776q0 66 45.5 111.5t112.5 45.5q66 0 110.5 -45.5t44.5 -111.5q0 -67 -44.5 -111.5t-110.5 -44.5q-68 0 -113 44.5t-45 111.5z" />
<glyph unicode="&#x17f;" horiz-adv-x="770" d="M20 817v174q0 13 10 23t23 10h74v76q0 170 103.5 259t265.5 89q129 0 264 -59q13 -6 18.5 -20t-0.5 -26l-57 -157q-6 -12 -18.5 -17.5t-24.5 -1.5q-108 33 -166 33q-45 0 -75.5 -25.5t-30.5 -82.5v-1059q0 -13 -10 -23t-23 -10h-213q-14 0 -23.5 10t-9.5 23v751h-74 q-13 0 -23 10t-10 23z" />
<glyph unicode="&#x2c6;" horiz-adv-x="1060" d="M222.5 1355.5q2.5 14.5 13.5 22.5l276 215q11 9 26 9t27 -9l277 -215q11 -8 13 -22.5t-7 -26.5l-66 -94q-20 -27 -51 -10l-192 118l-195 -118q-12 -8 -26 -5t-23 15l-66 94q-9 12 -6.5 26.5z" />
<glyph unicode="&#x2dc;" horiz-adv-x="1095" d="M195 1305q21 54 52.5 92t67 57.5t68 28t66.5 8.5q42 0 79 -16.5t65 -33t50 -16.5q45 0 82 52q8 11 22.5 14.5t26.5 -2.5l107 -55q12 -8 16.5 -22t-2.5 -26q-92 -178 -256 -178q-38 0 -71.5 17.5t-63 35t-58.5 17.5q-52 0 -86 -49q-8 -12 -21.5 -17.5t-25.5 0.5l-98 45 q-12 6 -18 20.5t-2 27.5z" />
<glyph unicode="&#x2000;" horiz-adv-x="1014" />
<glyph unicode="&#x2001;" horiz-adv-x="2028" />
<glyph unicode="&#x2002;" horiz-adv-x="1014" />
<glyph unicode="&#x2003;" horiz-adv-x="2028" />
<glyph unicode="&#x2004;" horiz-adv-x="676" />
<glyph unicode="&#x2005;" horiz-adv-x="507" />
<glyph unicode="&#x2006;" horiz-adv-x="338" />
<glyph unicode="&#x2007;" horiz-adv-x="338" />
<glyph unicode="&#x2008;" horiz-adv-x="253" />
<glyph unicode="&#x2009;" horiz-adv-x="405" />
<glyph unicode="&#x200a;" horiz-adv-x="112" />
<glyph unicode="&#x2010;" horiz-adv-x="913" d="M164 522v166q0 14 11 24.5t24 10.5h516q13 0 24 -10.5t11 -24.5v-166q0 -14 -11 -24.5t-24 -10.5h-516q-13 0 -24 10.5t-11 24.5z" />
<glyph unicode="&#x2011;" horiz-adv-x="913" d="M164 522v166q0 14 11 24.5t24 10.5h516q13 0 24 -10.5t11 -24.5v-166q0 -14 -11 -24.5t-24 -10.5h-516q-13 0 -24 10.5t-11 24.5z" />
<glyph unicode="&#x2012;" horiz-adv-x="913" d="M164 522v166q0 14 11 24.5t24 10.5h516q13 0 24 -10.5t11 -24.5v-166q0 -14 -11 -24.5t-24 -10.5h-516q-13 0 -24 10.5t-11 24.5z" />
<glyph unicode="&#x2013;" horiz-adv-x="1126" d="M164 569v162q0 13 11 24t24 11h731q14 0 24.5 -11t10.5 -24v-162q0 -13 -10.5 -23.5t-24.5 -10.5h-731q-14 0 -24.5 10.5t-10.5 23.5z" />
<glyph unicode="&#x2014;" horiz-adv-x="1376" d="M164 569v162q0 13 11 24t24 11h979q13 0 23.5 -10.5t10.5 -24.5v-162q0 -13 -10 -23.5t-24 -10.5h-979q-14 0 -24.5 10.5t-10.5 23.5z" />
<glyph unicode="&#x2018;" horiz-adv-x="598" d="M123 1001q0 85 60 217.5t128 229.5q7 12 22.5 16t28.5 -2l82 -41q12 -6 16.5 -19.5t-1.5 -25.5q-70 -130 -99 -231q111 -36 111 -160q0 -71 -47.5 -119.5t-118.5 -48.5q-94 0 -138 53.5t-44 130.5z" />
<glyph unicode="&#x2019;" horiz-adv-x="598" d="M127 1309q0 71 47.5 119.5t118.5 48.5q94 0 138 -54t44 -131q0 -85 -60 -217t-128 -229q-21 -28 -51 -15l-82 41q-12 6 -16.5 20t1.5 26q72 134 99 231q-111 36 -111 160z" />
<glyph unicode="&#x201a;" horiz-adv-x="679" d="M168 147q0 71 47.5 119.5t118.5 48.5q94 0 138 -53.5t44 -130.5q0 -85 -60 -217t-128 -229q-9 -12 -23.5 -16.5t-28.5 1.5l-81 41q-12 6 -16.5 19.5t1.5 25.5q30 56 59 124.5t40 107.5q-111 36 -111 159z" />
<glyph unicode="&#x201c;" horiz-adv-x="1071" d="M123 1001q0 85 60 217.5t128 229.5q7 12 22.5 16t28.5 -2l82 -41q12 -6 16.5 -19.5t-1.5 -25.5q-70 -130 -99 -231q111 -36 111 -160q0 -71 -47.5 -119.5t-118.5 -48.5q-94 0 -138 53.5t-44 130.5zM596 1001q0 85 60 217.5t128 229.5q7 12 23 16t29 -2l82 -41 q12 -6 16 -19.5t-2 -25.5q-68 -126 -98 -231q110 -35 110 -160q0 -71 -47.5 -119.5t-118.5 -48.5q-94 0 -138 53.5t-44 130.5z" />
<glyph unicode="&#x201d;" horiz-adv-x="1071" d="M127 1309q0 71 47.5 119.5t118.5 48.5q94 0 138 -54t44 -131q0 -85 -60 -217t-128 -229q-21 -28 -51 -15l-82 41q-12 6 -16.5 20t1.5 26q72 134 99 231q-111 36 -111 160zM600 1309q0 71 47.5 119.5t118.5 48.5q94 0 138 -54t44 -131q0 -85 -60 -217t-128 -229 q-21 -28 -51 -15l-82 41q-12 6 -16.5 20t1.5 26q72 134 99 231q-111 36 -111 160z" />
<glyph unicode="&#x201e;" horiz-adv-x="1114" d="M168 147q0 71 47.5 119.5t118.5 48.5q94 0 138 -53.5t44 -130.5q0 -85 -60 -217t-128 -229q-9 -12 -23.5 -16.5t-28.5 1.5l-81 41q-12 6 -16.5 19.5t1.5 25.5q30 56 59 124.5t40 107.5q-111 36 -111 159zM684 147q0 71 47.5 119.5t118.5 48.5q94 0 138 -53.5t44 -130.5 q0 -85 -60 -217t-128 -229q-21 -28 -51 -15l-82 41q-12 6 -16.5 19.5t1.5 25.5q30 56 59 124.5t40 107.5q-111 36 -111 159z" />
<glyph unicode="&#x2022;" horiz-adv-x="862" d="M164 594q0 108 79.5 190t182.5 82q113 0 192.5 -81t79.5 -191q0 -106 -79.5 -185t-192.5 -79q-103 0 -182.5 80t-79.5 184z" />
<glyph unicode="&#x2026;" horiz-adv-x="1597" d="M164 158q0 71 51 121.5t121 50.5q71 0 120.5 -50t49.5 -122q0 -70 -50 -120t-120 -50t-121 50t-51 120zM668 158q0 71 51 121.5t121 50.5q71 0 120.5 -50t49.5 -122q0 -70 -50 -120t-120 -50t-121 50t-51 120zM1174 158q0 71 51 121.5t121 50.5q71 0 120.5 -50t49.5 -122 q0 -70 -50 -120t-120 -50t-121 50t-51 120z" />
<glyph unicode="&#x202f;" horiz-adv-x="405" />
<glyph unicode="&#x2039;" horiz-adv-x="655" d="M61 522q0 12 9 25l350 373q11 9 25.5 10t25.5 -8l96 -86q11 -9 12 -24t-8 -26l-211 -262l211 -266q9 -11 8 -25.5t-12 -23.5l-96 -86q-10 -9 -25.5 -8.5t-25.5 10.5l-350 375q-9 14 -9 22z" />
<glyph unicode="&#x203a;" horiz-adv-x="655" d="M76 232.5q-1 14.5 8 25.5l211 266l-211 262q-9 11 -8 26t12 24l96 86q11 9 26 8t26 -10l348 -373q10 -10 10 -25q0 -10 -8 -22l-350 -375q-10 -10 -26 -10.5t-26 8.5l-96 86q-11 9 -12 23.5z" />
<glyph unicode="&#x2044;" horiz-adv-x="137" d="M-375 29l688 1376q15 29 47 29h142q10 0 16.5 -10t1.5 -19l-686 -1376q-14 -29 -47 -29h-143q-10 0 -17 10t-2 19z" />
<glyph unicode="&#x205f;" horiz-adv-x="507" />
<glyph unicode="&#x2070;" horiz-adv-x="671" d="M61 1298q0 45 8 90.5t28.5 92.5t50.5 82.5t78.5 58.5t109.5 23q76 0 132 -33.5t85.5 -88t43 -111t13.5 -114.5q0 -46 -8 -91t-27.5 -91t-49.5 -80.5t-79 -56t-110 -21.5q-75 0 -131 32t-86 84.5t-44 108.5t-14 115zM240 1298q0 -22 4 -48t13 -57.5t29.5 -52t49.5 -20.5 t49.5 20.5t29.5 52t13 57.5t4 48q0 23 -4 49.5t-13 59t-29.5 53.5t-49.5 21t-49.5 -21t-29.5 -53.5t-13 -59t-4 -49.5z" />
<glyph unicode="&#x2074;" horiz-adv-x="616" d="M41 1096v69q0 36 18 60l265 387q20 26 51 26h74q13 0 22.5 -9t9.5 -23v-392h62q13 0 22.5 -9t9.5 -23v-86q0 -14 -9.5 -23.5t-22.5 -9.5h-62v-64q0 -13 -9.5 -22.5t-22.5 -9.5h-105q-14 0 -23.5 9.5t-9.5 22.5v64h-237q-14 0 -23.5 9.5t-9.5 23.5zM225 1214h86v125z" />
<glyph unicode="&#x2075;" horiz-adv-x="624" d="M74 1080.5q1 14.5 12 23.5l68 61q22 19 47 -2q48 -43 112 -43q33 0 53.5 23t20.5 49q0 30 -20 50t-56 20h-147q-14 0 -23.5 9.5t-9.5 22.5v310q0 13 9.5 22.5t23.5 9.5h321q14 0 23.5 -9.5t9.5 -22.5v-84q0 -14 -10 -23.5t-23 -9.5h-176v-80q61 0 108 -14t74 -35.5 t44 -51.5t22.5 -57t5.5 -57q0 -26 -7 -55t-25 -62t-45 -59t-72.5 -43t-102.5 -17q-131 0 -229 101q-9 9 -8 23.5z" />
<glyph unicode="&#x2076;" d="M61 1186q0 271 271 448q26 16 49 -10l41 -53q8 -10 6 -24t-12 -21q-79 -57 -146 -129q18 12 64 12q56 0 98 -18.5t64.5 -44.5t35.5 -59t16.5 -57t2.5 -44q-1 -24 -7.5 -51.5t-24 -61t-43.5 -59.5t-70.5 -44t-100.5 -18q-57 0 -101.5 17.5t-70.5 43.5t-43 59t-23 61t-6 53 zM236 1192q0 -29 18.5 -51.5t50.5 -22.5t52 23t20 51q0 29 -19 49.5t-53 20.5q-28 0 -48.5 -20t-20.5 -50z" />
<glyph unicode="&#x2077;" horiz-adv-x="540" d="M41 1509v97q0 13 9.5 22.5t23.5 9.5h387q14 0 23.5 -9.5t9.5 -22.5q0 -32 -13 -64l-231 -543q-13 -30 -45 -30h-117q-12 0 -18.5 9.5t-1.5 20.5l200 478h-194q-14 0 -23.5 9.5t-9.5 22.5z" />
<glyph unicode="&#x2078;" horiz-adv-x="589" d="M61 1155q0 38 19.5 83t52.5 65q-33 16 -52.5 55.5t-19.5 79.5q0 29 11 60.5t35 65.5t73.5 56t116.5 22q66 0 114 -19t72 -51t34.5 -64.5t10.5 -67.5q0 -34 -18.5 -76t-54.5 -64q71 -46 71 -147q0 -24 -5.5 -48.5t-21.5 -52.5t-40.5 -49t-66.5 -35t-95 -14q-67 0 -116 20 t-73.5 52t-35.5 64t-11 65zM236 1165q0 -24 18 -38.5t43 -14.5q23 0 40 14.5t17 38.5t-17 39t-40 15q-24 0 -42.5 -15t-18.5 -39zM236 1432q0 -24 18.5 -39t42.5 -15q23 0 40 15t17 39q0 25 -17 40t-40 15q-25 0 -43 -15t-18 -40z" />
<glyph unicode="&#x2079;" d="M63 1417q1 24 7.5 51.5t24 61t43.5 59.5t70.5 44t100.5 18q57 0 101.5 -17.5t70.5 -43.5t43 -59t23 -61t6 -53q0 -273 -270 -448q-12 -8 -26.5 -5t-23.5 15l-40 53q-9 11 -7 24t13 21q83 62 145 129q-18 -12 -63 -12q-56 0 -98.5 18.5t-64.5 44.5t-35.5 59t-17 57 t-2.5 44zM238 1411q0 -29 18.5 -49.5t52.5 -20.5q28 0 49 20t21 50q0 29 -19 51.5t-51 22.5t-51.5 -23t-19.5 -51z" />
<glyph unicode="&#x2080;" horiz-adv-x="671" d="M61 0q0 45 8 90.5t28.5 92t50.5 82.5t78.5 58.5t109.5 22.5q76 0 132 -33.5t85.5 -87.5t43 -110.5t13.5 -114.5q0 -46 -8 -91t-27.5 -91t-49.5 -80.5t-79 -56t-110 -21.5q-75 0 -131 32t-86 84.5t-44 108.5t-14 115zM240 0q0 -22 4 -48t13 -57.5t29.5 -52t49.5 -20.5 t49.5 20.5t29.5 52t13 57.5t4 48q0 23 -4 49.5t-13 58.5t-29.5 53t-49.5 21t-49.5 -21t-29.5 -53t-13 -58.5t-4 -49.5z" />
<glyph unicode="&#x2081;" horiz-adv-x="466" d="M54 160.5q3 13.5 14 21.5l190 137q25 19 59 19h25q14 0 23.5 -10t9.5 -23v-604q0 -13 -9.5 -23t-23.5 -10h-115q-13 0 -22.5 9.5t-9.5 23.5v393l-56 -28q-12 -7 -25.5 -3.5t-19.5 15.5l-37 57q-6 12 -3 25.5z" />
<glyph unicode="&#x2082;" horiz-adv-x="624" d="M74 208.5q-1 13.5 8 24.5q107 115 237 115q105 0 164.5 -58.5t59.5 -154.5q0 -78 -82 -192l-84 -117h123q13 0 22.5 -9.5t9.5 -23.5v-94q0 -14 -9.5 -23.5t-22.5 -9.5h-375q-11 0 -19 8t-8 19q0 27 17 51l209 301q8 12 14.5 22.5t10.5 18.5t6.5 13.5t3.5 12t1 8v7.5v6 q0 17 -13.5 32t-35.5 15q-27 0 -52 -12t-62 -45q-10 -8 -25 -7.5t-25 9.5l-63 61q-9 9 -10 22.5z" />
<glyph unicode="&#x2083;" horiz-adv-x="577" d="M55 -243q-1 14 8 24l56 61q9 10 23 11t24 -7q46 -32 113 -32q29 0 50 15.5t21 39.5q0 31 -20.5 47t-50.5 16h-80q-13 0 -23 10t-10 23v72q0 13 10 23t23 10h80q30 0 50.5 17t20.5 48q0 25 -21 40t-50 15q-50 0 -111 -38q-31 -15 -49 6l-53 61q-8 10 -7 24t11 23 q98 82 209 82q68 0 117.5 -22t74 -57t35 -68t10.5 -66t-17 -71.5t-46 -63.5q63 -50 63 -131q0 -31 -10.5 -64t-35 -68.5t-74 -58t-117.5 -22.5q-116 0 -213 78q-10 9 -11 23z" />
<glyph unicode="&#x2084;" horiz-adv-x="616" d="M41 -133q0 35 18 59l265 387q20 27 51 27h74q13 0 22.5 -9.5t9.5 -23.5v-391h62q13 0 22.5 -9.5t9.5 -23.5v-86q0 -14 -9.5 -23.5t-22.5 -9.5h-62v-63q0 -14 -9.5 -23.5t-22.5 -9.5h-105q-14 0 -23.5 10t-9.5 23v63h-237q-14 0 -23.5 10t-9.5 23v70zM225 -84h86v125z" />
<glyph unicode="&#x2085;" horiz-adv-x="624" d="M74 -218.5q1 14.5 12 23.5l68 62q22 19 47 -2q48 -43 112 -43q33 0 53.5 23t20.5 49q0 30 -20 49.5t-56 19.5h-147q-14 0 -23.5 9.5t-9.5 23.5v309q0 13 9.5 23t23.5 10h321q13 0 23 -10t10 -23v-84q0 -13 -10 -23t-23 -10h-176v-79q61 0 108 -14t74 -35.5t44 -51.5 t22.5 -57t5.5 -57q0 -26 -7 -55t-25 -62t-45 -59t-72.5 -43t-102.5 -17q-132 0 -229 100q-9 9 -8 23.5z" />
<glyph unicode="&#x2086;" d="M61 -113q0 272 271 449q26 16 49 -10l41 -54q8 -10 6 -24t-12 -21q-79 -57 -146 -129q20 13 64 13q56 0 98 -18.5t64.5 -44.5t35.5 -59.5t16.5 -57.5t2.5 -44q-1 -24 -7.5 -51.5t-24 -60.5t-43.5 -59t-70.5 -44t-100.5 -18q-57 0 -101.5 17.5t-70.5 43t-43 58.5t-23 61 t-6 53zM236 -106q0 -29 18.5 -51.5t50.5 -22.5t52 23t20 51q0 29 -19 49t-53 20q-28 0 -48.5 -19.5t-20.5 -49.5z" />
<glyph unicode="&#x2087;" horiz-adv-x="540" d="M41 209v96q0 13 9.5 23t23.5 10h389q10 0 18 -8t8 -19q0 -24 -10 -51l-229 -561q-14 -31 -45 -31h-117q-12 0 -18.5 10t-1.5 21l194 477h-188q-14 0 -23.5 10t-9.5 23z" />
<glyph unicode="&#x2088;" horiz-adv-x="589" d="M61 139q0 22 6 47t22.5 53.5t42 51.5t68.5 38t97 15q66 0 114 -19.5t72 -51.5t34.5 -64.5t10.5 -67.5q0 -34 -18.5 -75.5t-54.5 -63.5q71 -46 71 -147q0 -24 -5.5 -48.5t-21.5 -52.5t-40.5 -49t-66.5 -35t-95 -14q-67 0 -116 20t-73.5 52t-35.5 64t-11 65q0 38 19.5 82.5 t52.5 64.5q-33 16 -52.5 55.5t-19.5 79.5zM236 -133q0 -24 18 -38.5t43 -14.5q23 0 40 14.5t17 38.5t-17 38.5t-40 14.5q-25 0 -43 -14.5t-18 -38.5zM236 133q0 -24 18 -38.5t43 -14.5q23 0 40 14.5t17 38.5q0 25 -17 40t-40 15q-25 0 -43 -15t-18 -40z" />
<glyph unicode="&#x2089;" d="M63 119q1 24 7.5 51.5t24 60.5t43.5 59t70.5 44t100.5 18q57 0 101.5 -17.5t70.5 -43t43 -58.5t23 -61t6 -53q0 -274 -270 -449q-12 -7 -26.5 -4t-23.5 15l-40 53q-9 11 -7 24t13 21q83 62 145 129q-18 -12 -63 -12q-56 0 -98.5 18.5t-64.5 44.5t-35.5 59t-17 57t-2.5 44 zM238 113q0 -29 18.5 -49.5t52.5 -20.5q28 0 49 20t21 50q0 28 -19 50.5t-51 22.5t-51.5 -22.5t-19.5 -50.5z" />
<glyph unicode="&#x20ac;" horiz-adv-x="1196" d="M31 492l37 129q5 14 17.5 23t27.5 9h71v74v35h-129q-13 0 -21 10.5t-3 22.5l37 129q5 14 17.5 23t27.5 9h94q21 100 60 182.5t100 149.5t151 104.5t201 37.5q207 0 373 -175q9 -10 8.5 -25.5t-10.5 -25.5l-125 -125q-11 -10 -25 -9.5t-25 9.5q-108 97 -196 97 q-179 0 -236 -220h346q12 0 20.5 -10t4.5 -22l-35 -129q-5 -14 -17.5 -23.5t-27.5 -9.5h-317v-39q-3 -31 0 -70h260q13 0 21 -10t5 -22l-34 -129q-3 -14 -15.5 -23.5t-27.5 -9.5h-170q32 -99 88 -160t135 -61q43 0 97 25t104 69q11 9 24.5 9.5t24.5 -9.5l118 -119 q10 -10 11 -25.5t-8 -25.5q-85 -89 -175 -132.5t-196 -43.5q-111 0 -200.5 38t-150 105.5t-99 149t-60.5 180.5h-154q-13 0 -21 10.5t-3 22.5z" />
<glyph unicode="&#x2122;" horiz-adv-x="1349" d="M92 1430v86q0 13 10.5 23.5t24.5 10.5h356q14 0 24.5 -10.5t10.5 -23.5v-86q0 -14 -11 -24.5t-24 -10.5h-96v-355q0 -13 -10.5 -23.5t-24.5 -10.5h-94q-14 0 -24.5 10.5t-10.5 23.5v355h-96q-13 0 -24 10.5t-11 24.5zM532 1038l191 488q3 12 16 12q12 0 19 -10l131 -256 l123 254q6 12 18 12q16 0 19 -12l196 -488q4 -12 -3 -22t-19 -10h-97q-35 0 -45 32l-63 189l-111 -211q-6 -12 -20 -12q-15 0 -21 12l-110 205l-56 -183q-5 -14 -17.5 -23t-27.5 -9h-100q-12 0 -19.5 10t-3.5 22z" />
<glyph unicode="&#x2153;" horiz-adv-x="1290" d="M54 1262.5q3 13.5 14 21.5l190 137q25 19 59 19h25q14 0 23.5 -10t9.5 -23v-604q0 -13 -9.5 -23t-23.5 -10h-115q-13 0 -22.5 9.5t-9.5 23.5v393l-56 -29q-12 -7 -25.5 -3t-19.5 16l-37 57q-6 12 -3 25.5zM139 29l688 1376q15 29 47 29h142q10 0 16.5 -10t1.5 -19 l-686 -1376q-14 -29 -47 -29h-143q-10 0 -17 10t-2 19zM763.5 89q-0.5 14 8.5 24l55 61q9 10 23 11t24 -7q48 -33 113 -33q29 0 50.5 16t21.5 40q0 30 -21 46.5t-51 16.5h-80q-13 0 -23 10t-10 23v72q0 13 9.5 22.5t23.5 9.5h80q30 0 51 17.5t21 48.5q0 25 -21.5 40 t-50.5 15q-47 0 -110 -39q-31 -16 -50 6l-53 62q-8 10 -7 24t11 23q98 82 209 82q55 0 98.5 -15t69 -38t42 -52.5t22.5 -56t6 -51.5q0 -33 -17.5 -71.5t-46.5 -63.5q64 -50 64 -131q0 -24 -6 -50t-22.5 -56t-42 -53t-69 -38.5t-98.5 -15.5q-116 0 -213 78q-10 9 -10.5 23z " />
<glyph unicode="&#x2154;" horiz-adv-x="1413" d="M70 1306.5q-1 13.5 8 24.5q107 115 237 115q105 0 164.5 -58.5t59.5 -154.5q0 -79 -82 -193l-84 -116h123q13 0 22.5 -9.5t9.5 -23.5v-94q0 -14 -9.5 -23.5t-22.5 -9.5h-369q-12 0 -20.5 8.5t-8.5 20.5q0 28 17 55l204 295q7 10 12 18t9 15t7 12.5t4.5 11t2.5 8.5 t1.5 7.5t0.5 5.5v5v5q0 17 -13.5 32t-35.5 15q-27 0 -52 -12t-62 -45q-10 -8 -25 -7.5t-25 9.5l-63 61q-9 9 -10 22.5zM254 29l688 1376q14 29 47 29h141q10 0 17 -10t2 -19l-686 -1376q-15 -29 -47 -29h-144q-10 0 -16.5 10t-1.5 19zM878.5 89q-0.5 14 8.5 24l55 61 q9 10 23 11t24 -7q48 -33 113 -33q29 0 50.5 16t21.5 40q0 30 -21 46.5t-51 16.5h-80q-14 0 -23.5 10t-9.5 23v72q0 13 9.5 22.5t23.5 9.5h80q30 0 51 17.5t21 48.5q0 25 -21.5 40t-50.5 15q-48 0 -111 -39q-31 -15 -49 6l-53 62q-8 10 -7 24t11 23q98 82 209 82 q68 0 117.5 -22t74 -57t35 -68t10.5 -66t-17 -71.5t-46 -63.5q63 -50 63 -131q0 -31 -10.5 -64t-35 -68.5t-74 -58t-117.5 -22.5q-116 0 -213 78q-10 9 -10.5 23z" />
<glyph unicode="&#x215b;" horiz-adv-x="1286" d="M54 1262.5q3 13.5 14 21.5l190 137q25 19 59 19h25q14 0 23.5 -10t9.5 -23v-604q0 -13 -9.5 -23t-23.5 -10h-115q-13 0 -22.5 9.5t-9.5 23.5v393l-56 -29q-12 -7 -25.5 -3t-19.5 16l-37 57q-6 12 -3 25.5zM139 29l688 1376q15 29 47 29h142q10 0 16.5 -10t1.5 -19 l-686 -1376q-14 -29 -47 -29h-143q-10 0 -17 10t-2 19zM748 188q0 38 19 83t52 65q-33 16 -52 55.5t-19 79.5q0 29 10.5 60.5t35 66t73.5 56.5t116 22q66 0 114 -19.5t72 -51.5t34.5 -64.5t10.5 -67.5q0 -34 -18.5 -75.5t-54.5 -63.5q71 -46 71 -148q0 -31 -10.5 -62 t-34 -63.5t-71 -52.5t-113.5 -20q-54 0 -97 13.5t-68 34t-41.5 48.5t-22.5 53t-6 51zM922 199q0 -24 18.5 -39t42.5 -15q23 0 40 15t17 39t-17 38.5t-40 14.5q-25 0 -43 -14.5t-18 -38.5zM922 465q0 -24 18 -38.5t43 -14.5q23 0 40 14.5t17 38.5q0 25 -17 40t-40 15 q-25 0 -43 -15t-18 -40z" />
<glyph unicode="&#x215c;" horiz-adv-x="1318" d="M59.5 846q-0.5 14 8.5 24l55 62q9 10 23 11t24 -7q48 -33 113 -33q29 0 50 15.5t21 39.5q0 31 -20.5 47.5t-50.5 16.5h-80q-13 0 -23 10t-10 23v71q0 14 10 23.5t23 9.5h80q29 0 50 17.5t21 48.5q0 25 -21 40t-50 15q-48 0 -111 -39q-31 -15 -49 6l-53 62q-8 10 -7 24 t11 23q98 82 209 82q68 0 117.5 -22t74 -57t35 -68t10.5 -66t-17 -71.5t-46 -63.5q63 -50 63 -132q0 -31 -10.5 -64t-35 -68.5t-74 -58t-117.5 -22.5q-116 0 -213 78q-10 9 -10.5 23zM213 29l688 1376q15 29 47 29h142q10 0 16.5 -10t1.5 -19l-686 -1376q-14 -29 -47 -29 h-144q-10 0 -16.5 10t-1.5 19zM786 188q0 38 19.5 83t52.5 65q-33 16 -52.5 55.5t-19.5 79.5q0 22 6 47t22.5 53.5t42 51.5t68.5 38t97 15q66 0 114 -19.5t72 -51.5t34.5 -64.5t10.5 -67.5q0 -34 -18.5 -75.5t-54.5 -63.5q71 -46 71 -148q0 -31 -10.5 -62t-34 -63.5 t-71 -52.5t-113.5 -20q-67 0 -116 19.5t-73.5 51.5t-35.5 64t-11 65zM961 199q0 -24 18.5 -39t42.5 -15q23 0 40 15t17 39t-17 38.5t-40 14.5q-25 0 -43 -14.5t-18 -38.5zM961 465q0 -24 18 -38.5t43 -14.5q23 0 40 14.5t17 38.5q0 25 -17 40t-40 15q-25 0 -43 -15t-18 -40z " />
<glyph unicode="&#x215d;" horiz-adv-x="1341" d="M49 881.5q1 14.5 12 23.5l68 62q22 19 47 -2q48 -43 113 -43q33 0 53 22.5t20 48.5q0 31 -20 50.5t-55 19.5h-148q-13 0 -23 9.5t-10 23.5v309q0 13 10 23t23 10h322q13 0 23 -10t10 -23v-84q0 -13 -10 -23t-23 -10h-176v-80q61 0 108 -14t74 -35.5t44 -51.5t22.5 -57 t5.5 -57q0 -26 -7 -54.5t-25 -61.5t-45 -59t-72.5 -43t-102.5 -17q-133 0 -230 100q-9 9 -8 23.5zM213 29l688 1376q15 29 47 29h142q10 0 16.5 -10t1.5 -19l-686 -1376q-14 -29 -47 -29h-144q-10 0 -16.5 10t-1.5 19zM786 188q0 38 19.5 83t52.5 65q-33 16 -52.5 55.5 t-19.5 79.5q0 22 6 47t22.5 53.5t42 51.5t68.5 38t97 15q66 0 114 -19.5t72 -51.5t34.5 -64.5t10.5 -67.5q0 -34 -18.5 -75.5t-54.5 -63.5q71 -46 71 -148q0 -31 -10.5 -62t-34 -63.5t-71 -52.5t-113.5 -20q-67 0 -116 19.5t-73.5 51.5t-35.5 64t-11 65zM961 199 q0 -24 18.5 -39t42.5 -15q23 0 40 15t17 39t-17 38.5t-40 14.5q-25 0 -43 -14.5t-18 -38.5zM961 465q0 -24 18 -38.5t43 -14.5q23 0 40 14.5t17 38.5q0 25 -17 40t-40 15q-25 0 -43 -15t-18 -40z" />
<glyph unicode="&#x215e;" horiz-adv-x="1257" d="M66 1305v96q0 14 9.5 23.5t22.5 9.5h379q13 0 23 -10t10 -23q0 -33 -12 -60l-224 -546q-14 -31 -45 -31h-116q-12 0 -19 10t-2 21l195 477h-189q-13 0 -22.5 9.5t-9.5 23.5zM137 29l688 1376q15 29 47 29h142q10 0 16.5 -10t1.5 -19l-686 -1376q-14 -29 -47 -29h-143 q-10 0 -17 10t-2 19zM711 188q0 38 19 83t52 65q-33 16 -52 55.5t-19 79.5q0 29 10.5 60.5t35 66t73.5 56.5t116 22q66 0 114 -19.5t72.5 -51.5t35 -64.5t10.5 -67.5q0 -34 -19 -75.5t-55 -63.5q41 -27 56.5 -69.5t15.5 -78.5q0 -24 -6 -48.5t-22 -52t-40.5 -48.5t-66.5 -35 t-95 -14q-54 0 -97 13.5t-68 34t-41.5 48.5t-22.5 53t-6 51zM885 199q0 -24 18.5 -39t42.5 -15q23 0 40.5 15t17.5 39t-17.5 38.5t-40.5 14.5q-25 0 -43 -14.5t-18 -38.5zM885 465q0 -24 18 -38.5t43 -14.5q23 0 40.5 14.5t17.5 38.5q0 25 -17.5 40t-40.5 15q-25 0 -43 -15 t-18 -40z" />
<glyph unicode="&#x25fc;" horiz-adv-x="1024" d="M0 0v1024h1024v-1024h-1024z" />
<glyph horiz-adv-x="1183" d="M123 512q0 64 11.5 129t44.5 138t83 128.5t135.5 92t194.5 36.5q103 0 186.5 -35.5t135 -91t86 -128.5t48 -142.5t13.5 -138.5q0 -67 -11.5 -132t-44 -135.5t-83 -123t-136 -87t-194.5 -34.5q-79 0 -145.5 18.5t-114 49.5t-85 74.5t-60.5 90t-37.5 99t-20.5 99.5t-6 93z M403 512q0 -25 2 -51t13 -68.5t29.5 -74t56 -55t88.5 -23.5q43 0 77 15t53.5 41t32.5 53.5t18.5 60.5t7 52t1.5 38q0 21 -1.5 41.5t-7 56.5t-18.5 65t-32.5 57.5t-53.5 45t-77 16.5t-76.5 -15.5t-53 -42.5t-32.5 -55t-18.5 -62t-7 -54.5t-1.5 -40.5z" />
<glyph horiz-adv-x="970" d="M75 718q2 14 13 23l367 285q26 23 61 23h78q14 0 24.5 -10.5t10.5 -24.5v-799h184q13 0 24 -10.5t11 -24.5v-145q0 -13 -11 -24t-24 -11h-653q-14 0 -24.5 11t-10.5 24v145q0 14 10.5 24.5t24.5 10.5h213v444l-178 -92q-12 -8 -27.5 -3t-22.5 18l-65 108q-7 14 -5 28z " />
<glyph horiz-adv-x="909" d="M75.5 834.5q0.5 15.5 10.5 25.5q171 176 360 176q149 0 243.5 -80.5t94.5 -230.5q0 -72 -32 -142t-95 -155l-141 -190h236q13 0 23.5 -10.5t10.5 -24.5v-168q0 -14 -10.5 -24.5t-23.5 -10.5h-629q-13 0 -24 11t-11 24v18q0 33 21 64l352 469q23 28 38 58.5t19 46.5t4 24 q0 27 -17 51.5t-59 24.5q-81 0 -208 -105q-11 -9 -26 -8t-24 12l-104 119q-9 10 -8.5 25.5z" />
<glyph horiz-adv-x="1030" d="M95.5 -54.5q-0.5 15.5 8.5 25.5l103 121q9 10 23 11t26 -7q105 -80 242 -80q57 0 98 36t47 91q8 66 -36.5 114t-114.5 48h-152q-14 0 -24.5 10.5t-10.5 24.5v143q0 13 10.5 24t24.5 11h158q58 0 100.5 41.5t42.5 104.5q0 62 -41 95.5t-102 33.5q-52 0 -118.5 -24.5 t-123.5 -66.5q-10 -8 -25 -5.5t-24 12.5l-98 125q-9 10 -8.5 25t12.5 24q173 153 385 153q101 0 177.5 -26.5t119 -65.5t69.5 -92t35 -97.5t8 -90.5q0 -66 -36 -139.5t-105 -114.5q73 -40 107 -113.5t34 -155.5q0 -42 -10 -87.5t-38.5 -99.5t-72 -95t-118.5 -69t-170 -28 q-223 0 -392 158q-10 10 -10.5 25.5z" />
<glyph horiz-adv-x="1056" d="M61 49v80q0 35 19 64l504 802q22 29 53 29h147q14 0 24.5 -11t10.5 -24v-725h142q13 0 23.5 -10.5t10.5 -24.5v-180q0 -14 -10.5 -24.5t-23.5 -10.5h-142v-207q0 -13 -10.5 -23.5t-24.5 -10.5h-209q-13 0 -23.5 10.5t-10.5 23.5v207h-445q-14 0 -24.5 11t-10.5 24z M395 264h146v225z" />
<glyph horiz-adv-x="1114" d="M136.5 -7.5q0.5 15.5 10.5 25.5l115 115q9 9 23.5 8.5t23.5 -10.5q106 -108 232 -108q80 0 131 50.5t51 116.5q0 76 -50 125.5t-136 49.5h-269q-14 0 -24.5 10.5t-10.5 23.5v590q0 13 10.5 24t24.5 11h623q13 0 24 -11t11 -24v-182q0 -13 -11 -24t-24 -11h-385v-164h43 q103 0 183 -27t127.5 -69t78.5 -100t42 -113.5t11 -116.5q0 -44 -12.5 -94t-45.5 -107.5t-81.5 -103t-130 -76t-182.5 -30.5q-219 0 -394 196q-9 10 -8.5 25.5z" />
<glyph horiz-adv-x="1134" d="M125 399q-3 125 26.5 241t80 208t123 175t148 144t161.5 113q31 17 51 -10l92 -131q8 -12 5 -26t-15 -21q-185 -113 -303 -275q34 17 75 17q104 0 185.5 -30.5t128.5 -76t77.5 -106.5t41 -114.5t10.5 -107.5q0 -44 -11 -94t-42.5 -110.5t-78.5 -108t-128 -79.5t-183 -32 q-101 0 -182 31.5t-128 78.5t-78.5 107t-43 110.5t-12.5 96.5zM393 410q0 -72 47.5 -127.5t128.5 -55.5t127.5 55.5t46.5 127.5t-45.5 125t-128.5 53q-82 0 -129 -52t-47 -126z" />
<glyph horiz-adv-x="901" d="M61 809v180q0 13 10.5 24t24.5 11h705q13 0 24 -11t11 -24v-41q0 -30 -13 -67l-440 -1076q-13 -32 -47 -32h-209q-12 0 -19.5 10t-3.5 22l388 969h-396q-14 0 -24.5 11t-10.5 24z" />
<glyph horiz-adv-x="1116" d="M123 377q0 86 43 160.5t108 107.5q-61 36 -99 111t-38 153q0 46 10.5 93t40 100t75 93.5t123.5 67.5t177 27q97 0 173.5 -27t121 -67.5t73.5 -93.5t39.5 -100t10.5 -93q0 -79 -35 -150t-100 -114q65 -31 106 -110.5t41 -157.5q0 -50 -12 -100.5t-44 -103t-79.5 -92.5 t-125 -65.5t-175.5 -25.5q-97 0 -174.5 25.5t-125 65.5t-79 92.5t-43.5 103t-12 100.5zM383 377q0 -77 52 -117.5t126 -40.5q71 0 121.5 40.5t50.5 117.5q0 32 -16 64.5t-57 58.5t-99 26q-46 0 -82.5 -15t-56 -38.5t-29.5 -48t-10 -47.5zM397 909q0 -18 8 -41t25 -48 t50.5 -43t78.5 -19q82 3 122 54.5t40 96.5q0 66 -48.5 105t-113.5 39q-67 0 -114.5 -39t-47.5 -105z" />
<glyph horiz-adv-x="1134" d="M123 612q0 36 8.5 76.5t26.5 90t52 94t80.5 82t117.5 59.5t157 22q101 0 182 -31.5t128.5 -78.5t79 -107t43 -110.5t12.5 -96.5q3 -125 -26.5 -241t-80 -207.5t-123 -174.5t-147.5 -144t-162 -113q-31 -17 -51 10l-96 131q-8 12 -5 26t15 21q101 62 181 138.5t130 146.5 q-42 -21 -80 -21q-104 0 -185.5 29.5t-128.5 74.5t-77 105t-40.5 112.5t-10.5 106.5zM391 602q0 -72 45.5 -125t128.5 -53q82 0 129 52t47 126q0 72 -47.5 127t-128.5 55t-127.5 -55t-46.5 -127z" />
<glyph horiz-adv-x="1193" d="M135 377l25 65q13 33 47 33h35v66h-84q-12 0 -19.5 10t-3.5 22l25 66q13 33 47 33h53q39 168 157 266t290 98q207 0 337 -104q12 -9 14 -24t-7 -27l-97 -140q-19 -25 -49 -10q-81 49 -172 49q-129 0 -186 -108h256q12 0 19 -10.5t3 -22.5l-24 -66q-13 -32 -47 -32h-240 v-66h176q12 0 19.5 -10.5t3.5 -22.5l-25 -65q-13 -33 -47 -33h-96q57 -111 172 -111q89 0 180 58q12 7 25.5 5t21.5 -13l92 -140q8 -12 5 -27t-15 -22q-148 -106 -319 -106q-177 0 -292.5 94.5t-154.5 261.5h-102q-12 0 -19.5 10.5t-3.5 22.5z" />
<glyph horiz-adv-x="1327" d="M106 97.5q-3 14.5 5 27.5q80 134 190 194v152h-72q-13 0 -23.5 10.5t-10.5 24.5v78q0 14 10.5 24t23.5 10h72v107q0 170 103.5 259t265.5 89q129 0 264 -59q12 -6 17.5 -19.5t0.5 -27.5l-57 -154q-4 -13 -17.5 -19t-27.5 -1q-91 32 -164 32q-45 0 -75.5 -25.5 t-30.5 -82.5v-99h155q14 0 24.5 -10.5t10.5 -23.5v-78q0 -14 -11 -24.5t-24 -10.5h-155v-141q31 -6 113.5 -48t135.5 -42q35 0 84.5 27.5t92.5 82.5q20 26 49 8l121 -88q12 -9 15 -24t-5 -27q-70 -116 -167 -174.5t-192 -58.5q-60 0 -128.5 29t-132.5 58t-113 29 q-74 0 -158 -100q-25 -25 -51 -8l-123 82q-12 7 -15 21.5z" />
<glyph horiz-adv-x="1290" d="M124 1014q5 10 15 10h254q37 0 53 -29l197 -293l195 293q16 29 53 29h258q10 0 15 -10t-1 -19l-327 -446h137q13 0 24 -10.5t11 -24.5v-96q0 -14 -11 -24.5t-24 -10.5h-187v-104h187q13 0 24 -10.5t11 -24.5v-84q0 -14 -11 -24.5t-24 -10.5h-187v-90q0 -14 -10.5 -24.5 t-23.5 -10.5h-215q-13 0 -24 11t-11 24v90h-189q-13 0 -23.5 10.5t-10.5 24.5v84q0 14 10.5 24.5t23.5 10.5h189v104h-189q-13 0 -23.5 10.5t-10.5 24.5v96q0 14 10.5 24.5t23.5 10.5h144l-332 446q-6 9 -1 19z" />
<glyph horiz-adv-x="1843" d="M61 809q0 44 9.5 88t33 90t59.5 81t94 57t130 22q71 0 128.5 -22t92.5 -57t58.5 -81t33 -90t9.5 -88t-9.5 -87.5t-33 -89t-59 -79.5t-92.5 -56t-128 -22q-72 0 -130 22t-94 56t-59.5 79.5t-33 89t-9.5 87.5zM295 809q0 -15 3 -31t11.5 -36.5t28.5 -33t49 -12.5 q27 0 46 12.5t27.5 33t11.5 36.5t3 31q0 16 -3 32.5t-11.5 37t-27.5 33t-46 12.5q-23 0 -41 -9t-27 -21.5t-15 -30t-7.5 -30t-1.5 -24.5zM623 33l360 1075q5 14 17.5 23.5t27.5 9.5h172q12 0 20 -10.5t5 -22.5l-359 -1075q-4 -15 -17 -24t-28 -9h-174q-12 0 -19.5 10.5 t-4.5 22.5zM1137 324q0 44 9 88t33 90t59 81t92.5 57t129.5 22q71 0 128.5 -22t92.5 -57t58.5 -81t33 -90t9.5 -88t-9.5 -87.5t-33 -89t-59 -79.5t-92.5 -56t-128 -22q-72 0 -129.5 22t-92.5 56t-59 79.5t-33 89t-9 87.5zM1368 324q0 -15 3.5 -31.5t12 -36t28.5 -32.5 t48 -13q27 0 46.5 13t28 32.5t12 36t3.5 31.5q0 23 -5.5 45.5t-27 45.5t-57.5 23q-37 0 -59 -23t-27.5 -45.5t-5.5 -45.5z" />
<glyph horiz-adv-x="1257" d="M123 512q0 70 15 139.5t52 140.5t92 125.5t143 88.5t198 34q142 0 258 -79l10 30q13 33 47 33h121q13 0 24 -11t11 -24v-954q0 -13 -11 -24t-24 -11h-121q-15 0 -27.5 9.5t-17.5 23.5l-12 39q-90 -81 -224 -88q-23 -2 -69 -2q-102 5 -184 42t-133 91t-85.5 124 t-48.5 137.5t-14 135.5zM397 512q0 -26 4.5 -56.5t20 -72t39.5 -74t69 -55.5t103 -23q115 0 184 76v414q-30 30 -79.5 51t-104.5 21q-58 0 -103 -23t-69 -55.5t-39.5 -74t-20 -72t-4.5 -56.5z" />
<glyph horiz-adv-x="1255" d="M123 512q0 70 15 139.5t52 140.5t92 125.5t143 88.5t198 34q142 0 258 -79l10 30q13 33 47 33h121q13 0 24 -11t11 -24v-954q0 -13 -11 -24t-24 -11h-121q-15 0 -27.5 9.5t-17.5 23.5l-12 39q-101 -90 -258 -90q-110 0 -198 34.5t-143 88.5t-92 126t-52 141.5t-15 139.5z M266 1356q0 66 45.5 111.5t112.5 45.5q66 0 111 -45.5t45 -111.5q0 -67 -45 -111.5t-111 -44.5q-68 0 -113 44.5t-45 111.5zM397 512q0 -26 4.5 -56.5t20 -72t39.5 -74t69 -55.5t103 -23q115 0 184 76v414q-30 30 -79.5 51t-104.5 21q-58 0 -103 -23t-69 -55.5t-39.5 -74 t-20 -72t-4.5 -56.5zM735 1356q0 66 45.5 111.5t112.5 45.5q66 0 111 -45.5t45 -111.5q0 -67 -45 -111.5t-111 -44.5q-68 0 -113 44.5t-45 111.5z" />
<glyph horiz-adv-x="1253" d="M123 512q0 70 15 139.5t52 140.5t92 125.5t143 88.5t198 34q142 0 258 -79l10 30q13 33 47 33h121q13 0 24 -11t11 -24v-954q0 -13 -11 -24t-24 -11h-121q-15 0 -27.5 9.5t-17.5 23.5l-12 39q-101 -90 -258 -90q-110 0 -198 34.5t-143 88.5t-92 126t-52 141.5t-15 139.5z M397 512q0 -26 4.5 -56.5t20 -72t39.5 -74t69 -55.5t103 -23q115 0 184 76v414q-30 30 -79.5 51t-104.5 21q-58 0 -103 -23t-69 -55.5t-39.5 -74t-20 -72t-4.5 -56.5zM436 1409q0 86 61.5 147.5t147.5 61.5t146.5 -61.5t60.5 -147.5t-60.5 -146.5t-146.5 -60.5t-147.5 60.5 t-61.5 146.5zM584 1409q0 -23 18 -41t43 -18q23 0 41.5 18t18.5 41q0 25 -18.5 43t-41.5 18q-25 0 -43 -18t-18 -43z" />
<glyph horiz-adv-x="1253" d="M123 512q0 70 15 139.5t52 140.5t92 125.5t143 88.5t198 34q142 0 258 -79l10 30q13 33 47 33h121q13 0 24 -11t11 -24v-954q0 -13 -11 -24t-24 -11h-121q-15 0 -27.5 9.5t-17.5 23.5l-12 39q-101 -90 -258 -90q-110 0 -198 34.5t-143 88.5t-92 126t-52 141.5t-15 139.5z M357 1426.5q-3 13.5 5 25.5l93 129q7 12 22 14t25 -6l276 -215q11 -8 13 -22.5t-7 -26.5l-65 -94q-9 -12 -23 -15t-26 5l-299 184q-11 8 -14 21.5zM397 512q0 -26 4.5 -56.5t20 -72t39.5 -74t69 -55.5t103 -23q115 0 184 76v414q-30 30 -79.5 51t-104.5 21q-58 0 -103 -23 t-69 -55.5t-39.5 -74t-20 -72t-4.5 -56.5z" />
<glyph horiz-adv-x="1253" d="M123 512q0 70 15 139.5t52 140.5t92 125.5t143 88.5t198 34q142 0 258 -79l10 30q13 33 47 33h121q13 0 24 -11t11 -24v-954q0 -13 -11 -24t-24 -11h-121q-15 0 -27.5 9.5t-17.5 23.5l-12 39q-101 -90 -258 -90q-110 0 -198 34.5t-143 88.5t-92 126t-52 141.5t-15 139.5z M325 1349.5q2 14.5 13 22.5l276 215q10 9 26 9t28 -9l276 -215q11 -8 13 -22.5t-7 -26.5l-65 -94q-20 -27 -51 -10l-193 118l-195 -118q-12 -8 -26 -5t-23 15l-65 94q-9 12 -7 26.5zM397 512q0 -26 4.5 -56.5t20 -72t39.5 -74t69 -55.5t103 -23q115 0 184 76v414 q-30 30 -79.5 51t-104.5 21q-58 0 -103 -23t-69 -55.5t-39.5 -74t-20 -72t-4.5 -56.5z" />
<glyph horiz-adv-x="1253" d="M123 512q0 70 15 139.5t52 140.5t92 125.5t143 88.5t198 34q142 0 258 -79l10 30q13 33 47 33h121q13 0 24 -11t11 -24v-954q0 -13 -11 -24t-24 -11h-121q-15 0 -27.5 9.5t-17.5 23.5l-12 39q-101 -90 -258 -90q-110 0 -198 34.5t-143 88.5t-92 126t-52 141.5t-15 139.5z M397 512q0 -26 4.5 -56.5t20 -72t39.5 -74t69 -55.5t103 -23q115 0 184 76v414q-30 30 -79.5 51t-104.5 21q-58 0 -103 -23t-69 -55.5t-39.5 -74t-20 -72t-4.5 -56.5zM413 1351.5q2 14.5 13 22.5l276 215q10 8 25.5 6t22.5 -14l92 -129q9 -12 6 -25.5t-14 -21.5l-299 -184 q-12 -8 -26.5 -5t-23.5 15l-65 94q-9 12 -7 26.5z" />
<glyph horiz-adv-x="1253" d="M123 512q0 70 15 139.5t52 140.5t92 125.5t143 88.5t198 34q142 0 258 -79l10 30q13 33 47 33h121q13 0 24 -11t11 -24v-954q0 -13 -11 -24t-24 -11h-121q-15 0 -27.5 9.5t-17.5 23.5l-12 39q-101 -90 -258 -90q-110 0 -198 34.5t-143 88.5t-92 126t-52 141.5t-15 139.5z M281 1300q21 54 52.5 92.5t66.5 58t68 28t67 8.5q42 0 79 -16.5t65 -33t50 -16.5q45 0 82 52q8 11 22.5 14.5t26.5 -2.5l107 -55q12 -8 16.5 -22t-2.5 -26q-92 -178 -256 -178q-38 0 -71.5 17.5t-63 35t-58.5 17.5q-52 0 -86 -49q-8 -12 -21.5 -17.5t-25.5 0.5l-98 45 q-12 6 -18 20t-2 27zM397 512q0 -26 4.5 -56.5t20 -72t39.5 -74t69 -55.5t103 -23q115 0 184 76v414q-30 30 -79.5 51t-104.5 21q-58 0 -103 -23t-69 -55.5t-39.5 -74t-20 -72t-4.5 -56.5z" />
<glyph horiz-adv-x="655" d="M61 721q0 508 324 989q9 12 23 15t26 -5l129 -78q13 -7 17 -22t-2 -27q-240 -454 -240 -870q0 -431 240 -885q6 -12 2 -27t-17 -22l-127 -76q-14 -7 -28 -4t-23 15q-324 477 -324 997z" />
<glyph horiz-adv-x="655" d="M75 -187q-4 15 3 27q239 452 239 885q0 418 -239 870q-6 12 -3 27.5t15 22.5l129 77q31 17 51 -10q324 -481 324 -989q0 -520 -324 -997q-9 -12 -23 -15t-28 4l-127 76q-13 7 -17 22z" />
<glyph horiz-adv-x="897" d="M164 641v166q0 13 11 24t24 11h516q13 0 24 -11t11 -24v-166q0 -13 -11 -24t-24 -11h-516q-13 0 -24 11t-11 24z" />
<glyph horiz-adv-x="552" d="M61 -244v1948q0 14 10.5 24.5t24.5 10.5h361q13 0 24 -10.5t11 -24.5v-150q0 -13 -10.5 -23.5t-24.5 -10.5h-129v-1579h129q13 0 24 -10.5t11 -24.5v-150q0 -14 -11 -24.5t-24 -10.5h-361q-14 0 -24.5 10.5t-10.5 24.5z" />
<glyph horiz-adv-x="552" d="M61 -94q0 14 10.5 24.5t24.5 10.5h129v1579h-129q-14 0 -24.5 10.5t-10.5 23.5v150q0 14 10.5 24.5t24.5 10.5h361q13 0 24 -10.5t11 -24.5v-1948q0 -14 -11 -24.5t-24 -10.5h-361q-14 0 -24.5 10.5t-10.5 24.5v150z" />
<glyph horiz-adv-x="659" d="M61 668v118q0 14 10.5 24.5t24.5 10.5h21q26 3 46.5 29t20.5 68v442q0 72 18 131t45 96t64 64.5t68.5 41t65 21t48 9t21.5 1.5h49q14 0 24.5 -10.5t10.5 -23.5v-148q0 -14 -11 -24.5t-24 -10.5h-6h-16.5t-25.5 -8t-32.5 -23t-22.5 -49.5t-11 -83.5v-440q0 -53 -32 -103.5 t-71 -72.5q40 -26 71.5 -76t31.5 -104v-441q0 -44 10.5 -76.5t24.5 -48.5t31.5 -25.5t27 -11t16.5 -1.5h4q13 0 24 -10.5t11 -24.5v-148q0 -13 -10.5 -23.5t-24.5 -10.5h-49q-7 0 -21.5 1.5t-48 9t-65 21t-68.5 41.5t-64 64.5t-45 96t-18 132.5v443q0 41 -20.5 67t-46.5 31 h-21q-14 0 -24.5 10.5t-10.5 24.5z" />
<glyph horiz-adv-x="454" d="M123 -240v1921q0 13 10.5 24t24.5 11h139q13 0 24 -11t11 -24v-1921q0 -13 -10.5 -23.5t-24.5 -10.5h-139q-14 0 -24.5 10.5t-10.5 23.5z" />
<glyph horiz-adv-x="659" d="M61 -92q0 14 10.5 24.5t24.5 10.5h4q7 0 16.5 1.5t27.5 11t32 25.5t24.5 48.5t10.5 76.5v441q0 54 31 104t71 76q-39 22 -70.5 72.5t-31.5 103.5v440q0 47 -10 81t-22 49.5t-30 24t-26.5 9t-18.5 0.5h-2h-6q-14 0 -24.5 10.5t-10.5 24.5v148q0 13 10.5 23.5t24.5 10.5h49 q7 0 21.5 -1.5t48 -9t65 -21t68.5 -41t64 -64.5t45 -96t18 -131v-442q0 -42 21 -68t47 -29h20q13 0 24 -10.5t11 -24.5v-118q0 -14 -11 -24.5t-24 -10.5h-20q-26 -5 -47 -31t-21 -67v-443q0 -73 -18 -132.5t-45 -96t-64 -64.5t-68.5 -41.5t-65 -21t-48 -9t-21.5 -1.5h-49 q-14 0 -24.5 10.5t-10.5 23.5v148z" />
<glyph horiz-adv-x="655" d="M61 717q0 11 9 24l350 373q11 9 25.5 10t25.5 -8l96 -86q11 -9 12 -23.5t-8 -25.5l-211 -262l211 -266q9 -11 8 -26t-12 -24l-96 -86q-10 -9 -25.5 -8.5t-25.5 10.5l-350 375q-9 14 -9 23z" />
<glyph horiz-adv-x="655" d="M76 427q-1 15 8 26l211 266l-211 262q-9 11 -8 25.5t12 23.5l96 86q11 9 26 8t26 -10l348 -373q10 -10 10 -24q0 -11 -8 -23l-350 -375q-10 -10 -26 -10.5t-26 8.5l-96 86q-11 9 -12 24z" />
<glyph horiz-adv-x="1153" d="M61 717q0 11 9 24l350 373q11 9 25.5 10t25.5 -8l96 -86q11 -9 12 -23.5t-8 -25.5l-211 -262l211 -266q9 -11 8 -26t-12 -24l-96 -86q-10 -9 -25.5 -8.5t-25.5 10.5l-350 375q-9 14 -9 23zM559 717q0 12 8 24l351 373q11 9 25.5 10t25.5 -8l96 -86q11 -9 12 -23.5 t-8 -25.5l-211 -262l211 -266q9 -11 8 -26t-12 -24l-96 -86q-10 -9 -25.5 -8.5t-25.5 10.5l-351 375q-8 12 -8 23z" />
<glyph horiz-adv-x="1153" d="M76 427q-1 15 8 26l211 266l-211 262q-9 11 -8 25.5t12 23.5l96 86q11 9 26 8t26 -10l348 -373q10 -10 10 -24q0 -11 -8 -23l-350 -375q-10 -10 -26 -10.5t-26 8.5l-96 86q-11 9 -12 24zM574 427q-1 15 8 26l211 266l-211 262q-9 11 -8 25.5t12 23.5l96 86q11 9 25.5 8 t25.5 -10l348 -373q11 -11 11 -24q0 -9 -9 -23l-350 -375q-10 -10 -25.5 -10.5t-25.5 8.5l-96 86q-11 9 -12 24z" />
<glyph horiz-adv-x="1126" d="M164 696v162q0 14 11 24.5t24 10.5h731q14 0 24.5 -10.5t10.5 -24.5v-162q0 -13 -10.5 -23.5t-24.5 -10.5h-731q-14 0 -24.5 10.5t-10.5 23.5z" />
<glyph horiz-adv-x="1376" d="M164 696v162q0 14 11 24.5t24 10.5h979q13 0 23.5 -10.5t10.5 -24.5v-162q0 -14 -10 -24t-24 -10h-979q-14 0 -24.5 10.5t-10.5 23.5z" />
<glyph horiz-adv-x="862" d="M164 731q0 108 79.5 190.5t182.5 82.5q113 0 192.5 -81.5t79.5 -191.5q0 -106 -79.5 -185t-192.5 -79q-103 0 -182.5 80t-79.5 184z" />
<glyph horiz-adv-x="581" d="M123 748q0 72 47 118.5t119 46.5q71 0 120.5 -47t49.5 -118q0 -70 -49.5 -120t-120.5 -50t-118.5 49.5t-47.5 120.5z" />
<glyph horiz-adv-x="454" d="M123 -242v723q0 13 10.5 24t24.5 11h139q13 0 24 -11t11 -24v-723q0 -13 -10.5 -23.5t-24.5 -10.5h-139q-14 0 -24.5 10.5t-10.5 23.5zM123 961v720q0 13 10.5 24t24.5 11h139q13 0 24 -11t11 -24v-720q0 -13 -11 -24t-24 -11h-139q-14 0 -24.5 11t-10.5 24z" />
<glyph horiz-adv-x="1177" d="M123 248v153q0 13 10.5 24t24.5 11h129v152h-129q-14 0 -24.5 11t-10.5 24v155q0 14 10.5 24.5t24.5 10.5h129v176q0 13 10.5 24t24.5 11h157q13 0 24 -11t11 -24v-176h150v176q0 14 10.5 24.5t23.5 10.5h158q14 0 24.5 -11t10.5 -24v-176h129q14 0 24.5 -10.5 t10.5 -24.5v-155q0 -13 -10.5 -24t-24.5 -11h-129v-152h129q14 0 24.5 -11t10.5 -24v-153q0 -14 -10.5 -24.5t-24.5 -10.5h-129v-178q0 -13 -10.5 -24t-24.5 -11h-158q-13 0 -23.5 10.5t-10.5 24.5v178h-150v-178q0 -13 -11 -24t-24 -11h-157q-14 0 -24.5 11t-10.5 24v178 h-129q-14 0 -24.5 10.5t-10.5 24.5zM514 436h150v152h-150v-152z" />
<glyph horiz-adv-x="1048" d="M136 112q-5 15 3 27l78 156q7 12 21 16t26 -2q163 -78 266 -78q46 0 79.5 18t33.5 46q0 21 -12.5 38t-39.5 30.5t-51 21.5t-67 21q-40 12 -64 20.5t-61.5 24.5t-61 31t-51 40t-43 52.5t-26 65.5t-10.5 83q0 129 74 210.5t200 100.5v123q0 13 11 24t24 11h139 q14 0 24.5 -11t10.5 -24v-131q105 -21 231 -78q12 -6 17.5 -19.5t-0.5 -25.5l-76 -166q-6 -12 -19.5 -17t-27.5 1q-145 65 -227 65q-113 0 -113 -55q0 -25 36 -43t115 -43q45 -14 69 -22.5t67 -26.5t68 -34.5t56.5 -44t48.5 -57.5t29.5 -72t12.5 -91q0 -117 -79 -198 t-208 -105v-137q0 -13 -10.5 -24t-24.5 -11h-139q-13 0 -24 11t-11 24v135q-131 16 -276 98q-13 7 -18 22z" />
<glyph horiz-adv-x="1134" d="M123 508q0 66 11 129t39.5 129.5t72.5 119t116.5 92.5t165.5 54v125q0 13 11 24t24 11h139q14 0 24.5 -11t10.5 -24v-127q150 -34 281 -168q10 -10 10.5 -25.5t-8.5 -25.5l-115 -125q-9 -10 -23 -10.5t-24 8.5q-50 45 -110 71.5t-113 26.5q-112 0 -174 -80t-62 -188 q0 -121 70 -191.5t168 -70.5q104 0 199 80q10 8 25 7t24 -11l116 -142q9 -10 8.5 -25.5t-10.5 -25.5q-120 -113 -262 -139v-139q0 -13 -10.5 -24t-24.5 -11h-139q-13 0 -24 11t-11 24v139q-88 15 -159.5 54.5t-116 91.5t-74.5 116.5t-42.5 126t-12.5 123.5z" />
<glyph horiz-adv-x="1257" d="M123 512q0 70 15 139.5t52 140.5t92 125.5t143 88.5t198 34q74 0 144 -20.5t114 -63.5l12 35q13 33 47 33h119q13 0 24 -11t11 -24v-958q0 -43 -4 -83.5t-16.5 -92.5t-32.5 -96t-57 -87.5t-85.5 -74t-120.5 -49.5t-160 -19q-119 0 -227 46.5t-221 137.5q-11 9 -12 23.5 t8 25.5l113 129q9 11 23.5 12.5t25.5 -7.5q149 -119 282 -119q205 0 205 235v19q-78 -45 -182 -47q-113 -2 -203.5 31.5t-146.5 88.5t-93 127.5t-52 142t-15 138.5zM397 512q0 -37 10.5 -79.5t35.5 -90.5t78 -79.5t126 -31.5q98 0 168 64v410q-62 88 -182 88q-59 0 -104 -23 t-69 -55.5t-39 -74t-19.5 -72t-4.5 -56.5z" />
<glyph horiz-adv-x="671" d="M61 332q0 45 8 90.5t28.5 92t50.5 82.5t78.5 58.5t109.5 22.5q76 0 132 -33.5t85.5 -87.5t43 -110.5t13.5 -114.5q0 -46 -8 -91t-27.5 -91t-49.5 -80.5t-79 -56t-110 -21.5q-75 0 -131 32t-86 84.5t-44 108.5t-14 115zM240 332q0 -22 4 -48t13 -57.5t29.5 -52t49.5 -20.5 t49.5 20.5t29.5 52t13 57.5t4 48q0 23 -4 49.5t-13 58.5t-29.5 53t-49.5 21t-49.5 -21t-29.5 -53t-13 -58.5t-4 -49.5z" />
<glyph horiz-adv-x="466" d="M55 493q3 14 15 23l186 133q31 21 63 21h21q14 0 24.5 -11t10.5 -24v-600q0 -13 -10.5 -24t-24.5 -11h-111q-13 0 -23.5 10.5t-10.5 24.5v391l-54 -29q-12 -7 -26.5 -3t-22.5 16l-33 55q-7 14 -4 28z" />
<glyph horiz-adv-x="624" d="M72 20q0 22 12 37l240 322q36 48 36 88q0 17 -13.5 32t-35.5 15q-49 0 -112 -55q-29 -21 -52 2l-61 57q-10 10 -10.5 25.5t8.5 25.5q107 113 235 113q103 0 163.5 -62t60.5 -151q0 -83 -82 -193l-88 -116h125q13 0 23.5 -10.5t10.5 -24.5v-90q0 -14 -10.5 -24.5 t-23.5 -10.5h-406q-20 0 -20 20z" />
<glyph horiz-adv-x="577" d="M55 90q-1 15 8 25l56 57q9 11 23 12t26 -8q48 -31 111 -31q29 0 50 16t21 40q0 31 -20.5 47t-50.5 16h-78q-13 0 -24 11t-11 24v68q0 13 10.5 23.5t24.5 10.5h78q29 0 50 17.5t21 48.5q0 25 -21 40t-50 15q-49 0 -109 -37q-12 -8 -27 -5.5t-24 12.5l-51 57q-9 10 -8.5 25 t10.5 24q93 82 209 82q68 0 117.5 -22t74 -57t35 -68t10.5 -66t-17 -71.5t-46 -63.5q63 -50 63 -131q0 -31 -10.5 -64t-35 -68.5t-74 -58t-117.5 -22.5q-114 0 -211 78q-12 9 -13 24z" />
<glyph horiz-adv-x="616" d="M41 96v135l301 441h139v-424h94v-152h-94v-96h-170v96h-270zM225 248h86v125z" />
<glyph horiz-adv-x="624" d="M74 113.5q1 14.5 12 23.5l68 62q22 19 47 -2q48 -43 112 -43q33 0 53.5 22.5t20.5 48.5q0 30 -20 50t-56 20h-147q-14 0 -23.5 9.5t-9.5 23.5v309q0 13 9.5 23t23.5 10h321q13 0 23 -10t10 -23v-84q0 -13 -10 -23t-23 -10h-176v-80q61 0 108 -14t74 -35.5t44 -51.5 t22.5 -57t5.5 -57q0 -26 -7 -54.5t-25 -61.5t-45 -59t-72.5 -43t-102.5 -17q-132 0 -229 100q-9 9 -8 23.5z" />
<glyph d="M61 219q0 272 271 449q12 7 26 3.5t23 -14.5l41 -53q8 -10 6 -24t-12 -21q-79 -57 -146 -129q18 12 64 12q56 0 98 -18.5t64.5 -44.5t35.5 -59t16.5 -57t2.5 -44q-1 -24 -7.5 -51.5t-24 -60.5t-43.5 -59t-70.5 -44t-100.5 -18q-57 0 -101.5 17.5t-70.5 43t-43 58.5 t-23 61t-6 53zM236 225q0 -29 18.5 -51t50.5 -22t52 22.5t20 50.5q0 29 -19 49.5t-53 20.5q-28 0 -48.5 -20t-20.5 -50z" />
<glyph horiz-adv-x="530" d="M41 541v96q0 13 9.5 23t23.5 10h385q13 0 23 -10t10 -23v-4q0 -31 -13 -64l-229 -538q-14 -31 -45 -31h-117q-12 0 -18.5 10t-1.5 21l202 477h-196q-14 0 -23.5 10t-9.5 23z" />
<glyph horiz-adv-x="589" d="M61 188q0 38 19.5 83t52.5 65q-33 16 -52.5 55.5t-19.5 79.5q0 22 6 47t22.5 53.5t42 51.5t68.5 38t97 15q66 0 114 -19.5t72 -51.5t34.5 -64.5t10.5 -67.5q0 -34 -18.5 -75.5t-54.5 -63.5q71 -46 71 -148q0 -31 -10.5 -62t-34 -63.5t-71 -52.5t-113.5 -20 q-67 0 -116 19.5t-73.5 51.5t-35.5 64t-11 65zM236 199q0 -24 18.5 -39t42.5 -15q23 0 40 15t17 39t-17 38.5t-40 14.5q-25 0 -43 -14.5t-18 -38.5zM236 465q0 -24 18 -38.5t43 -14.5q23 0 40 14.5t17 38.5q0 25 -17 40t-40 15q-25 0 -43 -15t-18 -40z" />
<glyph d="M63 451q1 24 7.5 51.5t24 60.5t43.5 59t70.5 44t100.5 18q57 0 101.5 -17.5t70.5 -43t43 -58.5t23 -61t6 -53q0 -274 -270 -449q-12 -8 -26.5 -5t-23.5 15l-40 54q-9 11 -7 24t13 21q83 62 145 129q-20 -13 -63 -13q-56 0 -98.5 18.5t-64.5 44.5t-35.5 59.5t-17 57.5 t-2.5 44zM238 444q0 -29 18.5 -49t52.5 -20q29 0 49.5 19.5t20.5 49.5q0 29 -19 51.5t-51 22.5t-51.5 -23t-19.5 -51z" />
<glyph horiz-adv-x="1030" d="M135.5 1042q2.5 14 14.5 23l399 309q28 21 59 21h70q14 0 23.5 -9.5t9.5 -23.5v-1126h163q14 0 23.5 -10t9.5 -23v-170q0 -13 -9.5 -23t-23.5 -10h-692q-13 0 -22.5 9.5t-9.5 23.5v170q0 14 9.5 23.5t22.5 9.5h248v739l-172 -92q-12 -6 -25.5 -2t-19.5 16l-74 119 q-6 12 -3.5 26z" />
<glyph horiz-adv-x="1404" d="M164 694q0 91 15.5 183t55 188t98.5 168.5t154 119t213 46.5q119 0 214.5 -46.5t155 -119t99.5 -168.5t56 -188t16 -183q0 -94 -16 -186.5t-56 -188t-99.5 -168t-155 -118t-214.5 -45.5q-118 0 -213 46t-154 118t-98.5 167.5t-55 188t-15.5 186.5zM440 694q0 -41 5 -91 t22 -117.5t44 -121t76 -91t113 -37.5t114 37.5t76.5 91t43.5 121t22 117.5t5 91t-5 90.5t-22 117t-43.5 120t-76.5 90t-114 37.5q-54 0 -97.5 -25.5t-70.5 -68.5t-46 -91.5t-28.5 -102.5t-13.5 -94t-4 -73z" />
<glyph horiz-adv-x="1204" d="M127 33v71q0 31 20 58l498 618q105 132 105 228q0 61 -37.5 103t-122.5 42q-117 0 -277 -147q-10 -9 -24 -8.5t-23 10.5l-121 127q-9 10 -9 24.5t9 24.5q213 217 443 217q192 0 312 -103.5t120 -298.5q0 -85 -46.5 -185.5t-123.5 -197.5l-289 -356h389q14 0 23.5 -10 t9.5 -23v-194q0 -13 -9.5 -23t-23.5 -10h-790q-14 0 -23.5 10t-9.5 23z" />
<glyph horiz-adv-x="1179" d="M136 185q-1 14 7 24l117 137q8 9 21 10t24 -8q58 -49 129.5 -83t126.5 -34q78 0 132.5 43t54.5 123q0 82 -55 130t-132 48h-170q-13 0 -23 9.5t-10 23.5v176q0 14 10 23.5t23 9.5h170q76 0 131.5 49t55.5 131q0 80 -54.5 123t-132.5 43q-54 0 -125.5 -33.5t-130.5 -82.5 q-10 -9 -24 -8.5t-21 10.5l-117 137q-8 10 -7 24t11 23q194 172 414 172q106 0 189 -29t132 -72t80.5 -100t42.5 -107.5t11 -99.5q0 -88 -39 -171t-107 -132q73 -43 109.5 -126.5t36.5 -170.5q0 -49 -11 -99t-42.5 -107t-80.5 -100.5t-132 -72t-189 -28.5q-225 0 -414 172 q-10 9 -11 23z" />
<glyph horiz-adv-x="1259" d="M123 305v94q0 36 18 60l576 897q19 26 51 26h156q14 0 23 -9t9 -23v-824h148q14 0 23.5 -9.5t9.5 -22.5v-189q0 -13 -9.5 -23t-23.5 -10h-148l-2 -241q0 -14 -9.5 -23.5t-22.5 -9.5h-217q-13 0 -23 10t-10 23v241h-516q-14 0 -23.5 10t-9.5 23zM483 526h189v301z" />
<glyph horiz-adv-x="1243" d="M176 220.5q1 14.5 12 23.5l138 121q9 9 22.5 7.5t22.5 -10.5q110 -124 223 -124q98 0 155.5 64t57.5 149q0 84 -57.5 144t-157.5 60h-318q-13 0 -22.5 9.5t-9.5 23.5v670q0 14 9.5 23.5t22.5 9.5h684q14 0 23.5 -9.5t9.5 -23.5v-187q0 -13 -9.5 -22.5t-23.5 -9.5h-426 v-244h60q113 0 201 -30t140.5 -76.5t86.5 -109t46.5 -121t12.5 -118.5q0 -49 -12.5 -104t-47.5 -118.5t-87 -113t-140.5 -83t-199.5 -33.5q-235 0 -408 209q-9 9 -8 23.5z" />
<glyph horiz-adv-x="1323" d="M186 461q-1 140 33 267.5t89 224.5t132.5 183.5t155.5 146.5t166 110q12 7 25.5 3.5t21.5 -14.5l96 -149q7 -11 4 -23t-14 -20q-202 -117 -334 -305q55 24 141 24q102 -5 181.5 -38.5t126.5 -81t77 -110t41 -120t11 -117.5q0 -33 -6 -70t-21 -81.5t-38 -86.5t-61 -81.5 t-85.5 -69t-115.5 -47.5t-148 -18q-111 0 -198.5 36t-138.5 89t-84.5 120.5t-45 123t-11.5 104.5zM457 453q0 -86 55 -148.5t152 -62.5q95 0 149.5 63t54.5 148t-53.5 147t-150.5 62t-150.5 -60.5t-56.5 -148.5z" />
<glyph horiz-adv-x="1075" d="M102 1169v187q0 14 10 23.5t23 9.5h780q13 0 23 -9.5t10 -23.5v-86q0 -34 -12 -64l-485 -1175q-14 -31 -45 -31h-224q-12 0 -18.5 10t-1.5 21l448 1106h-475q-14 0 -23.5 9.5t-9.5 22.5z" />
<glyph horiz-adv-x="1241" d="M164 399q0 89 38.5 172.5t108.5 124.5q-147 105 -147 297q0 49 11 99.5t43 107.5t80.5 100t132 72t190.5 29t190.5 -29t132 -72t80 -100t42.5 -107.5t11 -99.5q0 -44 -12 -93t-49 -108t-94 -98q155 -93 155 -293q0 -49 -11 -99.5t-42.5 -108.5t-80 -102t-132 -73.5 t-190.5 -29.5t-190.5 29t-132 73t-80.5 101.5t-43 108t-11 99.5zM432 399q0 -81 55 -125.5t134 -44.5q77 0 131.5 46.5t54.5 123.5q0 82 -54 128t-132 46q-79 0 -134 -46t-55 -128zM432 993q0 -82 55 -128t134 -46q78 0 132 46t54 128q0 80 -53.5 123t-132.5 43t-134 -43 t-55 -123z" />
<glyph horiz-adv-x="1323" d="M184 948q0 33 6 70t21 82t38 86.5t61 81.5t85.5 69.5t115.5 47.5t148 18q111 0 198.5 -36t138.5 -89t84.5 -120.5t45 -123t11.5 -104.5q1 -140 -33.5 -267.5t-89.5 -224.5t-132.5 -183.5t-155 -146.5t-165.5 -110q-12 -7 -25.5 -4t-21.5 14l-96 150q-7 11 -4 23t14 20 q198 112 334 305q-58 -25 -141 -25q-102 5 -181.5 38.5t-126.5 81t-77 110t-41 120t-11 117.5zM455 938q0 -85 53.5 -147t150.5 -62t150.5 60.5t56.5 148.5q0 86 -55 148.5t-152 62.5q-95 0 -149.5 -63t-54.5 -148z" />
<glyph horiz-adv-x="671" d="M61 1100q0 45 8 90.5t28.5 92t50.5 82.5t78.5 58.5t109.5 22.5q76 0 132 -33.5t85.5 -87.5t43 -110.5t13.5 -114.5q0 -46 -8 -91t-27.5 -91t-49.5 -80.5t-79 -56t-110 -21.5q-75 0 -131 32t-86 84.5t-44 108.5t-14 115zM240 1100q0 -22 4 -48t13 -57.5t29.5 -52 t49.5 -20.5t49.5 20.5t29.5 52t13 57.5t4 48q0 23 -4 49.5t-13 58.5t-29.5 53t-49.5 21t-49.5 -21t-29.5 -53t-13 -58.5t-4 -49.5z" />
<glyph horiz-adv-x="466" d="M54 1260.5q3 13.5 14 21.5l190 137q25 19 59 19h25q14 0 23.5 -10t9.5 -23v-604q0 -13 -9.5 -23t-23.5 -10h-115q-13 0 -22.5 9.5t-9.5 23.5v393l-56 -29q-12 -7 -25.5 -3t-19.5 16l-37 57q-6 12 -3 25.5z" />
<glyph horiz-adv-x="624" d="M74 1310.5q-1 13.5 8 24.5q107 115 237 115q105 0 164.5 -58.5t59.5 -154.5q0 -79 -82 -193l-90 -116l121 -2q13 0 22.5 -9.5t9.5 -23.5v-94q0 -14 -9.5 -23.5t-22.5 -9.5l-371 2q-13 0 -23 10t-10 23v4q0 32 21 59l215 283q8 12 14.5 22.5t10.5 18.5t6.5 13.5t3.5 12 t1 8v7.5v6q0 17 -13.5 32t-35.5 15q-27 0 -52 -12t-62 -45q-10 -8 -25 -7.5t-25 9.5l-63 61q-9 9 -10 22.5z" />
<glyph horiz-adv-x="577" d="M55 857q-1 14 8 24l56 61q9 10 23 11t24 -7q48 -33 113 -33q29 0 50 16t21 40q0 31 -20.5 47t-50.5 16h-80q-13 0 -23 10t-10 23v72q0 13 9.5 22.5t23.5 9.5h80q29 0 50 17.5t21 48.5q0 25 -21 40t-50 15q-48 0 -111 -39q-31 -15 -49 6l-53 62q-8 10 -7 24t11 23 q98 82 209 82q68 0 117.5 -22t74 -57t35 -68t10.5 -66t-17 -71.5t-46 -63.5q63 -50 63 -131q0 -31 -10.5 -64t-35 -68.5t-74 -58t-117.5 -22.5q-116 0 -213 78q-10 9 -11 23z" />
<glyph horiz-adv-x="616" d="M41 897v70q0 35 18 59l265 387q20 27 51 27h74q13 0 22.5 -9.5t9.5 -23.5v-391h62q13 0 22.5 -9.5t9.5 -23.5v-86q0 -14 -9.5 -23.5t-22.5 -9.5h-62v-63q0 -14 -9.5 -23.5t-22.5 -9.5h-105q-14 0 -23.5 10t-9.5 23v63h-237q-14 0 -23.5 10t-9.5 23zM225 1016h86v125z" />
<glyph horiz-adv-x="624" d="M74 881.5q1 14.5 12 23.5l68 62q22 19 47 -2q48 -43 112 -43q33 0 53.5 22.5t20.5 48.5q0 30 -20 50t-56 20h-147q-14 0 -23.5 9.5t-9.5 23.5v309q0 13 9.5 23t23.5 10h321q13 0 23 -10t10 -23v-84q0 -13 -10 -23t-23 -10h-176v-80q61 0 108 -14t74 -35.5t44 -51.5 t22.5 -57t5.5 -57q0 -26 -7 -54.5t-25 -61.5t-45 -59t-72.5 -43t-102.5 -17q-132 0 -229 100q-9 9 -8 23.5z" />
<glyph d="M61 987q0 272 271 449q12 7 26 3.5t23 -14.5l41 -53q8 -10 6 -24t-12 -21q-79 -57 -146 -129q18 12 64 12q56 0 98 -18.5t64.5 -44.5t35.5 -59t16.5 -57t2.5 -44q-1 -24 -7.5 -51.5t-24 -60.5t-43.5 -59t-70.5 -44t-100.5 -18q-57 0 -101.5 17.5t-70.5 43t-43 58.5 t-23 61t-6 53zM236 993q0 -29 18.5 -51t50.5 -22t52 22.5t20 50.5q0 29 -19 49.5t-53 20.5q-28 0 -48.5 -20t-20.5 -50z" />
<glyph horiz-adv-x="542" d="M41 1305v96q0 13 9.5 23t23.5 10h377q13 0 22.5 -9.5t9.5 -23.5v-15q0 -33 -12 -63l-221 -528q-14 -31 -45 -31h-117q-12 0 -18.5 10t-1.5 21l198 477h-192q-14 0 -23.5 10t-9.5 23z" />
<glyph horiz-adv-x="589" d="M61 956q0 38 19.5 83t52.5 65q-33 16 -52.5 55.5t-19.5 79.5q0 22 6 47t22.5 53.5t42 51.5t68.5 38t97 15q66 0 114 -19.5t72 -51.5t34.5 -64.5t10.5 -67.5q0 -34 -18.5 -75.5t-54.5 -63.5q71 -46 71 -148q0 -31 -10.5 -62t-34 -63.5t-71 -52.5t-113.5 -20 q-67 0 -116 19.5t-73.5 51.5t-35.5 64t-11 65zM236 967q0 -24 18.5 -39t42.5 -15q23 0 40 15t17 39t-17 38.5t-40 14.5q-25 0 -43 -14.5t-18 -38.5zM236 1233q0 -24 18 -38.5t43 -14.5q23 0 40 14.5t17 38.5q0 25 -17 40t-40 15q-25 0 -43 -15t-18 -40z" />
<glyph d="M63 1219q1 24 7.5 51.5t24 60.5t43.5 59t70.5 44t100.5 18q57 0 101.5 -17.5t70.5 -43t43 -58.5t23 -61t6 -53q0 -274 -270 -449q-12 -8 -26.5 -5t-23.5 15l-40 54q-9 11 -7 24t13 21q83 62 145 129q-20 -13 -63 -13q-56 0 -98.5 18.5t-64.5 44.5t-35.5 59.5t-17 57.5 t-2.5 44zM238 1212q0 -29 18.5 -49t52.5 -20q29 0 49.5 19.5t20.5 49.5q0 29 -19 51.5t-51 22.5t-51.5 -23t-19.5 -51z" />
<glyph horiz-adv-x="1662" d="M61 1149v174q0 14 10 25t23 12q51 8 92 8q150 0 217.5 -84.5t67.5 -247.5v-559q3 -123 62 -177t153 -54q80 0 191 39l-62 41q-138 92 -197 178t-59 196q0 70 35 139t96 95q-39 27 -56.5 72.5t-17.5 91.5q0 159 113 259.5t275 100.5q102 0 185.5 -29.5t139.5 -80 t94 -119.5t55 -145.5t17 -161.5q0 -167 -48.5 -322.5t-139.5 -280.5l206 -161q10 -9 12.5 -22.5t-5.5 -22.5l-125 -156q-9 -10 -23 -12t-24 6l-240 176q-181 -147 -393 -147q-242 0 -383.5 126.5t-141.5 366.5v23v546q-1 39 -22.5 55t-73.5 19q-14 0 -23.5 10t-9.5 23z M842 721q0 -59 127 -150l112 -90q131 195 131 439q0 129 -50.5 202.5t-141.5 73.5q-55 0 -85 -35t-30 -74q0 -31 22 -53t48 -22h41q14 0 23.5 -10t9.5 -23v-133q0 -14 -9.5 -23.5t-23.5 -9.5h-90q-38 0 -61 -28t-23 -64z" />
<glyph horiz-adv-x="1222" d="M41 582v118q0 33 31 43l209 76v113l-209 -74q-11 -3 -21 4t-10 19v112q0 33 31 43l209 78v287q0 14 9.5 23.5t22.5 9.5h217q14 0 23.5 -10t9.5 -23v-184l361 133q11 5 20.5 -2t9.5 -19v-123q0 -33 -30 -43l-361 -131v-110l361 133q11 5 20.5 -2t9.5 -19v-123 q0 -33 -30 -43l-361 -131v-454q124 42 205 146t106 255q1 13 12 23t25 10h197q13 0 22 -9.5t9 -23.5q-17 -160 -83.5 -293t-165 -219.5t-218.5 -134t-248 -47.5q-50 0 -111 6q-13 1 -22.5 12t-9.5 25v604l-209 -78q-11 -3 -21 4t-10 19z" />
</font>
</defs>
</svg>
