<?xml version="1.0" standalone="no"?>
<!DOCTYPE svg PUBLIC "-//W3C//DTD SVG 1.1//EN" "http://www.w3.org/Graphics/SVG/1.1/DTD/svg11.dtd" >
<svg xmlns="http://www.w3.org/2000/svg" xmlns:xlink="http://www.w3.org/1999/xlink" version="1.1">
<metadata></metadata>
<defs>
<font id="webfontregular" horiz-adv-x="1603" >
<font-face units-per-em="2048" ascent="2048" descent="0" />
<missing-glyph horiz-adv-x="1024" />
<glyph horiz-adv-x="0" />
<glyph unicode="&#xd;" horiz-adv-x="681" />
<glyph unicode=" "  horiz-adv-x="1024" />
<glyph unicode="&#x09;" horiz-adv-x="1024" />
<glyph unicode="&#xa0;" horiz-adv-x="1024" />
<glyph unicode="!" horiz-adv-x="2549" d="M56.5 457.5q-17.5 99.5 37.5 160.5q10 10 58 44q68 53 122 59q68 12 132 -23q68 -39 65 -110q0 -20 -6 -36.5t-19.5 -35t-19.5 -31.5q-2 -2 -11 -9t-15.5 -11t-16.5 -10t-17.5 -9.5t-15.5 -3.5t-13 4.5t-9 14.5q-6 14 4 29.5t10 19.5q-2 4 -6 11t-6 12.5t-6.5 11.5 t-9.5 9t-11 5q-16 2 -39.5 -13.5t-27.5 -27.5q-8 -25 18 -59q16 -18 60 -39t77 -25q63 -8 127 37q29 20 72 77.5t57 72.5q6 8 25.5 22t23.5 19q43 37 47 39q12 4 41 10t35 8q98 25 170 2q10 -2 23.5 -10t32 -21.5t26.5 -19.5q49 -31 65.5 -56.5t24.5 -89.5q4 -43 0 -65 q-14 -72 -82.5 -132.5t-152.5 -31.5q-47 14 -93.5 65.5t-19.5 104.5q10 20 43 34.5t55 10.5q14 -4 23.5 -22.5t21.5 -20.5q16 -2 35 15.5t23 33.5q10 49 -25 68.5t-79 15.5t-79 -20q-61 -27 -104 -98.5t-10 -137.5q4 -10 20.5 -24.5t18.5 -18.5q6 -6 16 -23.5t16 -21.5 q20 -18 62.5 -38.5t71.5 -22.5q33 -2 106 22q8 2 31.5 9.5t36 10.5t30 10t28.5 16t20 20q45 63 55 141q2 31 -2 58.5t-15.5 66.5t-13.5 51q-2 10 -10 27.5t-13.5 31t-7.5 28t5.5 24.5t25.5 14q14 2 20.5 0t18.5 -6t20 -6q33 -6 69 -1t64.5 -1t30.5 -31t-31.5 -46.5 t-39.5 -29.5q-16 -20 -29 -110q0 -10 -7 -31t-5 -29q0 -4 8 -25.5t10 -29.5q29 -74 74 -123q4 -4 18.5 -2t20.5 2q12 -8 37.5 -25.5t47 -27.5t50.5 -14q53 -6 117.5 16t95.5 59v2v11q2 6 13 17t16 19q76 127 -2 203q-27 25 -101 60q-55 31 -90 28q-25 -4 -53.5 -24.5 t-30.5 -38.5q-2 -25 15.5 -43.5t41.5 -14.5q18 2 36 23.5t34 21.5q31 2 53.5 -33.5t23.5 -76.5t-13 -72q-27 -41 -108 -58.5t-140 7.5q-68 27 -104 116t-1 169q59 84 150.5 126t197.5 15q23 -4 65 -23.5t60 -33.5q6 -6 16.5 -21.5t16.5 -21.5q8 -8 31.5 -23.5t32.5 -21.5 q12 -10 40.5 -38t52 -45.5t52.5 -25.5q10 -4 28.5 -2t28.5 0q-8 12 -40.5 40t-43.5 52q-31 72 25.5 141.5t142.5 73.5q98 4 164 -51t78 -141q12 -78 -17.5 -153t-78.5 -114q-51 -39 -149.5 -45t-164.5 27q-20 10 -47.5 34.5t-44.5 33.5q-14 -18 -22 -54.5t-13 -46.5 q-14 -31 -55 -71.5t-51 -55.5q-16 -6 -51 -21.5t-53.5 -22.5t-56.5 -17t-60.5 -7t-65.5 7q-16 4 -35.5 14t-45 25.5t-35.5 21.5q-96 49 -150 148q-27 -18 -47.5 -59.5t-32.5 -53.5q-33 -33 -78 -59q-82 -45 -189.5 -37t-184.5 57q-10 6 -28 21.5t-28 21.5l-2 2 q-20 16 -39.5 41t-30 42.5t-30 55.5t-25.5 48q-27 -10 -78 -38t-95 -42.5t-93 -7.5q-35 2 -88 27.5t-80 47.5q-57 47 -74.5 146.5zM2193 530q4 -4 9 -20q51 -16 26 -82q-8 8 -8 -6q27 -4 47 4q20 4 34.5 40t8.5 62q-6 29 -33.5 42.5t-60.5 9.5q-6 -6 -12 -25.5t-11 -24.5z " />
<glyph unicode="&#x22;" horiz-adv-x="2525" d="M63 205q-12 78 18 152.5t79 113.5q51 39 149.5 45t163.5 -27q20 -10 48 -34.5t44 -32.5q14 18 22.5 54t12.5 46q14 31 55 72t52 55q16 6 51 21.5t53 22.5t56 17.5t60.5 7.5t65.5 -7q16 -4 36 -14.5t45.5 -26t35.5 -21.5q96 -49 150 -147q27 18 47 59t32 53q33 33 78 60 q82 45 189.5 36.5t185.5 -57.5q10 -6 27.5 -21.5t27.5 -21.5l2 -2q20 -16 40 -40.5t30 -42t29.5 -55.5t25.5 -48q27 10 78 37.5t95 42t94 8.5q35 -2 88 -27.5t79 -48.5q57 -47 75 -146.5t-38 -160.5q-10 -10 -57 -43q-68 -53 -123 -59q-68 -12 -131 22q-68 39 -66 111 q0 20 6.5 36.5t19.5 35t20 30.5q2 2 11 9t15 11.5t16.5 10.5t17.5 9t15.5 3t13.5 -4t9 -14q6 -14 -4 -29.5t-10 -19.5q2 -4 6 -11.5t6 -12.5t6 -11t9 -9.5t11 -5.5q16 -2 40 13.5t28 27.5q8 25 -18 60q-16 18 -60.5 38.5t-77.5 24.5q-63 8 -127 -37q-29 -20 -71.5 -77.5 t-57.5 -71.5q-6 -8 -25.5 -22.5t-23.5 -18.5q-43 -37 -47 -39q-12 -4 -41 -10t-35 -8q-98 -25 -170 -3q-10 2 -23.5 10.5t-31.5 22t-27 19.5q-49 31 -65.5 56.5t-24.5 88.5q-4 43 0 66q14 72 83 132t153 31q47 -14 93 -65t19 -105q-10 -20 -42.5 -34.5t-55.5 -10.5 q-14 4 -23.5 22.5t-21.5 20.5q-16 2 -34.5 -15t-22.5 -34q-10 -49 24.5 -68.5t78.5 -15.5t79 21q61 27 104 98.5t11 136.5q-4 10 -20.5 24.5t-18.5 18.5q-6 6 -16.5 23.5t-16.5 21.5q-20 18 -62 39t-71 23q-33 2 -107 -23q-8 -2 -31.5 -9t-35.5 -10t-29.5 -10.5t-29 -16.5 t-19.5 -19q-45 -63 -55 -142q-2 -31 2 -58.5t15 -66t13 -51.5q2 -10 10.5 -27.5t13.5 -30.5t7 -27.5t-5 -25t-26 -14.5q-14 -2 -20 0t-18.5 6.5t-20.5 6.5q-33 6 -68.5 1t-64.5 1t-31 30.5t32 46t40 29.5q16 20 29 111q0 10 7 30.5t5 28.5q0 4 -8.5 25.5t-10.5 30.5 q-29 74 -73 122q-4 4 -18.5 2t-20.5 -2q-12 8 -38 25.5t-47.5 28t-49.5 14.5q-53 6 -118 -16.5t-95 -59.5v-2v-10q-2 -6 -13.5 -17.5t-15.5 -19.5q-76 -127 2 -203q27 -25 100 -59q55 -31 90 -29q25 4 53.5 24.5t30.5 39.5q2 25 -15 43t-42 14q-18 -2 -35.5 -23.5 t-34.5 -21.5q-31 -2 -53 34t-23 77t13 71q27 41 107.5 58.5t140.5 -7.5q68 -27 103.5 -115.5t0.5 -168.5q-59 -84 -150 -126t-198 -16q-23 4 -64.5 23.5t-60.5 34.5q-6 6 -16 21.5t-17 21.5q-8 8 -31.5 23.5t-31.5 21.5q-12 10 -41 37.5t-52.5 45t-52.5 25.5q-10 4 -28.5 2 t-28.5 0q8 -12 41 -39.5t43 -52.5q31 -72 -25.5 -141.5t-142.5 -73.5q-98 -4 -163.5 51.5t-78.5 141.5zM229 217q6 -29 34 -42t61 -9q6 6 12 25.5t10 23.5q-4 4 -8 21q-51 16 -27 81q8 -8 8 7q-27 3 -47 -5q-20 -4 -34.5 -39.5t-8.5 -62.5z" />
<glyph unicode="#" horiz-adv-x="2207" d="M49 478q10 73 60 124q43 45 108.5 76t127 20.5t115.5 -47.5t75 -86q16 -35 4.5 -96t-43.5 -72q-18 -6 -54 -1t-53 16q-25 16 -33 51q-2 10 -1 27.5t-1 27.5q-8 31 -37.5 52.5t-60.5 19.5q-12 0 -34.5 -11.5t-41.5 -7.5q-61 -51 -53 -157q4 -63 31 -97q33 -39 96 -67.5 t120.5 -28.5t160.5 37q129 45 151 57q41 18 118 62.5t111 60.5q70 35 82 37q8 2 20.5 1t16.5 -1q6 2 22.5 12.5t22.5 14.5q12 8 65.5 36.5t74.5 43.5q88 14 222 80.5t224 74.5q53 6 150 -26q16 -6 68 -18.5t77 -24.5q76 -33 141 -117q57 -82 40 -188.5t-85 -180.5 q-49 -51 -158 -67q-80 -12 -145 18q-12 6 -51 45q-37 37 -39 58q-2 23 15.5 52t29.5 40q23 14 58.5 19t68.5 -5q16 -6 65.5 -56t88.5 -38q51 16 71.5 96t-10.5 139q-8 20 -55 62q-45 45 -64 49q-6 0 -20.5 -3t-20.5 -3q-14 0 -42.5 3t-45.5 3q-102 -4 -164 -25 q-78 -29 -133 -61q-16 -10 -59 -33.5t-64 -36.5q-14 -6 -42.5 -16t-43.5 -19q-12 -8 -35.5 -24.5t-35.5 -24.5q-41 -29 -93.5 -57.5t-118 -61t-98 -51t-104 -46t-106.5 -50.5q-23 -2 -63 -10t-75 -12.5t-71 -2.5q-41 2 -101 19q-14 4 -38.5 18.5t-39.5 18.5q-88 31 -108 45 q-12 8 -23.5 18.5t-26 23.5t-24.5 21q-59 53 -78 90q-18 88 -8 161z" />
<glyph unicode="$" horiz-adv-x="2179" d="M40 362.5q-17 106.5 40 188.5q66 84 141 117q25 12 77 24.5t69 18.5q96 33 149 26q90 -8 224 -74.5t223 -80.5q20 -14 73.5 -43t65.5 -37q6 -4 22.5 -14.5t22.5 -12.5q4 0 16.5 1t20.5 -1q12 -2 82 -37q35 -16 111.5 -60t117.5 -63q23 -12 152 -57q102 -37 159.5 -37 t121 29t95.5 67q27 33 31 97q8 106 -53 157q-18 -4 -41 7.5t-35 11.5q-31 2 -60.5 -19.5t-37.5 -52.5q-2 -10 -1 -27.5t-1 -27.5q-8 -35 -33 -51q-16 -10 -52 -15.5t-54 0.5q-33 10 -44.5 71.5t5.5 96.5q20 49 74.5 86t115.5 47.5t127 -20.5t109 -76q49 -51 59 -123.5 t-8 -161.5q-18 -37 -78 -90q-4 -4 -30.5 -27.5t-43.5 -35.5q-20 -14 -108 -45q-14 -4 -39 -18.5t-39 -18.5q-59 -16 -100 -19q-37 -2 -72 2.5t-74.5 12.5t-62.5 10q-35 23 -107 50.5t-104.5 46t-98 51t-118 61.5t-93.5 57q-12 8 -35.5 24.5t-35.5 24.5q-14 8 -43 18.5 t-43 16.5q-20 12 -63.5 36t-59.5 34q-55 33 -133 61q-63 20 -164 25q-14 0 -43 -3t-45 -3q-6 0 -20.5 3t-20.5 3q-18 -4 -64 -49q-47 -41 -55 -62q-31 -59 -10.5 -139t72.5 -96q39 -12 88 38t65 56q33 10 69 5t58 -19q12 -10 29.5 -40t15.5 -52q-2 -20 -39 -58 q-39 -39 -51 -45q-66 -31 -145 -18q-109 16 -158 67q-68 74 -85 180.5z" />
<glyph unicode="%" horiz-adv-x="2207" d="M66 352q-33 197 51 285q43 45 108.5 75.5t127 20.5t115.5 -47t75 -86q18 -35 6 -96.5t-45 -71.5q-18 -6 -54 -1t-53 15q-25 16 -32 52q-2 10 -1 28.5t-2 26.5q-8 31 -37.5 52.5t-60.5 19.5q-12 0 -33.5 -11.5t-40.5 -7.5q-63 -49 -55 -157q4 -63 31 -97 q35 -39 97.5 -67.5t119.5 -28.5q61 0 160 37q131 47 151 57q41 18 118 62.5t112 60.5q70 35 82 37q8 2 20 1t16 -1q6 2 22.5 12t22.5 15q137 78 140 79q88 14 222 81t226 75q51 6 148 -27q16 -6 68.5 -18t76.5 -25q76 -33 141 -116q57 -82 40 -188.5t-85 -180.5 q-49 -51 -157 -67q-80 -12 -146 18q-12 6 -51 45q-37 37 -39 57q-2 23 15.5 52.5t29.5 39.5q23 14 58.5 19.5t68.5 -4.5q16 -6 65.5 -56.5t90.5 -37.5q51 16 69.5 96t-10.5 139q-12 27 -55 62q-45 45 -64 49q-6 0 -20 -3t-21 -3q-14 0 -42.5 3t-45.5 3q-98 -4 -163 -25 q-70 -27 -134 -61q-14 -8 -57 -33t-65 -37q-14 -6 -43 -16.5t-43 -18.5q-12 -8 -36 -24.5t-36 -24.5q-41 -29 -93.5 -57.5t-118 -61t-98 -51t-104 -46t-106.5 -50.5q-23 -2 -63 -10.5t-74.5 -12.5t-71.5 -2q-41 2 -101 19q-14 4 -38.5 18.5t-38.5 18.5q-88 31 -109 45 q-12 8 -23.5 18t-25.5 23.5t-25 21.5q-59 53 -77 90zM496 186q33 -16 84 -12q57 4 147 31q88 27 277 133q25 14 70.5 37.5t64.5 34.5q23 12 64.5 42.5t62.5 43.5q18 10 50 22t55.5 23.5t39.5 27.5q33 12 127 60.5t152 58.5v6v2q-97 -12 -103 -14q-39 -12 -116.5 -50 t-114.5 -50q-14 -4 -46 -10.5t-46 -12.5q-23 -8 -65 -31.5t-56.5 -32t-56.5 -34t-64 -33.5q-10 -4 -39 -11t-43 -14q-23 -10 -61.5 -34.5t-57.5 -34.5q-139 -70 -286 -123q-35 -12 -39 -25z" />
<glyph unicode="&#x26;" horiz-adv-x="2215" d="M64.5 397.5q-17.5 106.5 39.5 188.5q66 84 142 116q25 12 77 24.5t68 18.5q96 33 148 27q92 -8 226 -74.5t222 -81.5q2 -2 139 -79q6 -4 22.5 -14.5t22.5 -12.5q4 0 16.5 1t20.5 -1q12 -2 82 -37q35 -16 112 -60t118 -63q20 -10 151 -57q98 -37 160 -37q57 0 119.5 28.5 t97.5 67.5q27 33 31 97q8 109 -56 157q-18 -4 -39.5 7.5t-33.5 11.5q-31 2 -60.5 -19.5t-38.5 -52.5q-2 -8 -1 -26.5t-1 -28.5q-8 -35 -32 -52q-16 -10 -52 -15t-55 1q-33 10 -45 71.5t6 96.5q20 49 74.5 86t116 47t127 -20.5t108.5 -75.5q84 -88 51 -285q-18 -37 -77 -90 q-4 -4 -31 -27.5t-43 -35.5q-20 -14 -109 -45q-14 -4 -38.5 -18.5t-39.5 -18.5q-59 -16 -100 -19q-37 -2 -71.5 2t-74.5 12.5t-63 10.5q-35 23 -106.5 50.5t-104.5 46t-98.5 51t-117.5 61t-93 57.5q-12 8 -35.5 24.5t-36.5 24.5q-14 8 -42.5 18.5t-43.5 16.5 q-23 12 -65.5 37t-57.5 33q-63 35 -133 61q-66 20 -164 25q-14 0 -42.5 -3t-45.5 -3q-6 0 -20 3t-21 3q-18 -4 -63 -49q-43 -35 -55 -62q-29 -59 -10.5 -139t69.5 -96q41 -12 90 38t66 56q33 10 68.5 5t58.5 -20q12 -10 29.5 -39.5t15.5 -52.5q-2 -20 -39 -57 q-39 -39 -51 -45q-66 -31 -146 -18q-109 16 -157 67q-68 74 -85.5 180.5zM524 688q57 -10 151.5 -58t127.5 -61q16 -16 39.5 -27.5t55.5 -23.5t50 -22q20 -12 62.5 -43t64.5 -43q18 -10 64.5 -34t70.5 -38q188 -106 277 -133q90 -27 147 -31q51 -4 84 12q-4 12 -39 25 q-147 53 -286 123q-18 10 -57.5 34.5t-61.5 34.5q-14 6 -43 13.5t-39 11.5q-23 8 -65 33.5l-56 34t-56 32t-65 31.5q-14 4 -46 11.5t-46 11.5q-37 12 -114.5 50t-116.5 50q-6 2 -103 14v-2v-6z" />
<glyph unicode="'" horiz-adv-x="2246" d="M59 377q2 20 15.5 25.5t32 -5t34 -20.5t27.5 -23q14 -14 48 -49t54.5 -54.5t52 -43t60.5 -35.5q18 -8 43 -12t42 -4t54 1t51 1q20 0 57.5 -5.5t45.5 -5.5q113 -4 299 56q27 8 71 29.5t62 27.5q240 84 311 111q47 18 86 24l17 4h2q4 0 6 2q6 0 6 2h2h8q62 -2 111 21 q-31 18 -62 16q-37 0 -57 -4q-16 -4 -76.5 -11t-93.5 -11q-168 -23 -319 -82q-18 -6 -68.5 -27.5t-91.5 -36t-80 -20.5q-29 -4 -85 -7t-81 -5q-8 0 -27.5 -3.5t-31 -5.5t-28.5 0t-34 6q-72 20 -137 97q-90 111 -66 209q4 18 20.5 48.5t25.5 39.5q102 78 182 92q37 6 162 -8 q123 -16 176 -39q14 -6 71 -56q61 -45 57.5 -69.5t-34.5 -24.5q-10 0 -20.5 5t-21.5 16.5t-19 15.5q-51 35 -54 39q-37 18 -151 33q-82 14 -131 -2q-31 -10 -97 -45q-43 -23 -63 -19q-33 -35 -23.5 -82t37 -88t60.5 -63q16 -12 38.5 -18.5t41 -9.5t46 1t45 6t49.5 12.5 t43 14.5t44 16.5t37 14.5q18 6 51 22.5l45 22.5q14 4 41 12t41 12q41 16 113.5 42t91.5 34q12 4 29.5 6t32.5 4t18 2q250 25 419 -32q14 -6 38 -12.5t32 -10.5q10 -4 45 -23.5t57 -23.5q16 -4 46 -4h36q25 -2 49.5 -9.5t55 -18.5t49.5 -17q29 -8 42 -16.5t18 -24t-15 -35.5 q-31 -4 -100.5 11.5t-106.5 6.5q-14 -123 -106 -194q-115 -86 -258 -84q-16 0 -99 14q-127 29 -153 68q-18 29 2 72q-39 8 -72 -0.5t-80 -31t-61 -28.5q-29 -10 -67 -19.5t-87 -19.5t-76 -16q-8 -2 -26.5 -7t-26.5 -8q-16 -2 -53 1.5t-55 1.5q-10 0 -31 -3.5t-31 -5.5 q-27 -2 -76 2t-71 4q-27 -2 -105 25q-72 14 -136 53t-98 74t-89 98q-6 6 -21.5 16.5t-25 20.5t-7.5 27zM1405 205q6 -14 18.5 -25.5t22.5 -19.5t29.5 -15.5t31 -10.5t36 -7t31.5 -5t34.5 -4t29.5 -3q2 2 39 2q47 6 109 49q92 68 82 139q-12 8 -25.5 8t-29 -4t-25.5 -4 q-131 0 -197 -24q-27 -23 -97.5 -44.5t-88.5 -31.5z" />
<glyph unicode="(" horiz-adv-x="2248" d="M52.5 334.5q4.5 15.5 18 24t42.5 16.5q18 6 49 17t55.5 18.5t48.5 9.5h36t46 4q23 4 57.5 23.5t45.5 23.5q8 4 31.5 10t37.5 13q170 57 420 32q2 0 17.5 -2t33 -4t29.5 -6q18 -8 91 -33.5t114 -42.5q12 -6 39.5 -13t42.5 -11q12 -6 44.5 -22.5t51.5 -22.5q4 -2 37 -14.5 t44 -16.5t43 -14.5t49 -12.5t45 -6t46.5 -1t41 9t38.5 19q33 23 60.5 63.5t36.5 87.5t-23 82q-20 -4 -64 19q-66 35 -96 45q-49 16 -131 2q-115 -14 -152 -33q-2 -4 -53 -39q-8 -4 -19.5 -15.5t-21.5 -16.5t-20 -5q-31 0 -35 24.5t57 69.5q57 49 72 56q53 23 176 39 q125 14 162 8q80 -14 182 -92q8 -8 24.5 -39t20.5 -49q25 -98 -65 -209q-66 -76 -138 -97q-20 -6 -37.5 -7t-48 4.5t-35.5 5.5q-25 2 -81 5t-84 7q-39 6 -80 20.5t-91.5 36t-68.5 27.5q-152 59 -320 82q-33 4 -93 11t-76 11q-20 4 -58 4q-30 2 -61 -16q49 -23 110 -21h11 q0 -2 6 -2q2 0 2 -1t4 -1q12 0 18 -4q39 -6 86 -24q72 -27 312 -111q18 -6 62 -27.5t71 -29.5q186 -59 299 -56q8 0 45 5.5t57 5.5q14 0 51 -1t54.5 -1t42 4t43.5 12q29 12 60.5 35.5t52 43t54 54.5t48.5 49q12 12 27.5 22.5t33.5 21t31.5 5t15.5 -25.5q2 -16 -7 -26.5 t-24.5 -21t-21.5 -16.5q-55 -63 -89 -98t-98.5 -74t-136.5 -53q-78 -27 -104 -25q-23 0 -72 -4t-76 -2q-10 2 -30.5 5.5t-30.5 3.5q-18 2 -55 -1.5t-54 -1.5q-8 2 -26.5 7.5t-26.5 7.5q-27 6 -76 16t-87 19.5t-66 19.5q-14 6 -61.5 28.5t-80 31t-71.5 0.5q45 -88 -103 -127 q-12 -4 -49 -13q-82 -14 -98 -14q-143 -2 -258 84q-92 72 -107 194q-37 8 -106.5 -7t-99.5 -11q-20 20 -15.5 35.5zM375 305q-10 -72 82 -139q61 -43 108 -49q37 0 39 -2q2 0 30 3t35 4t31.5 5t36 7t30.5 10.5t29.5 15.5t22.5 19t19 26q-18 10 -89 31.5t-98 44.5 q-65 24 -196 24q-10 0 -25.5 4t-29 4t-25.5 -8z" />
<glyph unicode=")" horiz-adv-x="1888" d="M35 367q10 121 125 157q4 2 16 2t21 2q6 0 17 5.5t15 5.5q88 12 129 -39q0 -23 -16 -30t-51 -5t-43 2q-35 -2 -103 -39q-29 -35 -16.5 -79t43.5 -70v6l2 -2q84 -74 182 -39q39 14 78 39q29 16 58.5 38.5t48 40t49.5 47t47 44.5q20 18 61 66t70 69q6 4 24.5 14t26.5 16 q55 41 83 58.5t84 39t114 23.5q8 0 106 -10h48t49 -2q135 -19 184 -152q33 -8 90 -14t96 -16t68 -35q49 -45 80 -119q20 -55 -4.5 -122.5t-63.5 -104.5q-94 -88 -233 -121q-129 -29 -232 18q-47 20 -51 37q-6 23 3 35t28.5 14.5t38 0t44 -7.5t35.5 -5q266 -31 295 123 q16 102 -61 170q-4 4 -13.5 12.5t-13.5 10.5t-12 8t-14 8t-15.5 5t-20.5 3h-26q-12 -8 -19 -33.5t-11 -31.5q-12 -25 -44 -56.5t-57 -38.5q-4 -4 -30.5 -3t-34.5 1q-4 4 -15.5 12.5t-18.5 13.5t-16.5 14t-14.5 17.5t-8 18.5t-3 21q2 25 38 66.5t64 55.5q6 4 31 11.5t31 17.5 q0 35 -31 57q-31 25 -106.5 38.5t-133.5 -5.5q-8 -4 -24.5 -19.5t-22.5 -19.5q-23 -14 -75 -37.5t-74 -37.5q-14 -10 -41 -33t-37 -31q-45 -33 -147 -127q-4 -4 -53.5 -55t-84.5 -72q-102 -66 -196 -69q-154 -8 -248 57q-94 68 -88 160zM1333 410q2 0 2 -11q25 0 42.5 18.5 t21.5 47.5q-54 -6 -66 -55z" />
<glyph unicode="*" horiz-adv-x="1896" d="M61 391q31 74 80 119q29 25 68 35t96 16t90 14q49 133 185 152q16 2 46.5 2h49.5q98 10 106 10q57 -2 113.5 -23.5t84.5 -39t83 -58.5q8 -6 26.5 -16t24.5 -14q29 -20 70 -68.5t61 -66.5q16 -14 47 -44t49.5 -47.5t48 -40t58.5 -38.5q39 -25 78 -39q98 -35 182 39l2 2 q-2 0 -2 -2t2 -4q31 27 43 70.5t-16 78.5q-68 37 -103 39q-8 0 -43 -2t-51 5t-16 30q41 51 129 39q4 0 15 -5.5t18 -5.5q6 -2 19 -2t17 -2q115 -37 125 -157q6 -92 -88 -160q-94 -66 -248 -57q-94 4 -196 69q-35 20 -84 71.5t-53 55.5q-102 94 -148 127q-10 8 -36.5 30.5 t-41.5 33.5q-23 14 -75 37.5t-74 37.5q-6 4 -22.5 19.5t-24.5 19.5q-57 18 -133 5t-107 -38q-31 -23 -31 -57q6 -10 31 -17t31 -12q29 -14 64.5 -56t37.5 -66q0 -10 -3 -20.5t-8 -19t-14.5 -17.5t-16.5 -14t-18 -13.5t-16 -12.5q-8 0 -34.5 -1t-30.5 3q-25 6 -56.5 38 t-43.5 57q-4 6 -11.5 31.5t-19.5 33.5q-16 0 -29.5 -2t-21 -3t-18.5 -7t-14 -8t-16.5 -13.5t-15.5 -13.5q-78 -68 -61 -170q29 -154 295 -123q10 0 35.5 5t44 7.5t38 0t28.5 -14.5t3 -35q-4 -16 -51 -37q-102 -47 -232 -18q-139 33 -233 121q-39 37 -63.5 104.5t-4.5 122.5z M483 465q4 -29 21.5 -47.5t42.5 -18.5q0 11 2 11q-12 49 -66 55z" />
<glyph unicode="+" horiz-adv-x="1249" d="M45 121q-10 31 32 77t44 58q49 45 134 63.5t177 -0.5q55 -12 166 -65t168 -64q113 -25 197 19.5t116 134.5q6 14 7 28.5t-2 34t-5 26.5t-10 34l-8 27q-68 66 -268 57q-43 -29 -37 -74q4 -18 33.5 -39.5t43 -36t-3.5 -51.5q-25 -10 -39 -9t-42.5 8t-45.5 7q-94 90 -67 183 q102 156 266 139q47 -6 100 -25q16 -6 84 -49q2 -2 9 -4q39 -23 45 -47l2 -25q57 -102 51 -174q-4 -55 -78 -182q-25 -39 -38 -58.5t-39.5 -42t-59.5 -32.5q-14 -4 -41 -5t-37 -3q-135 -23 -215 18q-8 4 -21.5 14.5t-21.5 14.5q-53 27 -59 31q-133 76 -185 88q-10 2 -30.5 3 t-30.5 3q-2 0 -28.5 8t-33 7t-38.5 -3q-37 -10 -86.5 -56t-59.5 -53q-2 -4 -20.5 -2t-24.5 17z" />
<glyph unicode="," horiz-adv-x="1226" d="M35 354q-6 72 51 174q0 23 8 37.5t15.5 19.5t31.5 19q68 43 84 49q53 18 101 25q164 16 266 -139q27 -92 -68 -183q-16 0 -44.5 -7t-43 -8t-39.5 9q-16 37 -2.5 51.5t43 36t33.5 39.5q6 45 -37 74q-201 8 -268 -57q-2 -6 -7 -23.5t-8.5 -26t-6.5 -25t-4 -26.5t1 -23.5 t6 -25.5q33 -90 117 -134t197 -20q57 10 166.5 63.5t167.5 65.5q92 18 177 0t134 -63q2 -12 44 -58t32 -77q-6 -14 -24.5 -16.5t-20.5 1.5q-10 6 -59.5 52.5t-86.5 56.5q-33 2 -39 3t-32.5 -7t-28.5 -8q-10 -2 -30.5 -3t-31.5 -3q-51 -12 -184 -88q-6 -4 -59 -31 q-8 -4 -21.5 -14.5t-21.5 -14.5q-80 -41 -215 -18q-10 2 -37 3t-41 5q-33 10 -59.5 32.5t-40 42t-37.5 58.5q-74 127 -78 182z" />
<glyph unicode="-" d="M36 286.5q-1 73.5 36 119.5q53 61 108 75q57 14 112.5 -25.5t41.5 -105.5q-2 -16 -31 -69q-27 -53 -63 -37q-18 10 -16.5 22.5t12 31.5t8.5 26q-2 14 -20.5 25t-33.5 9q-33 -2 -51 -37.5t-12 -68.5q8 -43 51 -81t82 -42q43 -2 131 25q8 2 80 45l74 49q10 6 33.5 15 t33.5 16l179 102q170 96 249 121l33 8q61 6 113 4q59 0 125.5 -20.5t101.5 -53.5q96 -90 117 -161q31 -104 16 -179q-8 -49 -59 -47q-18 8 -21.5 21.5t0.5 36t2 34.5q-2 16 -12 48t-10 36q-57 174 -227 185q-49 2 -109 -15q-154 -43 -340 -168q-199 -133 -334 -172 q-106 -35 -212.5 -12t-147.5 98q-39 68 -40 141.5z" />
<glyph unicode="." horiz-adv-x="1576" d="M33 100q-14 74 16 179q20 72 117 161q35 33 101.5 53.5t125.5 20.5q51 2 113 -4l33 -8q80 -25 249 -121l179 -102q10 -6 33.5 -15.5t33.5 -15.5q12 -6 24.5 -14.5t27 -18.5t22.5 -16q72 -43 80 -45q88 -27 131 -25q39 4 82 42t51 81q6 33 -12.5 68.5t-50.5 37.5 q-14 2 -33 -9t-21 -25q-2 -6 8.5 -25.5t12.5 -32t-17 -22.5q-37 -16 -63 37q-29 53 -31 69q-14 66 41 106t113 25q55 -14 108 -75q37 -45 36 -119t-40 -142q-41 -76 -147.5 -98t-212.5 12q-135 39 -334 172q-186 125 -340 168q-59 16 -109 15q-170 -10 -227 -185 q0 -4 -10 -35.5t-12 -48.5q-2 -12 2 -34.5t0.5 -36t-21.5 -21.5q-51 -2 -59 47z" />
<glyph unicode="/" horiz-adv-x="1579" d="M25.5 254q1.5 74 40.5 141q41 76 147 98.5t213 -12.5q135 -39 334 -172q186 -125 340 -168q59 -16 106 -14q172 10 230 184q0 4 10 36t12 48q2 12 -2 35t-0.5 36t19.5 21q53 2 61 -47q14 -74 -16 -178q-20 -70 -117 -160q-33 -33 -100.5 -54t-126.5 -21q-51 -2 -113 4 l-33 8q-80 25 -250 121q-147 86 -178 102q-10 6 -33.5 15.5t-33.5 15.5q-12 6 -24.5 14t-27 18.5t-22.5 16.5q-51 35 -80 45q-88 27 -131 25q-39 -4 -82 -42t-51 -81q-6 -33 12 -69t51 -38q12 -2 31.5 10.5t21.5 24.5q2 6 -8 25.5t-12 32t16 24.5q33 12 64 -39 q29 -53 31 -67q14 -68 -41.5 -108t-112.5 -24q-57 14 -109 74q-37 45 -35.5 119z" />
<glyph unicode="0" horiz-adv-x="1861" d="M30 445.5q1 9.5 6 15.5t14.5 6t25.5 -4q6 -20 17 -38.5t27.5 -41.5t24.5 -35q6 -8 19.5 -33.5t21.5 -35.5q55 -66 188.5 -70t217.5 45q41 8 153 45q23 8 70 30.5t72 30.5q4 2 20.5 4.5t22.5 6.5q18 6 52 21.5t52 21.5q6 2 62.5 15t81.5 28q98 18 299 -4q45 -4 85 -27 t61.5 -43.5t59.5 -63.5q27 -27 69 -82t46 -59q12 -25 12 -62.5t-24 -43.5q-8 -2 -17.5 3t-14.5 10t-15 15.5t-13 12.5q-8 8 -25.5 26.5t-23.5 26.5q-18 8 -45.5 23.5t-38.5 19.5q-72 37 -86 37q-10 2 -63 -4q-68 -6 -135 -21q-6 -2 -20.5 -7t-20.5 -5h-23.5h-23.5 q-61 -4 -152 -39q-18 -6 -69.5 -18.5t-73.5 -22.5q-6 -4 -27.5 -19.5t-34.5 -17.5q-6 -2 -15 1t-15 3q-23 -2 -65 -14t-50 -14q-172 -37 -277 -15q-51 10 -172 68q-47 18 -57 24q-12 10 -39 40t-33 36q-47 45 -82 123q-2 6 -8 18.5t-8 18.5q-4 10 -7 20.5t-5 22.5t-1 21.5z " />
<glyph unicode="1" horiz-adv-x="1849" d="M22.5 116q0.5 38 12.5 62q4 4 46 59.5t69 81.5q39 43 60 63.5t61 43.5t85 27q201 23 299 4q25 -14 81.5 -27.5t62.5 -15.5q18 -6 52 -21.5t52 -21.5q6 -4 22.5 -6.5t20.5 -4.5q25 -8 72 -30.5t69 -30.5q113 -37 154 -45q84 -49 217 -45t189 70q8 10 21 35.5t20 33.5 q8 12 24.5 35t27.5 41.5t17 38.5q16 4 25.5 4t14.5 -6t6 -15.5t-1 -21.5t-5 -22.5t-7 -20.5q-2 -6 -8 -18.5t-8 -18.5q-35 -78 -82 -123q-6 -6 -33 -35.5t-39 -40.5q-10 -6 -57 -24q-121 -57 -172 -68q-104 -23 -277 15q-8 2 -50 14t-65 14q-6 0 -15 -3t-15 -1 q-12 2 -34 17.5t-28 19.5q-23 10 -74 22.5t-69 18.5q-90 35 -152 39h-23.5h-23.5t-20.5 5t-20.5 7q-68 14 -135 21q-53 6 -63 4q-14 0 -86 -37q-10 -4 -38 -19.5t-46 -23.5q-6 -8 -23.5 -26.5t-26.5 -26.5q-2 -2 -9 -9.5t-12 -12.5t-11 -10t-13.5 -8t-13.5 -1 q-25 6 -24.5 44z" />
<glyph unicode="2" horiz-adv-x="1187" d="M47 465q4 41 54.5 51t99.5 2t78 4q295 -14 466 64q6 2 40 15t46 22q14 10 33 6q31 -4 92.5 -49t77.5 -54q8 -4 24.5 -9t27 -12t12.5 -20q6 -31 -16.5 -44t-53.5 -7q-90 -39 -94 -41q-10 -6 -27.5 -19.5t-31 -21.5t-25.5 -8q-23 0 -53.5 22.5t-44.5 26.5q-121 43 -402 47 q-12 0 -22.5 1t-23.5 3t-21 2q-29 0 -58 5q-20 2 -59 -2.5t-67.5 -2t-51.5 18.5z" />
<glyph unicode="3" horiz-adv-x="1161" d="M55 485q2 12 12.5 19.5t27 12.5t24.5 9q16 8 77.5 53.5t92.5 49.5q18 4 33 -6q12 -8 45.5 -21.5t40.5 -15.5q172 -78 466 -64q29 -12 78 -4t99.5 -2t54.5 -51q-23 -16 -51.5 -18.5t-67.5 2t-59 2.5q-29 -4 -58 -5q-8 0 -21 -2t-23.5 -3t-22.5 -1q-281 -4 -402 -47 q-14 -4 -44.5 -26.5t-53.5 -22.5q-12 0 -25.5 8t-31 21.5t-27.5 19.5q-4 2 -94 41q-31 -6 -53.5 7.5t-16.5 43.5z" />
<glyph unicode="4" horiz-adv-x="3260" d="M61 94q-14 74 17 178q20 72 117 162q35 33 101 53.5t124 20.5q53 2 115 -4l32 -8q84 -25 248 -121l180 -103q10 -6 34 -15t34 -15l74 -49q51 -35 80 -46q82 -27 131 -24q39 4 82 42t51 81q6 33 -12.5 68.5t-51.5 37.5q-14 2 -32.5 -9t-20.5 -26q-2 -6 8 -25.5t12 -31.5 t-16 -24q-37 -14 -63 38q-29 53 -31 70q-14 66 41 105.5t112 25.5q55 -14 109 -76q37 -45 36 -118.5t-40 -141.5q-41 -76 -147.5 -98.5t-213.5 12.5q-135 39 -333 172q-186 125 -340 168q-59 16 -109 15q-170 -10 -227 -185q-23 -66 -25 -84q0 -10 4 -33.5t1 -37t-21 -21.5 q-51 -2 -60 47zM1676 280.5q-1 73.5 36 118.5q53 61 109 76q57 14 112.5 -25.5t40.5 -105.5q-2 -16 -30 -70q-31 -53 -64 -38q-18 12 -16 24t12 31.5t8 25.5q-2 12 -21.5 24.5t-31.5 10.5q-33 -2 -51.5 -37.5t-12.5 -68.5q8 -43 51.5 -81t82.5 -42q43 -2 131 24q29 10 79 46 l74 49q10 6 34 15t34 15l178 103q170 96 250 121l33 8q61 6 112 4q59 0 126 -20.5t102 -53.5q96 -90 116 -162q31 -104 17 -178q-9 -49 -62 -47q-16 8 -19 21.5t1 36t2 34.5q-2 16 -12.5 48t-10.5 36q-57 174 -229 185q-47 2 -107 -15q-154 -43 -340 -168 q-199 -133 -333 -172q-106 -35 -213 -12.5t-148 98.5q-39 68 -40 141.5z" />
<glyph unicode="5" horiz-adv-x="3244" d="M61 424q9 49 62 47q16 -8 19 -21.5t-1 -36t-2 -34.5q2 -16 12.5 -48t10.5 -36q57 -174 229 -184q47 -2 107 14q154 43 340 168q199 133 333 172q106 35 213 12.5t148 -98.5q39 -68 40 -141.5t-36 -118.5q-53 -61 -109 -76q-57 -14 -112 26t-41 105q2 16 31 70 q31 53 63 39q18 -12 16 -24.5t-12 -32t-8 -25.5q2 -12 21.5 -24.5t31.5 -10.5q33 2 51.5 38t12.5 68q-8 43 -51.5 81t-81.5 42q-43 2 -131 -24q-29 -10 -80 -45l-74 -50q-10 -6 -33.5 -15t-34.5 -15l-178 -103q-170 -96 -250 -120l-32 -9q-61 -6 -113 -4q-59 0 -126 20.5 t-101 53.5q-96 90 -117 162q-31 104 -17 178zM1676 237.5q1 73.5 40 141.5q41 76 147.5 98.5t213.5 -12.5q135 -39 333 -172q186 -125 340 -168q59 -16 109 -14q170 10 227 184q23 66 25 84q0 10 -4 33.5t-1 37t21 21.5q51 2 60 -47q14 -74 -17 -178q-20 -72 -116 -162 q-35 -33 -101.5 -53.5t-124.5 -20.5q-53 -2 -114 4l-33 9q-84 25 -248 120l-180 103q-10 6 -34 15t-34 15l-74 50q-51 35 -79 45q-82 27 -131 24q-39 -4 -82 -42t-52 -81q-6 -33 12.5 -68.5t51.5 -37.5q14 -2 32.5 9t20.5 26q2 6 -8 25.5t-12 31.5t16 25q37 14 64 -39 q29 -53 30 -70q14 -66 -41 -105.5t-112 -25.5q-55 14 -109 76q-37 45 -36 118.5z" />
<glyph unicode="6" horiz-adv-x="4286" d="M61 74q0 6 2.5 10t7.5 16.5l9 22.5t7 17t5 10.5t3 6.5l2 6t1 9q10 10 57.5 62.5t68 72t61.5 45t80 29.5q47 6 239 0q41 -2 123 0t119 2q27 0 118 -8t140 -4q225 20 332 18q29 0 94 -8t98 -6q10 0 30.5 5t31.5 3q43 -4 96 -45q14 -10 42.5 -51t51.5 -45q37 25 90 93t70 85 q-6 18 -48 46t-44 56q-2 12 4 26.5t14 24t21.5 23.5t17.5 20q43 63 80 70q14 2 57 -27q6 -4 27.5 -18t32.5 -23q20 -16 33.5 -48.5t5.5 -59.5q-10 -27 -31 -47l-19 -17q-16 -16 -18 -24q-2 -16 16.5 -35.5t49 -42t32.5 -25t10.5 -9.5t11.5 -10t11 -10t11 -9t12.5 -8.5 t14.5 -7.5t14 -5t15.5 -1t16.5 1q31 4 63 39q41 43 75 64.5t91 23.5q16 0 125 -16q23 -2 68 -4t49 -2q186 -6 225 -3q16 2 48 10.5t49 10.5q68 10 190 10q47 0 192.5 -6t233.5 -4q96 4 145.5 -5t87.5 -48q14 -14 41 -47t43 -47q31 -31 80 -101q18 -29 9 -63.5t-44 -32.5 q-16 0 -26 15.5t-19.5 41t-17.5 37.5q-8 16 -39 46t-43 44q-61 76 -86 84q-18 6 -92 6q-66 2 -202 5.5t-200 5.5q-121 2 -272 -23q-12 -2 -35.5 -7t-43 -8t-36.5 -3h-266q-20 2 -61 8t-66.5 8t-57.5 -2t-50 -21q-18 -14 -48 -50t-60 -48t-87 -4q-29 4 -55.5 18.5t-39.5 24.5 t-44 37q-18 16 -59.5 49t-55.5 49q-27 -8 -55.5 -43t-49 -69.5t-56 -59t-76.5 -18.5q-18 2 -33 12t-32 28.5t-23 22.5q-37 66 -70 74q-16 4 -51 0t-52 -4q-18 2 -56 8t-56 8q-27 2 -248 -4q-31 0 -97.5 -10t-101.5 -8q-25 2 -67.5 8t-59.5 8q-18 2 -56 -1t-54 -3 q-12 0 -45 4t-51 2q-35 0 -115 5t-125 5t-109 -10q-25 -8 -44 -25.5t-40.5 -43t-37.5 -39.5q-59 -49 -93 -123q-14 -25 -23 -30t-42 9q-8 4 -12.5 8.5t-4.5 10.5zM2050 535q0 -10 11.5 -19.5t28.5 -18t24 -14.5q42 34 40 52q0 12 -12 21t-29.5 18.5t-23.5 15.5 q-4 -4 -22.5 -23.5t-16.5 -31.5z" />
<glyph unicode="7" horiz-adv-x="4280" d="M61 645.5q9 34.5 43 32.5q16 0 26.5 -15.5t20 -41t17.5 -37.5q8 -16 39 -46t43 -44q61 -76 86 -84q18 -6 92 -7q66 -2 202 -5t199 -5q121 -2 273 23q12 2 35.5 7t43 8t36.5 3h266q20 -2 61 -8t66.5 -8t57.5 2t50 20q18 14 48 50t59.5 48.5t87.5 4.5q29 -4 55.5 -18.5 t39.5 -25t44 -36.5q18 -16 59 -49t56 -49q27 8 55.5 42.5t49 69.5t56 59.5t76.5 18.5q18 -2 32.5 -12.5t32 -28.5t23.5 -22q37 -66 70 -74q16 -4 51 0t51 4q18 -2 56.5 -8t56.5 -8q27 -2 248 4q31 0 97.5 10t101.5 8q25 -2 67.5 -8t59.5 -8q18 -2 56 1t54 3q12 0 45 -4 t51 -2q35 0 115 -5.5t125 -5.5t109 11q25 8 44 25.5t40.5 43t37.5 39.5q59 49 93 123q14 25 23 30t42 -9q8 -4 12 -8.5t4 -10.5t-2 -10t-7 -16.5l-9 -22.5q-2 -6 -5 -12.5t-4 -9.5t-3 -6t-3 -5l-2 -4t-1 -5v-7q-10 -10 -57.5 -62.5t-68 -72t-61.5 -45t-80 -29.5 q-47 -6 -239 0q-41 2 -123 0t-119 -2q-27 0 -118 8t-140 4q-225 -20 -332 -18q-29 0 -94 8t-98 6q-10 0 -30.5 -5t-31.5 -3q-43 4 -96 45q-14 10 -42.5 51t-51.5 45q-37 -25 -90 -93.5t-70 -84.5q6 -18 48 -46t44 -56q2 -12 -4 -26.5t-14 -24t-21.5 -24t-17.5 -20.5 q-43 -63 -80 -69q-14 -2 -57 26q-6 4 -27.5 18.5t-32.5 22.5q-20 16 -33.5 49t-5.5 60q10 27 31 47l19 16q16 16 18 25q2 16 -16.5 35.5t-49 42t-32.5 24.5t-10.5 9.5t-11.5 10.5t-11 10t-11 9t-12.5 8.5t-14.5 7.5t-14.5 5t-15.5 1t-16 -1q-31 -4 -64 -39 q-41 -43 -74.5 -64.5t-90.5 -23.5q-16 0 -125 16q-23 2 -68 4t-49 2q-186 6 -225 2q-16 -2 -48 -10t-49 -10q-68 -10 -190 -10q-47 0 -192.5 6t-233.5 4q-96 -4 -145.5 5t-88.5 48q-14 14 -40.5 47t-42.5 47q-31 31 -80 101q-18 29 -9 63.5zM2109 182q0 -12 12.5 -21 t30 -18.5t23.5 -15.5q2 4 21.5 23.5t17.5 31.5q0 10 -11.5 19.5t-28.5 17.5t-24 14q-43 -33 -41 -51z" />
<glyph unicode="8" horiz-adv-x="3526" d="M42 109.5q1 48.5 9 80.5q4 18 19.5 54.5t19.5 44.5q55 129 152 256q166 129 391 100q20 -4 62 -16.5t55 -14.5q29 -8 114 -26q43 -8 119 -32t107 -32q12 -2 35.5 -5t33.5 -7q16 -4 63.5 -19.5t75 -21.5t69.5 -12t79 -1t70 21q119 57 184 174q2 2 8 19.5t13.5 29 t17.5 13.5q18 4 27.5 -2t18.5 -19.5t15 -17.5q-6 -74 32 -119t116 -84q94 -49 157 -45q14 0 148 29q23 6 67.5 21.5t65.5 21.5q88 25 170 45q14 4 64.5 20.5t82.5 22.5q10 2 33 1t31 -1q12 2 35.5 8t33.5 6q10 2 26.5 0t25.5 -2q20 0 64 5t69 3q98 -6 207 -53q49 -27 86 -68 q33 -33 69 -96q51 -80 76 -276q10 -88 -39 -90q-10 0 -17 2t-11.5 8t-8.5 11t-6 15.5t-3 14.5t-2 16t-1 14q-2 31 -8 53.5t-21.5 58.5t-17.5 42q-4 12 -10 31.5t-12.5 33t-16.5 27.5q-18 18 -70 60q-14 10 -35.5 32.5t-31.5 28.5q-57 33 -193 47q-53 0 -72.5 4t-70.5 -5 t-69.5 -10t-69 -14.5t-66.5 -18.5t-64.5 -19.5t-62.5 -18.5q-16 -4 -43 -14t-35 -12q-33 -8 -100.5 -19.5t-93.5 -17.5q-4 0 -47 -11.5t-56.5 -11.5t-60.5 2q-8 2 -37 7.5t-45 9.5q-8 2 -25.5 11t-21.5 11q-49 18 -99.5 65.5t-70.5 96.5q-27 -23 -85 -87.5t-109.5 -91 t-139.5 -28.5q-106 -4 -156 10q-98 27 -141 41q-25 8 -85 30t-97 34q-14 4 -28.5 6t-36 3t-38.5 3q-18 2 -49.5 16.5t-44.5 16.5q-88 27 -96 29q-82 10 -125 2q-18 -4 -54 -19.5t-46 -19.5q-94 -37 -129 -72q-6 -10 -52.5 -96t-66.5 -131q-4 -10 -22.5 -55.5t-30.5 -69.5 q-2 -2 -7.5 -12.5t-6.5 -11.5t-9 -8t-12 -4t-17 3q-20 18 -19 66.5z" />
<glyph unicode="9" horiz-adv-x="3504" d="M43 633q-10 88 39 90q10 0 17 -2t11.5 -8t8.5 -11.5t6 -15.5t3 -14t2 -16.5t1 -14.5q2 -31 8 -53.5t21.5 -58t17.5 -42.5l10.5 -31.5t12.5 -32.5t16 -28q18 -18 70 -59q14 -10 35.5 -32.5t31.5 -29.5q57 -33 193 -47q53 0 72.5 -4t70.5 5.5t69.5 10.5t69 14t66.5 18 t64.5 19.5t62.5 18.5q16 4 43 14.5t35 12.5q33 8 100.5 19.5t93.5 17.5q4 0 47 11t56.5 11t60.5 -2q8 -2 37 -7t45 -9q8 -2 25.5 -11.5t21.5 -11.5q49 -18 99.5 -65t70.5 -96q27 23 85.5 87t109.5 90.5t139 28.5q106 4 156 -10q98 -27 141 -41q25 -8 85 -29.5t97 -33.5 q14 -4 28.5 -6.5t36 -3.5t38.5 -3q18 -2 50 -16t44 -16q88 -27 96 -29q82 -10 125 -2q18 4 54 19.5t46 19.5q94 35 129 71q6 10 52.5 96.5t66.5 131.5q4 10 22.5 55t30.5 70q2 2 7.5 12t6.5 11t9 8.5t12 4.5t17 -3q20 -18 19 -66.5t-9 -81.5q-4 -18 -19.5 -54t-19.5 -44 q-55 -129 -152 -256q-166 -129 -391 -101q-20 4 -63 16.5t-53 14.5q-29 8 -115 27q-43 8 -119 31.5t-106 31.5q-12 4 -35 7t-35 6q-16 4 -63.5 19t-75 21.5t-69.5 12.5t-79 1t-69 -22q-119 -57 -185 -174q-2 -2 -8 -19.5t-13 -28.5t-18 -13q-18 -4 -27.5 2t-18.5 19.5 t-15 17.5q6 74 -32 119t-116 83q-94 49 -157 45q-14 0 -148 -28q-23 -6 -67.5 -21.5t-65.5 -21.5q-88 -25 -170 -45q-14 -4 -64.5 -20.5t-82.5 -22.5q-10 -2 -33 -1t-31 1q-10 0 -34.5 -6.5t-35 -8.5t-26.5 0t-25 2q-20 0 -64 -5t-69 -3q-98 6 -207 54q-49 27 -86 67 q-33 33 -69 96q-51 80 -76 277z" />
<glyph unicode=":" horiz-adv-x="4300" d="M76 1051q0 4 7 19t11 28q4 14 9.5 22t7.5 12.5t2 12.5q14 14 47 52t51 57.5t48 45t59.5 39t60.5 17.5q45 4 239 -2q39 0 119 3t123 1q25 0 117 -8.5t141 -3.5q254 18 332 18q29 0 94.5 -9t97.5 -7q8 0 29 6t33 4q43 -4 96 -45q12 -10 41.5 -52.5t52.5 -46.5 q37 25 90.5 94.5t69.5 86.5q-6 18 -49 45.5t-45 56.5q0 16 9 32.5t26.5 35t23.5 26.5q2 2 8.5 10.5t8.5 12.5t9 12t12 12t12.5 9.5t14.5 8.5t15 3q20 2 58 -27q6 -4 27.5 -18.5t29.5 -20.5q59 -51 41 -108q-8 -25 -31 -49q0 -2 -17.5 -16.5t-19.5 -22.5q-2 -16 17.5 -36 t47 -41.5t32 -25.5t14.5 -13t14 -12t15.5 -12.5t16.5 -11.5t17.5 -8t19.5 -4t21 0q31 6 64 39q41 45 74.5 65.5t91.5 22.5q25 2 71.5 -6t53.5 -8q16 -2 35.5 -3.5t44 -2.5t36.5 -1q195 -6 226 -2q16 2 50 10.5t46 10.5q53 8 190 8q61 0 201.5 -5t224.5 -3q68 2 100.5 0 t69.5 -15.5t64 -39.5q16 -14 42.5 -46t41.5 -49q31 -29 80 -98q18 -29 9 -63.5t-44 -32.5q-16 0 -26.5 15t-19.5 41t-18 36q-8 16 -37.5 45t-44.5 47q-61 76 -86 84q-10 4 -26.5 5t-37 1h-28.5q-123 4 -401 8q-131 2 -273 -20q-12 -2 -35.5 -7t-43 -8.5t-35.5 -3.5h-266 q-20 2 -61.5 8.5t-67 8.5t-57.5 -2t-50 -21q-18 -14 -48 -50t-59.5 -48t-87.5 -4q-31 4 -57.5 17.5t-36.5 22.5t-45 38q-16 14 -58 49t-57 51q-27 -10 -55 -45t-48.5 -68.5t-56.5 -58.5t-77 -18q-18 2 -32.5 12t-32 28.5t-23.5 22.5q-37 66 -70 72q-8 6 -48 2t-54 -4 q-12 2 -53 8t-60 6q-18 2 -121.5 0t-126.5 -2q-29 0 -97.5 -11t-102.5 -7q-23 2 -66 7t-61 7q-6 4 -52.5 1t-56.5 -3q-14 0 -47 3t-49 3q-35 0 -108.5 5t-136 5t-103.5 -12q-33 -8 -74 -54t-49 -52q-59 -49 -92 -123q-12 -27 -22.5 -32t-43.5 9q-10 6 -13 12.5t-3 10.5z M78 631q8 35 43 33q16 0 26.5 -15.5t20.5 -42t16 -37.5q10 -16 39 -44.5t43 -45.5q61 -76 88 -84q18 -6 90 -6q74 -4 216.5 -6t185.5 -4q115 -2 272 20q88 18 115 19h266q18 0 77.5 -9.5t96.5 -7.5t62 23q18 14 47.5 51t59.5 48.5t87 2.5q31 -4 57.5 -17t37 -22.5 t44.5 -37.5q12 -12 56.5 -47t58.5 -54q27 10 55.5 45t50 69t56.5 58.5t78 18.5q12 -2 25.5 -9.5t21.5 -14.5t20.5 -20.5t18.5 -19.5q39 -63 69 -72q14 -4 50 0.5t54.5 2t56.5 -8.5t54 -6q27 -2 248 4q29 0 97.5 10.5t103.5 6.5q25 -2 70 -7.5t57 -7.5q8 -4 53 -1t56 3 q12 0 45.5 -3t50.5 -1q31 0 107.5 -5t138 -5t102.5 10q25 8 44 25.5t40.5 43t38.5 40.5q57 45 92 123q14 25 23.5 30t41.5 -10q10 -6 13.5 -12t3.5 -10t-7 -18.5t-12 -26.5q-2 -6 -4 -12.5t-4 -9.5t-3 -6t-2 -5l-2 -4t-2 -5t-1 -8q-12 -12 -46 -51t-52.5 -57.5t-48 -45 t-59.5 -39.5t-60 -18q-45 -4 -240 3q-39 0 -118.5 -2.5t-123.5 -0.5q-25 0 -115.5 8.5t-140.5 4.5q-229 -20 -333 -19q-29 0 -94.5 8.5t-98.5 6.5q-6 0 -27.5 -5.5t-33.5 -3.5q-37 4 -97 46q-14 10 -42.5 51t-51.5 45q-37 -25 -90 -93.5t-69 -84.5q6 -18 49 -46t45 -57 q0 -16 -9.5 -32.5t-27 -36t-21.5 -25.5q-2 -2 -10 -13.5t-11 -15.5t-11.5 -13t-14.5 -13t-15 -9.5t-20 -5.5q-20 -2 -57 27q-6 4 -27.5 18.5t-29.5 20.5q-59 55 -39 111q4 18 29 47q2 2 12 10t17 15t7 14q2 16 -15 36.5t-48 44.5l-33 23q-4 4 -14 13.5t-14.5 12.5t-15.5 12 t-16 10t-18.5 7t-19.5 4t-21 0q-31 -4 -63 -39q-41 -43 -75 -64.5t-91 -23.5q-12 0 -125 17q-39 4 -117 4q-162 8 -223 4q-16 -2 -49 -10t-49 -11q-53 -10 -191 -10q-45 0 -191.5 6.5t-234.5 3.5q-96 -4 -144 5.5t-89 48.5q-12 12 -40 45t-44 49q-20 18 -78 100 q-18 29 -10 64zM2064 1509q0 -10 11.5 -19t29 -18.5t23.5 -13.5q43 28 41 51q0 12 -12.5 21.5t-30 19t-23.5 13.5q-4 -6 -22.5 -23.5t-16.5 -30.5zM2126 168q0 -12 12 -22.5t30.5 -19.5t22.5 -13q4 6 23.5 24.5t17.5 30.5q-2 10 -13 19.5t-27.5 17.5t-22.5 14 q-45 -31 -43 -51z" />
<glyph unicode=";" horiz-adv-x="3557" d="M56.5 1062.5q0.5 47.5 9.5 82.5q4 12 10 28.5t15 37t13 30.5q57 133 152 258q166 129 391 100q20 -4 63.5 -16t53.5 -14q16 -4 55 -13.5t60 -15.5q43 -8 118.5 -31.5t106.5 -31.5q8 -2 32.5 -4.5t37.5 -6.5q16 -4 63 -19t75.5 -21.5t69.5 -13.5t78 -2t70 22 q121 59 184 176q2 2 8.5 19.5t13.5 28.5t17 13q18 4 27.5 -2t19 -20.5t15.5 -18.5q-6 -72 31.5 -118t115.5 -85q100 -47 158 -45q37 2 147 31q25 6 76 23.5t57 19.5q25 6 79 21.5t91 23.5q8 2 61.5 19.5t86.5 21.5q10 2 20 2t23.5 -1t19.5 -1q10 0 35 8t35 8q10 2 27.5 -1 t23.5 -3q14 0 61.5 6.5t71.5 4.5q113 -10 207 -56q45 -20 86 -65q33 -33 70 -96q51 -80 75 -277q12 -90 -39 -90q-10 0 -17 2t-11 8t-8 11.5t-6.5 15.5l-3.5 14t-2 16.5t-1 14.5q-2 31 -8 53.5t-21.5 59t-17.5 40.5q-31 80 -39 91q-18 23 -69 61q-14 10 -36 31.5t-32 27.5 q-61 35 -192 50q-53 0 -73 4t-71 -5.5t-69.5 -10.5t-68.5 -14t-66.5 -18.5t-64.5 -19.5t-63 -18q-12 -4 -37.5 -13.5t-39.5 -13.5q-33 -8 -100.5 -19.5t-94.5 -17.5q-4 -2 -34.5 -10t-40 -9t-43 -5.5t-46.5 4.5q-59 8 -82 16q-8 2 -25.5 11.5t-21.5 11.5q-49 16 -98 63 t-72 96q-27 -20 -85 -85.5t-109.5 -91t-139.5 -27.5q-106 -4 -155 10q-98 27 -142 41q-25 8 -85 29.5t-97 33.5q-14 4 -28.5 6t-36 3t-37.5 4q-18 2 -50 16t-44 16q-78 25 -97 27q-74 12 -125 4q-18 -4 -54 -19.5t-46 -19.5q-92 -35 -129 -74q-109 -203 -119 -227 q-6 -16 -23.5 -57t-29.5 -66q-2 -2 -7 -12t-6 -11t-9.5 -8.5t-12.5 -4.5t-16 3q-20 18 -19.5 65.5zM59 627q-10 90 39 90q10 0 17.5 -2t11.5 -8.5t8 -11.5t6 -15t3 -14t2 -16.5t1 -14.5q2 -31 8.5 -53.5t22 -58.5t17.5 -42q31 -80 41 -92q12 -16 69 -59q14 -10 35.5 -33 t30.5 -29q57 -33 194 -47q53 0 72.5 -4t71 5t69 10t67.5 14.5t66.5 18.5t64.5 19.5t62 18.5q16 4 42 13.5t38 13.5q33 8 99.5 19t93.5 18q6 2 48 12t56.5 10t59.5 -2q6 -2 35.5 -6t48.5 -10q8 -2 23 -11.5t22 -11.5q51 -18 99 -64t71 -96q27 20 85 86t109 91.5t139 27.5 q106 4 156 -10q106 -29 143 -41q16 -6 79 -28.5t102 -34.5q14 -4 29.5 -6.5t36 -3.5t38.5 -3q16 -2 48 -15t44 -18q88 -27 99 -28q80 -10 122 -2q18 4 54.5 19.5t46.5 19.5q92 35 129 73q113 213 119 226q4 10 22.5 55t30.5 70q2 2 7 12t6 11l9.5 9.5t13.5 4t17 -4.5 q18 -18 17 -67t-9 -80q-4 -18 -19.5 -54t-19.5 -44q-53 -131 -151 -256q-166 -129 -389 -101q-23 4 -67 16.5t-52 14.5q-37 10 -115 27q-41 10 -115.5 32.5t-107.5 30.5q-10 4 -34.5 7t-35.5 5q-6 2 -78.5 23.5t-101.5 27t-83 4.5t-95 -22q-113 -51 -184 -174 q-2 -4 -6.5 -15.5t-7.5 -19.5t-10 -16t-15 -10q-18 -4 -27.5 2t-18 19.5t-14.5 17.5q6 74 -32.5 119.5t-116.5 82.5q-94 49 -158 47q-2 0 -147 -30q-23 -6 -67 -21.5t-66 -21.5q-88 -25 -170 -45q-10 -2 -62.5 -19.5t-85.5 -23.5q-10 0 -30.5 1t-32.5 -1q-10 -2 -35 -8.5 t-35 -6.5q-8 0 -24.5 2t-26.5 0q-20 0 -64.5 -5t-68.5 -3q-113 12 -205 55q-47 20 -88 66q-25 25 -70 96q-51 80 -76 277z" />
<glyph unicode="&#x3c;" horiz-adv-x="3248" d="M55 434q9 49 60 47q18 -8 21 -21.5t-1 -37t-4 -33.5q2 -18 25 -84q57 -178 227 -184q49 -2 109 14q154 43 339 168q199 133 334 172q106 35 213 11.5t148 -97.5q39 -68 40 -141.5t-36 -118.5q-53 -61 -109 -76q-57 -14 -112.5 26t-40.5 105q2 16 30.5 69.5t63.5 37.5 q18 -10 16 -22.5t-12 -32t-8 -25.5q2 -14 20.5 -25.5t32.5 -9.5q33 2 51.5 38t12.5 69q-8 43 -51.5 80.5t-82.5 42.5q-49 2 -131 -25q-8 -2 -80 -45q-6 -4 -31.5 -23.5t-41.5 -27.5q-10 -4 -34 -13.5t-34 -15.5l-180 -102q-162 -94 -248 -123q-4 -2 -16.5 -4t-16.5 -2 q-53 -6 -114 -7q-59 2 -126 22.5t-100 53.5q-96 90 -116 162q-31 104 -17 178zM55 1247q-14 74 17 180q20 70 116 160q35 33 101.5 54.5t124.5 21.5q80 0 114 -6q8 0 33 -6q78 -25 248 -121q20 -12 58 -33.5t68 -39t54 -30.5q10 -6 34 -15t34 -15q14 -8 38.5 -25.5 t34.5 -23.5q51 -35 80 -45q74 -31 131 -25q41 4 83 41t51 82q6 33 -12.5 68.5t-51.5 37.5q-14 2 -32.5 -9t-20.5 -25q-2 -6 8 -26t12 -32t-16 -24q-37 -14 -64 39q-29 47 -30 67q-14 66 40 105.5t113 25.5q55 -14 109 -76q37 -43 36 -116.5t-40 -141.5q-41 -76 -147.5 -99.5 t-213.5 11.5q-135 41 -334 174q-188 123 -339 168q-53 16 -109 13q-170 -6 -227 -183q-23 -66 -25 -84q0 -10 4 -33.5t1 -38t-21 -22.5q-51 -2 -60 47zM1670 248q1 74 40 141q41 74 147.5 97.5t213.5 -11.5q135 -39 333 -172q186 -125 340 -168q59 -16 107 -14 q80 4 140.5 50t88.5 134q0 4 10.5 36t12.5 48q2 12 -2 34.5t-1 36t19 21.5q53 2 62 -47q14 -74 -17 -178q-20 -72 -117 -162q-35 -33 -101.5 -53.5t-125.5 -22.5q-59 0 -113 7q-4 0 -16 2t-16 4q-80 27 -250 123l-178 102q-10 6 -34 15.5t-34 13.5q-16 8 -42 27.5t-32 23.5 q-72 43 -80 45q-88 27 -131 25q-39 -4 -82 -42t-51 -81q-6 -33 12.5 -69t51.5 -38q12 -2 31.5 10.5t21.5 24.5q2 6 -8 25.5t-12.5 32t16.5 22.5q31 14 63 -37q29 -53 31 -70q14 -66 -41 -105.5t-112 -25.5q-55 14 -109 76q-37 45 -36 119zM1670 1435.5q-1 73.5 36 116.5 q53 61 109 76q59 14 113 -25.5t40 -105.5q-2 -20 -31 -67q-31 -53 -63 -39q-18 12 -16 24t12 31.5t8 26.5q-2 12 -21.5 24t-31.5 10q-33 -2 -51.5 -37.5t-12.5 -68.5q8 -45 50 -82t83 -41q53 -6 131 25q29 10 80 45q10 6 35 23.5t39 25.5q10 6 33.5 15t34.5 15 q31 16 178 103q178 98 250 121q25 6 32 6q35 6 113 6q59 0 125 -21.5t102 -54.5q96 -90 117 -160q31 -106 17 -180q-9 -49 -62 -47q-16 8 -19 22.5t1 37t2 34.5q-2 16 -12.5 48t-10.5 36q-57 176 -229 183q-53 4 -107 -13q-152 -45 -340 -168q-199 -133 -333 -174 q-106 -35 -213 -11t-148 99q-39 68 -40 141.5z" />
<glyph unicode="A" horiz-adv-x="2564" d="M54 277q-1 13 -1 24q0 34 6 43q8 18 40 19.5t44 11.5q18 14 19 160q0 35 3 86t3 75q0 33 -8 113t-10 125q0 10 1 37.5t1 44t-4.5 35t-10.5 28.5q-8 10 -35.5 20.5t-33.5 18.5q0 2 -7 49q-2 18 -2 43.5t2 59.5q4 45 11 51q10 12 36.5 12t67.5 -6t53 -6q14 0 131 10 q109 4 140 15q16 6 57 32q10 6 30.5 16.5t28.5 14.5q8 6 18.5 19.5t16.5 17.5q70 47 176 70q63 12 101 14q16 2 47 -2t45 -4q37 2 103.5 9t93.5 9q14 2 40 2q19 0 44 -1q59 -3 85.5 -5t87 -8t85.5 -8q213 -25 284 -56q31 -12 88.5 -40.5t87.5 -41.5q8 -2 97 -30 q14 -4 45.5 -16.5t48.5 -16.5q10 -2 37.5 -4t40 -4t36 -8.5t33.5 -8.5q18 -2 62.5 3.5t50.5 -3.5q27 -10 34 -63q2 -14 2 -27q0 -35 -14 -59q-12 -27 -38 -43q-6 -4 -18.5 -10.5t-22 -10.5t-11.5 -10q-4 -2 0 -30.5t4 -34.5v-134q0 -8 -6 -109q-4 -76 -4 -126v-31 q2 -25 9.5 -73t7.5 -70q0 -6 -4.5 -29.5t-2.5 -34.5q2 -12 30 -36.5t34 -47.5q7 -25 7 -54q0 -15 -2 -31q-5 -48 -28 -62q-14 -10 -43 -10q-32 0 -84 12q-98 22 -143 22q-11 0 -19 -2q-40 -6 -115 -39.5t-91.5 -40t-37 -10.5t-48 -8t-41.5 -6q-43 -8 -125 -30.5t-123 -30.5 l-123 -25q-26 -1 -55 -1q-73 0 -170 7q-25 2 -101.5 11.5t-115.5 11.5q-6 0 -21.5 -3t-23.5 -1q-10 2 -27.5 12t-24.5 12q-8 4 -25.5 7t-25.5 5q-6 2 -56 21.5t-75 24.5q-14 4 -56 2t-56 -2q-37 2 -98.5 24.5t-98.5 30.5q-11 2 -24 2q-33 0 -81 -14q-9 1 -21 1q-26 1 -69 -5 q-32 -4 -58 -4t-47 4q-42 8 -58 49q-10 25 -12 80z" />
<glyph unicode="B" horiz-adv-x="2568" d="M53 277q-1 14 -1 25q0 33 5 42q10 18 41 19.5t45 11.5q6 6 10.5 17t5.5 31.5t1 35v41v35.5q0 33 4 83q3 33 3 56q0 11 -1 20q0 31 -8 112t-8 128v49t-2.5 60.5t-10.5 35.5q-8 10 -35.5 19.5t-33.5 19.5q0 2 -7 49q-3 26 -3 52t3 51q4 45 9 51q10 12 36.5 12t67.5 -6 t53 -6q10 0 133 10q104 4 140 15q4 2 57 32q10 6 29.5 16.5t27.5 14.5q8 6 19.5 19.5t17.5 17.5q66 47 174 70q63 12 101 14q16 2 48 -2t46 -4q29 0 61.5 3t72.5 8t63 7q54 -1 82 -1q27 0 29 1l4 1q16 0 112 -10q112 -11 115 -11q215 -27 282 -56q33 -12 90.5 -40.5 t85.5 -41.5q8 -2 97 -30q16 -4 46.5 -16.5t47.5 -16.5q10 -2 37.5 -4t40 -4t36 -8.5t33.5 -8.5q18 -2 63.5 2.5t49.5 -2.5q27 -10 35 -63q2 -16 2 -30q0 -34 -13 -58q-12 -25 -38 -41q-8 -4 -21.5 -10.5t-21 -10.5t-9.5 -10q-4 -10 -3 -18t3 -23.5t2 -23.5v-134 q0 -20 -6 -115q-4 -57 -4 -100q0 -29 2 -51q0 -23 7 -71t7 -72q0 -6 -4 -29.5t-2 -34.5q2 -12 30 -36.5t34 -47.5q7 -25 6 -54q0 -15 -1 -31q-5 -48 -26 -62q-14 -10 -43 -10q-32 0 -84 12q-98 22 -144 22q-12 0 -20 -2q-42 -6 -117 -40.5t-87 -38.5q-29 -10 -127 -25 q-43 -8 -126 -30.5t-124 -30.5l-123 -25q-26 -1 -55 -1q-73 0 -168 7q-25 2 -101.5 11.5t-117.5 11.5q-6 0 -21.5 -3t-23.5 -1q-10 2 -27.5 12t-24.5 12q-8 4 -25.5 7t-25.5 5q-4 2 -55 21.5t-76 24.5q-16 2 -56 1t-54 -1q-23 2 -131 36q-60 19 -106 19q-37 0 -67 -12 q-9 1 -21 1q-26 1 -68 -5q-31 -4 -58 -4q-26 0 -47 4q-43 8 -60 49q-8 25 -10 80zM133 221q22 -10 63 -11q38 0 92 10q89 15 135 14q12 0 21 -1q31 -4 90.5 -25.5t88.5 -23.5q10 -2 25.5 0t19.5 2q49 0 93 -9t100.5 -26.5t82.5 -23.5q10 -2 30.5 -9t29.5 -9q8 -4 37.5 -2 t37.5 2q6 0 115 -19q99 -12 202 -12h29q68 2 190 35.5t148 40.5q16 4 35 7t39.5 6t32.5 5q41 8 132 49t140 47q13 2 30 2q41 0 100 -11q83 -15 120 -15q2 8 2 15q0 25 -26 51q-34 34 -35 40q-7 14 -7 53q0 16 1 35q0 27 -5.5 82t-5.5 82q0 31 11 209q1 18 1 44q0 45 -2 117 q-1 46 -2 79q0 45 3 61q4 20 55 42q40 17 40 43q0 7 -3 15q-23 6 -61 9.5t-50 5.5q-23 4 -65.5 11t-47.5 7q-25 4 -70.5 22.5t-64.5 22.5q-86 23 -127 43q-14 6 -49 22.5t-52 25t-46 18.5t-53.5 16t-51.5 8q-27 4 -84 4q-23 -2 -49 2.5t-49 2.5q-8 0 -34.5 12t-37.5 10 q-56 -6 -136 -6h-42q-2 0 -47 -3t-47 1q-4 0 -15.5 3t-21.5 4t-18 1q-6 0 -20.5 -5t-25 -1t-27.5 -3t-26 -9q-48 9 -92 9q-79 0 -147 -28q-43 -16 -109.5 -66.5t-107.5 -68.5q-39 -18 -172 -27q-7 0 -71 -9q-52 -7 -87 -7h-14q-55 4 -62 4q-5 -6 -5 -27q0 -16 3 -42 q51 -18 66.5 -66.5t17.5 -140.5q0 -63 8 -191q6 -72 7 -293q0 -82 -3 -96q-4 -23 -15 -41t-21.5 -25.5t-32 -21.5t-27.5 -18q-10 -31 -4 -60z" />
<glyph unicode="C" horiz-adv-x="1992" d="M110 344v52.5v40.5q1 34 4 109t5 105q1 26 1 75v55q-1 91 -1 126q0 25 12 336q2 39 2 108t-2 167q0 150 14 165q2 4 13.5 7.5t29 5.5t33 2t33.5 1t25 1q20 2 48 2q35 0 82 -3q85 -5 126 -5q124 4 196 4q48 0 72 -2q80 -6 686 -6q123 -8 190 -9q8 0 35 1t51.5 1h52t48 -4 t26.5 -10q12 -11 14 -37v-12q0 -23 -4 -55q-6 -41 -6 -49q-1 -42 -1 -133q0 -205 6 -660q0 -77 4 -233q3 -104 3 -174q0 -35 -1 -62q-2 -16 -2 -41t2 -59q0 -109 -2 -113q-8 -18 -48 -27.5t-82 -9.5t-85 1t-48 1q-10 0 -65 4q-201 2 -303 6q-35 0 -92 -4q-84 -4 -320 -7 q-141 -2 -209 -2q-46 0 -59 1h-67h-66q-10 0 -59.5 2t-59.5 0q-37 -4 -57 -6q-10 0 -31 2t-33 2q-42 -5 -64 -5q-17 0 -22 3q-8 4 -11 15.5t-3 25.5t-2 20q-1 12 -1 42v35v37q0 34 -1 56q-6 53 -7 111zM176 369q0 -12 12 -154q2 -16 2 -46t2.5 -54.5t8.5 -44.5q21 -1 48 -1 q55 0 136 3q121 4 176 4h909q27 0 113 -4q69 -3 119 -3h24q58 1 109 11q0 18 -2 146q-1 64 -1 101t1 46q2 41 3 210v47q0 138 -5 232q-5 38 -5 113q0 47 2 110q4 116 4 172q0 22 -1 35q-10 279 -12 289l2 23q-2 6 -39 6t-75 -2t-40 -2q-35 4 -138.5 4h-113.5q-25 4 -267.5 4 t-277.5 2h-397q-13 0 -63 5q-41 4 -85 4h-17q-52 -1 -97 -15q-8 -35 -10 -78q-1 -22 -1 -48t1 -56q2 -60 2 -76q-2 -74 -5 -215.5t-5 -208.5q-1 -29 -1 -83v-61v-33q0 -76 -4 -112q-2 -47 -2 -139q0 -18 -5 -63.5t-5 -67.5zM234 211q-2 24 -2 57q0 32 2 72q4 80 4 102 q0 72 8 247q6 140 6 245v51q0 39 5 168t5 131v213q-2 15 -2 27q0 31 14 47q10 0 66.5 -2t97.5 -3h27q27 0 53 1q12 1 44 1q68 0 224 -6q126 -5 211 -4q70 0 111 3q86 5 170 5q42 0 84 -1q8 0 50 2t61 0h43.5h53h46.5q135 0 158 8q0 -14 1 -53t1 -68q0 -104 -4.5 -288.5 t-4.5 -278.5q1 -61 7 -249q4 -116 4 -197q0 -50 -2 -87q0 -23 2 -121v-44q0 -58 -4 -70q-60 -1 -234 -7q-119 -4 -201 -4q-38 0 -67 1q-57 2 -219 4t-343.5 5t-213.5 3q-36 0 -138 -1h-28q-75 0 -80 5q-12 37 -16 86zM282 532q-4 -130 -5 -221q0 -104 6 -153q31 0 99 3 q29 1 53 1q31 0 52 -2q27 0 87 3q36 2 62 2q17 0 30 -1q25 -2 235.5 -4t448.5 -3h91q175 0 290 3q4 57 6 63q2 8 2 131q-1 59 -7 182q-4 84 -4 140q0 26 1 45q0 481 2 522q4 75 4 137q0 78 -6 138q-101 6 -183 7h-55q-55 0 -111 -1q-84 -2 -120 -2q-45 0 -165 -1t-223.5 -3 t-107.5 -2q-25 0 -115 1h-53q-45 0 -61 -1q-26 -3 -68 -3q-21 0 -46 1q-21 1 -39 1q-45 0 -67 -4q-26 -373 -26 -573v-39v-36q1 -98 -7 -331z" />
<glyph unicode="D" horiz-adv-x="2912" d="M84 242q-5 53 -5 137q0 112 9 280q1 30 1 78v52q-1 85 -1 126q4 201 12 336q1 23 1 62q0 77 -3 215q0 143 15 166q6 6 28.5 9t63.5 4t43 1q20 2 48 2q35 0 81 -3q84 -5 125 -5q64 1 175 1h123h76q146 0 230 3q32 0 108 -4q51 -3 84 -3q17 0 29 1q157 8 256 8q71 0 113 -4 h16q37 0 150 4q31 0 87 -5t79 -5q29 0 88 5q42 4 69 4q11 0 19 -1q106 -8 178 -8q14 0 93 -4t97 -4q59 3 102 3q99 0 113 -16q11 -13 13 -39q0 -6 1 -11q-1 -23 -5 -53q-6 -38 -5 -50q-3 -66 -3 -221q0 -207 5 -572q0 -66 3 -170q4 -105 5 -153v-37q0 -43 -1 -107v-25.5v-39 v-35.5q3 -49 3 -77.5t-3 -35.5q-8 -18 -49 -28.5t-83 -10.5t-85 1t-46 1q-10 0 -32.5 2t-34.5 2h-528q-528 0 -699 7q-18 0 -94 -5q-377 -14 -391 -14q-10 0 -30.5 3t-33.5 3h-133q-12 1 -38 1h-29q-48 -1 -66 -1q-60 3 -92 3q-16 0 -25 -1q-10 0 -29.5 -2t-27.5 -2 q-12 -2 -34.5 0t-29 2t-27 -2t-36.5 -2t-24.5 4t-12.5 15.5t-2 23.5t0 23q-2 16 -2 74.5t-2 93.5zM145 379q0 -31 5.5 -84t5.5 -72q2 -16 2 -46t2 -53.5t8 -43.5q26 -1 62 -1q52 0 124 2q120 3 174 3q37 0 154 -3q70 -2 121 -2q34 0 59 1q213 4 322 4q69 4 188 4 q80 0 182 -2q244 0 281 -4q45 -4 244 -4q51 0 141 4q60 3 104 3q22 0 39 -1q23 0 112 -4q59 -3 104 -3q21 0 41 1q56 2 110 12q-4 144 -4 220q0 51 2 71q2 43 2 224t-6 265q-4 40 -4 112q0 48 2 112q3 106 3 164q0 29 -1 45q-2 33 -2 94t-2 107t-8 87l2 21q-2 4 -17.5 6 t-38 1t-43 -2t-39.5 -3h-16q-33 4 -134.5 4t-117.5 2q-43 4 -164 4q-32 0 -190 -1h-92q-77 0 -99 1h-108.5h-179h-107.5h-59.5h-81.5h-72q-39 0 -179 -1t-157 -1h-61h-58.5h-115h-86.5q-39 0 -103.5 5t-117 5t-97.5 -14q-10 -35 -12 -79q-1 -22 -1 -47q0 -26 1 -54 q2 -56 2 -78q-4 -272 -10 -422q-1 -29 -1 -84v-62v-38q0 -72 -3 -107q-2 -45 -2 -139q0 -20 -6 -64q-4 -32 -3 -52q-1 -7 0 -13zM202 222q-2 26 -2 57t2 68q3 73 3 104q0 78 9 252q7 142 7 246v44q0 18 8 301q0 23 2 67t2 80t-4 64q-2 14 -2 26q0 31 15 48q10 0 66.5 -2 t98.5 -3h27q27 0 51 1q55 4 265 10q20 0 59 -3t57 -3q41 0 119 -4q53 -2 186.5 -3t206.5 -5q10 0 139.5 2t133.5 2q23 0 177 -5q59 -2 98 -2q63 0 75 5q66 6 149 6q50 0 105 -2q6 0 50 2t62 0h44h52.5h45.5q149 6 157 10q0 -8 2 -49q1 -23 2 -42q0 -16 -1 -30 q0 -106 -4.5 -290.5t-4.5 -278.5q0 -59 6 -247q4 -116 5 -198q0 -51 -2 -88q0 -27 3 -121q1 -31 1 -54q0 -46 -4 -60q-57 0 -233 -5q-125 -4 -210 -4q-34 0 -61 1q-389 6 -393 6q-30 -1 -69 -1q-59 0 -139 2q-134 3 -175 3q-45 0 -130 3t-127 4h-33q-37 0 -93 -1 q-16 -2 -42 0t-32 2q-16 -2 -51 -2h-63.5t-61.5 -2q-51 -4 -244 -4q-18 0 -152 -1h-35q-99 0 -108 5q-12 37 -15 89zM249 540q-4 -133 -4 -225q0 -101 5 -149q38 0 112 3q45 2 81 2q25 0 46 -1q114 -4 200 -4t145 4q15 1 38 1q34 0 87 -2q38 -1 66 -1q38 0 58 2 q62 4 136.5 4t160.5 -4q14 -1 37 -1t55 1q62 2 89 2q6 0 86 -6q39 -2 233 -2q149 -1 274 -1q312 0 472 7q0 45 4 63q4 2 4 61.5v67.5v29q0 61 -6 159q-8 124 -7 179q0 469 2 522q4 76 4 139q0 79 -6 138q-102 6 -184 7h-41q-61 0 -122 -2q-81 -3 -120 -3q-127 0 -536 -8 q-42 -1 -102 -1q-120 0 -310 5q-284 8 -340 8h-192q-115 -4 -172 -10q-27 -3 -69 -3q-21 0 -45 1q-36 1 -62.5 1t-42.5 -1q-27 -389 -27 -588v-27v-38q0 -99 -7 -329z" />
<glyph unicode="E" horiz-adv-x="1984" d="M97 350q0 29 -0.5 52.5t0.5 41.5q1 36 4 108.5t5 104.5q1 26 1 75v56q-1 92 -1 125q0 25 13 336q2 51 2 120t-2 157q0 147 14 166q4 6 27.5 9t63.5 4t42 1q20 2 48 2q35 0 81 -3q84 -5 125 -5q125 4 197 4q48 0 71 -2q82 -6 689 -6q123 -8 190 -8q8 0 35 1t51.5 1h52 t48 -4.5t26.5 -10.5q12 -11 13 -37v-9q0 -23 -4 -58q-5 -41 -5 -49q-4 -184 -4 -246t3 -259.5t3 -287.5q0 -66 3 -170q3 -105 4 -153v-37q0 -43 -1 -109v-24.5v-38v-35.5q3 -49 3 -77.5t-3 -37.5q-8 -18 -48 -27.5t-82 -9.5t-85 1t-47 1q-12 -2 -34.5 1t-32.5 3 q-199 2 -301 7q-33 0 -95 -5q-81 -4 -317 -7q-141 -2 -210 -2q-45 0 -58 1q-17 1 -42 1h-27q-44 -1 -64 -1q-10 0 -59.5 3t-59.5 -1q-37 -4 -58 -6q-10 0 -31.5 2t-31.5 2q-42 -5 -65 -5q-17 0 -23 3q-8 4 -11.5 15.5t-3.5 28v18.5q-2 18 -2 76.5t-2 93.5q-4 52 -5 110z" />
<glyph unicode="F" horiz-adv-x="2885" d="M73 352q0 29 -1 52q0 22 1 40q1 34 4 109.5t5 103.5v258q4 141 14 334q1 23 1 62q0 77 -3 215q0 145 15 166q4 6 28.5 9t60 4t46.5 3q16 2 40 2q35 0 84 -4q62 -4 104 -4h26q68 1 178 1h120h120q112 0 186 1q32 0 108 -4q51 -3 84 -3q17 0 29 1q155 8 254 8q71 0 115 -4 h16q37 0 150 4h17q28 0 72 -4q58 -6 76 -6q25 0 85 5q43 4 72 4q11 0 20 -1q12 0 89.5 -3t88.5 -5q10 0 90 -4q53 -3 80 -3q13 0 20 1q8 0 35 1t52.5 1h53t47 -4.5t25.5 -10.5q13 -13 15 -39q1 -7 0 -15q0 -22 -4 -51q-6 -40 -7 -50q-1 -46 -1 -149q0 -206 5 -642 q0 -68 3 -172q4 -105 5 -153v-37q0 -43 -1 -107v-24.5v-39v-36.5q3 -49 3 -77.5t-3 -35.5q-8 -18 -49.5 -27.5t-83.5 -9.5t-85 1t-47 1q-12 -2 -34.5 0t-30.5 2q-63 2 -566 2t-663 5q-25 2 -53.5 -0.5t-38.5 -2.5q-203 -12 -391 -16q-10 0 -31 3t-33 3h-133h-133 q-74 4 -103 4h-14t-25.5 -3t-31.5 -3q-12 -2 -32.5 0t-31.5 2q-6 0 -26.5 -2t-37 -2t-24.5 4t-11 14.5t-3 26t-2 21.5q-1 11 -1 40v34.5v36.5q0 34 -1 57q-6 54 -7 112z" />
<glyph unicode="G" horiz-adv-x="1851" d="M115 967q0 29 7 80t7 59q2 23 3 59.5t4 63t9 47.5q18 57 75 99q51 38 107 38h11q16 90 45 138t101 59q33 4 83 4q58 0 138 -6q7 -1 31 -1t66 1q83 2 99 2q33 2 94.5 9t89.5 7h14q379 0 417 -215q131 -23 174 -100q45 -78 45 -330q0 -51 3 -165t4 -160v-20q0 -45 -3 -120 q-6 -74 -31 -139.5t-70 -89.5q-20 -10 -65 -23q-68 -10 -76 -18q-12 -8 -21.5 -40t-13.5 -40q-16 -37 -71 -82q-66 -53 -95 -61q-12 -2 -51 -2t-106 2h-7q-30 0 -120 -13q-12 -1 -29 -1q-34 0 -86 5q-56 7 -90 7q-12 0 -21 -1q-31 -2 -83 -7t-79 -6h-20q-24 0 -59 1 q-86 4 -151 72q-62 65 -62 153v5q-119 10 -174 131q-27 55 -34 127q-5 50 -5 120q0 30 1 64q2 68 2 110q0 29 -1 46q0 4 -3 55t-3 76zM193 778q2 -37 2 -135t4 -141q6 -45 29.5 -100.5t45.5 -69.5q12 -8 75 -9t71 -24q4 -14 2 -20.5t-6 -18.5t-4 -18q-2 -12 -2 -23 q0 -25 10 -47q14 -33 43 -51.5t75 -23.5t75.5 -5t92 5t80.5 5h13q25 0 65 -5q51 -7 76 -7q23 0 63.5 6t55.5 8q21 1 64 1h49h20q66 0 84 6q92 53 115 108q4 10 8 41t12 52.5t25 25.5q8 2 23.5 -2t21.5 -4q45 0 127 33q29 47 43 119.5t15 125.5v41q0 46 -1 112q-2 99 -2 134 q0 207 -12 309q-35 118 -147 118q-18 0 -38 -3q-18 6 -25 20.5t-7 40t-4 35.5q-33 109 -218 121q-30 2 -74 2q-65 0 -160 -4q-157 -6 -208 -6h-32q-81 0 -165 8q-6 -2 -43.5 -5t-52.5 -13q-18 -12 -36.5 -46t-20.5 -63q-2 -10 -1 -24.5t1 -31t-2 -29.5t-9.5 -22.5 t-19.5 -11.5q-16 -2 -33.5 15.5t-38.5 15.5q-41 -8 -66.5 -41t-33.5 -66.5t-12 -85.5q-13 -161 -13 -290q0 -32 1 -62z" />
<glyph unicode="H" horiz-adv-x="1802" d="M80 967q0 29 7 78t9 61q2 18 2 58t3 66.5t10 45.5q17 57 73 99q54 40 113 40h6q18 86 50 132t102 57q57 8 121 8q45 0 94 -4h20q44 0 176 4q31 0 92.5 7t92.5 7h14q380 0 416 -215q131 -23 174 -98.5t47 -329.5q0 -33 4 -247q2 -86 2 -138q0 -78 -4 -82 q-12 -178 -100 -229q-10 -6 -66 -21q-8 -2 -25.5 -5t-31 -6t-19.5 -7q-12 -10 -20 -43t-12 -39q-18 -39 -74 -82q-57 -53 -92 -59q-20 -6 -45 -6.5t-63 3t-50 3.5q-14 0 -34.5 -2.5t-49.5 -5.5t-43 -5q-14 -1 -33 -1q-35 1 -84 5q-54 5 -87 5q-13 0 -23 -1q-29 -2 -77 -6 t-88 -6q-20 -1 -39.5 -1t-37.5 1q-84 4 -148.5 71.5t-64.5 158.5q-115 10 -174 131q-27 55 -34 127q-5 50 -5 120q0 30 1 64q2 68 2 111q0 29 -1 47q0 6 -3 55t-3 74z" />
<glyph unicode="I" horiz-adv-x="1798" d="M72 846q2 8 8 23.5t8 21.5q2 8 4 25.5t4 25.5q12 39 58.5 100.5t56.5 77.5q6 31 11 101.5t18 101.5q6 18 47 63q47 53 73 68q16 8 48 21q4 2 25.5 11t30.5 11t26.5 6t33 1t29.5 -9q14 6 38.5 7t35.5 5q4 2 14 12.5t14 12.5q25 18 99 63q90 55 171 55q19 0 38 -3 q20 -4 38.5 -11.5t30.5 -12.5t30.5 -18.5t26 -19.5t28 -23.5t26.5 -23.5t25.5 -23.5t34 -28.5t24.5 -16q25 -8 70.5 -11t62.5 -7q49 -8 97 -32.5t65 -57.5q37 -78 47 -145q4 -14 4 -49t8 -54q8 -20 38 -47t38 -37q70 -105 70 -205q0 -14 -1 -28q-8 -102 -49 -166 q-10 -18 -40.5 -45t-39.5 -45q-10 -20 -18 -70.5t-10 -56.5q-25 -123 -70 -174q-6 -6 -23.5 -17.5t-21.5 -15.5q-37 -31 -45 -33q-20 -6 -55 -8t-47 -4q-35 -6 -58 -6q-19 0 -30 4q-31 -18 -82.5 -66.5t-81.5 -66.5q-12 -2 -49 -11.5t-56 -7.5q-106 4 -164 33 q-12 6 -35.5 24.5t-33.5 24.5q-16 8 -70 27q-10 4 -34.5 16t-37.5 14q-20 2 -48.5 -1t-43.5 -3q-53 4 -108.5 35t-87.5 72q-37 47 -70 196q-2 10 -4 46t-8 55q-2 8 -9.5 14t-18.5 13.5t-17 13.5q-61 74 -82 170q-6 34 -6 70v18zM401 1042q-28 -63 -27 -150q0 -97 34 -224 q25 -94 55 -146q49 -90 94 -114q6 -4 25.5 -10.5t27.5 -12.5q12 -6 45 -30.5t54 -35.5q84 -43 116 -49q70 -12 121 -12q71 0 107 23q8 4 25.5 13t31.5 17t20 17q18 14 57.5 37.5t57.5 37.5q14 37 54.5 81t52.5 67q31 59 55 225q4 33 4 65q0 109 -47 208q-51 106 -70 133 q-51 72 -190 108q-23 6 -74 22.5t-78 22.5q-34 8 -69 8q-56 0 -115 -20q-23 -6 -60.5 -26.5t-48.5 -24.5q-8 -2 -22 -6l-21 -6q-23 -10 -53.5 -43t-36.5 -39q-2 -2 -10 -4.5t-10 -4.5q-72 -53 -105 -127z" />
<glyph unicode="J" horiz-adv-x="1789" d="M47 848q0 8 7 25.5t7 19.5q2 8 4.5 25.5t4.5 25.5q12 39 58 100.5t56 77.5q6 31 11.5 101.5t17.5 101.5q6 18 47 64q47 53 74 67q16 8 47 21q4 2 25.5 11t30.5 11t26.5 6t33 1t29.5 -9q14 6 39 7t35 5q4 2 14.5 12.5t14.5 12.5q2 2 98 63q90 55 171 55q19 0 38 -3 q20 -4 38.5 -11.5t31 -12.5t31 -18.5t25.5 -19.5t27.5 -23.5t26.5 -23.5q6 -4 26.5 -22.5t34 -29.5t25.5 -15q23 -8 69 -11.5t64 -7.5q125 -25 160 -90.5t47 -144.5q4 -14 4 -49t8 -54q8 -20 38 -47t38 -37q71 -106 71 -208q0 -12 -1 -25q-8 -100 -47 -166q-10 -18 -42 -45 t-40 -45q-10 -20 -18.5 -70.5t-10.5 -56.5q-25 -123 -69 -174q-6 -6 -23.5 -17.5t-22.5 -15.5q-35 -31 -45 -33q-20 -6 -55 -8t-47 -4q-35 -6 -58 -6q-19 0 -30 4q-31 -18 -82 -66.5t-82 -66.5q-12 -2 -49 -11.5t-55 -7.5q-106 4 -164 33q-12 6 -36 24.5t-34 24.5 q-16 8 -69 27q-10 4 -35 16t-37 15q-20 2 -49 -1.5t-43 -3.5q-53 4 -108.5 35t-88.5 72q-37 47 -70 197q-2 10 -4 45.5t-8 54.5q-2 8 -9 14t-18.5 13.5t-17.5 13.5q-57 70 -82 170q-5 38 -5 64q0 14 1 24z" />
<glyph unicode="K" horiz-adv-x="2029" d="M51 844q0 20 17.5 45.5t44 53.5t32.5 38q8 10 21 35l12 24q12 23 32.5 62t38 72.5t36.5 66.5q4 6 11 15.5t11 13.5q10 16 29.5 57t32.5 62q8 12 24.5 35.5t24.5 33.5l90 146q41 63 47 65q8 2 14 1t19.5 -2t19.5 -1q23 -1 50 -1q67 0 156 7q124 10 169 13q16 0 54 -3.5 t61 -1.5q14 0 46 6.5t50 6.5t68 -6q32 -4 55 -3q13 0 22 1q102 0 142 -23q20 -10 73 -111q16 -37 35 -63q6 -10 21.5 -27.5t21.5 -28t64 -141.5q90 -223 207 -403q4 -6 17 -21.5t23.5 -30t10.5 -26.5q0 -16 -8.5 -28.5t-26.5 -29t-23 -20.5q-23 -25 -40 -51.5t-34.5 -61 t-31.5 -55.5q-6 -10 -26.5 -38.5t-28.5 -43.5q-78 -158 -88 -172q-8 -12 -25.5 -38.5t-26 -39t-27 -37t-24.5 -38.5q-4 -10 -16 -38t-19 -40q0 -2 -7 -17.5t-11 -21.5t-12.5 -14.5t-18.5 -10.5t-24.5 5.5t-20.5 7.5q-10 0 -35.5 -1t-38.5 1q-18 2 -98 14t-121 14q-9 1 -20 1 q-28 0 -70 -4q-59 -5 -86 -5q-37 -14 -102 -20q2 -4 -4 -4q-4 0 -38 -2.5t-44 0.5q-18 2 -59.5 11t-67.5 11q-33 6 -35 6q-10 0 -28.5 -7t-28.5 -5q-25 6 -76 104q-25 47 -73 124t-60 100q-12 20 -34 59t-30 53q-4 4 -16 16.5t-14 16.5q-4 6 -10.5 22.5t-10.5 22.5 q-18 31 -56 101.5t-61 107.5q-4 8 -17 24.5t-21.5 31t-8.5 22.5z" />
<glyph unicode="L" horiz-adv-x="1925" d="M53 1047q10 29 109 38q8 2 12 2q107 11 220 11q69 0 141 -4q134 -11 177 -11h7q20 39 56 134.5t50 130.5q51 129 54 135q6 25 19 82t24 94q6 23 10 32t14 16t27 5q20 -2 31.5 -26.5t18.5 -68.5t9 -52q8 -29 31.5 -78t30.5 -76q25 -49 51 -160.5t49 -160.5q113 0 248 -19 q59 -7 115 -7q78 0 153 13q4 0 21.5 4t29 6.5t30.5 5.5t31.5 1t25 -6.5t17.5 -15.5t5 -28q0 -18 -10.5 -29t-31 -22.5t-28.5 -17.5q-35 -20 -178 -125q-20 -16 -61 -43t-60 -41q-45 -33 -65 -37q-10 -8 -32 -21.5t-36 -24.5t-20 -24q35 -176 75 -311q8 -41 25 -57 q4 -43 53 -128q45 -79 45 -132v-8q-16 -14 -47 -21q-51 39 -150.5 92t-134.5 76q-201 135 -258 188q-25 -6 -47 -16t-35.5 -19.5t-36 -26.5t-34.5 -26q-2 -2 -39 -24.5t-55 -38.5l-37 -37t-41 -39q-12 -10 -48 -30.5t-48 -28.5q-4 -2 -18.5 -14.5t-23 -16.5t-20.5 -12.5 t-22.5 -10.5t-18.5 0q-23 5 -23 35q0 41 44 129q18 43 34.5 94.5t22.5 74t23.5 101t21.5 93.5q14 62 14 74q0 23 -67 63q-43 25 -156 104q-8 6 -35.5 24.5t-40.5 29.5q-6 6 -17 20t-15 19q-4 2 -19.5 10t-24 14t-22.5 21.5t-25 23.5q-6 4 -29.5 17.5t-36.5 22.5t-23.5 25.5 t-4.5 33.5z" />
<glyph unicode="M" horiz-adv-x="1847" d="M70 1038q0 23 13 36t41 18.5t47 6.5t52 1h135q55 0 160 28.5t146 30.5q29 76 102.5 216.5t103.5 217.5q2 6 7.5 21.5t9.5 28t11 29t14.5 26.5t16.5 18t20.5 7t23.5 -9q6 -6 20 -53q49 -109 51 -117q102 -260 168 -354q61 -29 208 -52.5t206 -50.5q13 9 37 9q20 0 47 -6 q61 -11 61 -51q0 -17 -12 -40q-18 -33 -77.5 -82t-69.5 -59q-29 -29 -108 -124t-120 -130q2 -47 12.5 -99t26 -120t21.5 -98q4 -20 9 -60.5t9 -60.5q2 -12 11.5 -37t13.5 -41t2 -37.5t-16 -36.5q-12 -8 -30 -5t-27 8.5t-23.5 14.5t-20.5 13q-16 8 -57 19.5t-62 21.5 q-74 37 -102 57q-16 12 -53 50t-60 53q-6 4 -16 9t-24.5 10t-22.5 9q-57 27 -64 27h-3q-31 0 -87 -37q-14 -10 -55 -47t-66 -49q-16 -8 -52 -19.5t-50 -19.5q-18 -10 -54 -35.5t-68 -41t-73 -17.5q-12 12 -15 31.5t-1 33t8 37t8 31.5q35 154 70 483q-25 25 -86 64t-88 69 q-8 8 -18.5 27.5t-16.5 28t-27.5 26t-29.5 25.5q-6 8 -21.5 28.5t-23.5 28.5q-6 6 -32 23.5t-43 34t-17 32.5z" />
<glyph unicode="N" horiz-adv-x="1697" d="M72 707q-4 32 -4 78.5t4 109.5q10 199 78 313q10 16 32.5 56.5t34.5 59.5t37 45t53 40q86 121 235.5 176t368.5 72q20 2 40 2q97 0 182 -41q72 -35 153 -109l72 -67q203 -186 250 -393q6 -23 11 -66t9 -59q12 -66 12 -115v-14q-2 -37 -22.5 -109t-24.5 -100 q-4 -18 -11 -62.5t-12 -64t-16.5 -49t-27.5 -52.5q-14 -20 -94 -84q-20 -16 -61.5 -56t-77.5 -68.5t-79 -53.5q-123 -66 -258 -84l-8 -4h-19q-164 0 -388 94q-61 25 -121 64q-16 31 -71.5 63.5t-74.5 51.5q-10 10 -24 36.5t-21 34.5q-6 6 -18 17.5t-18 19.5q-16 20 -32 52 t-23 56.5t-20.5 66.5t-19.5 61q-2 8 -13 37.5t-13 44.5zM326 780q2 -12 4 -40.5t3 -39t6 -30t13 -35.5q31 -72 103 -146q78 -78 145 -114q59 -37 76 -43q79 -32 159 -32q51 0 103 13q96 25 113 31q25 10 82 57q47 39 88 82q78 82 98 123q39 72 57 167q10 50 10 94 q0 41 -8 79q-12 53 -73 152q-37 61 -95 116q-72 72 -172 109q-70 29 -120 37q-52 7 -94 7q-48 0 -85 -9q-35 -10 -106 -53q-59 -33 -92 -54.5t-73 -59.5t-60 -81q-21 -8 -58 -125q-16 -51 -22 -117q-4 -40 -4 -64q0 -16 2 -24zM377 676q-7 60 -7 114t7 101q0 53 18 102 q16 49 29 62q8 23 17.5 43t26.5 38.5t27.5 30t38 29.5t34.5 24.5t42 27t39 22.5q6 4 21.5 16t25.5 17q6 2 18.5 4t18.5 4q4 2 18.5 8t24.5 8t27 2q141 -4 229 -39q6 -2 16.5 -9t14.5 -9q6 -2 18.5 -4t18.5 -4q27 -12 84 -70q66 -68 121 -170q43 -79 43 -170q0 -84 -37 -178 q-12 -35 -62 -96q-45 -66 -67 -88q-8 -6 -24.5 -23.5t-24.5 -24.5q-4 -4 -16.5 -9t-16.5 -9q-55 -45 -74 -51q-110 -45 -197 -45q-41 0 -77 10q-33 10 -107 49q-102 57 -164 119q-77 78 -104 168z" />
<glyph unicode="O" horiz-adv-x="1773" d="M45 741v54q2 8 4 29.5t2 29.5q2 10 6 28.5t4 22.5q2 10 3.5 29.5t3.5 28.5q4 14 9 35.5t9 37.5q14 68 92 213q68 121 82 140q61 76 125 110q51 35 76 43q12 4 34.5 8t31 6.5t26.5 11.5t29 13q114 41 202 51q21 3 51 3q73 0 203 -17q78 -12 115 -25q12 -4 33.5 -19 t30.5 -20q20 -10 74.5 -31.5t78.5 -37.5q10 -6 29.5 -25.5t27.5 -25.5q16 -14 97 -115q6 -6 24.5 -25.5t24.5 -31.5q61 -102 84 -209q16 -66 16 -143q0 -153 -63 -345q-53 -166 -109 -233q-66 -74 -86 -92q-23 -20 -50.5 -39t-68.5 -41.5t-61 -34.5q-76 -49 -164 -68 q-14 -4 -42 -5t-38 -3q-8 -2 -31.5 -11t-35.5 -11q-4 0 -105 -7q-36 -2 -68 -2q-109 0 -173 21q-25 8 -121 61q-141 80 -211 172q-25 31 -107 181q-33 68 -45 100q-4 12 -22.5 48t-20.5 52.5t-4 50t-2 37.5zM121 782q-2 -20 -2 -42q0 -36 6 -78q2 -14 18.5 -45t20.5 -39 q72 -162 138.5 -255.5t178.5 -152.5q104 -55 113 -57q67 -25 166 -25q26 0 53 2q111 8 231 35q115 27 248 115q10 6 30.5 18t33 20.5t28 20.5t25.5 25q83 102 139 283q49 161 50 302q0 18 -1 35q-8 160 -133 332q-72 96 -125 137q-18 14 -43.5 26.5t-59.5 26t-50 21.5 q-10 6 -33 19.5t-33 17.5q-45 16 -112 24q-141 15 -194 15h-15q-35 -2 -135 -33q-10 -2 -32 -6t-32 -8q-8 -2 -23.5 -12.5t-25.5 -12.5q-10 -4 -28.5 -7t-28.5 -5q-92 -31 -149.5 -96.5t-104.5 -165.5q-4 -8 -31 -64.5t-34 -76t-19.5 -66.5t-16.5 -95q-2 -16 -5 -35.5 t-5 -29.5q-2 -12 -4 -33.5t-4 -34.5zM319 850q0 16 5 63q20 121 45 162q14 31 106 123q68 72 223 125q10 4 34 8t34 6q53 20 70 21q19 1 37 1q144 0 294 -81q139 -76 197 -295q24 -90 24 -171q0 -84 -26 -159q-18 -45 -62 -114q-76 -111 -147 -154q-155 -91 -306 -91 q-61 0 -120 15q-66 14 -174 82q-119 80 -141 113q-6 8 -16.5 32.5t-14.5 32.5q-35 76 -45 166q-2 18 -9.5 58.5t-7.5 56.5zM393 827q25 -182 68 -254q8 -14 20.5 -27.5t21.5 -22.5t27.5 -21.5t27.5 -17.5t32.5 -19t30.5 -19q57 -39 102 -55q61 -20 131 -21q15 0 31 2 q88 6 162 34q10 4 22 12t27.5 18t25.5 17q72 41 121 120q31 49 43 78q28 65 28 145q0 85 -32 187q-39 135 -70 168q-50 57 -158 97q-98 36 -178 36h-16q-78 -4 -168 -43q-176 -72 -227 -154q-4 -6 -16.5 -32.5t-16.5 -32.5q-14 -29 -22 -53q-20 -46 -20 -100q0 -21 3 -42z " />
<glyph unicode="P" horiz-adv-x="1726" d="M74 713q-2 26 -2 72.5t2 115.5q10 199 80 313q10 16 32.5 56.5t34.5 60t37 45t53 39.5q86 121 234.5 176.5t369.5 71.5q20 2 40 2q97 0 182 -41q23 -10 45 -29.5t54 -50.5t42 -41q12 -12 37.5 -31.5t36.5 -29.5q215 -203 260 -387q4 -20 10 -62.5t10 -62.5 q12 -61 13 -129q-2 -37 -24 -111t-26 -98q-4 -18 -9 -52t-8 -50.5t-9 -42t-15.5 -45t-23.5 -37.5q-12 -16 -27.5 -29.5t-37 -30t-29.5 -24.5q-16 -14 -64.5 -52.5t-79 -65t-59.5 -59.5q-27 -10 -79 -20t-75 -18q-10 -2 -52 -22.5t-66 -25.5l-9 -4h-19q-166 0 -390 95 q-57 25 -121 63q-16 31 -71.5 63.5t-74.5 51.5q-8 10 -23 35.5t-22 35.5q-4 8 -17 19.5t-17 17.5q-16 20 -31.5 52t-23 56.5t-20.5 66.5t-20 61q-29 78 -28 82zM147 903q-3 -37 -3 -72q0 -75 14 -139q22 -94 78 -215q11 -41 83 -127q10 -12 62 -45q14 -12 45 -35.5t49.5 -38 t47 -31t55.5 -26.5q195 -74 340 -84h5q29 0 87 21q61 29 90 36q10 4 50 12.5t52 14.5q27 14 109 90q16 16 77.5 66.5t86.5 85.5q18 27 27 57.5t17.5 82.5t12.5 75q4 14 19.5 71.5t19.5 83.5q0 47 1 55.5t-9.5 57.5t-12.5 59q-25 123 -37 154q-20 49 -96 145q-6 8 -16 25.5 t-17 24.5q-23 23 -75 65.5t-68 57.5q-14 12 -44 42.5t-53.5 51t-43.5 30.5q-57 29 -168 29q-71 0 -164 -12q-117 -14 -152 -27q-23 -8 -108 -59q-8 -6 -25.5 -13.5t-23.5 -11.5q-12 -8 -23.5 -19t-24 -25.5t-20.5 -22.5q-2 -2 -6 -5.5t-7 -6.5t-6 -5t-3 -4v-6 q-2 -2 -33 -25.5t-43 -37.5q-10 -12 -51 -78q-27 -39 -49 -92q-33 -76 -46 -230zM328 786.5q-2 12.5 3 48t5 42.5q0 18 4 31.5t9 29.5t9 33q19 83 37 116q2 4 3 8.5t1 7.5t2 6t5 3q20 43 62 83t74.5 61.5t94.5 54.5q72 43 104 53q36 9 85 8q43 0 96 -6q47 -8 120 -37 q98 -37 172 -108q55 -55 95 -117q66 -117 71 -152q8 -38 8 -79q0 -46 -10 -96q-18 -95 -55 -165q-23 -41 -100 -123q-37 -43 -88 -81q-49 -45 -80 -58q-16 -6 -113 -31q-53 -14 -105 -14q-80 0 -159 33q-10 4 -74 43q-76 41 -145 115q-68 68 -105 145q-10 20 -14 39.5 t-7 56.5t-5 49.5zM379 682q28 -90 106 -168q61 -61 164 -119q76 -41 105 -49q38 -11 80 -11q88 0 196 46q14 4 72 51q4 4 16 9t17 10q8 6 49 47q14 14 69 88q43 55 62 96q36 97 36 181q0 91 -42 167q-63 109 -121 170q-66 59 -86 70q-4 2 -17.5 4t-19.5 4q-4 2 -13.5 9 t-15.5 9q-88 35 -229 39h-4q-21 0 -66 -18q-6 -2 -18 -4t-19 -4q-10 -4 -25.5 -16.5t-23.5 -16.5t-38.5 -22.5t-41 -25.5t-35 -24.5t-36 -30t-27.5 -31t-26.5 -39t-18.5 -42.5q-25 -39 -37 -109q0 -2 -6 -24.5t-6 -30.5q-7 -47 -7 -101t7 -114z" />
<glyph unicode="Q" horiz-adv-x="1681" d="M47 551v7q0 44 19 208q4 31 8 122t14 134q2 8 14.5 40.5t14.5 61.5q66 82 104 117q98 92 281 105q25 2 68.5 5t79.5 5t71 2h40q89 0 245 -6q147 -8 202.5 -12.5t143.5 -31t139 -77.5q37 -37 78 -178q18 -57 20 -78q2 -31 10 -88q2 -23 4.5 -68t2.5 -53v-35 q0 -151 -16 -255q-17 -116 -77 -226q-4 -8 -14 -32.5t-16 -31.5q-8 -10 -38 -29.5t-36 -23.5q-57 -41 -74 -49q-6 -2 -21.5 -7t-23.5 -9q-6 -2 -18 -12.5t-19 -12.5q-16 -6 -55 -9t-49 -5q-111 -16 -261 -17q-12 -1 -22 -1q-137 0 -237 18q-37 6 -97 14q-131 14 -260 78 q-37 16 -69 47q-8 6 -21.5 17.5t-18.5 15.5t-14.5 13t-13.5 16.5t-10 19.5t-12 26q-2 6 -4.5 23.5t-6.5 26.5q-4 14 -17 53t-17.5 56.5t-11.5 50t-9 65.5zM129 623q-4 -22 -4 -49q0 -100 53 -269q14 -12 37 -43t39 -43q88 -68 195 -90q23 -6 77 -11t74 -7q115 -18 158 -19 q93 -2 162 -2q103 0 151 4q115 8 164 25q53 16 141 84q6 6 18.5 13t19.5 13.5t11 10.5q10 12 41 92q68 177 68 326v8q-4 219 -33 346q-25 106 -49 141q-37 57 -156 94q-18 6 -60 11.5t-48 5.5q-61 12 -109 14q-147 6 -275 6q-183 0 -327 -12q-100 -6 -196 -78 q-98 -78 -123 -225q-4 -66 -15.5 -178.5t-13.5 -167.5z" />
<glyph unicode="R" horiz-adv-x="1656" d="M43 545q-1 7 -1 17q0 53 17 198q4 31 8.5 121t14.5 133q2 10 14.5 42.5t14.5 61.5q59 74 104 117q100 92 283 104q215 12 217 13h41q91 0 243 -6q254 -12 338 -37q92 -27 148 -84q41 -41 80 -178q18 -68 18 -78q2 -14 6 -47t6 -41q4 -39 4 -121q1 -31 0 -60 q0 -131 -14 -227q-18 -117 -76 -229q-4 -8 -10 -22.5t-11 -25t-11 -16.5q-6 -8 -18.5 -16t-29 -19.5t-24.5 -17.5l-74 -49q-4 -2 -21.5 -7t-23.5 -10q-8 -4 -20.5 -13t-16.5 -11q-16 -6 -56 -9t-50 -5q-109 -15 -259 -17q-11 0 -22 -1q-137 0 -239 18q-31 6 -97 14 q-137 16 -258 78q-39 16 -69 47q-6 4 -21.5 16t-19.5 15.5t-14.5 13.5t-14.5 17t-10 19.5t-10 26.5q-4 8 -6.5 25.5t-4.5 23.5q-51 152 -55 226z" />
<glyph unicode="S" horiz-adv-x="1929" d="M72 729q2 25 3 79t3 83t6 69.5t12 74.5t21 65q4 12 47 63q86 94 174 99q74 4 188.5 12t163.5 10q10 0 54 2t53 4q20 4 56 3t56 1q7 1 22 1q63 0 273 -13q223 -8 309 -39q12 -16 31 -6q27 -16 78 -34.5t74 -33.5q43 -27 90 -127q8 -18 22.5 -55t22.5 -55q12 -84 12 -198 q0 -124 -14 -283q-4 -23 2 -37q-4 -12 -15.5 -60.5t-18.5 -70t-24.5 -55t-41.5 -56.5q-35 -31 -70 -49q-18 -8 -123 -35q-18 -4 -62 -17.5t-68 -19.5t-60.5 -13t-69.5 -7q-6 0 -63.5 -9.5t-86.5 -11.5q-11 -1 -26 -1q-23 0 -57.5 2t-57.5 2q-15 0 -24 -1q-23 -3 -51 -3 q-57 0 -136 11q-27 4 -93.5 8.5t-96.5 10.5q-16 2 -46 13t-36 13.5t-146 30.5q-4 2 -14 4t-16 4q-8 2 -31 7.5t-39 9.5q-98 29 -117 63q-4 4 -6 18.5t-4 20.5t-9 16.5t-9 14.5q-33 76 -39 168q-6 88 -6 173q0 68 4 134z" />
<glyph unicode="T" horiz-adv-x="1761" d="M49 676q4 18 35 37.5t37 38.5q-6 8 -41 29.5t-31 45.5q2 18 33 44t37 36q-4 10 -38 50q-26 31 -26 54q0 7 2 13q6 14 43 32.5t45 30.5q-4 6 -14 23.5t-14 28t-8.5 30t6.5 31.5q8 14 22.5 15.5t30.5 -3t37 1.5q-2 12 7 30t9 28t-8 28.5t-11 28.5t9 29q14 4 66.5 7t72.5 15 q6 14 6 45t4.5 54.5t20.5 27.5q14 4 43 -6t41 -8q10 2 26.5 46t36.5 47q16 4 53 -6.5t52 -8.5q21 6 29 55q8 44 33 44q3 0 7 -1q12 -4 37 -23.5t33 -21.5q12 4 48 40q27 27 51 27q8 0 16 -3q8 -4 33.5 -34t44.5 -30q23 0 55 40q22 29 48 28q11 0 22 -4q8 -16 21 -48t19 -45 q12 2 40 12.5t45.5 15.5t38 1t32.5 -22q-1 -15 -1 -29q0 -27 3 -49q18 -8 60.5 -2t46.5 -15q6 -8 5 -38.5t9 -45.5q10 -2 31.5 -3t34 -3t23.5 -10t13 -23q4 -14 -10 -41.5t-10 -42t55 -40t53 -54.5q2 -18 -16 -38.5t-20 -34.5q6 -12 48 -37t46 -45q4 -16 -1 -29.5t-15.5 -30 t-14.5 -26.5q4 -20 36 -53t28 -54q0 -12 -8.5 -22.5t-22.5 -22.5l-21 -18q2 -9 24 -57q15 -33 14 -53q0 -10 -3 -17q-10 -16 -67 -39q0 -18 9 -47t12 -42.5t-9 -35.5q-8 -10 -35 -12.5t-37 -8.5v-7q0 -16 6 -64q2 -18 2 -32q0 -30 -12 -34q-8 -10 -21.5 -11t-33 4t-33.5 5 q-8 -20 -7 -55t-5 -59.5t-29 -32.5q-53 8 -76 16q-27 -37 -41 -63q-2 -6 -7 -17.5t-8 -19t-9 -14.5t-15 -9q-23 -6 -52 10.5t-44.5 22.5t-42.5 -21q-4 -6 -8 -24.5t-12 -24.5q-10 -7 -23 -7q-17 0 -39 12q-39 22 -45 22q-12 -6 -34.5 -39t-51.5 -29q-25 2 -58.5 33t-41.5 35 q-4 -2 -39 -26q-30 -21 -60 -22l-10 1q-16 14 -39.5 51t-42.5 51q-10 -6 -27.5 -5t-29.5 -1q-8 -2 -21.5 -10t-21.5 -8q-49 0 -57 88q-23 12 -49.5 -2.5t-40.5 -10.5q-18 4 -24.5 21.5t-8.5 49.5t-4 44q-14 12 -57.5 6t-61.5 4q-20 13 -3 57q14 36 14 57q0 5 -1 9 q-14 8 -44 13.5t-47 13.5t-17 31q0 16 21.5 44.5t23.5 49.5q-12 8 -47 19t-51.5 26.5t-10.5 44.5zM279 987q-16 -70 -16 -138q1 -106 39 -208q64 -168 175 -258q96 -74 191 -123q70 -39 133 -53q26 -5 59 -5q81 0 199 29q10 2 32.5 5.5t32.5 7.5q29 10 127 82q4 2 52 55 q8 8 29.5 23.5t27.5 23.5q8 8 41 61q2 4 17.5 28t21.5 36q16 35 45 164q19 87 19 166q0 130 -52 237q-31 61 -86 125q-2 4 -6 13.5t-8 13.5q-96 131 -226 172q-96 30 -213 30q-25 0 -51 -1q-8 0 -59 -0.5t-55 -4.5q-12 -2 -39 -15t-35 -15q-63 -23 -76 -27 q-94 -41 -150.5 -100.5t-115.5 -161.5q-2 -4 -18.5 -33t-20.5 -43t-8 -43t-6 -43z" />
<glyph unicode="U" horiz-adv-x="1855" d="M86 690q4 18 35 38t37 38q-6 8 -41 28.5t-31 47.5q2 18 33 42.5t37 35.5q-2 8 -37 50q-27 33 -27 56q0 7 2 12q6 14 43 33t45 31q-4 8 -14 24.5t-14 25.5t-8.5 28.5t6.5 31.5q8 14 22 16.5t30.5 -1.5t37.5 2q-2 12 7 29.5t9 27.5t-8 27.5t-11 28t9 28.5q16 6 68.5 8 t70.5 17q6 14 6 44.5t4 54.5t21 28q12 2 41.5 -8.5t42.5 -6.5q10 2 26.5 45t36.5 47q16 2 53 -8t52 -6q18 5 40 55q19 43 46 42q5 0 10 -1q10 -2 22.5 -22.5t20.5 -22.5q12 4 49 41q27 27 49 27q9 0 17 -4t33.5 -34t43.5 -30q23 0 55 40q22 29 48 29q11 0 22 -5 q10 -14 22.5 -47t18.5 -43q12 2 51 16t65 14t40 -24q-1 -14 -1 -28q0 -27 3 -52q18 -8 60 -2t47 -12q6 -10 5 -41t9 -43q8 -2 30.5 -3t35 -3t23.5 -10.5t13 -24.5q2 -14 -11 -42t-9 -42.5t55 -40t53 -53.5q2 -18 -16 -39t-21 -33q6 -12 48.5 -38t46.5 -44q4 -16 -1 -29.5 t-15.5 -30t-14.5 -28.5q4 -20 36 -52t27 -55q0 -12 -8 -22t-22.5 -22.5t-20.5 -18.5q1 -5 23 -55q15 -34 15 -55q0 -10 -3 -17q-12 -18 -68 -39q0 -16 9.5 -45t12.5 -43t-9 -35q-8 -10 -35 -12t-37 -10v-8q0 -18 5 -64q2 -18 2 -31q0 -30 -11 -33q-8 -10 -20.5 -11t-34 3 t-33.5 4q-6 -14 -8 -74.5t-33 -72.5q-70 16 -76 18q-29 -43 -39 -63q-4 -6 -10 -22.5t-13 -27t-18 -12.5q-23 -4 -52.5 11.5t-44.5 21.5t-42 -20q-4 -6 -8 -23.5t-12 -23.5q-10 -8 -24 -8q-17 0 -39 12q-40 22 -44 22q-12 -6 -34.5 -38.5t-51.5 -30.5q-25 2 -58.5 32.5 t-41.5 36.5q-2 0 -38 -26q-31 -23 -62 -24q-5 0 -9 1q-16 14 -39.5 52t-42.5 53q-10 -6 -27.5 -5.5t-29.5 -1.5q-8 -2 -21.5 -10t-21.5 -8q-31 -2 -42 21.5t-15 66.5q-23 10 -49.5 -3t-41.5 -9q-18 4 -24 20.5t-8 48t-4 45.5q-14 12 -56.5 6t-62.5 3q-20 12 -3 57 q14 36 14 58q0 5 -1 10q-14 8 -44 13t-47 13t-17 31q0 16 21.5 44t23.5 50q-12 8 -47 18.5t-51.5 25.5t-10.5 46z" />
<glyph unicode="V" horiz-adv-x="1509" d="M31 1620q0 12 4 47t4 55q4 78 29 86q6 6 34 2l31 -2q6 0 119 -8t178 -8q176 0 217 4q8 0 80 -2t80 -2q23 6 90 6q25 0 57 -1q69 -2 108 -2q26 0 40 1q41 2 127 2q23 0 68.5 5t66.5 5q47 0 57 -16q6 -16 5 -34.5t-4 -52.5t-3 -48q0 -10 4 -31.5t4 -30.5q0 -10 -4 -30.5 t-4 -32.5q-4 -61 -4 -132q0 -88 6 -192q2 -38 2 -104q0 -49 -1 -114q-2 -91 -2 -153q0 -41 1 -69q2 -29 6.5 -82t6.5 -84q0 -8 5 -34.5t3 -39.5q0 -8 -4 -23.5t-4 -23.5q0 -16 6 -59t6 -67.5t2 -94.5q1 -35 1 -64.5t-1 -54.5q0 -76 -21 -88q-8 -4 -25.5 1t-44 15.5 t-36.5 14.5q-25 10 -60.5 14t-50.5 8q-12 2 -39.5 11.5t-42.5 11.5q-47 8 -139 23.5t-127 21.5q-10 2 -48 15.5t-54 15.5q-54 6 -77 6h-9q-49 -20 -149.5 -46t-133.5 -36q-37 -10 -113.5 -43t-123.5 -47q-47 -15 -65 -15q-4 0 -7 1q-20 9 -24 41q-1 10 -1 23q-1 27 5 65 q8 56 8 61q2 12 -3.5 40t-5.5 42q0 201 -6 313q-2 20 -6 62.5t-4 62.5q0 17 3 59q2 26 2 43q0 12 -1 21q0 12 -6 41t-6 45v45t-4 41q-2 10 2 41t4 41q2 10 -2 29.5t-4 25.5q-1 19 -1 45q0 52 3 130q4 118 4 161q2 23 -3 63t-5 54z" />
<glyph unicode="W" horiz-adv-x="1884" d="M83 1367q11 1 25 1q27 0 61 -4q52 -6 62 -6q14 -2 42 3t40 5q201 0 314 6q12 0 57 4t68 4q18 0 60 -2q21 -1 37.5 -1t27.5 1q12 0 40.5 5.5t43.5 7.5q78 0 88 2q12 2 21 1t29.5 -4.5t30.5 -3.5q8 0 26 3.5t28 3.5q18 0 336 -7q23 0 62.5 5.5t55.5 5.5q12 0 46 -4t57 -7 h25.5h22.5t14 -2t9 -10q8 -22 8 -45q0 -18 -5 -37q-16 -66 -21 -331q0 -219 6 -297q0 -6 4 -21.5t6 -24.5q4 -22 4 -78q0 -28 -1 -65q-2 -66 -2 -106q0 -27 1 -43q0 -20 1.5 -63.5t3.5 -63.5q0 -20 4 -67.5t4 -68.5q0 -49 -15 -57q-16 -6 -35.5 -5t-53 4t-48.5 3 q-10 0 -31.5 -4t-27.5 -4q-12 0 -35 4t-29 4q-62 4 -132 4q-88 0 -191 -6q-36 -2 -102 -2q-50 0 -116 1q-93 2 -155 2q-42 0 -70 -1q-156 -12 -166 -12t-35.5 -5t-35.5 -5q-8 0 -24.5 5t-24.5 5q-16 0 -58.5 -6t-68.5 -6q-35 0 -101.5 -2.5t-109.5 -2.5q-80 4 -88 23 q-1 2 -1 6q0 21 31 98q8 27 13.5 65t7.5 48t11 38t13 44q4 29 13.5 84t16.5 101t16 81q2 12 15 49t15 54q0 12 -3 29.5t-2 30t11 24.5q-23 51 -49 157.5t-33 126.5q-12 37 -44.5 114t-47.5 122q-14 62 -14 72q0 19 42 23z" />
<glyph unicode="X" horiz-adv-x="1769" d="M39 63q0 20 4 67.5t4 68.5q2 23 2 63.5t2 63.5q1 16 1 43q0 41 -2 107q-1 37 -1 65q0 57 4 80q0 6 4 21t6 24q6 76 7 295q0 27 6 333q0 12 3 34t3 34v6q0 18 10 18l8 3q90 8 125 8q16 1 55 -5q25 -4 45 -4q11 0 19 1q43 0 160 4q78 3 130 3q26 0 46 -1q4 0 24.5 -4.5 t30.5 -1.5q10 0 41 4t39 2q4 -4 43 -4h45q16 0 45 -6.5t41 -6.5q20 -2 62.5 1t60.5 3q20 -2 72.5 -2h72.5q19 -2 67 -2q36 0 89 1q123 3 137 3q10 0 41 -2t45 0q12 0 27.5 3t23 4.5t15.5 -5t14 -20.5l-10 -1362q-22 -1 -49 -1t-61 1q-66 2 -103 2q-31 0 -78 -4t-49 -4 q-10 -2 -27.5 0t-21.5 2q-6 0 -31.5 -2t-40.5 0q-31 2 -84 6t-82 6q-28 1 -70 1q-63 0 -155 -2q-66 -1 -115 -1q-66 0 -102 2q-102 6 -191 6q-71 0 -133 -4q-10 0 -27.5 -1t-27.5 -1q-6 0 -31.5 1t-36.5 1q-14 0 -47.5 -3t-53 -4t-36.5 5q-14 8 -14 57z" />
<glyph unicode="Y" horiz-adv-x="1882" d="M39 57q0 23 5 69t5 69v62t2 65q1 20 1 56.5t-1 91.5q-1 27 -1 49q0 68 5 95q2 8 4 22.5t4 22.5q6 63 7 297q0 254 -19 332q-6 20 -6 41t6 41q4 10 11.5 12t29 1t33.5 -1q25 2 61.5 6.5t40.5 4.5q16 0 56.5 -5.5t60.5 -5.5q322 6 336 7q12 0 29.5 -3.5t25.5 -3.5 q12 0 42 4.5t40 2t88 -2.5q12 0 41 -5t43 -7q10 -2 61.5 0t61.5 2q23 0 68 -4t57 -4q113 -6 315 -6q14 0 41 -5t39 -5q4 0 60 7q40 5 68 5q12 0 22 -1q33 -3 41 -24q1 -3 1 -8q0 -17 -16 -63q-14 -45 -46.5 -122t-43.5 -114q-10 -35 -36 -135t-46 -149q8 -12 9.5 -25.5 t-2 -30t-1.5 -28.5q2 -16 15.5 -54.5t15.5 -48.5q6 -33 21.5 -127t23.5 -139q2 -18 12.5 -46t12.5 -36q2 -10 6 -48t14 -65q2 -8 14.5 -35.5t16.5 -44t0 -26.5q-8 -20 -88 -21q-45 0 -111.5 2t-101.5 2h-11q-23 0 -57 5q-43 8 -59 6q-8 0 -24.5 -4t-22.5 -4q-10 0 -34.5 4 t-39.5 4q-31 2 -84 6t-82 6q-37 2 -92.5 2t-129.5 -2t-128.5 -2t-89.5 2q-106 7 -201 7q-64 0 -123 -3q-10 0 -31.5 -5t-31.5 -5q-8 0 -31.5 5t-30.5 5q-14 0 -47.5 -3t-52 -5t-35.5 4q-2 2 -14 66q-2 -2 -2 -9z" />
<glyph unicode="Z" horiz-adv-x="3862" d="M47 727q6 14 22.5 19.5t32 4.5t40 -4.5t32.5 -3.5q57 -4 100 -4q250 4 332 23q4 14 -5 62q-5 25 -5 43q0 15 4 24q4 10 18.5 16t18.5 15q45 10 127 10t137 2q14 0 42 6t42 8h70q25 2 74 11.5t73 11.5q35 2 80 2q72 1 169 -5q159 -10 200 -10q8 0 27.5 -5t29.5 -5h152 q12 -1 27 -1q22 0 52 2q50 3 66 3q10 0 32.5 -5t33 -5t34 3t35.5 3q18 2 54 -3t42 -5q59 -4 353 -4q104 2 213 12q14 1 31 1q39 0 97 -6q83 -9 117 -9q11 0 61 11q29 6 47 6q13 0 19 -3q29 -14 30 -89t7 -91q2 -8 36 0t36 8q18 2 55 0t53 -2q12 0 42 7t45 7h8q30 0 80 -12 q57 -14 84 -14h14h15h15.5t16.5 -1t14.5 -2t12.5 -4t9 -6.5t8 -7.5q5 -7 5 -13q0 -18 -33 -85q-14 -35 -48 -86t-46 -74q-2 -2 -22.5 -34.5t-22.5 -45.5v-6q0 -27 31 -73q6 -12 22.5 -35t22.5 -33q8 -14 17 -36.5t14 -29.5q4 -8 21.5 -30.5t27.5 -42t6 -31.5 q-11 -27 -90 -27h-21q-155 7 -225 7h-16q-14 0 -52 1t-53 -1q-12 -2 -36.5 -13.5t-37.5 -13.5q-10 -2 -30.5 -3t-26.5 -1q-99 -8 -171 -8q-88 0 -134 12q-8 4 -5 21.5t1 23.5q0 6 -7 18.5t-10 20.5q-2 18 4 63q4 28 5 50q0 13 -2 24q-70 -5 -148.5 -5t-165.5 5 q-10 0 -32.5 4t-32.5 4q-8 1 -19 1q-21 0 -52 -3q-46 -4 -64 -4q-100 -2 -320.5 -21.5t-306.5 -21.5q-70 0 -107 4q-16 2 -51 9.5t-51 9.5q-8 0 -22.5 -2t-22.5 -2q-29 0 -88.5 6t-87.5 6l-150 -4q-51 -1 -84 -1q-67 0 -67 5q-5 -12 -5 -28q0 -32 20 -76q13 -31 13 -54 q0 -26 -18 -41q-6 -10 -24.5 -19t-32.5 -9q-8 0 -23.5 11t-28.5 13q-29 4 -38 4t-40.5 -3t-43.5 -3q-16 -2 -46 5t-40 7q-6 0 -21.5 -3t-24.5 -3h-69.5h-82.5h-71q-27 -2 -74 -11t-59 -11q-14 -2 -38.5 1t-33 3t-31 -4t-32.5 -2q-14 4 -35 18q-25 18 -26 21q-4 14 3 34.5 t19 37t27.5 37t17.5 24.5q14 27 26.5 57.5t25 67t20.5 57.5q-70 115 -94 172q-6 16 -21.5 42t-19.5 36q-26 52 -26 80q0 9 3 16zM133 688q37 -115 115 -227q39 -57 39 -64l-21 -57q-31 -74 -53 -117q-6 -12 -12 -33.5t-11 -29.5q-2 -4 -23.5 -29t-23.5 -45q14 0 50 -2t57 0 q10 2 29.5 8t27.5 6q31 6 68 6q78 4 219 8.5t164 4.5q-25 25 -76 57q-63 47 -70 64q-5 11 -5 57q0 34 3 88q2 82 2 240q0 55 -12 69q-73 -8 -220 -8q-105 0 -247 4zM676 326q18 -10 39.5 -10.5t49.5 5t42 5.5q8 2 27.5 -2.5t29.5 -4.5q49 0 148 -12q22 -4 49 -3q18 0 37 1 q68 1 124 1q112 0 177 -5h57t55 -2q10 -2 32 -8t32 -8q28 -7 75 -7q20 0 42 1q78 4 119.5 8t118.5 13t116 13q131 10 293 15q19 0 67 4q32 3 52 3q10 0 18 -1q6 0 21.5 -4t25.5 -4h100q12 0 44 -5.5t49 -5.5q29 0 85 8.5t83 8.5q38 0 122 -8q57 -6 98 -6q19 0 34 1 q0 37 3 185q1 50 1 86q0 73 -4 94q0 8 -4.5 24.5t-4.5 24.5q0 14 4.5 42t4.5 50.5t-9 42.5h-14q-47 0 -122 10q-87 12 -124 13q-39 0 -114.5 -8.5t-112.5 -8.5h-22q-39 0 -100 4q-81 6 -118 7q-52 0 -158 2q-53 1 -92.5 1t-66.5 -1q-16 0 -45 5t-41 5q-16 0 -48 -1t-57.5 -1 t-50.5 2q-18 1 -48 1h-32.5h-31.5q-30 0 -48 1q-268 21 -407 21q-53 0 -88 -3q-25 -2 -70 -12t-67 -12q-72 -8 -198 -14.5t-171 -10.5q-3 -59 -3 -157q0 -49 1 -108v-84q0 -117 -4 -191zM707 254q98 -98 215 -121q-10 27 -14.5 72t-6.5 57q-31 1 -53 1h-18q-24 -1 -65.5 -5 t-57.5 -4zM2899 177q-1 -13 3 -42q18 2 32.5 10.5t32 25.5t23.5 22q4 2 30.5 19t35.5 32q-89 17 -129 17q-11 0 -19 -1q0 -12 -4 -41t-5 -42zM2984 90h60t61 2q10 0 31.5 5t31.5 5q4 0 17.5 -3t19.5 -1q14 2 43 15.5t47 15.5h119q10 0 96 3t123 3q-6 43 -48 106.5t-48 77.5 q-31 66 -31 88q0 12 37 66q8 12 19.5 35.5t17.5 32.5q8 12 30.5 40.5t34 52t13.5 52.5q-25 0 -74 14.5t-72 16.5q-2 0 -149 -6q-100 -8 -150 -19q-5 -26 -5 -57q0 -24 3 -51v-170q0 -10 2 -34t2 -36t-8 -25.5t-24 -19.5q0 -12 -1 -21.5t-3.5 -15.5t-9.5 -14t-9 -10 t-12 -10.5t-13 -10.5q-16 -12 -52 -37.5t-59.5 -46t-39.5 -43.5z" />
<glyph unicode="a" horiz-adv-x="3862" d="M45 741q8 16 26.5 20.5t59.5 0.5l41 -6q29 -2 367 -2q27 0 29 -120q0 -120 10 -234q9 -105 48 -106q3 0 7 1q1 2 1 10q0 46 -20 293q-18 216 -18 280q0 22 2 27q4 8 18.5 14.5t18.5 14.5q47 10 143 10t119 2q16 2 44 8.5t40 8.5t35.5 1t34.5 -1q27 2 77 10t72 10 q80 3 128 3h22q50 -1 146.5 -7t150.5 -8q8 0 27.5 -4t29.5 -4h76h75q7 -2 30 -2q17 0 43 1q61 3 73 3t33.5 -4.5t31.5 -4.5q2 0 70 7q18 0 52 -5.5t46 -5.5q58 -4 172 -4q77 0 179 2q104 0 215 13q12 1 27 1q39 0 97 -8q82 -10 119 -10q13 0 63 12q33 8 50 7q9 0 14 -2 q23 -12 27 -176q2 -82 2 -159q0 -78 -2 -150q-1 -41 -1 -74q0 -83 7 -117q11 -6 20 -6q28 0 37 61q4 21 4 79q0 73 -6 204q-1 27 -1 50q0 110 24 113q12 6 54 2t54 -4q10 0 40 7.5t44 7.5h8q31 -1 81 -13q58 -14 83 -14h19.5h21t19.5 -1t19 -3t14.5 -5t12.5 -8t7 -13.5 t-4 -23.5t-15.5 -35.5t-13.5 -29.5q-16 -35 -48 -85t-46 -74q-2 -4 -15 -20q-12 -18 -21 -34q-9 -17 -9 -27q0 -21 29 -79q4 -8 22.5 -30.5t24.5 -37.5q6 -12 15 -34.5t13 -30.5q4 -6 22.5 -29.5t28 -42t5.5 -31.5q-8 -28 -102 -28h-7q-134 7 -200 7q-26 0 -41 -1h-107 q-14 -2 -37.5 -13.5t-34 -13.5t-29 -2h-28.5q-101 -11 -176 -11q-81 0 -131 13q-8 4 -4 21.5t2 23.5t-9.5 18.5t-9.5 20.5q-2 17 4 63q4 28 5 50q0 13 -2 24q-64 -4 -142.5 -4t-169.5 4q-12 0 -34.5 4.5t-32.5 4.5l-136 -7q-98 -2 -319 -20t-307 -21q-10 -1 -23 -1 q-32 0 -82 4q-16 2 -51 9t-53 9q-8 2 -23.5 0t-21.5 -2q-28 0 -86 6q-44 4 -71 4h-17q-33 0 -94.5 -2t-112.5 -2t-96 4q-5 -12 -5 -27q0 -33 20 -77q14 -31 14 -54q0 -26 -17 -41q-22 -26 -55 -26h-2q-10 0 -26.5 11t-25.5 13q-2 1 -10 1q-26 0 -115 -5q-16 -2 -43.5 5.5 t-39.5 7.5q-6 0 -22.5 -3.5t-23.5 -3.5q-16 -1 -40 -1q-30 0 -72 2q-34 1 -61 1q-32 0 -52 -2q-25 0 -70 -9t-63 -11q-6 -2 -35.5 0t-36.5 2q-8 0 -29.5 -4t-33.5 -2l-33 18q-25 16 -27 21q-6 16 6.5 44t35 56.5t24.5 32.5q16 29 72 182q-68 117 -92 172q-6 14 -21.5 41 t-21.5 39q-25 49 -25 77q0 11 4 19zM705 266q102 -98 213 -121q-8 25 -12.5 69t-8.5 60q-31 1 -52 1h-19q-24 -1 -64.5 -5t-56.5 -4zM2896 189.5q0 -13.5 4 -42.5q18 2 31.5 11.5t31 25t23.5 21.5q8 6 24.5 15t26.5 18.5t17 19.5q-85 15 -128 15q-13 0 -22 -1 q0 -12 -4 -40.5t-4 -42z" />
<glyph unicode="b" horiz-adv-x="1730" d="M36 854q1 10 7 29q4 6 19.5 13t19.5 11q6 4 11 10.5t11.5 15.5t10.5 13q74 91 74 171q0 38 -17 73q-2 6 -14.5 20.5t-19.5 29.5t-5 30q4 20 32 23t58.5 -2t57.5 5q55 23 108 64q12 10 30.5 33.5t20.5 42.5q2 12 -4 50q-4 23 -4 41q0 11 2 23q4 26 29 31q18 2 55 -22.5 t49 -26.5q14 -2 27.5 -3t27 0t21.5 1t22.5 5t19.5 6t21.5 8t17.5 8.5t21 11.5l19 8q12 4 25.5 37t32 54.5t46.5 8.5q12 -6 20.5 -35.5t14.5 -39.5q20 -31 67.5 -54.5t94.5 -27.5q76 0 102 12q8 4 25.5 28.5t32.5 26.5q27 4 37 -14.5t6 -43t-6 -46t2 -23.5q2 -33 32 -76 q2 -4 10.5 -16t12.5 -16q2 -2 10 -6.5t12 -6.5q43 -39 105 -45h33.5t39 -5t17.5 -19q2 -10 -4 -20.5t-17.5 -23t-15.5 -20.5q-17 -34 -17 -70q0 -38 18 -78q36 -80 93 -130q4 -4 20.5 -14.5t26 -20.5t9.5 -23q-4 -33 -43 -39q-4 -4 -33 -31.5t-38 -39.5t-20.5 -40t-11.5 -58 q0 -47 27 -127q2 -6 10 -22.5t12 -26t1 -21.5t-17 -21q-10 -8 -45 -3t-43 3q-16 -6 -49 -31.5t-47 -41.5q-55 -63 -58 -121q0 -12 4.5 -44t-2.5 -46q-14 -20 -30.5 -21.5t-27.5 9t-28.5 25.5t-27.5 20q-24 10 -63 10q-30 0 -70 -6q-47 -10 -88 -41t-54 -72q-2 -4 -5 -20.5 t-6 -24.5t-13.5 -15.5t-24.5 -7.5q-14 2 -20.5 11.5t-11.5 34t-7 34.5q-21 66 -83 104q-47 28 -105 28q-20 0 -41 -3q-37 -4 -64 -20q-4 -2 -23.5 -23.5t-31.5 -25.5t-37 4q-10 12 -9 22.5t5 30.5t4 29q0 35 -20 75q-20 45 -79 79q-56 32 -113 32h-7q-6 0 -21.5 -3t-26.5 -4 t-22.5 4t-15.5 19q-2 10 1 19.5t11.5 21t12.5 19.5q31 68 31 131q0 9 -1 18q-2 33 -32.5 70t-36.5 57q-4 4 -20.5 13.5t-26 16.5t-21.5 20.5t-11 23.5zM139 858q8 -10 37 -47t47.5 -66.5t26.5 -58.5q6 -39 4 -58.5t-10 -60.5t-11 -63q225 -39 271 -223q79 18 140 18 q72 0 118 -25q20 -10 39.5 -27.5t40 -40t32.5 -32.5q44 66 142 88q54 12 112 11q45 0 93 -7q37 104 69 148q14 18 51 43.5t48 34.5q29 29 69 30q-4 18 -12 49t-12 55.5t-4 49.5q4 88 108 196q-125 132 -125 273q0 37 8 74q-195 43 -241 235q-10 1 -21 1q-20 0 -47 -4 q-41 -7 -57 -7q-55 2 -135 47q-49 23 -56 27q-4 2 -9 12t-9 13t-19 -1q-4 -2 -43 -28.5t-61 -34.5q-53 -17 -166 -17h-35q-23 -96 -89 -152.5t-179 -107.5q-4 -6 -1 -29.5t3 -29.5v-12q0 -39 -12 -78q-14 -45 -24.5 -66.5t-43.5 -71t-37 -57.5z" />
<glyph unicode="c" horiz-adv-x="1681" d="M17 854q1 10 8 29q4 6 19 14t19 10q10 6 33 39q75 91 75 171q0 38 -17 73q-2 6 -14.5 20.5t-19.5 29.5t-5 30q4 20 31.5 23t59.5 -2t58 5q61 25 109 64q41 35 51 76q2 12 -4 50q-4 25 -4 46q0 10 1 18q3 26 27 31q18 2 55.5 -22.5t51.5 -26.5q16 -2 31.5 -3t27 -1t25.5 4 t22.5 6t23.5 8t20.5 8t23.5 11.5t23 11.5q6 1 36 59q23 44 50 45q8 0 16 -4q10 -4 15 -16t10.5 -30.5t11.5 -28.5q18 -31 65 -54.5t95 -27.5q78 0 102 12q8 4 26.5 28.5t30.5 26.5q27 4 37 -14.5t6 -43t-6 -46t2 -23.5q2 -37 35 -76q18 -31 20.5 -32.5t11.5 -5t13 -7.5 q49 -41 102 -45h34t39 -5t18 -19q2 -10 -3.5 -20.5t-16.5 -23t-15 -20.5q-18 -34 -17.5 -71t17.5 -77q35 -80 92 -130q4 -4 21.5 -14.5t25.5 -20.5t8 -23q0 -33 -43 -39q-4 -4 -32.5 -31.5t-38 -39.5t-20.5 -40t-11 -58q0 -47 26 -127q2 -6 10.5 -22.5t12.5 -26t1 -21.5 t-17 -21q-10 -8 -45 -3t-41 3q-51 -18 -99 -73q-53 -66 -57 -121q0 -14 4 -43t0 -47q-14 -20 -30.5 -21.5t-29 9t-28.5 25.5t-27 20q-26 10 -65 10q-30 0 -68 -6q-47 -10 -88 -41t-55 -72q-2 -4 -5 -20.5t-6.5 -24.5t-12.5 -15.5t-23 -7.5q-14 2 -20.5 11.5t-11.5 34 t-9 34.5q-20 66 -82 104q-46 28 -106 28q-20 0 -42 -3q-37 -4 -63 -20q-4 -2 -23.5 -22.5t-31 -25.5t-35.5 3q-10 8 -10 21.5t5 32.5t5 28q0 25 -21 75q-21 45 -79 79q-55 32 -114 32h-7t-28 -5t-38 -1t-18 22q-2 10 0 19.5t11 22t13 18.5q30 66 30 124q0 13 -1 25 q-2 33 -33 70t-37 57q-4 4 -20.5 13.5t-25.5 16.5t-21.5 20.5t-11.5 23.5z" />
<glyph unicode="d" horiz-adv-x="2701" d="M55 811q2 6 8.5 11t18.5 11.5t18 10.5q10 6 32 22.5t36 22.5q12 6 37.5 16t38.5 17q33 18 96 71.5t100 73.5q74 41 103 55q18 10 50 33t50 31q35 20 108.5 59t108.5 60q41 23 108.5 76t102.5 73q18 10 59 30.5t60 33.5q35 23 88 49q4 2 18.5 11t23.5 14t22.5 9.5 t25.5 2.5q10 -2 28.5 -12.5t33 -23t35 -27.5t24.5 -19q68 -53 246 -154q20 -12 51 -31.5t55.5 -34t50.5 -26.5q23 -10 70 -39t72 -39q211 -109 280 -160q20 -16 77.5 -71.5t94.5 -77.5q45 -25 76 -31q18 -2 29.5 0t21 -1t17.5 -15q-2 -20 -10.5 -37t-25 -30t-27.5 -21.5 t-33.5 -21.5t-30.5 -17q-61 -43 -76 -53q-10 -6 -33.5 -26t-38.5 -28q-23 -14 -65.5 -34.5t-59.5 -28.5q-10 -6 -53 -31t-68 -37q-45 -23 -124.5 -73t-110.5 -66q-152 -82 -229 -143q-12 -10 -226 -152q-6 -4 -16 -13.5t-16.5 -14.5t-15.5 -9t-17 1t-19 20q-27 -6 -32 0 q-20 10 -63.5 26.5t-63.5 28.5q-14 8 -28.5 19.5t-32 26.5t-28.5 24q-12 10 -43.5 31.5t-46.5 33.5q-29 23 -94 64q-86 53 -96 57q-150 61 -162 68q-33 18 -76 38q-14 8 -40.5 17.5t-36.5 15.5q-14 8 -34 30.5t-30 31.5q-41 35 -128 80t-107 59q-20 23 -76 59 q-4 2 -20.5 12.5t-23.5 15.5t-13.5 18.5t-4.5 27.5z" />
<glyph unicode="e" horiz-adv-x="2670" d="M29 798.5q-2 10.5 0 22.5q4 10 45 33q10 6 31.5 22.5t35.5 22.5q8 4 35 15.5t41 19.5q33 18 96.5 71.5t100.5 73.5l102 54q18 8 50 31.5t50 31.5q35 20 109 59t109 60q41 23 109.5 77t100.5 74q16 10 57.5 30t61.5 34q43 25 88 47q4 2 18.5 11t24 14.5t22.5 9.5t25 2 q27 -4 121 -82q68 -53 246 -154q154 -90 158 -92q27 -12 75 -39.5t66 -38.5q203 -98 281 -159q23 -16 79 -71.5t93 -78.5q39 -20 75 -29q18 -4 29.5 -2t21 -1t17.5 -15q-2 -18 -10 -34.5t-24.5 -31t-28 -22.5t-35 -21.5t-29.5 -17.5q-16 -10 -43 -28.5t-33 -22.5 q-10 -8 -34.5 -27.5t-36.5 -28.5q-20 -12 -63.5 -32.5t-61.5 -30.5q-102 -57 -121 -66q-41 -23 -119 -70.5t-117 -68.5q-143 -78 -229 -145q-12 -10 -225 -152q-6 -4 -16.5 -13t-16.5 -14.5t-15.5 -8.5t-17.5 2.5t-18 19.5q-27 -6 -33 0q-23 12 -66 27.5t-61 25.5 q-14 8 -28.5 19.5t-32 27t-27.5 23.5q-12 8 -44 31.5t-46 35.5q-51 37 -94 64q-84 53 -97 57q-119 43 -162 66q-33 18 -75 39q-12 8 -39 18t-39 16q-14 8 -34.5 31t-29.5 29q-41 35 -128 80t-107 59q-25 29 -76 62q-4 2 -16.5 8t-18.5 11t-15 12t-11 17.5zM135 813 q55 -55 178 -125q39 -20 95 -57q16 -10 42.5 -35t41.5 -35q8 -6 108 -53q20 -10 57 -30.5t54 -28.5q18 -8 67 -22.5t74 -29.5q23 -12 62.5 -40.5t52.5 -37.5q37 -25 111.5 -81t115.5 -82q66 -14 135 -60q152 88 201 123q12 8 32.5 25.5t38 31t33.5 23.5q10 6 31 17.5 t31 17.5q6 4 24.5 20.5t28.5 22.5q35 20 111.5 58t115.5 61q12 6 34 23.5t34 23.5q20 12 180 94q53 27 143.5 94.5t104.5 75.5q-6 10 -24.5 17.5t-22.5 9.5q-33 20 -84 69t-72 66q-8 6 -27.5 19t-29.5 22q-20 16 -44 29.5t-59.5 29.5t-50.5 25q-27 14 -85 47t-103 55.5 t-90 38.5q-53 45 -199.5 129t-206.5 147q-6 0 -29.5 12.5t-35.5 2.5q-59 -14 -119 -51q-25 -16 -109 -62q-25 -14 -135 -96q-61 -43 -186 -109.5t-172 -95.5q-6 -4 -24.5 -19.5t-28.5 -19.5q-6 -4 -18.5 -6t-18.5 -6q-8 -4 -21.5 -17.5t-19.5 -17.5q-16 -10 -116.5 -83 t-160.5 -97q-2 -2 -12 -4t-15.5 -5t-11.5 -9.5t-6 -14.5z" />
<glyph unicode="f" horiz-adv-x="1159" d="M47 831.5q10 14.5 24.5 31t18.5 22.5q18 25 57 73q43 49 105 156q45 84 143.5 229.5t136.5 212.5q0 6 4.5 9.5t6.5 11.5q14 18 25.5 24.5t23.5 -3t18 -15.5t19.5 -27.5t13.5 -23.5q61 -84 203 -299l201 -305q2 -2 22.5 -30t30.5 -45t10 -28q0 -12 -9 -28.5t-27.5 -39 t-20.5 -24.5q-43 -59 -116 -175t-106 -165q-25 -37 -58.5 -104.5t-49.5 -95.5q-29 -47 -88 -127q-8 -12 -20.5 -23.5t-27 -20t-26.5 -0.5t-16 35q-158 188 -195 250q-8 14 -35.5 69.5t-46.5 82.5q-8 14 -24.5 35.5t-22.5 31.5q-4 4 -43 72q-8 12 -29.5 35.5t-29.5 36.5 q-8 10 -20.5 33.5t-22.5 35.5q-39 54 -39 69q0 9 10 23.5zM119 803q0 -23 69 -105q41 -57 68 -106q10 -16 39 -55t43 -64q135 -223 201 -299q37 -47 50 -47h1q10 0 18 11.5t21.5 35t17.5 29.5q2 4 13.5 15t13.5 18q16 29 41.5 88t40.5 84q14 23 43.5 61.5t40.5 52.5 q39 55 88 160q6 6 49 63q4 6 16.5 20.5t20.5 28t8 21.5q0 20 -43 82l-148 227l-247 369q-2 0 -4 2t-5 2q-14 -14 -29.5 -48t-23.5 -44q-10 -16 -35.5 -43t-35.5 -41q-4 -6 -7.5 -17.5t-7.5 -15.5q-6 -10 -26.5 -48t-34.5 -56l-13.5 -13.5t-13.5 -15.5q-4 -8 -9 -22.5 t-9 -20.5q-2 -4 -14.5 -16.5t-16.5 -20.5q-4 -6 -6 -19.5t-6 -19.5q-8 -16 -21.5 -32.5t-34 -40t-32.5 -39.5q-6 -6 -31 -35t-37 -49.5t-12 -36.5z" />
<glyph unicode="g" horiz-adv-x="1146" d="M30.5 827.5q10.5 14.5 25 32t18.5 23.5q23 31 59 71q41 49 103 158q45 80 142 225.5t138 216.5q0 6 5 13.5t5 13.5q12 18 24.5 23.5t24 -4t19.5 -19.5t19.5 -27.5t15.5 -23.5q41 -55 112.5 -162.5t89.5 -136.5l199 -305q4 -8 22.5 -33t30 -43.5t11.5 -28.5 q0 -12 -9.5 -28.5t-28 -37t-20.5 -24.5q-43 -57 -113.5 -174t-107.5 -168q-23 -35 -56.5 -101.5t-51.5 -97.5q-29 -47 -89 -127q-8 -12 -20 -24t-26.5 -20.5t-27 -0.5t-16.5 35q-16 18 -49 57.5t-53 64t-47 61t-45 69.5q-14 25 -40 76t-40 76q-33 45 -49 65l-43 74 q-8 12 -29.5 35.5t-30.5 36.5q-8 10 -20 33.5t-23 35.5q-39 51 -39 68q0 8 10.5 22.5z" />
<glyph unicode="h" horiz-adv-x="1648" d="M27 856q0 6 8 11t22.5 13.5t18.5 12.5t82 76q10 10 40.5 34.5t45.5 40.5l49 58q12 14 46 52t54 58q8 10 28.5 25.5t29.5 22.5q20 18 50.5 59t45.5 55q53 51 94 78q10 8 32.5 20.5t33.5 18.5q74 53 94 127q12 6 21 8t15.5 2t14.5 -7t10 -9t10.5 -14.5t10.5 -14.5 q6 -8 20.5 -21.5t18.5 -19.5t11 -20.5t13 -20.5q23 -33 56.5 -67.5t52 -52t71 -62.5t60.5 -53q14 -12 38.5 -37t45 -44.5t39.5 -35.5q78 -68 121 -115q6 -6 15 -23.5t15 -23.5q12 -14 43 -48t39 -44q4 -6 17.5 -17.5t20.5 -20.5t7 -19q0 -14 -7 -25.5t-23.5 -24t-20.5 -16.5 q-12 -10 -31.5 -37.5t-25.5 -36.5q-4 -4 -58 -69q-10 -10 -34.5 -28.5t-35 -29t-29.5 -33t-32 -32.5q-2 -2 -12 -6t-14 -8q-6 -6 -15.5 -21.5t-15.5 -21.5q-20 -23 -70.5 -63t-70.5 -64q-10 -10 -26.5 -34t-23.5 -30q-6 -10 -18 -33.5t-20 -36.5q-31 -43 -101 -100 q-6 -6 -22.5 -15.5t-22.5 -15.5q-4 -4 -12 -13t-14.5 -14t-12.5 -5q-16 0 -33.5 14t-39 43t-23.5 31q-57 57 -98 88q-20 20 -55 61t-65 73t-59 56q-49 74 -167.5 184.5t-161.5 163.5q-6 6 -34 32t-44 47.5t-12 37.5zM123 836q39 -49 122 -128t113 -114q35 -23 117 -119 q18 -23 59 -63.5t56 -57.5q78 -86 115 -118q8 -6 33.5 -36t50 -51.5t36.5 -21.5q20 4 47 35q59 55 111 129q57 88 129 147q8 8 27.5 19.5t27.5 17.5q12 10 31 37t29 37q4 4 15 8t15.5 8t12.5 18.5t14 18.5q10 10 35 31q113 98 174 205q-154 190 -242 264q-16 14 -141 133 q-4 4 -27.5 25.5t-29.5 27.5t-27.5 25.5t-30 28t-27 26.5t-27.5 28.5t-24.5 28t-25.5 30.5t-22.5 30.5t-22.5 34.5h-2l-4 2q-14 -10 -40 -38t-38 -38q-18 -14 -62.5 -40t-64.5 -44l-49 -45q-10 -12 -35 -45t-41 -49q-10 -12 -35.5 -29.5t-36.5 -28.5q-18 -18 -50 -56 t-44 -50q-14 -14 -46 -55t-50 -58q-6 -4 -23.5 -13t-25.5 -15q-2 0 -76 -82z" />
<glyph unicode="i" horiz-adv-x="1636" d="M14 860q0 6 8.5 11.5t22.5 13.5t18.5 12t81.5 76q10 10 41 34.5t45 41.5l50 57q16 16 48.5 55t51.5 58q8 8 27.5 22t29.5 23q20 18 51 59t46 55q53 51 94 78q10 8 33.5 20.5t31.5 18.5q76 57 94 129q12 6 21.5 7t15.5 1t14.5 -7t10.5 -9t10 -14.5t10 -14.5 q6 -10 21.5 -22.5t17.5 -16.5q4 -6 12.5 -21.5t12.5 -21.5q23 -31 54.5 -64.5t55 -56t66.5 -59.5t64 -55q109 -102 122 -115q78 -68 121 -115q4 -6 14.5 -23.5t16.5 -25.5t82 -90q6 -8 18.5 -19.5t19.5 -20.5t7 -17q0 -16 -6 -26.5t-23.5 -24t-21.5 -17.5 q-12 -10 -30.5 -35.5t-27.5 -35.5q-53 -66 -57 -70q-10 -12 -35.5 -30.5t-34.5 -26.5q-10 -10 -29.5 -34t-31.5 -34q-4 -2 -14.5 -6t-12.5 -8q-6 -6 -15 -21.5t-15 -21.5q-20 -23 -70.5 -63t-71.5 -64q-10 -10 -26.5 -34t-22.5 -30q-6 -10 -18.5 -33.5t-20.5 -35.5 q-31 -43 -100 -101q-6 -4 -22.5 -13t-22.5 -16q-4 -4 -12.5 -14t-14.5 -15t-12 -5q-16 0 -33.5 14t-39 43t-23.5 31q-47 49 -99 88q-20 20 -55 61t-64.5 73t-58.5 56q-49 74 -168 184.5t-162 163.5q-6 6 -33.5 32t-44 47.5t-12.5 37.5z" />
<glyph unicode="j" horiz-adv-x="1601" d="M45 1122q-2 12 5 28.5t22.5 37t19.5 26.5q94 143 113 162q10 12 34.5 44t43 50.5t41.5 30.5q8 6 29.5 11.5t27.5 9.5q10 6 34.5 25.5t39.5 25.5q76 41 86 43q8 2 24.5 3t22.5 3q8 2 24.5 9t24.5 9q10 2 30.5 3.5t30.5 3.5q31 6 62 8t68 2t57 2q24 1 47 1q204 0 340 -95 q49 -35 104.5 -92.5t83.5 -106.5q57 -106 72 -170q6 -20 8 -38.5t-7 -36t-34 -15.5q-16 0 -24.5 16.5t-15.5 50t-11 48.5q-33 86 -62 129q-53 86 -153 157q-88 63 -248 78q-8 0 -29.5 6t-32 6t-31 -4t-28.5 -4h-46t-56 -4q-92 -10 -111 -14q-8 -2 -23.5 -9.5t-23.5 -9.5 t-24.5 -3t-24.5 -3q-27 -6 -77 -38.5t-62 -39.5q-8 -4 -32 -14t-34 -16q-25 -16 -63 -70q-14 -23 -46 -62.5t-48 -60.5q-2 -4 -28 -47t-48.5 -70.5t-38.5 -27.5q-27 0 -33 22zM47 522q2 8 15.5 18.5t23.5 10.5q8 0 13 -8t10.5 -22.5t11.5 -22.5q41 -53 45 -58 q195 -238 354 -299q119 -46 250 -46q139 0 291 52q16 4 49 18.5t35 14.5q70 25 82 33q8 4 24.5 20.5t26.5 22.5q76 45 125 125q14 23 65 129q8 27 37 33q10 0 19.5 2t13.5 -3l6 -7.5t1 -10.5t-2 -13t-4 -14.5t-6 -14.5t-7 -14t-6 -13q-72 -174 -158 -234q-10 -6 -29.5 -17 t-29.5 -18q-63 -47 -142 -75q-242 -89 -445 -89q-17 0 -34 1q-86 2 -289 79q-23 8 -34 15.5t-24 23t-28 27.5q-8 8 -23.5 21.5t-27.5 23.5t-20 20q-27 27 -65 84.5t-54 77.5q-70 80 -70 121v6zM375 1140.5q4 16.5 13 33t20 28.5q25 29 88 70t110 57q6 2 20.5 3t22.5 3 q109 25 139 27h7q13 1 32 1q37 0 97 -3q59 -6 113.5 -33t82.5 -59q2 -2 49 -76q6 -8 19.5 -22.5t22 -25.5t8.5 -24q0 -16 -13.5 -29.5t-27.5 -13.5q-8 0 -16.5 5t-16.5 16.5t-14.5 19.5t-14.5 21.5t-10 17.5q-25 39 -43.5 60.5t-52 42t-76.5 26.5q-38 6 -82 6 q-99 0 -223 -32q-35 -8 -90.5 -42t-79.5 -61q-8 -8 -17.5 -23.5t-17.5 -23.5t-21 -8q-20 0 -26 11t-2 27.5zM387 555q8 8 16 8q14 2 36 -15.5t45.5 -43t29.5 -29.5q102 -82 276 -96q24 -2 46 -2q144 0 239 78q23 18 45 45q4 6 11.5 23.5t18 29.5t28.5 14q35 4 41 -28v-2 q0 -21 -50 -88q-29 -35 -55 -54q-109 -92 -293 -92q-205 0 -360 125q-84 68 -84 104q0 13 10 23z" />
<glyph unicode="k" horiz-adv-x="1701" d="M16.5 865q-0.5 40 8.5 61q4 10 16 22.5t14 16.5q10 14 24.5 43.5t20.5 40.5q4 41 9 137v37.5t1 32t8 27.5t19 24q18 14 135 49q25 6 42.5 23.5t23.5 30.5t22 50q31 78 37 86q6 6 30 21.5t34 17.5q6 2 21.5 -2t23.5 -4q8 -2 21.5 0t19.5 2q12 0 40.5 -5t48 -4t38.5 9 q8 4 24.5 18.5t24.5 20.5q6 4 24.5 21.5t34 24.5t37.5 9h15q91 0 157 -69q4 -4 25.5 -35t36.5 -35q6 -2 15 -2q25 0 73 13q44 12 75 12q15 0 27 -3q61 -45 88 -86q6 -10 14.5 -31.5t17.5 -38t19 -24.5q14 -10 55.5 -30.5t69 -43t33.5 -51.5l2 -12q0 -18 -2 -58 q-1 -20 -1 -37.5t1 -33.5q2 -31 12 -57q8 -19 62 -99q50 -74 49 -122v-7q-2 -27 -39 -78t-45 -81q-4 -14 -4 -40q0 -28 5 -68q3 -28 3 -50q0 -39 -10 -59q-18 -43 -37 -56q-8 -8 -21.5 -12t-31 -8t-25.5 -6q-16 -6 -40.5 -27t-39.5 -25q-6 -18 -19 -64t-26.5 -76t-34.5 -48 q-49 -21 -88 -21q-15 0 -28 3q-10 2 -28.5 11t-29.5 11q-57 14 -108 14q-31 0 -50.5 -13t-45 -48t-31.5 -41q-29 -16 -63 -16q-58 0 -130 49q-8 4 -14 14t-14 16q-47 44 -78 44q-8 0 -15 -3q-39 -14 -107 -15h-15q-55 0 -64 7q-14 6 -24.5 16.5t-14.5 17.5t-11 23.5 t-11 22.5t-9.5 24.5t-13.5 28.5q-4 8 -11 22.5t-13.5 23t-14.5 12.5q-6 2 -21.5 2t-23.5 4q-47 10 -76 33q-6 4 -20 28.5t-16 38.5q0 4 -2.5 17.5t-2.5 19.5q0 10 -1 30.5t-1 35.5q2 10 6.5 23t4.5 16q1 11 1 22q0 87 -44 154q-2 4 -20.5 22.5t-24.5 30.5q-8 18 -8.5 58z " />
<glyph unicode="l" horiz-adv-x="1726" d="M33 862q0 41 8 60q4 10 16.5 22t14.5 17q10 16 24.5 45.5t20.5 40.5q4 39 8 135v38.5t1 33t8 26.5t20 23q14 10 33.5 18t57.5 18.5t44 12.5q25 8 42 24.5t24 29.5t22 50q31 78 37 86q4 6 28.5 21.5t34.5 17.5q6 2 21.5 -2t23.5 -4t21.5 2t19.5 2q10 -2 31.5 -5t34 -5 t30 0t31.5 10q8 2 15.5 8t17.5 16.5t16 14.5t24.5 21.5t34 24.5t38.5 7q7 0 15 1q91 0 157 -70q4 -4 25.5 -35t35.5 -35q4 -1 10 -1q25 0 79 14q45 12 75 12q15 0 27 -3q63 -51 88 -88q2 -2 19 -42t32 -52q12 -10 54 -29.5t69.5 -42t33.5 -51.5q0 -6 3 -12q0 -18 -2 -58 q-1 -20 -1.5 -38t1.5 -34q2 -32 12 -58q8 -19 61 -99q49 -74 49 -122v-7q-2 -27 -38.5 -78t-44.5 -81q-4 -14 -5 -40q-1 -28 5 -68q3 -28 4 -50q0 -39 -11 -60q-18 -43 -37 -55q-12 -8 -40.5 -16t-36.5 -11q-16 -6 -42 -25.5t-38 -25.5q-6 -18 -19.5 -64t-27 -76t-33.5 -48 q-51 -22 -91 -22q-14 0 -26 3q-8 2 -27.5 10.5t-29.5 12.5q-60 14 -100 14h-9q-23 0 -43 -11t-29.5 -22.5t-28 -35t-26.5 -33.5q-29 -16 -63 -16q-58 0 -129 49q-6 4 -13.5 8t-16.5 9t-13 7q-10 6 -23.5 19.5t-26 20.5t-28.5 9h-8q-23 0 -62 -9q-34 -8 -75 -8q-15 0 -31 1 q-12 6 -18.5 19.5t-12.5 33t-12 29.5q-4 10 -19.5 30.5t-21.5 30.5q-31 47 -49 54q-6 4 -22.5 4t-22.5 2q-63 25 -76 33q-29 29 -37 67q0 2 2 18.5t0 22.5q0 8 -2 29.5t0 36.5q4 33 4 34q1 11 1 22q0 90 -44 155q-4 6 -21.5 23.5t-23.5 31.5q-8 16 -8 57zM104 877 q-2 -18 5.5 -36t22.5 -36.5t18 -22.5q50 -81 50 -187q0 -12 -1 -24q-4 -59 -4 -61q0 -10 10 -38t12 -44q20 -14 62.5 -25.5t58.5 -21.5q12 -8 21.5 -20.5t22.5 -36t19 -31.5q6 -10 18.5 -25.5t22 -29t13.5 -29.5q23 0 69 7q36 5 58 5h12q22 -2 42.5 -10t30 -14.5t32 -22.5 t28.5 -20q70 -47 76 -50q23 -12 40 -5t24 16.5t20.5 28t27.5 28.5q16 14 60 33q43 16 61 16q2 0 9.5 -4t14.5 -6t11 -2q10 -2 37 -3t39 -3t44 -11.5t44 -9.5t37 8q16 27 33.5 90.5t42.5 88.5q47 49 104 65q8 2 19.5 5t18.5 5t14 5.5t12.5 9.5t9.5 16q1 12 1 29q1 35 -5 90 q-3 32 -4 54q0 34 8 46q6 20 43 68q35 45 35 63q0 22 -48 97q-6 10 -18 28.5t-21.5 32.5t-15.5 29q-8 25 -12 52.5t-5 48t-1 57t-2 61.5q-20 29 -78 53t-78 51q-10 12 -25.5 49t-33 65t-33.5 32q-8 3 -21 3q-26 0 -72 -12q-60 -16 -84 -16h-5q-33 4 -66 51t-35 49 q-22 22 -60 36q-21 7 -39 8q-15 0 -28 -5q-4 0 -7 -4t-7 -9t-8 -9q-6 -6 -19.5 -11.5t-15.5 -7.5q-4 -4 -13.5 -19t-19.5 -19q-33 -16 -78 -18h-18q-35 0 -66 5q-20 3 -42.5 3t-47.5 -3q-14 -23 -40.5 -82t-53.5 -91t-72 -46q-10 -4 -37.5 -8t-46 -12.5t-30.5 -26.5 q-4 -29 -5 -86t-7.5 -98t-20.5 -74q-4 -8 -33 -47t-31 -55z" />
<glyph unicode="m" horiz-adv-x="1722" d="M29 795q-2 4 2 15t4 15v40q0 192 35 284q29 70 69 139q4 8 12.5 24.5t12.5 22.5q6 10 23.5 27.5t25.5 26.5q41 53 96 96q8 6 25.5 22.5t25.5 22.5q16 12 52.5 31.5t50.5 29.5q47 27 106 58q10 4 127 34q97 29 160 35q10 1 20 1q112 0 259 -60q254 -100 356 -260 q8 -10 20.5 -36t20.5 -38q106 -201 121 -291q3 -18 3 -45q0 -14 -1 -30q-1 -24 -1 -42.5t1 -31.5q4 -53 4 -89t-4 -55q-33 -170 -94 -270q-6 -10 -24.5 -28.5t-27 -29t-25 -39t-26.5 -42.5q-4 -6 -16 -16.5t-16.5 -16.5t-11.5 -19.5t-13 -19.5q-8 -10 -55 -51 q-10 -10 -35 -22.5t-31 -16.5q-8 -6 -22.5 -20.5t-22.5 -20.5q-10 -6 -34.5 -15.5t-33.5 -13.5q-47 -29 -63 -34q-2 0 -82 -13l-55 -11t-76 -9q-115 2 -232 33q-18 6 -51 19t-47 17t-48 16.5t-52 16.5q-6 2 -24.5 4t-26.5 6q-18 6 -36 21.5t-38.5 37t-32.5 32.5 q-8 8 -28.5 19t-26.5 17q-14 14 -64 97q-37 70 -53 106q-35 74 -61 180q-4 18 -13.5 51t-13.5 52q-2 8 -8 20.5t-6 16.5zM99 892q-3 -13 3.5 -46t5 -44t7 -41t9.5 -40t10 -39t11 -38t12.5 -39t12.5 -38q18 -57 43 -102q41 -80 51 -94q10 -10 35 -26.5t35 -25.5 q12 -10 45 -48t57 -54q72 -12 211 -63q135 -45 238 -45l116 18q76 10 80 12q8 4 25.5 16.5t28 16.5t33 11t30.5 14q8 4 24.5 18t24.5 21q6 4 22.5 12t22.5 12q25 18 46.5 43t49 61.5t39.5 53.5q143 174 164 370q2 16 -3 49t-5 44q0 14 2 45.5t0 50.5q-4 88 -63 215 q-80 168 -170 254q-8 8 -30 21.5t-28 17.5q-6 6 -23.5 22.5t-27.5 22.5q-25 14 -108 45q-10 4 -36 15.5t-41.5 16.5t-41 14t-45 14t-43 8.5t-47 3.5t-45.5 -5q-117 -23 -179 -40q-33 -8 -67.5 -24.5t-55 -29t-57.5 -36t-53 -33.5q-72 -45 -90 -62q-66 -53 -146 -184 q-23 -37 -45 -90q-2 -6 -11 -21.5t-11 -21.5q-16 -55 -21 -160q2 -35 -1 -48zM377 1305q-2 10 7 23t26 15q12 0 24 -9t27.5 -28.5t19.5 -23.5l297 -289q6 -6 17.5 -19t18.5 -21.5t18.5 -17.5t21.5 -15q51 45 144.5 137t134.5 129q88 80 108 125q29 20 57 8 q12 -14 15.5 -25.5t-8 -27t-13.5 -17.5t-20 -18q-6 -6 -18.5 -22.5t-18.5 -22.5q-10 -12 -41 -38t-45 -38l-162 -158q-4 -4 -21.5 -18t-26.5 -23.5t-18.5 -21.5t-9.5 -21q0 -10 7.5 -22t15.5 -19.5t24.5 -19.5t18.5 -14q74 -51 106 -107q18 -12 77 -70.5t112 -70.5 q9 -19 9 -42q0 -11 -2 -23q-7 -36 -38 -36q-10 0 -20.5 6.5t-22.5 18.5l-21.5 21.5t-21.5 23.5t-16 18q-104 104 -113 115q-20 23 -88 80q-8 6 -28.5 25.5t-37 33t-22.5 13.5q-12 -2 -53 -49l-64.5 -64.5t-87.5 -83.5q-106 -90 -153 -145q-39 -45 -52 -47q-7 -1 -13 -1 q-30 0 -34 33q0 10 8.5 21.5t26.5 27t21 17.5q10 10 25 30.5t30 32.5q20 18 59 48t49 38q8 8 41 45q8 8 44 43t58.5 58.5t43.5 50.5q-37 53 -89.5 105.5t-122 114t-100.5 91.5q-6 6 -16 22.5t-16 22.5q-4 4 -15.5 10.5t-15.5 10.5q-47 59 -47 74z" />
<glyph unicode="n" horiz-adv-x="1730" d="M37 799q0 4 3 14t3 16q0 221 39 324q39 90 72 137q6 8 13 25.5t11 23.5q6 8 23.5 24.5t25.5 27.5q49 61 99 96q10 8 29.5 25.5t21.5 19.5q14 10 50 29.5t52 29.5q43 27 107 56q16 8 36.5 14t48 11t42.5 9q114 29 161 33q10 1 19 1q107 0 258 -60q254 -102 356 -264 q6 -10 18.5 -37t18.5 -39q102 -182 119 -291q3 -13 3 -42q0 -14 -1 -32q-1 -27 -1 -46.5t1 -29.5q4 -44 4 -78q0 -42 -6 -67q-41 -180 -96 -268q-6 -10 -24.5 -28.5l-26.5 -26.5q-6 -10 -52 -82q-4 -6 -16 -16.5t-18 -16.5q-4 -6 -11.5 -19.5t-13.5 -19.5q-8 -10 -55 -51 q-10 -10 -34 -22.5t-32 -16.5q-8 -6 -23.5 -20.5t-23.5 -18.5q-10 -6 -33.5 -15.5t-32.5 -13.5q-55 -31 -63 -33q-12 -4 -25.5 -6t-31 -3t-25.5 -3q-12 -2 -57 -11t-76 -9q-115 2 -229 37q-6 2 -101 36q-8 2 -44 15.5t-56 17.5q-8 4 -26.5 6t-24.5 4q-18 6 -36 21.5 t-37.5 38t-31.5 33.5q-8 6 -27.5 18t-25.5 18q-25 23 -64 97q-29 53 -53 106q-29 66 -59 182q-4 18 -13.5 51t-13.5 52q-2 8 -8 21.5t-6 15.5zM385 1300q2 -14 49 -73q4 -4 15.5 -10.5t15.5 -10.5q6 -6 15 -22.5t18 -22.5q31 -31 100.5 -92t121.5 -113.5t89 -105.5 q-25 -31 -145 -152q-6 -6 -19.5 -22.5t-21.5 -22.5q-14 -12 -52.5 -40.5t-58.5 -45.5q-12 -10 -26.5 -30.5t-26.5 -32.5q-2 -2 -20.5 -17.5t-27 -26.5t-8.5 -22q0 -16 12.5 -26.5t33.5 -5.5q12 2 51 47q49 53 155 145q33 29 87.5 83t64.5 64q41 47 53 50q6 0 22.5 -13.5 t37 -33t28.5 -25.5q68 -57 88 -80q20 -25 60.5 -64.5t50.5 -50.5q6 -6 22.5 -24.5t27.5 -29.5t26.5 -22.5t27.5 -11.5q31 0 38 36q2 11 2 21q0 24 -11 44q-51 12 -110.5 71.5t-75.5 69.5q-31 51 -107 106q-2 2 -18.5 14.5t-24.5 19.5t-15 19.5t-7 22.5q0 8 9 20.5t18 21.5 t26.5 23.5t21.5 18.5l162 158q16 16 46 40.5t40 35.5q6 6 18.5 23.5t16.5 21.5q14 12 20.5 17t15.5 18.5t7 25.5t-14 27q-29 12 -58 -8q-18 -43 -110 -125q-33 -31 -128 -125t-149 -142q-14 8 -25.5 18.5t-29 31t-21.5 24.5l-296 289q-4 4 -19.5 23.5t-28 28.5t-24.5 9 q-14 -2 -24.5 -15t-10.5 -24z" />
<glyph unicode="o" horiz-adv-x="2408" d="M40 750.5q3 35.5 3 44t-2 33t0 36.5q4 109 84 269q6 8 45 51t63 65q8 6 49.5 46t65.5 59q4 4 18.5 10t20.5 12q178 119 455 191q136 36 219 36q26 0 47 -4q34 10 85 10q13 0 26 -1q25 -2 69.5 -12.5t63.5 -12.5q16 -2 83.5 -4t104.5 -6q35 -6 90.5 -30.5t67.5 -29.5 q14 -4 45 -6t45 -4q14 -4 37.5 -16t34 -14.5t35 -6.5t34.5 -10q8 -4 17.5 -17.5t13.5 -17.5q6 -6 24.5 -14t20.5 -10q94 -57 119 -82q10 -10 20 -22.5t23.5 -30t21.5 -25.5q76 -82 121 -188q39 -82 43 -121q7 -59 7 -111q0 -139 -52 -233q-8 -16 -22.5 -34t-33 -40.5 t-28.5 -34.5q-104 -137 -190 -196q-10 -8 -125 -68q-10 -6 -27.5 -20.5t-28.5 -18.5q-137 -75 -282 -106q-6 -10 -21.5 -14.5t-42 -6.5t-41.5 -4q-10 -2 -25.5 -8t-25.5 -11.5t-20.5 -1t-14.5 20.5q-23 -8 -47 -10t-58 -2t-50 -2q-10 0 -43 -7.5t-54 -5.5q-25 2 -73.5 15.5 t-59.5 15.5q-14 2 -102 8q-33 4 -100 23q-8 2 -75 14t-97 27q-20 8 -55.5 32.5t-45.5 30.5l-96 64q-16 10 -62.5 38.5t-74 49t-49.5 45.5q-8 8 -68 94q-8 12 -32.5 43t-33.5 47q-2 4 -7 18.5t-9 22.5q-45 82 -47 109q-4 4 -1 39.5z" />
<glyph unicode="p" horiz-adv-x="2404" d="M34 758q3 37 3 45t-2 32.5t0 36.5q4 104 84 269q106 113 108 114q104 100 115 107q6 4 19.5 10t19.5 10q180 121 455 191q139 36 222 36q24 0 44 -3q32 11 81 11q14 0 29 -1q25 -2 70 -12.5t64 -12.5q6 0 78.5 -3t109.5 -9q35 -6 87 -28.5t71 -28.5q14 -4 45.5 -7.5 t44.5 -5.5q14 -4 38.5 -16t32.5 -14q6 -2 32 -5.5t38 -9.5q10 -4 18.5 -18t12.5 -19q6 -4 22.5 -11t22.5 -11q10 -6 36.5 -22.5t47 -31t35.5 -28.5q12 -12 35.5 -42t29.5 -38q74 -80 121 -186q39 -82 43 -121q7 -57 7 -107q0 -142 -52 -239q-12 -20 -44 -58t-40 -51 q-115 -143 -190 -196l-125 -66q-8 -6 -26.5 -19.5t-29.5 -19.5q-126 -73 -282 -106q-6 -10 -20.5 -15.5t-44.5 -6.5t-40 -3q-8 -2 -20.5 -7t-21.5 -9t-18 -6t-15.5 3t-10.5 19q-25 -10 -155 -14q-10 0 -43 -7.5t-54 -4.5q-25 2 -70.5 14t-62.5 14q-20 6 -102 10 q-10 0 -101 21q-18 6 -79.5 18.5t-92.5 24.5q-6 2 -100 63q-16 10 -96 64q-18 12 -63.5 38.5t-74 48t-51.5 46.5q-16 18 -65 94q-8 12 -33 43t-33 47q-2 4 -7 18.5t-9 20.5q-43 82 -47 109q-4 4 -1 41zM137 901q-3 -23 -3 -45q0 -72 29 -144q38 -94 95 -130q14 -29 40 -61 t42 -47t59 -52t49.5 -43t27 -27.5t32.5 -29.5q8 -6 30.5 -15.5t32.5 -17.5q59 -41 99 -64q68 -41 204 -73q10 -2 35 -9.5t35 -9.5q6 0 22.5 5t22.5 5h13q25 0 62 -5q48 -7 69 -7q25 0 73.5 -6t71 -6t72.5 8q35 10 139 46t162 46q84 14 118 29q29 18 86.5 56t92 60.5t81 57.5 t82.5 65v37q12 20 43 65.5t46.5 74t26.5 75.5q6 27 6 54q0 19 -3 38q-18 90 -61 203q-37 98 -78 152q-8 8 -20.5 28.5t-20.5 28.5q-35 43 -168 109q-49 27 -57 28q-6 0 -26.5 -7t-29.5 -5q-6 2 -13 15.5t-11 17.5q-16 18 -90 33q-20 18 -46 29.5t-78 23.5t-61 14 q-15 -14 -32 -14q-19 0 -41 20q-10 -8 -19.5 -9t-26 4t-20.5 5q-20 2 -62 -1t-57 -3q-8 0 -28.5 2t-28.5 2q-14 0 -43 -8t-43 -10q-467 -45 -666 -254q-47 -27 -145 -121q-12 -66 -63 -80q-4 -14 -29 -59t-29 -74z" />
<glyph unicode="q" horiz-adv-x="2848" d="M45 334q-1 20 -1 44q0 48 5 114q8 98 8 126q0 53 -1 144.5t-1 140.5q0 25 -3 85q-2 31 -2 56.5t2 46.5q3 42 16 70q10 25 30 49q37 43 114 68t132 30t152 9q8 1 17 1q27 0 68 -5q54 -6 78 -6q12 0 177 10q57 109 159 180q10 8 40 32.5t46 35.5q10 6 34 15t32 13 q49 27 61 31q27 8 64 13t85 8.5t70 5.5q21 2 42 2l266 -76q14 -8 44.5 -29.5t49.5 -31.5q117 -64 162 -203q23 -4 62.5 -14.5t55.5 -12.5q0 -3 28 -3q14 0 35 1q64 2 66 2q10 0 35 -5t39 -3q12 2 28.5 12t31.5 13q10 2 33.5 -1.5t33.5 -3.5q18 0 73 4q22 1 37 1q22 0 29 -3 q51 -10 102.5 -53t69.5 -94q4 -14 8.5 -49t8.5 -51q0 -2 9 -40t9 -57q0 -16 -3 -51t-1 -55q2 -16 9.5 -49t9.5 -49q1 -12 1 -29q0 -25 -2 -59q-3 -58 -3 -76q0 -31 2 -92q1 -40 1 -72v-31q-1 -43 -8 -86q-16 -104 -34 -137q-16 -31 -71.5 -73t-100.5 -48q-41 -6 -123 -6 q-66 0 -158 4q-252 16 -284.5 16t-151.5 -9q-71 -5 -126 -5q-36 0 -65 2q-14 0 -40.5 6t-39.5 9h-12q-64 0 -307 -15h-154q-39 0 -171 3q-44 1 -77 1q-66 0 -88 -4q-14 -2 -42.5 -7t-36.5 -7q-20 -2 -129 -2q-23 0 -65 -4t-62 -4q-18 2 -52 10t-49 10q-6 0 -20.5 -3 t-22.5 -1q-8 0 -26.5 8t-26.5 8t-27.5 -5t-27.5 -5q-45 4 -80 35q-47 47 -66 115q-4 23 -6 74t-4 61zM113 387q6 -137 12 -170q25 -82 72 -98q8 -2 31.5 0t35.5 2q8 0 27.5 -6t30.5 -9q8 -2 24 -1t23 1q12 -2 34.5 -7t28.5 -7h14q22 0 57 4q46 6 60 6q6 0 22.5 -3t22.5 -3 q23 0 48.5 3t57 8.5t52.5 7.5q49 4 235 4h111t111 -2h18q37 0 93 6q71 8 102 8q54 2 97 2q64 0 103 -4q10 0 33 -4t35 -6q17 -1 40 -1q51 0 132 6q117 9 135 9q25 0 279 -16q26 -1 58 -1q64 0 153 5h69q23 4 40.5 15t41 35t33.5 34q4 18 14.5 69.5t14.5 87.5q3 25 3 49 q0 13 -1 25l6 254q0 29 -11.5 93.5t-11.5 93.5q0 14 5.5 43.5t2.5 46.5q-2 10 -10 39.5t-10 46.5q-29 162 -133 176q-10 0 -30.5 -3t-33.5 -1q-8 0 -21 2t-20 2q-20 0 -55 -10.5t-45 -12.5q-31 -2 -43 -2t-41 5t-37 8q-14 0 -53 -2.5t-59 -0.5q-16 2 -54.5 11.5t-54.5 7.5 q-6 0 -28.5 -9.5t-36.5 -2.5q-8 4 -15.5 18t-13.5 35.5t-6 23.5q-20 59 -35 82q-14 18 -38 35t-54.5 34t-44.5 28q-12 8 -27.5 22t-21.5 19q-101 63 -229 63q-31 0 -64 -4q-162 -18 -166 -21q-4 0 -53 -28q-51 -29 -115 -76q-53 -39 -88 -76l-31 -30q-4 -8 -17.5 -34 t-25.5 -46.5t-25 -24.5q-2 -6 -43 -4t-51 2q-70 -4 -98 -4q-33 0 -89 4t-87 4h-9q-42 0 -155 -14h-45q-121 -18 -156 -88q-8 -16 -10 -37t-1 -53.5t1 -46.5q0 -25 -3 -72t-3 -67.5t4 -63.5t4 -66q0 -55 -10 -174q-8 -99 -8 -154v-20z" />
<glyph unicode="r" horiz-adv-x="2865" d="M43 326q-1 19 -1 43q0 47 5 113q8 100 8 128q0 51 -1 143.5t-1 141.5q0 25 -3 85q-2 30 -2 55.5t2 46.5q3 42 16 69q10 29 30 49q37 43 113 67.5t134 31.5t151 8q8 1 18 1q27 0 67 -4q54 -6 78 -6q31 0 90.5 4.5t86.5 4.5q59 113 159 182q14 10 43 34.5t43 32.5 q8 4 32 13.5t34 15.5q49 27 61 31q27 8 63 13t88 7t68 4q26 3 52 3l256 -74q14 -8 44.5 -30.5t49.5 -33.5q117 -59 162 -202q25 -2 65.5 -12.5t52.5 -12.5q0 -6 62.5 -3t66.5 3q10 0 35 -5t39 -3q12 2 28.5 12t31.5 12q10 2 33.5 -1t33.5 -3q19 0 73 3q23 1 38 1q21 0 28 -2 q51 -8 102.5 -53t69.5 -94q4 -14 8.5 -49t8.5 -52q0 -2 9 -39.5t9 -56.5q0 -16 -3 -52t-1 -54q2 -16 9.5 -50t9.5 -49q1 -11 1 -26q-1 -26 -3 -62q-4 -57 -3 -75q1 -32 3 -92q2 -43 1 -77v-26q-1 -43 -8 -86q-16 -104 -34 -137q-16 -31 -71.5 -73t-100.5 -48q-46 -8 -124 -8 q-67 0 -157 6q-29 2 -127 9t-158 7q-33 0 -151 -9q-71 -5 -126 -5q-36 0 -65 2q-14 0 -40.5 6t-39.5 8h-17q-82 0 -302 -16q-14 -1 -35 -1t-48 1q-54 2 -71 2q-20 -1 -51 -1q-47 0 -120 2q-52 1 -90 1q-50 0 -75 -2q-14 -2 -40.5 -8t-38.5 -6q-20 -2 -129 -2q-18 1 -62 -5 q-32 -4 -52 -5q-7 0 -13 1q-18 0 -52 9.5t-49 9.5q-6 0 -20.5 -2t-22.5 0q-8 0 -26.5 8t-26.5 8t-26.5 -6t-28.5 -4q-45 4 -80 35q-47 43 -66 114q-4 23 -6 74t-4 62z" />
<glyph unicode="s" horiz-adv-x="2275" d="M41 364.5q0 6.5 4 20.5t18 31q16 16 39 36.5t51.5 44t36.5 31.5q16 8 96.5 42t119.5 59l47 41q6 6 21 13t33.5 12t22.5 7q14 6 29.5 8.5t30.5 8.5q61 3 120 3q49 0 97 -2q59 -3 103 -3q35 0 61 2q8 2 25.5 0t25.5 -2q12 0 31.5 6t27.5 6q15 2 36 2q31 0 75 -4 q56 -5 90 -5q12 0 21 1q68 2 118.5 2t81.5 -2q12 -2 42 0t36 2q29 -2 57 0q10 0 39 1t43 3q72 6 134 6q37 0 71 -2q20 0 123 -22l59 -17q20 -10 44 -46t34 -62q25 -62 25 -197v-39q0 -6 -19 -127q-8 -70 -20 -88t-52 -45t-71 -33q-18 -4 -58 -4h-48q-119 -6 -121 -6 q-33 2 -108 3t-95 1q-40 2 -79 2q-65 0 -128 -6q-35 -2 -108.5 -3t-108.5 -5q-63 -6 -197 -14q-16 -2 -46.5 3t-41.5 5q-31 0 -113 -1h-50q-43 0 -62 1q-18 2 -47 8t-41 6q-8 0 -41 -1t-41 1q-14 4 -100 43q-20 10 -57.5 36t-57.5 36q-12 6 -42 16t-42 19q-29 16 -74 55 t-75 55q-4 10 -14.5 30.5t-10.5 27z" />
<glyph unicode="t" horiz-adv-x="2258" d="M39 340q-1 21 -1 40q0 135 25 198q10 25 34 60.5t44 47.5q6 2 15.5 4t23 5t23.5 5q88 23 121 25q26 1 54 1q70 0 150 -7q16 -2 44 -3t38 -1h58q6 0 36.5 -2t40.5 0q32 2 82 2t119 -2q32 0 108 5q42 3 73 3q24 0 40 -2q10 0 30 -5t30 -7t26.5 0t24.5 2q18 -1 42 -1 q48 0 122 3q44 2 87 2q65 0 130 -4q14 -6 29.5 -8.5t29.5 -8.5q63 -18 78 -30l20.5 -20.5t26.5 -23.5q39 -25 113.5 -55.5t101.5 -44.5q10 -8 38 -30.5t50.5 -43t38.5 -36.5q14 -16 18.5 -31t4.5 -21t-10.5 -27.5t-14.5 -29.5q-31 -16 -75 -56t-74 -57q-12 -6 -42 -16 t-42 -16q-20 -10 -58.5 -37t-56.5 -37q-84 -39 -100 -41q-8 -2 -41 -1t-41 1q-8 -2 -38 -8t-48 -8q-18 -1 -46 -1t-67 1t-67.5 1t-47.5 -1q-16 0 -44.5 -5.5t-43.5 -3.5q-25 2 -92 7.5t-104 7.5q-35 4 -108 6t-109 4q-63 5 -134 5q-36 0 -73 -1q-29 -2 -101.5 -2t-101.5 -2 q-9 -1 -23 -1q-35 0 -98 7q-12 0 -54 -1t-50 3q-33 6 -72 31.5t-53 46.5q-12 18 -21 88q-18 119 -18 127z" />
<glyph unicode="u" horiz-adv-x="1441" d="M51 664q0 8 8.5 25.5t8.5 25.5q2 20 -4.5 62t-4.5 61q4 47 34 91t69 52q31 2 47 2t56 -5t57 -7h6q30 0 139 16q27 2 48.5 0t47 1t43.5 13q2 23 2 68t2 76t8.5 65.5t23.5 57t44 30.5q4 1 10 1q20 0 56 -11q14 -4 90 -45q25 -12 46 -26.5t45.5 -35t37 -31.5t42 -38 t38.5 -35q10 -10 131 -108l123 -115q6 -6 23.5 -22.5t24.5 -23.5t21.5 -23.5t19.5 -28t10 -28.5t5 -36.5t-6 -40.5q-23 -76 -137 -164q-217 -168 -318 -280q-10 -10 -31.5 -39t-33.5 -43q-96 -113 -168 -119q-7 -1 -13 -1q-41 1 -62 23q-24 26 -36 74q-8 31 -15 96t-9 85 q-55 12 -175 15t-141 5q-70 6 -82 8q-33 8 -67.5 29.5t-46.5 46.5q-6 12 -8.5 32.5t-3.5 48.5t-3 44q-6 56 -6 96q0 33 4 56zM129 578q-1 -8 -2 -21q0 -21 5 -57q7 -56 15 -70q23 -41 115 -51q18 -3 50 -3h17h28q26 0 44 -1q14 0 70 -6q12 0 41 -1t39 -2t31.5 -3.5t30 -7.5 t20.5 -13t18 -20.5t11 -30.5q2 -14 4 -38t2 -43.5t3 -44t7 -39.5t13 -28.5t22.5 -12.5t36.5 9q12 6 31.5 25.5t32.5 35t39 46t32 39.5q66 78 297 268q4 4 34.5 29.5t44 38t33 35t27.5 42.5q5 14 5 29q0 41 -40 86q-45 55 -162 150q-10 8 -90 74.5t-123 97.5q-6 8 -10 8 q0 2 -2 3t-2 3q-53 72 -195 113q-16 -33 -16 -103q0 -14 2 -47t1 -58.5t-9 -43.5q-25 -47 -152 -47q-34 0 -108 -10q-63 -9 -94 -9h-11l-28 6q-29 4 -31 -4h-2q-12 3 -28 3q-22 0 -52 -5q-23 -16 -32 -40.5t-9 -42t5 -55.5t5 -50q6 -72 7 -76q0 -8 -9.5 -27.5t-11.5 -29.5z " />
<glyph unicode="v" horiz-adv-x="1452" d="M45 691q0 20 5 37t10.5 28.5t19.5 28t21.5 23.5t24.5 23.5t24 22.5l122 115q121 98 131 108q8 8 38 35t42.5 38t37 31.5t46 35t45.5 26.5q78 41 90 45q35 11 55 11q6 0 11 -1q27 -8 44 -30.5t23.5 -57t8.5 -65.5t2 -76t2 -68q18 -10 44 -13t47.5 -1t47.5 0 q111 -16 140 -16h6l56 7t56.5 5t46.5 -2q39 -8 69 -52t34 -91q2 -18 -4.5 -60.5t-4.5 -62.5q0 -8 8.5 -25.5t8.5 -25.5q4 -23 4 -55q0 -41 -6 -97q-2 -16 -3 -44t-3 -48.5t-9 -32.5q-12 -25 -46.5 -46.5t-67.5 -29.5q-12 -2 -82 -8q-20 -2 -140.5 -5t-175.5 -15 q-2 -20 -9 -85t-15 -96q-12 -48 -36 -74q-20 -22 -61 -23q-7 0 -14 1q-72 6 -168 119q-12 14 -33.5 43t-31.5 39q-100 113 -318 280q-115 88 -137 164q-6 20 -6 40zM133 653q8 -20 27.5 -42.5t33 -35t44 -38t34.5 -29.5q231 -190 297 -268q6 -8 32 -39l39 -46.5t32.5 -35 t32.5 -25.5q23 -8 36 -9t22 12.5t13 28.5t7 39.5t3 44t2.5 43t4.5 38.5q4 18 10 30.5t18.5 20.5t20.5 13t29.5 7.5t31.5 3.5t39 2t41 1q55 6 70 6q15 1 43 1h30h19q35 0 47 3q92 10 115 51q8 14 15 70q4 35 4 57q0 13 -1 21q-2 10 -11 29.5t-9 27.5q0 4 6 76q0 12 5 50 t5 55.5t-9 42t-32 40.5q-18 2 -33.5 3t-24 1t-14.5 -2h-8h-2q-2 8 -31 4l-28 -6h-11q-32 1 -95 9q-75 10 -107 10q-127 0 -152 47q-8 18 -9 43.5t1 58.5t2 47q0 70 -16 103q-142 -41 -195 -113q0 -2 -2 -3t-2 -3q-4 0 -10 -8q-43 -31 -123 -97.5t-90 -74.5 q-117 -94 -162 -150q-40 -45 -40 -86q0 -15 5 -29z" />
<glyph unicode="w" horiz-adv-x="1458" d="M55 674q0 8 8.5 25.5t8.5 25.5q2 20 -4.5 62t-4.5 61q4 47 34 91t69 52q31 2 47 2t56 -5t57 -7h6q30 0 139 16q27 2 48.5 0t47 1t43.5 14q2 23 2 67.5t2 75.5t8.5 65.5t24 57t43.5 31.5q4 1 10 1q20 0 56 -12q12 -4 90 -45q25 -12 46 -26.5t46 -35t37 -31.5t42 -37.5 t38 -35.5q14 -14 131 -108q23 -18 123 -115q6 -6 23.5 -22.5t24.5 -23.5t21.5 -23.5t19.5 -27.5t10 -28.5t5 -37t-6 -39.5q-18 -74 -137 -164q-219 -172 -318 -281q-10 -10 -31.5 -38.5t-33.5 -43.5q-96 -113 -168 -119q-7 -1 -13 -1q-42 1 -62 23q-24 26 -36 75 q-8 31 -15 95.5t-9 84.5q-55 12 -175 15t-141 5q-68 6 -80 9q-33 8 -67.5 29.5t-48.5 45.5q-6 12 -8.5 33t-3.5 48.5t-3 43.5q-6 56 -6 96q0 33 4 56z" />
<glyph unicode="x" horiz-adv-x="1456" d="M45 701.5q0 19.5 5 37t10.5 28.5t19.5 27.5t21.5 23.5t24.5 23.5t24 22.5q100 96 122 115q117 94 131 108q8 8 38 35t42.5 38t37 31.5t46 35t45.5 26.5q78 41 90 45q37 12 58 12q4 0 8 -1q27 -8 44 -31t23.5 -57.5t8.5 -65.5t2 -76t2 -67q18 -10 44 -13.5t47.5 -1.5 t47.5 0q111 -16 140 -16h6l56 7t56.5 5t46.5 -2q39 -8 69 -52t34 -91q2 -18 -4.5 -60.5t-4.5 -62.5q0 -8 8.5 -25.5t8.5 -25.5q4 -23 4 -55q0 -41 -6 -97q-2 -16 -3 -43.5t-3 -48t-9 -33.5q-14 -25 -48.5 -46t-67.5 -29q-12 -2 -80 -9q-20 -2 -140.5 -5t-175.5 -15 q-2 -20 -9 -85t-15 -95q-12 -49 -36 -75q-20 -23 -62 -23q-6 0 -13 1q-72 6 -168 119q-12 14 -33.5 43t-31.5 39q-98 109 -318 281q-119 90 -137 164q-6 20 -6 39.5z" />
<glyph unicode="y" horiz-adv-x="1611" d="M51 545q4 10 9.5 16t10.5 10t18 5.5t24.5 1.5t38 -1.5t49.5 -1.5h323q141 0 213 3q131 4 175 4h20q23 -1 67 -1h49q82 1 123 1q127 -4 244 -4q92 0 98 -17q0 -2 3 -8q2 -6 -1.5 -9t-7.5 -5q-8 -2 -55 -2q-58 3 -148 3h-48h-76q-70 0 -117 1q-84 0 -125 2q-7 1 -25 1 q-53 0 -206 -5q-84 -2 -230.5 -2t-210.5 -2q-57 -2 -99 -2q-112 0 -116 12zM53 455q-2 4 2.5 13t10.5 13q36 -2 104 -2q52 0 121 1q162 3 221 3q89 -2 229.5 -2t333.5 2q31 0 91.5 -2t90.5 -2q29 0 93 3q39 2 67 2q18 0 31 -1q53 -4 63 -8q14 -31 -16 -35h-41l-84 -2 q-84 0 -94 2q-41 2 -129 3t-131 1q-223 0 -266 -2q-16 -2 -56.5 -2t-104.5 2q-128 4 -157 4q-132 -4 -185 -4h-26q-14 0 -39.5 -1t-46 -1h-41t-32 4.5t-9.5 10.5z" />
<glyph unicode="z" horiz-adv-x="1568" d="M45 530q12 38 39 43q6 2 23.5 -4t21.5 -6q12 0 39 1t41 -1q85 -3 128 -3q21 0 32 1q27 0 104.5 7t124.5 7q20 0 67.5 -3t74 -3t98.5 3q44 2 75 2q20 0 35 -1q159 -10 198 -10h9q130 10 209 10q50 0 80 -4q70 -6 76 -37q4 -14 -6.5 -37.5t-20.5 -29.5q-14 -12 -115 -19 q-16 -2 -52 0.5t-48 2.5h-30.5h-36h-27.5q-8 0 -29.5 5t-34.5 5q-18 -2 -34.5 -2t-32.5 2q-20 0 -82 -2q-21 -1 -36 -1q-32 0 -44 3q-6 0 -22.5 4t-30.5 6q-112 2 -130 3h-3q-23 0 -125 -10q-110 -11 -123 -13q-25 -2 -158 -3q-10 -1 -24 -1q-18 -1 -42 1q-43 2 -61 3 q-109 0 -121 18q-11 15 -11 35q0 13 5 28z" />
<glyph unicode="{" horiz-adv-x="1947" d="M57 436q10 14 31 50t40 61.5t42 40.5q8 -4 16.5 -14.5t16.5 -24.5t14 -23q4 -4 10 -16t13.5 -21.5t15.5 -9.5q16 -2 47 52.5t45 54.5q8 2 51 -49q4 -6 8.5 -22.5t12.5 -22.5q18 0 47 50t45 50q8 0 16.5 -9.5t17.5 -22.5t13 -17q8 -8 20.5 -22.5t18.5 -20.5q20 4 42 47 t42 45q23 2 49.5 -44t36.5 -54q20 14 54 53t50 49q6 4 14.5 -3t18.5 -26l8 -18q13 -28 23 -57q35 20 86 96q25 -10 53.5 -51t50.5 -52q18 12 44 50t42 51q20 -10 44 -51t38 -54q10 4 17.5 12.5t16.5 23.5t13 22q35 53 50 51q20 -2 34.5 -43t34.5 -47q16 8 45 37q4 4 11.5 14 t14.5 17t13 7q20 2 44 -44t44 -52q23 10 56 53l12 19q10 18 19.5 28.5t19.5 10.5q6 0 11 -4t11 -12.5t10.5 -15.5t10.5 -17.5t8 -14.5q35 -55 45 -65q4 -4 12 -9.5t14.5 -10.5t6.5 -11q4 -25 -21 -39q-39 -4 -71 4q-16 6 -64.5 2t-71.5 -4q-129 6 -221 4q-266 -12 -522 0 q-6 0 -96 1t-96 1q-8 0 -52 4q-4 0 -24.5 1.5t-26.5 3.5q-20 4 -67.5 -1.5t-67.5 -5.5q-10 0 -35.5 -4t-56.5 -2q-94 2 -309 -10q-2 6 -9 51z" />
<glyph unicode="|" horiz-adv-x="1921" d="M57 555q6 45 9 51q215 -12 309 -10q31 2 56.5 -2t35.5 -4q20 0 67.5 -5t67.5 -1q6 2 26.5 3t24.5 1q43 4 52 4q6 0 96 1t96 1q256 12 522 0q92 -2 221 4q23 0 71 -4t65 2q33 8 71 4q25 -14 21 -39q0 -6 -6.5 -11t-14.5 -10t-12 -10q-10 -8 -45 -65q-2 -4 -8 -14.5 t-10.5 -17.5t-10.5 -15t-11 -12.5t-11 -4.5q-10 0 -19.5 10.5t-19.5 28.5l-12 19q-33 43 -56 53q-20 -6 -43.5 -52t-44.5 -44q-6 0 -13 7t-14.5 17.5t-11.5 14.5q-29 29 -45 37q-20 -6 -34.5 -47.5t-34.5 -43.5q-14 -2 -50 52q-4 6 -13 21t-16 23.5t-18 12.5 q-14 -12 -37.5 -53t-44.5 -51q-16 12 -41.5 50t-44.5 50q-23 -10 -51 -51t-53 -52q-51 77 -86 97q-10 -29 -23 -58l-8 -18q-10 -18 -18 -25.5t-15 -3.5q-16 10 -50 49t-54 54q-10 -8 -36.5 -54.5t-49.5 -44.5q-20 2 -42 45t-42 48q-6 -6 -18.5 -20.5t-20.5 -22.5 q-4 -4 -13 -17.5t-17.5 -23t-16.5 -9.5q-16 0 -45 50.5t-47 50.5q-8 -6 -12.5 -22.5t-8.5 -22.5q-43 -51 -51 -49q-14 0 -45 54t-47 52q-8 0 -15.5 -9t-13.5 -21.5t-10 -16.5q-6 -8 -14 -22.5t-16.5 -24.5t-16.5 -15q-23 14 -42 40t-39.5 62t-31.5 50z" />
<glyph unicode="}" horiz-adv-x="1411" d="M41 282.5q0 92.5 35 145.5q8 16 57 55q53 43 117 76q63 35 155.5 34t161.5 -46q25 16 74 65.5t84 67.5q31 14 96 31q16 4 64.5 22.5t79.5 18.5q158 0 272 -76q72 -49 90 -86q31 -63 21 -176q-4 -86 -54 -172q-39 -70 -86 -119q-45 -49 -75 -43q-18 6 -27 24q-2 10 1 21.5 t8 19t15.5 19.5t12.5 14q23 31 39 66q70 154 14 202q-8 8 -47 33q-84 59 -229 74q-74 4 -187 -25q-76 -25 -84 -49q-2 -6 4 -15t15.5 -22.5t13.5 -19.5q45 -84 31 -186q-12 -106 -109 -115q-84 -8 -113.5 66.5t-11.5 174.5q-57 41 -153 33q-197 -20 -215 -102 q-6 -35 12 -100q4 -12 16.5 -33t16.5 -31q10 -20 6 -38.5t-23 -20.5q-12 -2 -32.5 20.5t-30.5 42.5q-35 57 -35 149.5zM559 280.5q2 -53.5 27 -73.5q2 0 10 2t16.5 4t12.5 4q10 25 6 59q-8 6 -23.5 38t-34.5 32q-16 -12 -14 -65.5z" />
<glyph unicode="~" horiz-adv-x="1370" d="M33 414q-10 113 20 176q18 37 90 86q115 76 273 76q31 0 79 -18.5t64 -22.5q66 -16 96 -31q35 -18 84 -67.5t74 -65.5q70 45 162 46t155 -34q63 -33 117 -76q49 -39 58 -55q35 -53 34.5 -145.5t-34.5 -149.5q-10 -20 -31 -42.5t-33 -20.5q-18 2 -22.5 20.5t6.5 38.5 q4 10 16 30.5t16 33.5q18 66 13 100q-18 82 -215 102q-97 8 -154 -33q18 -100 -11.5 -174.5t-113.5 -66.5q-96 8 -108 115q-14 102 30 186q4 6 13.5 19.5t15.5 22.5t4 15q-8 25 -84 49q-113 29 -186 25q-145 -14 -230 -74q-39 -25 -47 -33q-55 -49 15 -202q16 -35 39 -66 q2 -2 12 -14t15 -19.5t8 -18.5t1 -22q-8 -18 -26 -24q-31 -6 -76 43q-47 49 -86 119q-49 86 -53 172zM750 276q-4 -35 6 -59q4 -2 12 -4t16.5 -4t10.5 -2q25 20 26.5 73.5t-14.5 65.5q-18 0 -33.5 -31.5t-23.5 -38.5z" />
<glyph unicode="&#xad;" d="M36 286.5q-1 73.5 36 119.5q53 61 108 75q57 14 112.5 -25.5t41.5 -105.5q-2 -16 -31 -69q-27 -53 -63 -37q-18 10 -16.5 22.5t12 31.5t8.5 26q-2 14 -20.5 25t-33.5 9q-33 -2 -51 -37.5t-12 -68.5q8 -43 51 -81t82 -42q43 -2 131 25q8 2 80 45l74 49q10 6 33.5 15 t33.5 16l179 102q170 96 249 121l33 8q61 6 113 4q59 0 125.5 -20.5t101.5 -53.5q96 -90 117 -161q31 -104 16 -179q-8 -49 -59 -47q-18 8 -21.5 21.5t0.5 36t2 34.5q-2 16 -12 48t-10 36q-57 174 -227 185q-49 2 -109 -15q-154 -43 -340 -168q-199 -133 -334 -172 q-106 -35 -212.5 -12t-147.5 98q-39 68 -40 141.5z" />
<glyph unicode="&#x2000;" horiz-adv-x="905" />
<glyph unicode="&#x2001;" horiz-adv-x="1811" />
<glyph unicode="&#x2002;" horiz-adv-x="905" />
<glyph unicode="&#x2003;" horiz-adv-x="1811" />
<glyph unicode="&#x2004;" horiz-adv-x="603" />
<glyph unicode="&#x2005;" horiz-adv-x="452" />
<glyph unicode="&#x2006;" horiz-adv-x="301" />
<glyph unicode="&#x2007;" horiz-adv-x="301" />
<glyph unicode="&#x2008;" horiz-adv-x="226" />
<glyph unicode="&#x2009;" horiz-adv-x="362" />
<glyph unicode="&#x200a;" horiz-adv-x="100" />
<glyph unicode="&#x2010;" d="M36 286.5q-1 73.5 36 119.5q53 61 108 75q57 14 112.5 -25.5t41.5 -105.5q-2 -16 -31 -69q-27 -53 -63 -37q-18 10 -16.5 22.5t12 31.5t8.5 26q-2 14 -20.5 25t-33.5 9q-33 -2 -51 -37.5t-12 -68.5q8 -43 51 -81t82 -42q43 -2 131 25q8 2 80 45l74 49q10 6 33.5 15 t33.5 16l179 102q170 96 249 121l33 8q61 6 113 4q59 0 125.5 -20.5t101.5 -53.5q96 -90 117 -161q31 -104 16 -179q-8 -49 -59 -47q-18 8 -21.5 21.5t0.5 36t2 34.5q-2 16 -12 48t-10 36q-57 174 -227 185q-49 2 -109 -15q-154 -43 -340 -168q-199 -133 -334 -172 q-106 -35 -212.5 -12t-147.5 98q-39 68 -40 141.5z" />
<glyph unicode="&#x2011;" d="M36 286.5q-1 73.5 36 119.5q53 61 108 75q57 14 112.5 -25.5t41.5 -105.5q-2 -16 -31 -69q-27 -53 -63 -37q-18 10 -16.5 22.5t12 31.5t8.5 26q-2 14 -20.5 25t-33.5 9q-33 -2 -51 -37.5t-12 -68.5q8 -43 51 -81t82 -42q43 -2 131 25q8 2 80 45l74 49q10 6 33.5 15 t33.5 16l179 102q170 96 249 121l33 8q61 6 113 4q59 0 125.5 -20.5t101.5 -53.5q96 -90 117 -161q31 -104 16 -179q-8 -49 -59 -47q-18 8 -21.5 21.5t0.5 36t2 34.5q-2 16 -12 48t-10 36q-57 174 -227 185q-49 2 -109 -15q-154 -43 -340 -168q-199 -133 -334 -172 q-106 -35 -212.5 -12t-147.5 98q-39 68 -40 141.5z" />
<glyph unicode="&#x2012;" d="M36 286.5q-1 73.5 36 119.5q53 61 108 75q57 14 112.5 -25.5t41.5 -105.5q-2 -16 -31 -69q-27 -53 -63 -37q-18 10 -16.5 22.5t12 31.5t8.5 26q-2 14 -20.5 25t-33.5 9q-33 -2 -51 -37.5t-12 -68.5q8 -43 51 -81t82 -42q43 -2 131 25q8 2 80 45l74 49q10 6 33.5 15 t33.5 16l179 102q170 96 249 121l33 8q61 6 113 4q59 0 125.5 -20.5t101.5 -53.5q96 -90 117 -161q31 -104 16 -179q-8 -49 -59 -47q-18 8 -21.5 21.5t0.5 36t2 34.5q-2 16 -12 48t-10 36q-57 174 -227 185q-49 2 -109 -15q-154 -43 -340 -168q-199 -133 -334 -172 q-106 -35 -212.5 -12t-147.5 98q-39 68 -40 141.5z" />
<glyph unicode="&#x2013;" horiz-adv-x="1110" d="M35 286.5q-1 73.5 24 119.5q36 61 73 75q39 14 76.5 -25.5t27.5 -105.5q-1 -16 -21 -69q-18 -53 -42 -37q-12 10 -11 22.5t8 31.5t6 26q-2 14 -14.5 25t-22.5 9q-22 -2 -34.5 -37.5t-7.5 -68.5q5 -43 34 -81t55 -42q29 -2 89 25q5 2 54 45l50 49q7 6 23 15t22 16l121 102 q115 96 169 121l22 8q41 6 76 4q40 0 85 -20.5t69 -53.5q65 -90 79 -161q21 -104 11 -179q-6 -49 -40 -47q-12 8 -14.5 21.5t0 36t1.5 34.5q-1 16 -8 48t-7 36q-38 174 -153 185q-33 2 -74 -15q-104 -43 -230 -168q-134 -133 -226 -172q-71 -35 -143 -12t-100 98 q-26 68 -27 141.5z" />
<glyph unicode="&#x2014;" horiz-adv-x="2135" d="M35 286.5q-1 73.5 49 119.5q71 61 146 75q77 14 152 -25.5t56 -105.5q-3 -16 -42 -69q-37 -53 -85 -37q-25 10 -22.5 22.5t16.5 31.5t11 26q-2 14 -27 25t-46 9q-44 -2 -68.5 -37.5t-16.5 -68.5q11 -43 69 -81t111 -42q58 -2 177 25q11 2 108 45l100 49q14 6 45.5 15 t45.5 16l242 102q230 96 336 121l45 8q82 6 153 4q79 0 169 -20.5t138 -53.5q129 -90 158 -161q42 -104 21 -179q-10 -49 -79 -47q-25 8 -29.5 21.5t1 36t2.5 34.5q-3 16 -16.5 48t-13.5 36q-77 174 -307 185q-66 2 -147 -15q-208 -43 -460 -168q-269 -133 -451 -172 q-144 -35 -287.5 -12t-199.5 98q-53 68 -54 141.5z" />
<glyph unicode="&#x201a;" horiz-adv-x="1562" d="M23 440q8 49 61 47q16 -8 19 -21t-1 -35.5t-2 -35.5q2 -16 12.5 -48t10.5 -36q57 -174 229 -184q47 -2 107 14q154 43 340 168q199 133 334 172q106 35 212.5 12.5t147.5 -98.5q39 -68 40 -141.5t-36 -118.5q-51 -59 -108 -74q-57 -16 -112.5 24t-41.5 108q2 14 31 67 q31 51 63 39q18 -12 16 -24.5t-12 -32t-8 -25.5q2 -12 21.5 -24.5t31.5 -10.5q33 2 51.5 38t12.5 69q-8 43 -51 81t-82 42q-43 2 -131 -25q-29 -10 -80 -45q-8 -6 -22.5 -16.5t-27 -18.5t-24.5 -14q-10 -6 -33.5 -15.5t-34.5 -15.5q-31 -16 -178 -102q-170 -96 -250 -121 l-32 -8q-61 -6 -113 -4q-59 0 -127 21.5t-100 53.5q-96 90 -117 160q-31 104 -16 178z" />
<glyph unicode="&#x202f;" horiz-adv-x="362" />
<glyph unicode="&#x205f;" horiz-adv-x="452" />
<glyph unicode="&#x25fc;" horiz-adv-x="1310" d="M0 0v1311h1311v-1311h-1311z" />
</font>
</defs>
</svg>
